<?xml version="1.0" encoding="UTF-8" standalone="no"?><!-- Generator: Gravit.io --><svg xmlns="http://www.w3.org/2000/svg" xmlns:xlink="http://www.w3.org/1999/xlink" style="isolation:isolate" viewBox="0 0 440 380" width="440pt" height="380pt"><defs><clipPath id="_clipPath_7FomVJ4fA6ZM30CddGtAWv9WaATnIB0b"><rect width="440" height="380"/></clipPath></defs><g clip-path="url(#_clipPath_7FomVJ4fA6ZM30CddGtAWv9WaATnIB0b)"><path d=" M 134.486 172.849 C 133.234 168.53 133.323 165.114 132.305 162.484 C 127.358 162.697 119.999 167.526 111.974 168.29 C 111.288 168.002 110.759 167.391 110.375 166.437 C 110.577 159.387 111.627 155.087 113.515 153.516 C 112.274 146.018 114.843 139.517 121.209 133.993 C 119.859 128.003 119.893 123.834 121.3 121.468 C 121.077 115.883 121.564 111.953 122.75 109.657 C 120.792 105.98 122.359 98.343 122.324 85.224 C 122.324 84.963 122.51 84.651 122.741 84.528 C 123.373 84.191 124.516 84.383 125.741 85.306 C 134.844 114.822 135.638 124.714 138.808 132.192 C 140.807 132.527 143.549 130.144 147.568 129.486 C 142.151 140.734 137.794 155.195 134.486 172.849 Z " fill="rgb(149,212,251)" vector-effect="non-scaling-stroke" stroke-width="3" stroke="rgb(0,0,0)" stroke-linejoin="miter" stroke-linecap="square" stroke-miterlimit="3"/><path d=" M 301.157 141.169 C 304.426 150.982 306.04 161.94 307.974 174.536 C 308.53 173.3 308.918 170.98 309.75 167.834 C 312.053 167.949 316.789 173.148 324.307 174.983 C 324.566 175.046 324.902 174.921 325.057 174.703 C 326.639 172.468 326.495 170.927 329.418 168.586 C 329.626 168.419 329.775 168.068 329.75 167.802 C 329.27 162.727 327.442 155.389 324.302 146.247 C 323.793 138.337 318.931 112.897 312.98 101.819 C 312.854 101.584 312.725 101.608 312.694 101.873 C 312.399 104.346 311.649 105.463 311.018 104.275 C 310.492 102.756 310.403 101.114 310.733 99.304 C 309.181 93.77 308.086 86.548 306.629 87.022 C 304.817 92.113 304.49 110.188 301.157 141.169 Z " fill="rgb(149,212,251)" vector-effect="non-scaling-stroke" stroke-width="3" stroke="rgb(0,0,0)" stroke-linejoin="miter" stroke-linecap="square" stroke-miterlimit="3"/><mask id="_mask_P8WcKGU035g6RFqpWayx693rpROlaUvY"><path d=" M 146.034 122.752 C 142.74 111.72 139.967 99.275 147.354 89.369 C 153.451 80.479 172.992 80.004 184.386 91.143 C 198.542 88.882 229.184 84.959 255.116 91.006 C 265.277 82.709 281.692 77.967 291.384 89.651 C 298.888 98.287 294.198 116.914 291.541 124.195 C 342.227 189.203 323.275 252.211 293.26 275.41 C 257.982 301.148 176.639 300.132 143.289 274.394 C 121.456 256.557 97.016 192.437 146.034 122.752 Z " fill="white" stroke="none"/></mask><path d=" M 146.034 122.752 C 142.74 111.72 139.967 99.275 147.354 89.369 C 153.451 80.479 172.992 80.004 184.386 91.143 C 198.542 88.882 229.184 84.959 255.116 91.006 C 265.277 82.709 281.692 77.967 291.384 89.651 C 298.888 98.287 294.198 116.914 291.541 124.195 C 342.227 189.203 323.275 252.211 293.26 275.41 C 257.982 301.148 176.639 300.132 143.289 274.394 C 121.456 256.557 97.016 192.437 146.034 122.752 Z " fill="rgb(253,128,128)"/><path d=" M 146.034 122.752 C 142.74 111.72 139.967 99.275 147.354 89.369 C 153.451 80.479 172.992 80.004 184.386 91.143 C 198.542 88.882 229.184 84.959 255.116 91.006 C 265.277 82.709 281.692 77.967 291.384 89.651 C 298.888 98.287 294.198 116.914 291.541 124.195 C 342.227 189.203 323.275 252.211 293.26 275.41 C 257.982 301.148 176.639 300.132 143.289 274.394 C 121.456 256.557 97.016 192.437 146.034 122.752 Z " fill="rgb(253,128,128)" mask="url(#_mask_P8WcKGU035g6RFqpWayx693rpROlaUvY)" vector-effect="non-scaling-stroke" stroke-width="6" stroke="rgb(0,0,0)" stroke-linejoin="miter" stroke-linecap="square" stroke-miterlimit="3"/><path d=" M 131.787 152.838 C 128.516 153.458 125.163 152.779 120.458 153.063 C 124.634 153.202 128.301 153.372 131.65 153.687 C 131.69 153.261 131.657 153.139 131.787 152.838 Z " fill="rgb(0,0,0)"/><path d=" M 133.403 144.031 C 131.159 142.624 129.031 140.405 125.869 138.003 C 128.634 140.377 131.057 142.492 133.252 144.523 C 133.324 144.281 133.285 144.148 133.403 144.031 Z " fill="rgb(0,0,0)"/><path d=" M 135.266 139.56 C 133.013 132.343 130.283 126.113 126.833 116.19 C 130.029 124.702 132.853 132.141 135.485 138.813 C 135.37 139.217 135.344 139.091 135.266 139.56 Z " fill="rgb(0,0,0)"/><path d=" M 309.464 152.677 C 312.545 152.339 315.524 150.363 319.903 149.143 C 316.05 150.697 312.671 152.121 309.599 153.614 C 309.525 153.113 309.573 153.135 309.464 152.677 Z " fill="rgb(0,0,0)"/><path d=" M 306.174 140.173 C 307.332 130.116 309.26 118.658 311.341 105.355 C 311.453 104.556 311.149 105.761 311.263 104.93 C 309.287 117.849 307.53 129.159 305.856 139.369 C 306.025 139.806 306.034 139.629 306.174 140.173 Z " fill="rgb(0,0,0)"/><path d=" M 124.083 238.658 C 186.825 302.527 257.053 287.181 317.833 235.838 C 311.371 264.733 272.497 297.016 216.573 293.588 C 162.571 290.566 131.31 273.734 124.083 238.658 Z " fill="rgb(0,0,0)" fill-opacity="0.2"/><defs><filter id="QYAwiJb2yz6E3vPTdfOcg6yDugQr2VAj" x="-200%" y="-200%" width="400%" height="400%" filterUnits="objectBoundingBox" color-interpolation-filters="sRGB"><feGaussianBlur xmlns="http://www.w3.org/2000/svg" in="SourceGraphic" stdDeviation="0"/><feOffset xmlns="http://www.w3.org/2000/svg" dx="-0.5" dy="-0.5" result="pf_100_offsetBlur"/><feFlood xmlns="http://www.w3.org/2000/svg" flood-color="#000000" flood-opacity="0.25"/><feComposite xmlns="http://www.w3.org/2000/svg" in2="pf_100_offsetBlur" operator="in" result="pf_100_dropShadow"/><feBlend xmlns="http://www.w3.org/2000/svg" in="SourceGraphic" in2="pf_100_dropShadow" mode="normal"/></filter></defs><g filter="url(#QYAwiJb2yz6E3vPTdfOcg6yDugQr2VAj)"><mask id="_mask_UAjz4XZDWf2QaydDcriejcSyZFS9Rp9i"><circle vector-effect="non-scaling-stroke" cx="164.10499320500927" cy="103.8582123567115" r="16.104993205009293" fill="white" stroke="none"/></mask><circle vector-effect="non-scaling-stroke" cx="164.10499320500927" cy="103.8582123567115" r="16.104993205009293" fill="rgb(235,235,235)"/><circle vector-effect="non-scaling-stroke" cx="164.10499320500927" cy="103.8582123567115" r="16.104993205009293" fill="rgb(235,235,235)" mask="url(#_mask_UAjz4XZDWf2QaydDcriejcSyZFS9Rp9i)" stroke-width="6" stroke="rgb(0,0,0)" stroke-linejoin="miter" stroke-linecap="square" stroke-miterlimit="3"/></g><defs><filter id="IXpxiaZNLU9kZsYim7z3lqWTFq4w5k90" x="-200%" y="-200%" width="400%" height="400%" filterUnits="objectBoundingBox" color-interpolation-filters="sRGB"><feGaussianBlur xmlns="http://www.w3.org/2000/svg" in="SourceGraphic" stdDeviation="0"/><feOffset xmlns="http://www.w3.org/2000/svg" dx="0.5" dy="-0.5" result="pf_100_offsetBlur"/><feFlood xmlns="http://www.w3.org/2000/svg" flood-color="#000000" flood-opacity="0.25"/><feComposite xmlns="http://www.w3.org/2000/svg" in2="pf_100_offsetBlur" operator="in" result="pf_100_dropShadow"/><feBlend xmlns="http://www.w3.org/2000/svg" in="SourceGraphic" in2="pf_100_dropShadow" mode="normal"/></filter></defs><g filter="url(#IXpxiaZNLU9kZsYim7z3lqWTFq4w5k90)"><mask id="_mask_qVjO428yIhl9fktQMtNu7AKmbfyVsjWD"><circle vector-effect="non-scaling-stroke" cx="275.2143682050092" cy="103.81819876673009" r="16.104993205009293" fill="white" stroke="none"/></mask><circle vector-effect="non-scaling-stroke" cx="275.2143682050092" cy="103.81819876673009" r="16.104993205009293" fill="rgb(235,235,235)"/><circle vector-effect="non-scaling-stroke" cx="275.2143682050092" cy="103.81819876673009" r="16.104993205009293" fill="rgb(235,235,235)" mask="url(#_mask_qVjO428yIhl9fktQMtNu7AKmbfyVsjWD)" stroke-width="6" stroke="rgb(0,0,0)" stroke-linejoin="miter" stroke-linecap="square" stroke-miterlimit="3"/></g><circle vector-effect="non-scaling-stroke" cx="165.2447401838531" cy="104.77538503147854" r="10.619740183853366" fill="rgb(0,0,0)"/><circle vector-effect="non-scaling-stroke" cx="275.04161518385297" cy="104.7353714414971" r="10.619740183853366" fill="rgb(0,0,0)"/><path d=" M 171.291 112.279 C 170.961 111.923 171.19 111.172 171.802 110.602 C 172.415 110.033 173.18 109.858 173.511 110.214 C 173.842 110.569 173.613 111.32 173 111.89 C 172.388 112.46 171.622 112.634 171.291 112.279 Z " fill="rgb(255,255,255)"/><path d=" M 267.616 111.155 C 267.902 110.763 268.683 110.846 269.358 111.34 C 270.033 111.834 270.349 112.554 270.062 112.945 C 269.775 113.337 268.994 113.254 268.319 112.76 C 267.644 112.266 267.329 111.547 267.616 111.155 Z " fill="rgb(255,255,255)"/><defs><filter id="L6kS38nuZBRaVzCHiwXSDgYkQQ3DHsDs" x="-200%" y="-200%" width="400%" height="400%" filterUnits="objectBoundingBox" color-interpolation-filters="sRGB"><feGaussianBlur xmlns="http://www.w3.org/2000/svg" in="SourceGraphic" stdDeviation="0"/><feOffset xmlns="http://www.w3.org/2000/svg" dx="1" dy="1" result="pf_100_offsetBlur"/><feFlood xmlns="http://www.w3.org/2000/svg" flood-color="#000000" flood-opacity="0.3"/><feComposite xmlns="http://www.w3.org/2000/svg" in2="pf_100_offsetBlur" operator="in" result="pf_100_dropShadow"/><feBlend xmlns="http://www.w3.org/2000/svg" in="SourceGraphic" in2="pf_100_dropShadow" mode="normal"/></filter></defs><g filter="url(#L6kS38nuZBRaVzCHiwXSDgYkQQ3DHsDs)"><path d=" M 214.049 189.955 C 211.976 186.195 212.662 184.819 215.455 182.174 C 219.091 181.167 221.913 181.177 225.299 182.549 C 227.919 185.216 228.314 187.017 226.424 190.424 C 227.58 193.898 227.152 194.782 225.486 197.267 C 222.861 199.424 217.611 198.955 214.424 196.892 C 212.494 193.981 212.628 192.709 214.049 189.955 Z " fill="rgb(68,68,68)" vector-effect="non-scaling-stroke" stroke-width="1" stroke="rgb(0,0,0)" stroke-linejoin="miter" stroke-linecap="square" stroke-miterlimit="3"/></g><path d=" M 213.861 189.33 C 218.054 192.049 221.647 192.262 226.517 189.939" fill="none" vector-effect="non-scaling-stroke" stroke-width="1" stroke="rgb(0,0,0)" stroke-linejoin="miter" stroke-linecap="square" stroke-miterlimit="3"/></g></svg>