<?xml version="1.0" encoding="UTF-8" standalone="no"?><!-- Generator: Gravit.io --><svg xmlns="http://www.w3.org/2000/svg" xmlns:xlink="http://www.w3.org/1999/xlink" style="isolation:isolate" viewBox="0 0 440 380" width="440pt" height="380pt"><defs><clipPath id="_clipPath_Tkjq2uGeBAOOgUYEO6nFaI7I67KmPPRT"><rect width="440" height="380"/></clipPath></defs><g clip-path="url(#_clipPath_Tkjq2uGeBAOOgUYEO6nFaI7I67KmPPRT)"><g style="isolation:isolate"><path d=" M 130.485 172.849 C 128.85 168.7 128.966 165.42 127.637 162.894 C 121.177 163.098 111.567 167.736 101.089 168.47 C 100.193 168.194 99.501 167.607 99 166.69 C 99.264 159.919 100.635 155.789 103.1 154.281 C 101.48 147.079 104.834 140.835 113.147 135.529 C 111.384 129.776 111.428 125.772 113.266 123.499 C 112.975 118.135 113.611 114.36 115.16 112.155 C 112.603 108.624 114.649 101.288 114.604 88.763 C 114.603 88.471 114.824 88.146 115.096 88.04 C 115.973 87.696 117.466 87.88 119.065 88.766 C 130.952 117.115 131.989 126.617 136.129 133.799 C 138.739 134.121 142.32 131.832 147.568 131.2 C 140.494 142.004 134.804 155.893 130.485 172.849 Z " fill="rgb(149,212,251)" vector-effect="non-scaling-stroke" stroke-width="3" stroke="rgb(0,0,0)" stroke-linejoin="miter" stroke-linecap="square" stroke-miterlimit="3"/><path d=" M 301.157 142.084 C 305.827 151.632 308.134 162.293 310.897 174.549 C 311.691 173.346 312.246 171.089 313.434 168.028 C 316.725 168.14 323.492 173.199 334.343 175.002 C 334.654 175.053 335.09 174.918 335.317 174.7 C 337.567 172.537 337.36 171.038 341.575 168.739 C 341.852 168.588 342.041 168.212 341.998 167.9 C 341.325 163.059 338.713 155.92 334.227 147.025 C 333.499 139.329 326.553 114.577 318.076 103.831 C 317.881 103.584 317.679 103.635 317.624 103.946 C 317.22 106.257 316.149 107.343 315.246 106.187 C 314.495 104.71 314.368 103.112 314.839 101.351 C 312.622 95.967 311.057 88.94 308.976 89.401 C 306.386 94.354 305.919 111.941 301.157 142.084 Z " fill="rgb(149,212,251)" vector-effect="non-scaling-stroke" stroke-width="3" stroke="rgb(0,0,0)" stroke-linejoin="miter" stroke-linecap="square" stroke-miterlimit="3"/><mask id="_mask_g3TxkSfEuYb3MxmeLW3buyt9kVAvoOQ7"><path d=" M 146.034 122.752 C 142.74 111.72 139.967 99.275 147.354 89.369 C 153.451 80.479 172.992 80.004 184.386 91.143 C 198.542 88.882 229.184 84.959 255.116 91.006 C 265.277 82.709 281.692 77.967 291.384 89.651 C 298.888 98.287 294.198 116.914 291.541 124.195 C 342.227 189.203 323.275 252.211 293.26 275.41 C 257.982 301.148 176.639 300.132 143.289 274.394 C 121.456 256.557 97.016 192.437 146.034 122.752 Z " fill="white" stroke="none"/></mask><path d=" M 146.034 122.752 C 142.74 111.72 139.967 99.275 147.354 89.369 C 153.451 80.479 172.992 80.004 184.386 91.143 C 198.542 88.882 229.184 84.959 255.116 91.006 C 265.277 82.709 281.692 77.967 291.384 89.651 C 298.888 98.287 294.198 116.914 291.541 124.195 C 342.227 189.203 323.275 252.211 293.26 275.41 C 257.982 301.148 176.639 300.132 143.289 274.394 C 121.456 256.557 97.016 192.437 146.034 122.752 Z " fill="rgb(253,128,128)"/><path d=" M 146.034 122.752 C 142.74 111.72 139.967 99.275 147.354 89.369 C 153.451 80.479 172.992 80.004 184.386 91.143 C 198.542 88.882 229.184 84.959 255.116 91.006 C 265.277 82.709 281.692 77.967 291.384 89.651 C 298.888 98.287 294.198 116.914 291.541 124.195 C 342.227 189.203 323.275 252.211 293.26 275.41 C 257.982 301.148 176.639 300.132 143.289 274.394 C 121.456 256.557 97.016 192.437 146.034 122.752 Z " fill="rgb(253,128,128)" mask="url(#_mask_g3TxkSfEuYb3MxmeLW3buyt9kVAvoOQ7)" vector-effect="non-scaling-stroke" stroke-width="6" stroke="rgb(0,0,0)" stroke-linejoin="miter" stroke-linecap="square" stroke-miterlimit="3"/><path d=" M 126.96 153.629 C 122.689 154.224 118.311 153.572 112.167 153.845 C 117.62 153.978 122.409 154.142 126.781 154.444 C 126.834 154.035 126.791 153.918 126.96 153.629 Z " fill="rgb(0,0,0)"/><path d=" M 129.071 145.17 C 126.141 143.819 123.362 141.687 119.232 139.381 C 122.843 141.661 126.007 143.692 128.873 145.643 C 128.968 145.41 128.916 145.282 129.071 145.17 Z " fill="rgb(0,0,0)"/><path d=" M 131.504 140.876 C 128.561 133.944 124.997 127.96 120.492 118.43 C 124.665 126.605 128.352 133.75 131.79 140.158 C 131.639 140.546 131.605 140.426 131.504 140.876 Z " fill="rgb(0,0,0)"/><path d=" M 313.026 153.281 C 317.429 152.952 321.685 151.03 327.942 149.842 C 322.437 151.355 317.608 152.74 313.219 154.192 C 313.113 153.705 313.182 153.727 313.026 153.281 Z " fill="rgb(0,0,0)"/><path d=" M 308.325 141.115 C 309.98 131.33 312.735 120.182 315.708 107.239 C 315.868 106.461 315.434 107.633 315.596 106.825 C 312.773 119.394 310.263 130.399 307.871 140.333 C 308.113 140.758 308.125 140.586 308.325 141.115 Z " fill="rgb(0,0,0)"/><path d=" M 124.083 238.658 C 186.825 302.527 257.053 287.181 317.833 235.838 C 311.371 264.733 272.497 297.016 216.573 293.588 C 162.571 290.566 131.31 273.734 124.083 238.658 Z " fill="rgb(0,0,0)" fill-opacity="0.2"/></g><g style="isolation:isolate"/><g style="isolation:isolate"><defs><filter id="VpVEGJzZGPUzeZIRtPIR8WA3bdpDMt2s" x="-200%" y="-200%" width="400%" height="400%" filterUnits="objectBoundingBox" color-interpolation-filters="sRGB"><feGaussianBlur xmlns="http://www.w3.org/2000/svg" in="SourceGraphic" stdDeviation="0"/><feOffset xmlns="http://www.w3.org/2000/svg" dx="-0.5" dy="-0.5" result="pf_100_offsetBlur"/><feFlood xmlns="http://www.w3.org/2000/svg" flood-color="#000000" flood-opacity="0.25"/><feComposite xmlns="http://www.w3.org/2000/svg" in2="pf_100_offsetBlur" operator="in" result="pf_100_dropShadow"/><feBlend xmlns="http://www.w3.org/2000/svg" in="SourceGraphic" in2="pf_100_dropShadow" mode="normal"/></filter></defs><g filter="url(#VpVEGJzZGPUzeZIRtPIR8WA3bdpDMt2s)"><mask id="_mask_YdpbnqACvjNlLxl3vy0CpPCHycU4dGce"><circle vector-effect="non-scaling-stroke" cx="164.10499320500927" cy="103.8582123567115" r="16.104993205009293" fill="white" stroke="none"/></mask><circle vector-effect="non-scaling-stroke" cx="164.10499320500927" cy="103.8582123567115" r="16.104993205009293" fill="rgb(235,235,235)"/><circle vector-effect="non-scaling-stroke" cx="164.10499320500927" cy="103.8582123567115" r="16.104993205009293" fill="rgb(235,235,235)" mask="url(#_mask_YdpbnqACvjNlLxl3vy0CpPCHycU4dGce)" stroke-width="6" stroke="rgb(0,0,0)" stroke-linejoin="miter" stroke-linecap="square" stroke-miterlimit="3"/></g><defs><filter id="vaVYr4q8uNWcxVtwwRWh9FgbvBaZMS2i" x="-200%" y="-200%" width="400%" height="400%" filterUnits="objectBoundingBox" color-interpolation-filters="sRGB"><feGaussianBlur xmlns="http://www.w3.org/2000/svg" in="SourceGraphic" stdDeviation="0"/><feOffset xmlns="http://www.w3.org/2000/svg" dx="0.5" dy="-0.5" result="pf_100_offsetBlur"/><feFlood xmlns="http://www.w3.org/2000/svg" flood-color="#000000" flood-opacity="0.25"/><feComposite xmlns="http://www.w3.org/2000/svg" in2="pf_100_offsetBlur" operator="in" result="pf_100_dropShadow"/><feBlend xmlns="http://www.w3.org/2000/svg" in="SourceGraphic" in2="pf_100_dropShadow" mode="normal"/></filter></defs><g filter="url(#vaVYr4q8uNWcxVtwwRWh9FgbvBaZMS2i)"><mask id="_mask_prkgcoRRVg0ssiwYooDkkU4DP8u00I3Q"><circle vector-effect="non-scaling-stroke" cx="275.2143682050092" cy="103.81819876673009" r="16.104993205009293" fill="white" stroke="none"/></mask><circle vector-effect="non-scaling-stroke" cx="275.2143682050092" cy="103.81819876673009" r="16.104993205009293" fill="rgb(235,235,235)"/><circle vector-effect="non-scaling-stroke" cx="275.2143682050092" cy="103.81819876673009" r="16.104993205009293" fill="rgb(235,235,235)" mask="url(#_mask_prkgcoRRVg0ssiwYooDkkU4DP8u00I3Q)" stroke-width="6" stroke="rgb(0,0,0)" stroke-linejoin="miter" stroke-linecap="square" stroke-miterlimit="3"/></g><circle vector-effect="non-scaling-stroke" cx="165.2447401838531" cy="104.77538503147854" r="10.619740183853366" fill="rgb(0,0,0)"/><circle vector-effect="non-scaling-stroke" cx="275.04161518385297" cy="104.7353714414971" r="10.619740183853366" fill="rgb(0,0,0)"/><path d=" M 171.291 112.279 C 170.961 111.923 171.19 111.172 171.802 110.602 C 172.415 110.033 173.18 109.858 173.511 110.214 C 173.842 110.569 173.613 111.32 173 111.89 C 172.388 112.46 171.622 112.634 171.291 112.279 Z " fill="rgb(255,255,255)"/><path d=" M 267.616 111.155 C 267.902 110.763 268.683 110.846 269.358 111.34 C 270.033 111.834 270.349 112.554 270.062 112.945 C 269.775 113.337 268.994 113.254 268.319 112.76 C 267.644 112.266 267.329 111.547 267.616 111.155 Z " fill="rgb(255,255,255)"/><defs><filter id="QBkMybTEFklo0YVR42uVvtfxkqZDh5GL" x="-200%" y="-200%" width="400%" height="400%" filterUnits="objectBoundingBox" color-interpolation-filters="sRGB"><feGaussianBlur xmlns="http://www.w3.org/2000/svg" in="SourceGraphic" stdDeviation="0"/><feOffset xmlns="http://www.w3.org/2000/svg" dx="1" dy="1" result="pf_100_offsetBlur"/><feFlood xmlns="http://www.w3.org/2000/svg" flood-color="#000000" flood-opacity="0.3"/><feComposite xmlns="http://www.w3.org/2000/svg" in2="pf_100_offsetBlur" operator="in" result="pf_100_dropShadow"/><feBlend xmlns="http://www.w3.org/2000/svg" in="SourceGraphic" in2="pf_100_dropShadow" mode="normal"/></filter></defs><g filter="url(#QBkMybTEFklo0YVR42uVvtfxkqZDh5GL)"><path d=" M 214.049 189.955 C 211.976 186.195 212.662 184.819 215.455 182.174 C 219.091 181.167 221.913 181.177 225.299 182.549 C 227.919 185.216 228.314 187.017 226.424 190.424 C 227.58 193.898 227.152 194.782 225.486 197.267 C 222.861 199.424 217.611 198.955 214.424 196.892 C 212.494 193.981 212.628 192.709 214.049 189.955 Z " fill="rgb(68,68,68)" vector-effect="non-scaling-stroke" stroke-width="1" stroke="rgb(0,0,0)" stroke-linejoin="miter" stroke-linecap="square" stroke-miterlimit="3"/></g><path d=" M 213.861 189.33 C 218.054 192.049 221.647 192.262 226.517 189.939" fill="none" vector-effect="non-scaling-stroke" stroke-width="1" stroke="rgb(0,0,0)" stroke-linejoin="miter" stroke-linecap="square" stroke-miterlimit="3"/></g></g></svg>