<?xml version="1.0" encoding="UTF-8" standalone="no"?><!-- Generator: Gravit.io --><svg xmlns="http://www.w3.org/2000/svg" xmlns:xlink="http://www.w3.org/1999/xlink" style="isolation:isolate" viewBox="0 0 440 380" width="440pt" height="380pt"><defs><clipPath id="_clipPath_xtjYaKGfNoNvbUZysV9lphuKQSk0Fomz"><rect width="440" height="380"/></clipPath></defs><g clip-path="url(#_clipPath_xtjYaKGfNoNvbUZysV9lphuKQSk0Fomz)"><g style="isolation:isolate"><path d=" M 69.496 122.188 C 66.749 116.354 67.749 111.979 65.325 108.371 C 50.737 107.556 28.057 112.151 4.301 111.369 C 2.346 110.847 0.922 109.944 0 108.632 C 2.118 99.605 6.136 94.303 12.024 92.697 C 9.999 82.776 18.955 74.975 38.865 69.267 C 36.192 61.262 37.193 55.905 41.841 53.169 C 42.394 45.935 44.677 40.984 48.66 38.291 C 43.698 33.129 49.955 23.646 52.642 7.062 C 52.724 6.557 53.201 6.085 53.706 6.008 C 55.998 5.658 59.317 6.157 62.718 7.614 C 83.095 47.597 83.291 60.501 90.993 70.822 C 96.798 71.692 105.374 69.229 117.333 69.267 C 98.974 82.549 83.038 100.199 69.496 122.188 Z " fill="rgb(149,212,251)" vector-effect="non-scaling-stroke" stroke-width="3" stroke="rgb(0,0,0)" stroke-linejoin="miter" stroke-linecap="square" stroke-miterlimit="3"/><path d=" M 337.695 100.203 C 348.444 112.785 353.196 126.279 358.937 141.813 C 361.03 140.492 362.624 137.833 365.874 134.313 C 374.069 135.078 390.468 142.563 417.762 146.905 C 418.307 146.992 419.168 146.903 419.684 146.706 C 425.624 144.438 425.249 142.563 436.267 140.497 C 436.809 140.395 437.161 139.873 437.052 139.332 C 435.884 133.549 430.04 124.309 419.687 112.563 C 418.593 103 403.593 71.367 383.431 56.568 C 382.986 56.242 382.442 56.386 382.218 56.89 C 381.101 59.399 378.328 60.525 376.187 58.938 C 374.453 56.985 374.285 55.005 375.624 52.938 C 370.601 45.922 367.357 37.02 362.124 37.188 C 355.203 42.758 352.39 64.203 337.695 100.203 Z " fill="rgb(149,212,251)" vector-effect="non-scaling-stroke" stroke-width="3" stroke="rgb(0,0,0)" stroke-linejoin="miter" stroke-linecap="square" stroke-miterlimit="3"/><mask id="_mask_wHE9gLLJZqIrwIqJAfrAEdGiFcEf77vq"><ellipse vector-effect="non-scaling-stroke" cx="211.16614843791106" cy="194.9375000000001" rx="164.49999999999994" ry="158.75000000000006" fill="white" stroke="none"/></mask><ellipse vector-effect="non-scaling-stroke" cx="211.16614843791106" cy="194.9375000000001" rx="164.49999999999994" ry="158.75000000000006" fill="rgb(253,128,128)"/><ellipse vector-effect="non-scaling-stroke" cx="211.16614843791106" cy="194.9375000000001" rx="164.49999999999994" ry="158.75000000000006" fill="rgb(253,128,128)" mask="url(#_mask_wHE9gLLJZqIrwIqJAfrAEdGiFcEf77vq)" stroke-width="6" stroke="rgb(0,0,0)" stroke-linejoin="miter" stroke-linecap="square" stroke-miterlimit="3"/><path d=" M 65.888 95.844 C 56.138 95.922 46.429 94.31 32.536 93.641 C 44.782 94.738 55.526 95.764 65.302 96.906 C 65.513 96.367 65.442 96.203 65.888 95.844 Z " fill="rgb(0,0,0)"/><path d=" M 72.544 84.867 C 66.251 82.563 60.476 79.239 51.698 75.453 C 59.313 79.116 65.979 82.371 71.993 85.467 C 72.259 85.171 72.17 84.991 72.544 84.867 Z " fill="rgb(0,0,0)"/><path d=" M 78.989 79.523 C 73.925 69.741 67.247 61.123 59.25 47.596 C 66.806 59.252 73.497 69.446 79.795 78.61 C 79.367 79.105 79.317 78.937 78.989 79.523 Z " fill="rgb(0,0,0)"/><path d=" M 366.239 116.178 C 377.247 116.615 388.039 115.073 403.751 114.813 C 389.884 115.615 377.714 116.389 366.635 117.33 C 366.416 116.714 366.586 116.753 366.239 116.178 Z " fill="rgb(0,0,0)"/><path d=" M 355.657 100.385 C 360.7 88.719 368.614 75.594 377.239 60.313 C 377.711 59.391 376.52 60.744 377 59.785 C 368.783 74.637 361.494 87.633 354.598 99.339 C 355.161 99.907 355.208 99.698 355.657 100.385 Z " fill="rgb(0,0,0)"/><path d=" M 62.444 256.632 C 149.304 313.306 265.449 322.534 348.444 281.965 C 323.732 319.78 261.016 356.022 199.958 350.938 C 135.445 350.512 82.086 305.112 62.444 256.632 Z " fill="rgb(0,0,0)" fill-opacity="0.2"/><path d=" M 111.958 69.313 C 95.447 81.934 79.135 99.288 67.802 118.156 C 71.552 107.188 78.191 98.451 86.27 88.156 C 92.672 81.995 101.177 74.563 111.958 69.313 Z " fill="rgb(0,0,0)" fill-opacity="0.2"/><path d=" M 364.833 138.281 C 355.767 119.459 350.817 112.008 338.395 94.687 C 346.645 101.625 348.708 104.25 354.895 113.156 C 359.208 121.125 361.927 126.375 364.833 138.281 Z " fill="rgb(0,0,0)" fill-opacity="0.2"/></g><g style="isolation:isolate"><path d=" M 121.083 160.391 C 119.786 164.93 117.593 168.175 114.473 169.344 C 111.668 171.147 103.193 171.298 92.114 170.891 C 103.915 171.855 112.081 174.38 113.77 175.25 C 116.204 178.559 118.183 181.866 119.395 187.953 C 117.561 176.67 118.133 167.493 121.083 160.391 Z " fill="rgb(194,229,251)" vector-effect="non-scaling-stroke" stroke-width="1" stroke="rgb(0,0,0)" stroke-linejoin="miter" stroke-linecap="square" stroke-miterlimit="3"/><path d=" M 201.687 248.825 C 206.216 250.158 209.442 252.378 210.585 255.507 C 212.366 258.328 212.447 266.803 211.948 277.879 C 213.009 266.086 215.602 257.941 216.485 256.259 C 219.814 253.852 223.137 251.901 229.234 250.739 C 217.937 252.481 208.764 251.833 201.687 248.825 Z " fill="rgb(194,229,251)" vector-effect="non-scaling-stroke" stroke-width="1" stroke="rgb(0,0,0)" stroke-linejoin="miter" stroke-linecap="square" stroke-miterlimit="3"/><path d=" M 285.279 256.228 C 289.7 254.569 293.612 254.402 296.408 256.214 C 299.527 257.396 304.689 264.119 310.953 273.266 C 304.707 263.207 301.88 255.141 301.574 253.266 C 302.785 249.341 304.266 245.783 308.438 241.187 C 300.46 249.374 292.743 254.374 285.279 256.228 Z " fill="rgb(194,229,251)" vector-effect="non-scaling-stroke" stroke-width="1" stroke="rgb(0,0,0)" stroke-linejoin="miter" stroke-linecap="square" stroke-miterlimit="3"/><path d=" M 357.149 253.271 C 360.386 246.714 366.241 240.619 372.192 239.569 C 377.685 237.489 392.063 240.904 412.336 244.061 C 390.843 239.898 377.591 234.991 373.878 231.778 C 369.994 228.04 366.525 221.508 365.446 212.038 C 366.688 229.496 363.906 243.223 357.149 253.271 Z " fill="rgb(194,229,251)" vector-effect="non-scaling-stroke" stroke-width="1" stroke="rgb(0,0,0)" stroke-linejoin="miter" stroke-linecap="square" stroke-miterlimit="3"/><path d=" M 250.185 336.838 C 255.018 336.363 259.224 337.535 262.121 340.735 C 265.4 343.279 270.561 353.32 276.768 366.716 C 270.632 352.211 268.05 341.347 267.827 338.944 C 269.346 334.568 271.133 330.735 275.865 326.579 C 266.851 333.791 258.293 337.195 250.185 336.838 Z " fill="rgb(194,229,251)" vector-effect="non-scaling-stroke" stroke-width="1" stroke="rgb(0,0,0)" stroke-linejoin="miter" stroke-linecap="square" stroke-miterlimit="3"/><path d=" M 325.217 292.98 C 329.947 288.821 334.749 286.762 339.094 287.701 C 343.544 287.702 353.163 293.647 365.303 302.099 C 352.755 292.502 345.413 283.775 344.145 281.581 C 343.801 276.111 343.966 270.972 346.998 263.266 C 340.916 277.252 333.652 287.138 325.217 292.98 Z " fill="rgb(194,229,251)" vector-effect="non-scaling-stroke" stroke-width="1" stroke="rgb(0,0,0)" stroke-linejoin="miter" stroke-linecap="square" stroke-miterlimit="3"/><path d=" M 234.368 290.621 C 239.089 290.562 242.826 291.733 244.84 294.386 C 247.373 296.557 249.946 304.633 252.732 315.364 C 250.273 303.782 249.958 296.687 251.177 293.125 C 252.677 290.187 255.774 287.243 261.258 284.337 C 250.975 289.329 242.018 291.411 234.368 290.621 Z " fill="rgb(194,229,251)" vector-effect="non-scaling-stroke" stroke-width="1" stroke="rgb(0,0,0)" stroke-linejoin="miter" stroke-linecap="square" stroke-miterlimit="3"/><path d=" M 191.773 331.922 C 196.246 333.434 199.382 335.779 200.401 338.951 C 202.069 341.839 201.816 350.311 200.881 361.358 C 202.406 349.617 205.318 341.581 206.267 339.935 C 209.688 337.661 213.086 335.842 219.224 334.921 C 207.866 336.216 198.726 335.207 191.773 331.922 Z " fill="rgb(194,229,251)" vector-effect="non-scaling-stroke" stroke-width="1" stroke="rgb(0,0,0)" stroke-linejoin="miter" stroke-linecap="square" stroke-miterlimit="3"/><path d=" M 154.247 339.503 C 158.441 341.964 161.16 345.401 161.627 349.727 C 162.79 353.74 161.076 364.996 158.24 379.612 C 161.784 364.131 166.07 353.722 167.3 351.625 C 171.099 348.941 174.796 346.859 181.068 346.249 C 169.534 346.834 160.606 344.574 154.247 339.503 Z " fill="rgb(194,229,251)" vector-effect="non-scaling-stroke" stroke-width="1" stroke="rgb(0,0,0)" stroke-linejoin="miter" stroke-linecap="square" stroke-miterlimit="3"/><path d=" M 126.055 229.383 C 129.75 232.322 131.904 235.592 131.787 238.922 C 132.376 242.205 129.263 250.089 124.635 260.163 C 130.054 249.636 135.52 243.064 136.971 241.838 C 140.961 240.86 144.774 240.301 150.86 241.518 C 139.737 238.883 131.482 234.832 126.055 229.383 Z " fill="rgb(194,229,251)" vector-effect="non-scaling-stroke" stroke-width="1" stroke="rgb(0,0,0)" stroke-linejoin="miter" stroke-linecap="square" stroke-miterlimit="3"/><path d=" M 146.138 276.851 C 149.917 279.681 152.166 282.886 152.146 286.218 C 152.83 289.482 149.949 297.453 145.618 307.659 C 150.727 296.978 155.998 290.249 157.413 288.981 C 161.372 287.887 165.167 287.217 171.287 288.255 C 160.091 285.946 151.721 282.139 146.138 276.851 Z " fill="rgb(194,229,251)" vector-effect="non-scaling-stroke" stroke-width="1" stroke="rgb(0,0,0)" stroke-linejoin="miter" stroke-linecap="square" stroke-miterlimit="3"/><path d=" M 111.59 311.327 C 115.597 313.823 118.112 316.825 118.376 320.147 C 119.337 323.341 117.148 331.529 113.704 342.067 C 117.882 330.989 122.559 323.834 123.86 322.449 C 127.712 321.021 131.436 320.03 137.621 320.541 C 126.27 319.197 117.605 316.119 111.59 311.327 Z " fill="rgb(194,229,251)" vector-effect="non-scaling-stroke" stroke-width="1" stroke="rgb(0,0,0)" stroke-linejoin="miter" stroke-linecap="square" stroke-miterlimit="3"/><path d=" M 76.998 283.265 C 79.759 287.094 80.949 290.825 79.934 293.999 C 79.613 297.319 74.483 304.066 67.302 312.512 C 75.367 303.844 82.407 298.996 84.136 298.208 C 88.242 298.347 92.064 298.841 97.594 301.659 C 87.599 296.112 80.748 289.979 76.998 283.265 Z " fill="rgb(194,229,251)" vector-effect="non-scaling-stroke" stroke-width="1" stroke="rgb(0,0,0)" stroke-linejoin="miter" stroke-linecap="square" stroke-miterlimit="3"/><path d=" M 55.67 161.764 C 54.127 167.515 51.269 171.703 47.011 173.356 C 43.223 175.783 31.489 176.495 16.114 176.671 C 32.52 177.146 43.976 179.796 46.366 180.777 C 49.923 184.76 52.849 188.768 54.868 196.297 C 51.697 182.317 51.979 170.818 55.67 161.764 Z " fill="rgb(194,229,251)" vector-effect="non-scaling-stroke" stroke-width="1" stroke="rgb(0,0,0)" stroke-linejoin="miter" stroke-linecap="square" stroke-miterlimit="3"/><path d=" M 73.675 226.335 C 75.393 231.867 75.321 236.671 72.903 239.966 C 71.233 243.703 62.634 249.549 50.984 256.572 C 63.748 249.636 73.829 246.745 76.148 246.503 C 80.869 248.266 85.122 250.332 90.455 255.768 C 80.993 245.415 75.417 235.608 73.675 226.335 Z " fill="rgb(194,229,251)" vector-effect="non-scaling-stroke" stroke-width="1" stroke="rgb(0,0,0)" stroke-linejoin="miter" stroke-linecap="square" stroke-miterlimit="3"/><path d=" M 65.395 122.703 C 60.806 126.927 58.836 131.424 52.008 130.387 C 45.542 130.318 28.302 124.029 6.024 115.112 C 29.524 125.218 44.983 134.346 48.031 136.633 C 51.534 142.289 52.983 145.937 52.809 153.852 C 56.243 143.413 58.655 132.556 65.395 122.703 Z " fill="rgb(194,229,251)" vector-effect="non-scaling-stroke" stroke-width="1" stroke="rgb(0,0,0)" stroke-linejoin="miter" stroke-linecap="square" stroke-miterlimit="3"/><path d=" M 292.458 195.641 C 291.833 200.406 291.403 202.391 292.645 206.094 C 292.485 208.287 296.995 211.109 306.145 214.531 C 295.493 211.091 292.177 211.813 288.427 212.281 C 285.216 212.938 284.053 214.513 278.02 222.969 C 283.392 210.312 288.215 201.213 292.458 195.641 Z " fill="rgb(194,229,251)" vector-effect="non-scaling-stroke" stroke-width="1" stroke="rgb(0,0,0)" stroke-linejoin="miter" stroke-linecap="square" stroke-miterlimit="3"/><path d=" M 297.895 165.594 C 297.942 172.969 297.624 180.104 296.911 186.969 C 299.277 181.955 300.975 179.059 301.973 178.25 C 303.973 176.014 309.936 172.368 319.833 167.281 C 308.625 171.568 304.106 173.035 302.395 172.063 C 300.555 171.664 299.746 170.038 297.895 165.594 Z " fill="rgb(194,229,251)" vector-effect="non-scaling-stroke" stroke-width="1" stroke="rgb(0,0,0)" stroke-linejoin="miter" stroke-linecap="square" stroke-miterlimit="3"/><path d=" M 189.145 119.609 C 197.111 117.932 201.239 117.5 203.63 115.109 C 206.083 112.295 208.625 96.461 211.223 67.578 C 209.361 90.937 209.475 106.988 211.505 115.672 C 213.052 119.328 216.981 120.741 224.161 124.672 C 213.52 121.484 201.858 119.807 189.145 119.609 Z " fill="rgb(194,229,251)" vector-effect="non-scaling-stroke" stroke-width="1" stroke="rgb(0,0,0)" stroke-linejoin="miter" stroke-linecap="square" stroke-miterlimit="3"/><path d=" M 173.52 219.063 C 178.191 222.281 179.531 222.979 179.52 224.688 C 179.656 226.51 178.104 228.737 173.708 233.313 C 179.469 228.548 180.937 227.135 183.083 227.125 C 186.187 226.979 189.567 227.734 199.958 231.063 C 189.452 227.083 180.649 223.093 173.52 219.063 Z " fill="rgb(194,229,251)" vector-effect="non-scaling-stroke" stroke-width="1" stroke="rgb(0,0,0)" stroke-linejoin="miter" stroke-linecap="square" stroke-miterlimit="3"/><path d=" M 301.333 295.688 C 293.568 301.37 284.828 306.38 275.083 310.688 C 282.749 308.185 287.759 307.195 290.083 307.688 C 292.52 308.208 296.804 314.991 304.52 327.563 C 297.952 313.682 295.208 306.552 295.708 304.125 C 295.583 301.333 296.932 299.678 301.333 295.688 Z " fill="rgb(194,229,251)" vector-effect="non-scaling-stroke" stroke-width="1" stroke="rgb(0,0,0)" stroke-linejoin="miter" stroke-linecap="square" stroke-miterlimit="3"/><path d=" M 362.5 161.021 C 365.494 168.016 366.181 177.036 364.5 188.021 C 367.483 180.238 370.077 175.415 372.25 173.521 C 376.509 170.85 396.811 161.86 433.125 146.521 C 396.661 160.044 376.296 167.054 372 167.521 C 369.759 167.67 366.602 165.514 362.5 161.021 Z " fill="rgb(194,229,251)" vector-effect="non-scaling-stroke" stroke-width="1" stroke="rgb(0,0,0)" stroke-linejoin="miter" stroke-linecap="square" stroke-miterlimit="3"/><path d=" M 107.208 84.938 C 102.87 88.835 99.869 94.449 98.177 101.75 C 97.33 96.526 96.288 92.995 95.02 91.125 C 93.531 88.681 87.353 82.441 76.458 72.375 C 86.672 80.803 93.932 85.625 98.208 86.813 C 100.126 87.075 103.136 86.46 107.208 84.938 Z " fill="rgb(194,229,251)" vector-effect="non-scaling-stroke" stroke-width="1" stroke="rgb(0,0,0)" stroke-linejoin="miter" stroke-linecap="square" stroke-miterlimit="3"/><path d=" M 175.249 72.021 C 180.941 70.329 189.576 69.839 201.124 70.521 C 194.476 69.287 190.861 68.422 190.249 67.896 C 187.616 64.322 185.636 59.592 184.249 53.646 C 183.837 61.513 183.347 65.961 182.749 66.958 C 182.426 68.192 179.946 69.899 175.249 72.021 Z " fill="rgb(194,229,251)" vector-effect="non-scaling-stroke" stroke-width="1" stroke="rgb(0,0,0)" stroke-linejoin="miter" stroke-linecap="square" stroke-miterlimit="3"/><path d=" M 137.138 56.25 C 144.145 53.034 151.569 48.919 160.927 47.375 C 154.133 47.511 150.69 47.521 148.973 46.25 C 145.077 42.956 138.814 28.341 130.2 0 C 138.501 28.74 142.324 44.813 141.638 48.188 C 141.629 50.539 140.139 53.236 137.138 56.25 Z " fill="rgb(194,229,251)" vector-effect="non-scaling-stroke" stroke-width="1" stroke="rgb(0,0,0)" stroke-linejoin="miter" stroke-linecap="square" stroke-miterlimit="3"/><path d=" M 203.354 54.458 C 209.741 54.029 217.001 54.601 225.104 56.146 C 219.764 54.42 216.836 52.805 216.291 51.271 C 214.95 49.555 213.898 43.127 213.104 31.958 C 211.749 42.41 210.509 48.733 209.354 50.896 C 208.071 52.287 206.091 53.494 203.354 54.458 Z " fill="rgb(194,229,251)" vector-effect="non-scaling-stroke" stroke-width="1" stroke="rgb(0,0,0)" stroke-linejoin="miter" stroke-linecap="square" stroke-miterlimit="3"/><path d=" M 221.77 92.813 C 229.411 93.952 237.921 96.337 247.27 99.938 C 241.453 96.307 238.401 93.692 238.083 92.063 C 236.954 90.201 238.089 82.399 241.458 68.625 C 236.435 81.689 234.145 87.172 230.958 89.625 C 228.591 91.813 225.914 92.463 221.77 92.813 Z " fill="rgb(194,229,251)" vector-effect="non-scaling-stroke" stroke-width="1" stroke="rgb(0,0,0)" stroke-linejoin="miter" stroke-linecap="square" stroke-miterlimit="3"/><path d=" M 249.708 61.688 C 256.632 62.672 263.527 64.505 270.333 67.125 C 265.953 63.941 263.713 61.389 263.583 59.438 C 263.409 53.918 267.232 41.428 275.02 21.938 C 266.802 41.942 261.249 53.702 258.333 57.188 C 255.812 60.167 253.568 61.087 249.708 61.688 Z " fill="rgb(194,229,251)" vector-effect="non-scaling-stroke" stroke-width="1" stroke="rgb(0,0,0)" stroke-linejoin="miter" stroke-linecap="square" stroke-miterlimit="3"/><path d=" M 298.208 85.375 C 303.791 91.021 308.051 96.843 310.958 102.813 C 309.728 98.114 309.488 95.061 310.208 93.625 C 310.408 90.884 319.083 80.539 336.52 65.281 C 318.835 77.801 310.22 87.092 306.27 87.813 C 304.524 88.224 301.846 87.421 298.208 85.375 Z " fill="rgb(194,229,251)" vector-effect="non-scaling-stroke" stroke-width="1" stroke="rgb(0,0,0)" stroke-linejoin="miter" stroke-linecap="square" stroke-miterlimit="3"/><path d=" M 314.458 131.813 C 316.653 139.397 317.288 149.657 316.333 162.563 C 320.116 151.533 320.934 147.688 324.208 146.063 C 328.274 144.092 340.534 142.227 360.958 140.438 C 342.218 141.617 329.853 141.502 323.833 140.063 C 320.774 138.829 317.659 136.089 314.458 131.813 Z " fill="rgb(194,229,251)" vector-effect="non-scaling-stroke" stroke-width="1" stroke="rgb(0,0,0)" stroke-linejoin="miter" stroke-linecap="square" stroke-miterlimit="3"/></g><g style="isolation:isolate"><path d=" M 174.755 185.188 C 166.106 171.828 165.684 150.313 183.614 146.094 C 195.005 143.984 213.989 152.422 222.005 164.023 C 227.911 173.094 228.402 185.322 219.473 198.688 C 199.884 189.722 184.988 185.232 174.755 185.188 Z " fill="rgb(57,53,53)"/><defs><filter id="p7BDzNSO3reiNSwwdzSC9kHQmGEpOGmF" x="-200%" y="-200%" width="400%" height="400%" filterUnits="objectBoundingBox" color-interpolation-filters="sRGB"><feGaussianBlur xmlns="http://www.w3.org/2000/svg" stdDeviation="0.38642481565551257"/></filter></defs><g filter="url(#p7BDzNSO3reiNSwwdzSC9kHQmGEpOGmF)"><path d=" M 178.716 183.365 C 171.753 172.609 171.413 155.286 185.849 151.89 C 195.02 150.191 210.305 156.985 216.758 166.325 C 221.514 173.628 221.909 183.474 214.72 194.234 C 198.949 187.016 186.955 183.401 178.716 183.365 Z " fill="rgb(0,0,0)"/></g><defs><filter id="C1rrLPwOQeZWzWeGLTJZhoTKfq7XIiAj" x="-200%" y="-200%" width="400%" height="400%" filterUnits="objectBoundingBox" color-interpolation-filters="sRGB"><feGaussianBlur xmlns="http://www.w3.org/2000/svg" in="SourceGraphic" stdDeviation="0"/><feOffset xmlns="http://www.w3.org/2000/svg" dx="-1" dy="-1" result="pf_100_offsetBlur"/><feFlood xmlns="http://www.w3.org/2000/svg" flood-color="#000000" flood-opacity="0.5"/><feComposite xmlns="http://www.w3.org/2000/svg" in2="pf_100_offsetBlur" operator="in" result="pf_100_dropShadow"/><feBlend xmlns="http://www.w3.org/2000/svg" in="SourceGraphic" in2="pf_100_dropShadow" mode="normal" result="_out_2J6fFrnKZ6hb9q3QQdbPGMvGpzdRIE09"/><feOffset xmlns="http://www.w3.org/2000/svg" in="_out_2J6fFrnKZ6hb9q3QQdbPGMvGpzdRIE09" dx="3" dy="4"/><feGaussianBlur xmlns="http://www.w3.org/2000/svg" stdDeviation="0" result="pf_101_offsetBlur"/><feComposite xmlns="http://www.w3.org/2000/svg" in="_out_2J6fFrnKZ6hb9q3QQdbPGMvGpzdRIE09" in2="pf_101_offsetBlur" result="pf_101_inverse" operator="out"/><feFlood xmlns="http://www.w3.org/2000/svg" flood-color="#000000" flood-opacity="0.25" result="pf_101_color"/><feComposite xmlns="http://www.w3.org/2000/svg" in="pf_101_color" in2="pf_101_inverse" operator="in" result="pf_101_shadow"/><feComposite xmlns="http://www.w3.org/2000/svg" in="pf_101_shadow" in2="_out_2J6fFrnKZ6hb9q3QQdbPGMvGpzdRIE09" operator="over" result="_out_tE5CIaADcNLDvlr73F4SiiAOdvfcbrDP"/><feMerge><feMergeNode in="_out_tE5CIaADcNLDvlr73F4SiiAOdvfcbrDP"/></feMerge></filter></defs><g filter="url(#C1rrLPwOQeZWzWeGLTJZhoTKfq7XIiAj)"><mask id="_mask_Fs9JyqnRJPw2WWyUiNi9j9Ut35T5oc8s"><circle vector-effect="non-scaling-stroke" cx="138.57890885457772" cy="114.83984374999983" r="26.89453125000003" fill="white" stroke="none"/></mask><circle vector-effect="non-scaling-stroke" cx="138.57890885457772" cy="114.83984374999983" r="26.89453125000003" fill="rgb(235,235,235)"/><circle vector-effect="non-scaling-stroke" cx="138.57890885457772" cy="114.83984374999983" r="26.89453125000003" fill="rgb(235,235,235)" mask="url(#_mask_Fs9JyqnRJPw2WWyUiNi9j9Ut35T5oc8s)" stroke-width="6" stroke="rgb(0,0,0)" stroke-linejoin="miter" stroke-linecap="square" stroke-miterlimit="3"/></g><circle vector-effect="non-scaling-stroke" cx="145.05547135457778" cy="117.56640624999977" r="9.621093750000085" fill="rgb(0,0,0)"/><path d=" M 146.564 125.181 C 146.225 124.445 146.982 123.373 148.251 122.79 C 149.521 122.207 150.826 122.332 151.164 123.069 C 151.503 123.805 150.747 124.877 149.477 125.46 C 148.207 126.043 146.902 125.918 146.564 125.181 Z " fill="rgb(255,255,255)"/><defs><filter id="e9SasfxCqFaoIk138WlrfC3SB3UsQ3tZ" x="-200%" y="-200%" width="400%" height="400%" filterUnits="objectBoundingBox" color-interpolation-filters="sRGB"><feGaussianBlur xmlns="http://www.w3.org/2000/svg" in="SourceGraphic" stdDeviation="0"/><feOffset xmlns="http://www.w3.org/2000/svg" dx="1" dy="-1" result="pf_100_offsetBlur"/><feFlood xmlns="http://www.w3.org/2000/svg" flood-color="#000000" flood-opacity="0.5"/><feComposite xmlns="http://www.w3.org/2000/svg" in2="pf_100_offsetBlur" operator="in" result="pf_100_dropShadow"/><feBlend xmlns="http://www.w3.org/2000/svg" in="SourceGraphic" in2="pf_100_dropShadow" mode="normal" result="_out_vFGmZH5mnuFklf19to34VwFip9ef7JWQ"/><feOffset xmlns="http://www.w3.org/2000/svg" in="_out_vFGmZH5mnuFklf19to34VwFip9ef7JWQ" dx="-3" dy="4"/><feGaussianBlur xmlns="http://www.w3.org/2000/svg" stdDeviation="0" result="pf_101_offsetBlur"/><feComposite xmlns="http://www.w3.org/2000/svg" in="_out_vFGmZH5mnuFklf19to34VwFip9ef7JWQ" in2="pf_101_offsetBlur" result="pf_101_inverse" operator="out"/><feFlood xmlns="http://www.w3.org/2000/svg" flood-color="#000000" flood-opacity="0.25" result="pf_101_color"/><feComposite xmlns="http://www.w3.org/2000/svg" in="pf_101_color" in2="pf_101_inverse" operator="in" result="pf_101_shadow"/><feComposite xmlns="http://www.w3.org/2000/svg" in="pf_101_shadow" in2="_out_vFGmZH5mnuFklf19to34VwFip9ef7JWQ" operator="over" result="_out_80jScaGxyfQZuOUVSAiXnRVRJuBAlcop"/><feMerge><feMergeNode in="_out_80jScaGxyfQZuOUVSAiXnRVRJuBAlcop"/></feMerge></filter></defs><g filter="url(#e9SasfxCqFaoIk138WlrfC3SB3UsQ3tZ)"><mask id="_mask_AOJzWIxAI0WtCkfIxRHgmYya1blYIkkq"><circle vector-effect="non-scaling-stroke" cx="275.2664088545775" cy="126.65234374999972" r="26.894531250000043" fill="white" stroke="none"/></mask><circle vector-effect="non-scaling-stroke" cx="275.2664088545775" cy="126.65234374999972" r="26.894531250000043" fill="rgb(235,235,235)"/><circle vector-effect="non-scaling-stroke" cx="275.2664088545775" cy="126.65234374999972" r="26.894531250000043" fill="rgb(235,235,235)" mask="url(#_mask_AOJzWIxAI0WtCkfIxRHgmYya1blYIkkq)" stroke-width="6" stroke="rgb(0,0,0)" stroke-linejoin="miter" stroke-linecap="square" stroke-miterlimit="3"/></g><circle vector-effect="non-scaling-stroke" cx="271.0554713545777" cy="127.81640624999977" r="9.621093750000114" fill="rgb(0,0,0)"/><path d=" M 159.473 122.445 C 150.609 128.875 149.586 129.54 144.989 135.102 C 150.595 134.462 152.302 133.484 155.395 131.164 C 157.786 128.562 158.067 126.734 159.473 122.445 Z " fill="rgb(255,255,255)"/><path d=" M 267.221 144.849 C 260.44 136.25 259.734 135.255 253.992 130.885 C 254.856 136.461 255.902 138.127 258.345 141.125 C 261.04 143.409 262.878 143.616 267.221 144.849 Z " fill="rgb(255,255,255)"/><path d=" M 264.222 132.103 C 264.67 131.427 265.979 131.504 267.144 132.275 C 268.308 133.046 268.891 134.221 268.444 134.897 C 267.996 135.573 266.687 135.496 265.522 134.725 C 264.357 133.954 263.775 132.779 264.222 132.103 Z " fill="rgb(255,255,255)"/></g></g></svg>