<?xml version="1.0" encoding="UTF-8" standalone="no"?><!-- Generator: Gravit.io --><svg xmlns="http://www.w3.org/2000/svg" xmlns:xlink="http://www.w3.org/1999/xlink" style="isolation:isolate" viewBox="0 0 440 380" width="440pt" height="380pt"><defs><clipPath id="_clipPath_4elZENaJiLTnREop5NU0LtbrgOvG92Hf"><rect width="440" height="380"/></clipPath></defs><g clip-path="url(#_clipPath_4elZENaJiLTnREop5NU0LtbrgOvG92Hf)"><path d=" M 135.37 172.849 C 134.203 168.479 134.286 165.024 133.336 162.363 C 128.724 162.578 121.862 167.463 114.38 168.237 C 113.74 167.945 113.247 167.327 112.889 166.361 C 113.077 159.229 114.056 154.878 115.816 153.289 C 114.66 145.703 117.055 139.126 122.99 133.537 C 121.732 127.476 121.763 123.258 123.075 120.864 C 122.868 115.214 123.322 111.237 124.428 108.914 C 122.602 105.195 124.063 97.468 124.031 84.175 C 124.03 83.921 124.208 83.612 124.428 83.485 C 125.008 83.149 126.074 83.343 127.216 84.277 C 135.704 114.14 136.444 124.148 139.4 131.714 C 141.264 132.053 143.821 129.642 147.568 128.977 C 142.517 140.357 138.454 154.988 135.37 172.849 Z " fill="rgb(149,212,251)" vector-effect="non-scaling-stroke" stroke-width="3" stroke="rgb(0,0,0)" stroke-linejoin="miter" stroke-linecap="square" stroke-miterlimit="3"/><path d=" M 301.157 140.784 C 304.06 150.709 305.494 161.791 307.212 174.53 C 307.705 173.28 308.05 170.934 308.789 167.752 C 310.834 167.869 315.041 173.127 321.694 174.976 C 321.938 175.044 322.245 174.924 322.378 174.709 C 323.79 172.439 323.662 170.881 326.255 168.516 C 326.442 168.346 326.577 168.002 326.556 167.75 C 326.127 162.587 324.503 155.166 321.714 145.921 C 321.262 137.921 316.944 112.192 311.651 100.971 C 311.543 100.742 311.434 100.761 311.407 101.013 C 311.142 103.543 310.476 104.673 309.915 103.471 C 309.449 101.935 309.37 100.275 309.662 98.443 C 308.284 92.847 307.311 85.543 306.017 86.022 C 304.407 91.171 304.117 109.452 301.157 140.784 Z " fill="rgb(149,212,251)" vector-effect="non-scaling-stroke" stroke-width="3" stroke="rgb(0,0,0)" stroke-linejoin="miter" stroke-linecap="square" stroke-miterlimit="3"/><mask id="_mask_hyZyDlpI9DINUSIDCQjAIfUbv751GKAO"><path d=" M 146.034 122.752 C 142.74 111.72 139.967 99.275 147.354 89.369 C 153.451 80.479 172.992 80.004 184.386 91.143 C 198.542 88.882 229.184 84.959 255.116 91.006 C 265.277 82.709 281.692 77.967 291.384 89.651 C 298.888 98.287 294.198 116.914 291.541 124.195 C 342.227 189.203 323.275 252.211 293.26 275.41 C 257.982 301.148 176.639 300.132 143.289 274.394 C 121.456 256.557 97.016 192.437 146.034 122.752 Z " fill="white" stroke="none"/></mask><path d=" M 146.034 122.752 C 142.74 111.72 139.967 99.275 147.354 89.369 C 153.451 80.479 172.992 80.004 184.386 91.143 C 198.542 88.882 229.184 84.959 255.116 91.006 C 265.277 82.709 281.692 77.967 291.384 89.651 C 298.888 98.287 294.198 116.914 291.541 124.195 C 342.227 189.203 323.275 252.211 293.26 275.41 C 257.982 301.148 176.639 300.132 143.289 274.394 C 121.456 256.557 97.016 192.437 146.034 122.752 Z " fill="rgb(253,128,128)"/><path d=" M 146.034 122.752 C 142.74 111.72 139.967 99.275 147.354 89.369 C 153.451 80.479 172.992 80.004 184.386 91.143 C 198.542 88.882 229.184 84.959 255.116 91.006 C 265.277 82.709 281.692 77.967 291.384 89.651 C 298.888 98.287 294.198 116.914 291.541 124.195 C 342.227 189.203 323.275 252.211 293.26 275.41 C 257.982 301.148 176.639 300.132 143.289 274.394 C 121.456 256.557 97.016 192.437 146.034 122.752 Z " fill="rgb(253,128,128)" mask="url(#_mask_hyZyDlpI9DINUSIDCQjAIfUbv751GKAO)" vector-effect="non-scaling-stroke" stroke-width="6" stroke="rgb(0,0,0)" stroke-linejoin="miter" stroke-linecap="square" stroke-miterlimit="3"/><path d=" M 132.853 152.603 C 129.803 153.23 126.678 152.543 122.291 152.83 C 126.184 152.971 129.604 153.143 132.726 153.462 C 132.763 153.031 132.733 152.908 132.853 152.603 Z " fill="rgb(0,0,0)"/><path d=" M 134.36 143.693 C 132.268 142.269 130.284 140.024 127.336 137.594 C 129.913 139.996 132.173 142.136 134.219 144.19 C 134.287 143.945 134.25 143.81 134.36 143.693 Z " fill="rgb(0,0,0)"/><path d=" M 136.098 139.169 C 133.997 131.867 131.452 125.563 128.235 115.524 C 131.215 124.136 133.847 131.663 136.302 138.413 C 136.194 138.822 136.17 138.695 136.098 139.169 Z " fill="rgb(0,0,0)"/><path d=" M 308.535 152.424 C 311.272 152.081 313.918 150.083 317.807 148.849 C 314.385 150.421 311.384 151.861 308.655 153.371 C 308.589 152.865 308.632 152.887 308.535 152.424 Z " fill="rgb(0,0,0)"/><path d=" M 305.613 139.778 C 306.642 129.606 308.354 118.018 310.202 104.564 C 310.302 103.755 310.032 104.974 310.133 104.134 C 308.378 117.199 306.818 128.638 305.331 138.964 C 305.481 139.406 305.489 139.227 305.613 139.778 Z " fill="rgb(0,0,0)"/><path d=" M 124.083 238.658 C 186.825 302.527 257.053 287.181 317.833 235.838 C 311.371 264.733 272.497 297.016 216.573 293.588 C 162.571 290.566 131.31 273.734 124.083 238.658 Z " fill="rgb(0,0,0)" fill-opacity="0.2"/><defs><filter id="yBrjKK3rxbXyO9v4d4fRRG49LVuXQ93D" x="-200%" y="-200%" width="400%" height="400%" filterUnits="objectBoundingBox" color-interpolation-filters="sRGB"><feGaussianBlur xmlns="http://www.w3.org/2000/svg" in="SourceGraphic" stdDeviation="0"/><feOffset xmlns="http://www.w3.org/2000/svg" dx="-0.5" dy="-0.5" result="pf_100_offsetBlur"/><feFlood xmlns="http://www.w3.org/2000/svg" flood-color="#000000" flood-opacity="0.25"/><feComposite xmlns="http://www.w3.org/2000/svg" in2="pf_100_offsetBlur" operator="in" result="pf_100_dropShadow"/><feBlend xmlns="http://www.w3.org/2000/svg" in="SourceGraphic" in2="pf_100_dropShadow" mode="normal"/></filter></defs><g filter="url(#yBrjKK3rxbXyO9v4d4fRRG49LVuXQ93D)"><mask id="_mask_XZIX0aQgzQ1BlcVJ1SUbom9mDvu8QUVX"><circle vector-effect="non-scaling-stroke" cx="164.10499320500927" cy="103.8582123567115" r="16.104993205009293" fill="white" stroke="none"/></mask><circle vector-effect="non-scaling-stroke" cx="164.10499320500927" cy="103.8582123567115" r="16.104993205009293" fill="rgb(235,235,235)"/><circle vector-effect="non-scaling-stroke" cx="164.10499320500927" cy="103.8582123567115" r="16.104993205009293" fill="rgb(235,235,235)" mask="url(#_mask_XZIX0aQgzQ1BlcVJ1SUbom9mDvu8QUVX)" stroke-width="6" stroke="rgb(0,0,0)" stroke-linejoin="miter" stroke-linecap="square" stroke-miterlimit="3"/></g><defs><filter id="x8gtzMCPVwaPNxYjVGTEjkXiOjuT6vuO" x="-200%" y="-200%" width="400%" height="400%" filterUnits="objectBoundingBox" color-interpolation-filters="sRGB"><feGaussianBlur xmlns="http://www.w3.org/2000/svg" in="SourceGraphic" stdDeviation="0"/><feOffset xmlns="http://www.w3.org/2000/svg" dx="0.5" dy="-0.5" result="pf_100_offsetBlur"/><feFlood xmlns="http://www.w3.org/2000/svg" flood-color="#000000" flood-opacity="0.25"/><feComposite xmlns="http://www.w3.org/2000/svg" in2="pf_100_offsetBlur" operator="in" result="pf_100_dropShadow"/><feBlend xmlns="http://www.w3.org/2000/svg" in="SourceGraphic" in2="pf_100_dropShadow" mode="normal"/></filter></defs><g filter="url(#x8gtzMCPVwaPNxYjVGTEjkXiOjuT6vuO)"><mask id="_mask_IpTALBcx3MxEjnLhutATHQz29yP7r7nd"><circle vector-effect="non-scaling-stroke" cx="275.2143682050092" cy="103.81819876673009" r="16.104993205009293" fill="white" stroke="none"/></mask><circle vector-effect="non-scaling-stroke" cx="275.2143682050092" cy="103.81819876673009" r="16.104993205009293" fill="rgb(235,235,235)"/><circle vector-effect="non-scaling-stroke" cx="275.2143682050092" cy="103.81819876673009" r="16.104993205009293" fill="rgb(235,235,235)" mask="url(#_mask_IpTALBcx3MxEjnLhutATHQz29yP7r7nd)" stroke-width="6" stroke="rgb(0,0,0)" stroke-linejoin="miter" stroke-linecap="square" stroke-miterlimit="3"/></g><circle vector-effect="non-scaling-stroke" cx="165.2447401838531" cy="104.77538503147854" r="10.619740183853366" fill="rgb(0,0,0)"/><circle vector-effect="non-scaling-stroke" cx="275.04161518385297" cy="104.7353714414971" r="10.619740183853366" fill="rgb(0,0,0)"/><path d=" M 171.291 112.279 C 170.961 111.923 171.19 111.172 171.802 110.602 C 172.415 110.033 173.18 109.858 173.511 110.214 C 173.842 110.569 173.613 111.32 173 111.89 C 172.388 112.46 171.622 112.634 171.291 112.279 Z " fill="rgb(255,255,255)"/><path d=" M 267.616 111.155 C 267.902 110.763 268.683 110.846 269.358 111.34 C 270.033 111.834 270.349 112.554 270.062 112.945 C 269.775 113.337 268.994 113.254 268.319 112.76 C 267.644 112.266 267.329 111.547 267.616 111.155 Z " fill="rgb(255,255,255)"/><defs><filter id="sodsNNBxIy3r64F4sw3WVbHZatPFRZoR" x="-200%" y="-200%" width="400%" height="400%" filterUnits="objectBoundingBox" color-interpolation-filters="sRGB"><feGaussianBlur xmlns="http://www.w3.org/2000/svg" in="SourceGraphic" stdDeviation="0"/><feOffset xmlns="http://www.w3.org/2000/svg" dx="1" dy="1" result="pf_100_offsetBlur"/><feFlood xmlns="http://www.w3.org/2000/svg" flood-color="#000000" flood-opacity="0.3"/><feComposite xmlns="http://www.w3.org/2000/svg" in2="pf_100_offsetBlur" operator="in" result="pf_100_dropShadow"/><feBlend xmlns="http://www.w3.org/2000/svg" in="SourceGraphic" in2="pf_100_dropShadow" mode="normal"/></filter></defs><g filter="url(#sodsNNBxIy3r64F4sw3WVbHZatPFRZoR)"><path d=" M 214.049 189.955 C 211.976 186.195 212.662 184.819 215.455 182.174 C 219.091 181.167 221.913 181.177 225.299 182.549 C 227.919 185.216 228.314 187.017 226.424 190.424 C 227.58 193.898 227.152 194.782 225.486 197.267 C 222.861 199.424 217.611 198.955 214.424 196.892 C 212.494 193.981 212.628 192.709 214.049 189.955 Z " fill="rgb(68,68,68)" vector-effect="non-scaling-stroke" stroke-width="1" stroke="rgb(0,0,0)" stroke-linejoin="miter" stroke-linecap="square" stroke-miterlimit="3"/></g><path d=" M 213.861 189.33 C 218.054 192.049 221.647 192.262 226.517 189.939" fill="none" vector-effect="non-scaling-stroke" stroke-width="1" stroke="rgb(0,0,0)" stroke-linejoin="miter" stroke-linecap="square" stroke-miterlimit="3"/></g></svg>