<?xml version="1.0" encoding="UTF-8" standalone="no"?><!-- Generator: Gravit.io --><svg xmlns="http://www.w3.org/2000/svg" xmlns:xlink="http://www.w3.org/1999/xlink" style="isolation:isolate" viewBox="0 0 440 380" width="440pt" height="380pt"><defs><clipPath id="_clipPath_aURIgQg3jO5RjZY2NX5xTDn8rzfdMqsn"><rect width="440" height="380"/></clipPath></defs><g clip-path="url(#_clipPath_aURIgQg3jO5RjZY2NX5xTDn8rzfdMqsn)"><path d=" M 114.373 155.849 C 112.433 151.511 112.571 148.081 110.992 145.44 C 103.325 145.653 91.917 150.503 79.479 151.271 C 78.416 150.982 77.595 150.368 77 149.409 C 77.313 142.329 78.941 138.011 81.867 136.433 C 79.944 128.903 83.925 122.374 93.793 116.826 C 91.7 110.81 91.753 106.624 93.934 104.247 C 93.589 98.639 94.344 94.691 96.182 92.385 C 93.147 88.693 95.575 81.023 95.523 67.963 C 95.521 67.637 95.77 67.286 96.079 67.179 C 97.148 66.81 98.919 67.003 100.818 67.93 C 114.928 97.572 116.159 107.507 121.072 115.017 C 124.171 115.354 128.421 112.96 134.652 112.3 C 126.254 123.596 119.5 138.119 114.373 155.849 Z " fill="rgb(149,212,251)" vector-effect="non-scaling-stroke" stroke-width="3" stroke="rgb(0,0,0)" stroke-linejoin="miter" stroke-linecap="square" stroke-miterlimit="3"/><path d=" M 314.991 122.195 C 320.709 132.194 323.533 143.359 326.917 156.194 C 327.889 154.934 328.568 152.57 330.024 149.365 C 334.053 149.483 342.34 154.78 355.676 156.675 C 356.029 156.725 356.539 156.582 356.815 156.356 C 359.574 154.087 359.321 152.517 364.511 150.096 C 364.834 149.945 365.05 149.537 364.993 149.185 C 364.177 144.161 360.978 136.684 355.485 127.37 C 354.593 119.31 346.088 93.388 335.713 82.14 C 335.472 81.878 335.217 81.949 335.146 82.298 C 334.659 84.675 333.348 85.812 332.243 84.602 C 331.323 83.054 331.167 81.381 331.744 79.537 C 329.029 73.898 327.113 66.539 324.564 67.023 C 321.393 72.209 320.821 90.628 314.991 122.195 Z " fill="rgb(149,212,251)" vector-effect="non-scaling-stroke" stroke-width="3" stroke="rgb(0,0,0)" stroke-linejoin="miter" stroke-linecap="square" stroke-miterlimit="3"/><mask id="_mask_jDef5IdFB6UslY0aaLv80ijUsBekmcwC"><path d=" M 132.889 109.778 C 131.463 99.536 138.556 85.778 144.556 78.111 C 151.222 71.444 164.556 67.111 180.541 73.745 C 197.234 71.078 233.369 66.452 263.949 73.584 C 275.222 67.111 293.222 71.111 299.222 80.444 C 307.222 89.111 313.356 104.191 310.222 112.778 C 369.994 189.437 344.324 263.683 308.93 291.039 C 267.328 321.391 171.406 320.193 132.078 289.841 C 106.331 268.808 76.556 194.444 132.889 109.778 Z " fill="white" stroke="none"/></mask><path d=" M 132.889 109.778 C 131.463 99.536 138.556 85.778 144.556 78.111 C 151.222 71.444 164.556 67.111 180.541 73.745 C 197.234 71.078 233.369 66.452 263.949 73.584 C 275.222 67.111 293.222 71.111 299.222 80.444 C 307.222 89.111 313.356 104.191 310.222 112.778 C 369.994 189.437 344.324 263.683 308.93 291.039 C 267.328 321.391 171.406 320.193 132.078 289.841 C 106.331 268.808 76.556 194.444 132.889 109.778 Z " fill="rgb(253,128,128)"/><path d=" M 132.889 109.778 C 131.463 99.536 138.556 85.778 144.556 78.111 C 151.222 71.444 164.556 67.111 180.541 73.745 C 197.234 71.078 233.369 66.452 263.949 73.584 C 275.222 67.111 293.222 71.111 299.222 80.444 C 307.222 89.111 313.356 104.191 310.222 112.778 C 369.994 189.437 344.324 263.683 308.93 291.039 C 267.328 321.391 171.406 320.193 132.078 289.841 C 106.331 268.808 76.556 194.444 132.889 109.778 Z " fill="rgb(253,128,128)" mask="url(#_mask_jDef5IdFB6UslY0aaLv80ijUsBekmcwC)" vector-effect="non-scaling-stroke" stroke-width="6" stroke="rgb(0,0,0)" stroke-linejoin="miter" stroke-linecap="square" stroke-miterlimit="3"/><path d=" M 110.189 135.752 C 105.119 136.375 99.923 135.693 92.63 135.978 C 99.103 136.117 104.787 136.288 109.977 136.605 C 110.04 136.177 109.989 136.055 110.189 135.752 Z " fill="rgb(0,0,0)"/><path d=" M 112.695 126.908 C 109.216 125.494 105.918 123.265 101.016 120.853 C 105.302 123.238 109.058 125.362 112.46 127.401 C 112.573 127.158 112.511 127.024 112.695 126.908 Z " fill="rgb(0,0,0)"/><path d=" M 115.583 122.417 C 112.09 115.169 107.859 108.912 102.511 98.947 C 107.465 107.495 111.842 114.966 115.923 121.666 C 115.743 122.073 115.703 121.946 115.583 122.417 Z " fill="rgb(0,0,0)"/><path d=" M 329.524 133.921 C 334.915 133.576 340.127 131.563 347.788 130.32 C 341.048 131.904 335.135 133.354 329.761 134.875 C 329.631 134.365 329.715 134.388 329.524 133.921 Z " fill="rgb(0,0,0)"/><path d=" M 323.768 121.18 C 325.794 110.933 329.168 99.258 332.808 85.703 C 333.004 84.888 332.473 86.116 332.671 85.27 C 329.214 98.433 326.141 109.958 323.211 120.361 C 323.507 120.806 323.522 120.626 323.768 121.18 Z " fill="rgb(0,0,0)"/><path d=" M 110.25 249.333 C 193.198 316.464 276.489 296.993 338.667 244.583 C 331.073 278.587 285.394 316.577 219.68 312.544 C 156.225 308.987 118.742 290.611 110.25 249.333 Z " fill="rgb(0,0,0)" fill-opacity="0.2"/><ellipse vector-effect="non-scaling-stroke" cx="232.0810088697326" cy="92.68530457352496" rx="2.7883622937970927" ry="2.0975143224980997" fill="rgb(0,0,0)"/><path d=" M 244.446 121.989 C 244.844 120.902 246.341 120.45 247.786 120.98 C 249.231 121.51 250.08 122.823 249.681 123.91 C 249.282 124.997 247.786 125.449 246.341 124.919 C 244.896 124.389 244.047 123.076 244.446 121.989 Z " fill="rgb(0,0,0)"/><path d=" M 298.814 120.056 C 299.767 119.398 301.25 119.892 302.125 121.157 C 303.001 122.423 302.938 123.986 301.986 124.644 C 301.033 125.302 299.55 124.809 298.675 123.543 C 297.8 122.277 297.862 120.715 298.814 120.056 Z " fill="rgb(0,0,0)"/><path d=" M 309.234 159.219 C 310.349 158.906 311.591 159.854 312.008 161.336 C 312.424 162.817 311.858 164.274 310.743 164.588 C 309.629 164.901 308.386 163.952 307.969 162.471 C 307.553 160.989 308.12 159.532 309.234 159.219 Z " fill="rgb(0,0,0)"/><path d=" M 295.938 181.42 C 297.073 181.651 297.744 183.063 297.436 184.571 C 297.129 186.079 295.958 187.115 294.824 186.884 C 293.689 186.653 293.018 185.24 293.326 183.733 C 293.633 182.225 294.804 181.188 295.938 181.42 Z " fill="rgb(0,0,0)"/><path d=" M 161.411 178.967 C 162.569 178.955 163.521 180.194 163.537 181.733 C 163.553 183.272 162.626 184.531 161.469 184.543 C 160.311 184.555 159.358 183.315 159.342 181.776 C 159.326 180.238 160.253 178.978 161.411 178.967 Z " fill="rgb(0,0,0)"/><path d=" M 112.569 183.461 C 113.726 183.449 114.679 184.689 114.695 186.228 C 114.711 187.767 113.784 189.026 112.626 189.038 C 111.469 189.05 110.516 187.81 110.5 186.271 C 110.484 184.732 111.411 183.473 112.569 183.461 Z " fill="rgb(0,0,0)"/><path d=" M 288.841 205.207 C 289.803 205.851 289.89 207.412 289.034 208.691 C 288.178 209.97 286.702 210.485 285.74 209.842 C 284.778 209.198 284.692 207.637 285.547 206.358 C 286.403 205.079 287.879 204.563 288.841 205.207 Z " fill="rgb(0,0,0)"/><path d=" M 326.596 259.592 C 327.559 260.236 327.645 261.797 326.789 263.076 C 325.933 264.355 324.457 264.871 323.495 264.227 C 322.533 263.583 322.447 262.022 323.303 260.743 C 324.158 259.464 325.634 258.949 326.596 259.592 Z " fill="rgb(0,0,0)"/><path d=" M 297.078 237.745 C 297.501 238.822 296.68 240.153 295.248 240.715 C 293.815 241.277 292.308 240.858 291.886 239.78 C 291.464 238.702 292.284 237.371 293.717 236.809 C 295.149 236.248 296.656 236.667 297.078 237.745 Z " fill="rgb(0,0,0)"/><path d=" M 291.46 277.747 C 291.882 278.825 291.062 280.156 289.629 280.718 C 288.196 281.279 286.69 280.86 286.268 279.782 C 285.845 278.705 286.665 277.374 288.098 276.812 C 289.531 276.25 291.037 276.669 291.46 277.747 Z " fill="rgb(0,0,0)"/><path d=" M 235.004 241.08 C 234.881 242.231 233.539 243.034 232.009 242.871 C 230.478 242.707 229.336 241.641 229.458 240.489 C 229.581 239.338 230.923 238.536 232.453 238.699 C 233.983 238.862 235.126 239.929 235.004 241.08 Z " fill="rgb(0,0,0)"/><path d=" M 228.04 303.749 C 227.931 304.901 226.598 305.719 225.066 305.574 C 223.534 305.428 222.379 304.375 222.488 303.222 C 222.597 302.07 223.93 301.252 225.462 301.397 C 226.994 301.543 228.149 302.596 228.04 303.749 Z " fill="rgb(0,0,0)"/><path d=" M 197.476 308.019 C 197.367 309.171 196.034 309.989 194.502 309.844 C 192.97 309.698 191.815 308.645 191.924 307.492 C 192.034 306.34 193.366 305.522 194.898 305.667 C 196.43 305.813 197.586 306.866 197.476 308.019 Z " fill="rgb(0,0,0)"/><path d=" M 212.437 220.882 C 212.116 221.994 210.655 222.551 209.176 222.125 C 207.698 221.698 206.758 220.449 207.078 219.337 C 207.399 218.224 208.86 217.668 210.339 218.094 C 211.817 218.52 212.757 219.769 212.437 220.882 Z " fill="rgb(0,0,0)"/><path d=" M 177.29 230.728 C 176.863 231.804 175.355 232.216 173.924 231.647 C 172.494 231.079 171.68 229.744 172.108 228.668 C 172.535 227.592 174.043 227.18 175.474 227.749 C 176.904 228.317 177.718 229.652 177.29 230.728 Z " fill="rgb(0,0,0)"/><path d=" M 138.059 273.576 C 137.259 274.412 135.707 274.228 134.595 273.164 C 133.483 272.1 133.23 270.557 134.03 269.72 C 134.831 268.884 136.383 269.069 137.495 270.133 C 138.607 271.197 138.86 272.74 138.059 273.576 Z " fill="rgb(0,0,0)"/><path d=" M 192.66 265.829 C 192.339 266.941 190.879 267.498 189.4 267.071 C 187.921 266.645 186.981 265.396 187.302 264.284 C 187.622 263.171 189.083 262.614 190.562 263.041 C 192.041 263.467 192.981 264.716 192.66 265.829 Z " fill="rgb(0,0,0)"/><path d=" M 167.49 290.999 C 167.169 292.111 165.708 292.668 164.23 292.242 C 162.751 291.815 161.811 290.566 162.132 289.454 C 162.452 288.341 163.913 287.784 165.392 288.211 C 166.871 288.637 167.811 289.886 167.49 290.999 Z " fill="rgb(0,0,0)"/><path d=" M 134.691 234.839 C 133.676 235.396 132.251 234.754 131.51 233.405 C 130.769 232.056 130.991 230.508 132.005 229.951 C 133.02 229.393 134.445 230.036 135.186 231.385 C 135.927 232.734 135.705 234.281 134.691 234.839 Z " fill="rgb(0,0,0)"/><path d=" M 259.997 267.859 C 260.42 268.937 259.599 270.268 258.166 270.829 C 256.734 271.391 255.227 270.972 254.805 269.894 C 254.382 268.816 255.203 267.485 256.636 266.924 C 258.068 266.362 259.575 266.781 259.997 267.859 Z " fill="rgb(0,0,0)"/><path d=" M 271.908 300.895 C 272.33 301.973 271.51 303.304 270.077 303.865 C 268.645 304.427 267.138 304.008 266.716 302.93 C 266.293 301.852 267.114 300.521 268.546 299.96 C 269.979 299.398 271.485 299.817 271.908 300.895 Z " fill="rgb(0,0,0)"/><path d=" M 342.079 216.65 C 343.235 216.703 344.117 217.994 344.046 219.531 C 343.976 221.069 342.979 222.274 341.823 222.221 C 340.667 222.167 339.785 220.876 339.855 219.339 C 339.926 217.802 340.922 216.597 342.079 216.65 Z " fill="rgb(0,0,0)"/><path d=" M 340.797 184.789 C 341.911 184.475 343.154 185.424 343.571 186.905 C 343.987 188.387 343.42 189.844 342.306 190.157 C 341.191 190.471 339.949 189.522 339.532 188.041 C 339.116 186.559 339.682 185.102 340.797 184.789 Z " fill="rgb(0,0,0)"/><path d=" M 263.623 99.516 C 264.022 98.429 265.518 97.977 266.963 98.507 C 268.408 99.037 269.257 100.35 268.858 101.437 C 268.46 102.523 266.963 102.975 265.518 102.445 C 264.073 101.915 263.224 100.602 263.623 99.516 Z " fill="rgb(0,0,0)"/><path d=" M 180.552 92.23 C 180.243 91.115 181.196 89.876 182.68 89.465 C 184.163 89.055 185.618 89.627 185.926 90.743 C 186.235 91.859 185.281 93.098 183.798 93.508 C 182.315 93.919 180.86 93.346 180.552 92.23 Z " fill="rgb(0,0,0)"/><path d=" M 147.315 124.423 C 146.33 123.815 146.186 122.258 146.995 120.948 C 147.804 119.639 149.26 119.07 150.245 119.678 C 151.23 120.286 151.373 121.843 150.564 123.153 C 149.756 124.462 148.3 125.031 147.315 124.423 Z " fill="rgb(0,0,0)"/><path d=" M 114.154 157.983 C 113.169 157.375 113.026 155.818 113.834 154.509 C 114.643 153.199 116.099 152.63 117.084 153.238 C 118.069 153.846 118.212 155.403 117.404 156.713 C 116.595 158.022 115.139 158.591 114.154 157.983 Z " fill="rgb(0,0,0)"/><path d=" M 209.005 105.665 C 208.716 104.543 209.693 103.322 211.183 102.939 C 212.674 102.556 214.118 103.156 214.406 104.277 C 214.694 105.398 213.718 106.619 212.227 107.002 C 210.737 107.385 209.293 106.786 209.005 105.665 Z " fill="rgb(0,0,0)"/><ellipse vector-effect="non-scaling-stroke" cx="227.28669041830864" cy="141.82706870062333" rx="2.7883622937970927" ry="2.097514322498114" fill="rgb(0,0,0)"/><defs><filter id="mq0G7FxozJ4lgiEGQpwXsCUEabig9fIm" x="-200%" y="-200%" width="400%" height="400%" filterUnits="objectBoundingBox" color-interpolation-filters="sRGB"><feGaussianBlur xmlns="http://www.w3.org/2000/svg" in="SourceGraphic" stdDeviation="0"/><feOffset xmlns="http://www.w3.org/2000/svg" dx="-0.5" dy="-0.5" result="pf_100_offsetBlur"/><feFlood xmlns="http://www.w3.org/2000/svg" flood-color="#000000" flood-opacity="0.25"/><feComposite xmlns="http://www.w3.org/2000/svg" in2="pf_100_offsetBlur" operator="in" result="pf_100_dropShadow"/><feBlend xmlns="http://www.w3.org/2000/svg" in="SourceGraphic" in2="pf_100_dropShadow" mode="normal"/></filter></defs><g filter="url(#mq0G7FxozJ4lgiEGQpwXsCUEabig9fIm)"><mask id="_mask_fIyhDqwi6nWPwgD9QOzhpjexwBqFXBYK"><circle vector-effect="non-scaling-stroke" cx="169.27165987167564" cy="108.19154540209597" r="16.104993205009293" fill="white" stroke="none"/></mask><circle vector-effect="non-scaling-stroke" cx="169.27165987167564" cy="108.19154540209597" r="16.104993205009293" fill="rgb(235,235,235)"/><circle vector-effect="non-scaling-stroke" cx="169.27165987167564" cy="108.19154540209597" r="16.104993205009293" fill="rgb(235,235,235)" mask="url(#_mask_fIyhDqwi6nWPwgD9QOzhpjexwBqFXBYK)" stroke-width="6" stroke="rgb(0,0,0)" stroke-linejoin="miter" stroke-linecap="square" stroke-miterlimit="3"/></g><defs><filter id="HQGeJUMf3ZXDZdC5Siqfg9hswAgMTRpE" x="-200%" y="-200%" width="400%" height="400%" filterUnits="objectBoundingBox" color-interpolation-filters="sRGB"><feGaussianBlur xmlns="http://www.w3.org/2000/svg" in="SourceGraphic" stdDeviation="0"/><feOffset xmlns="http://www.w3.org/2000/svg" dx="0.5" dy="-0.5" result="pf_100_offsetBlur"/><feFlood xmlns="http://www.w3.org/2000/svg" flood-color="#000000" flood-opacity="0.25"/><feComposite xmlns="http://www.w3.org/2000/svg" in2="pf_100_offsetBlur" operator="in" result="pf_100_dropShadow"/><feBlend xmlns="http://www.w3.org/2000/svg" in="SourceGraphic" in2="pf_100_dropShadow" mode="normal"/></filter></defs><g filter="url(#HQGeJUMf3ZXDZdC5Siqfg9hswAgMTRpE)"><mask id="_mask_92uK3pnnvzLnFleBouDgtZQhSRlvTQhP"><circle vector-effect="non-scaling-stroke" cx="278.71436820500935" cy="108.15153181211461" r="16.104993205009293" fill="white" stroke="none"/></mask><circle vector-effect="non-scaling-stroke" cx="278.71436820500935" cy="108.15153181211461" r="16.104993205009293" fill="rgb(235,235,235)"/><circle vector-effect="non-scaling-stroke" cx="278.71436820500935" cy="108.15153181211461" r="16.104993205009293" fill="rgb(235,235,235)" mask="url(#_mask_92uK3pnnvzLnFleBouDgtZQhSRlvTQhP)" stroke-width="6" stroke="rgb(0,0,0)" stroke-linejoin="miter" stroke-linecap="square" stroke-miterlimit="3"/></g><circle vector-effect="non-scaling-stroke" cx="170.35181373734792" cy="109.7991249636915" r="9.179333297024868" fill="rgb(0,0,0)"/><circle vector-effect="non-scaling-stroke" cx="278.11245150203365" cy="109.12286816870082" r="9.440576502034162" fill="rgb(0,0,0)"/><path d=" M 174.958 115.862 C 174.628 115.507 174.856 114.756 175.469 114.186 C 176.081 113.616 176.847 113.442 177.178 113.797 C 177.508 114.153 177.279 114.904 176.667 115.474 C 176.055 116.043 175.289 116.218 174.958 115.862 Z " fill="rgb(255,255,255)"/><path d=" M 271.866 114.363 C 272.152 113.971 272.933 114.055 273.608 114.549 C 274.283 115.043 274.599 115.762 274.312 116.154 C 274.025 116.545 273.244 116.462 272.569 115.968 C 271.894 115.474 271.579 114.755 271.866 114.363 Z " fill="rgb(255,255,255)"/><defs><filter id="DcXRXIcsMYj3S55Pux3lG2aIEHYsVjNR" x="-200%" y="-200%" width="400%" height="400%" filterUnits="objectBoundingBox" color-interpolation-filters="sRGB"><feGaussianBlur xmlns="http://www.w3.org/2000/svg" in="SourceGraphic" stdDeviation="0"/><feOffset xmlns="http://www.w3.org/2000/svg" dx="1" dy="1" result="pf_100_offsetBlur"/><feFlood xmlns="http://www.w3.org/2000/svg" flood-color="#000000" flood-opacity="0.3"/><feComposite xmlns="http://www.w3.org/2000/svg" in2="pf_100_offsetBlur" operator="in" result="pf_100_dropShadow"/><feBlend xmlns="http://www.w3.org/2000/svg" in="SourceGraphic" in2="pf_100_dropShadow" mode="normal"/></filter></defs><g filter="url(#DcXRXIcsMYj3S55Pux3lG2aIEHYsVjNR)"><path d=" M 212.092 185.412 C 209.019 179.837 210.037 177.797 214.177 173.876 C 219.567 172.383 223.752 172.398 228.771 174.431 C 232.656 178.385 233.241 181.056 230.439 186.107 C 232.154 191.258 231.519 192.569 229.049 196.254 C 225.157 199.45 217.374 198.755 212.648 195.698 C 209.787 191.381 209.986 189.495 212.092 185.412 Z " fill="rgb(68,68,68)" vector-effect="non-scaling-stroke" stroke-width="1" stroke="rgb(0,0,0)" stroke-linejoin="miter" stroke-linecap="square" stroke-miterlimit="3"/></g><ellipse vector-effect="non-scaling-stroke" cx="220.96875000000003" cy="187.2858513028148" rx="7.031249999999972" ry="9.40164869718518" fill="rgb(0,0,0)"/></g></svg>