<?xml version="1.0" encoding="UTF-8" standalone="no"?><!-- Generator: Gravit.io --><svg xmlns="http://www.w3.org/2000/svg" xmlns:xlink="http://www.w3.org/1999/xlink" style="isolation:isolate" viewBox="0 0 440 380" width="440pt" height="380pt"><defs><clipPath id="_clipPath_Yr63g5QQhqv3CKdoRuP4YbQIX0GeEmMz"><rect width="440" height="380"/></clipPath></defs><g clip-path="url(#_clipPath_Yr63g5QQhqv3CKdoRuP4YbQIX0GeEmMz)"><path d=" M 76.667 152.708 C 74.266 146.93 75.14 142.596 73.021 139.022 C 60.27 138.215 40.447 142.767 19.683 141.992 C 17.974 141.475 16.729 140.581 15.924 139.281 C 17.775 130.339 21.286 125.087 26.434 123.496 C 24.664 113.669 32.492 105.942 49.893 100.288 C 47.557 92.359 48.432 87.053 52.495 84.343 C 52.979 77.176 54.973 72.273 58.455 69.605 C 54.118 64.492 59.587 55.099 61.943 38.619 C 62.01 38.148 62.446 37.699 62.915 37.618 C 64.869 37.281 67.769 37.774 70.742 39.218 C 88.553 78.823 88.724 91.605 95.457 101.828 C 100.531 102.691 108.026 100.251 118.479 100.288 C 102.432 113.445 88.503 130.927 76.667 152.708 Z " fill="rgb(149,212,251)" vector-effect="non-scaling-stroke" stroke-width="3" stroke="rgb(0,0,0)" stroke-linejoin="miter" stroke-linecap="square" stroke-miterlimit="3"/><path d=" M 330.391 120.783 C 339.265 134.173 343.719 148.841 349.047 165.713 C 350.523 164.161 351.537 161.157 353.731 157.127 C 359.905 157.6 372.662 165.112 393.202 168.641 C 393.696 168.726 394.44 168.573 394.862 168.301 C 399.06 165.588 398.655 163.537 406.612 160.807 C 407.087 160.644 407.393 160.112 407.295 159.62 C 406 153.115 401.015 143.188 392.493 130.701 C 391.036 120.204 377.712 85.994 361.669 70.599 C 361.307 70.252 360.919 70.366 360.803 70.854 C 360.103 73.813 358.106 75.18 356.4 73.527 C 354.973 71.451 354.716 69.275 355.578 66.934 C 351.355 59.424 348.336 49.753 344.437 50.175 C 339.636 56.632 338.967 80.412 330.391 120.783 Z " fill="rgb(149,212,251)" vector-effect="non-scaling-stroke" stroke-width="3" stroke="rgb(0,0,0)" stroke-linejoin="miter" stroke-linecap="square" stroke-miterlimit="3"/><mask id="_mask_3HegYbx6xZV6eKzPvMLz7e8WzZyfTbsv"><path d=" M 104.749 102.952 C 105.144 102.556 105.541 102.16 105.942 101.765 C 115.077 84.78 119.323 80.779 128.576 72.426 C 140.055 64.89 150.584 64.078 172.771 65.21 C 191.749 61.764 248.614 61.747 266.96 67.834 C 285.478 66.847 300.696 69.763 309.344 77.313 C 318.086 87.368 319.974 89.885 325.163 108.798 C 392.652 187.093 362.075 274.461 310.436 314.901 C 262.299 352.821 156.528 349.729 113.27 309.075 C 71.854 269.612 26.697 181.344 104.749 102.952 Z " fill="white" stroke="none"/></mask><path d=" M 104.749 102.952 C 105.144 102.556 105.541 102.16 105.942 101.765 C 115.077 84.78 119.323 80.779 128.576 72.426 C 140.055 64.89 150.584 64.078 172.771 65.21 C 191.749 61.764 248.614 61.747 266.96 67.834 C 285.478 66.847 300.696 69.763 309.344 77.313 C 318.086 87.368 319.974 89.885 325.163 108.798 C 392.652 187.093 362.075 274.461 310.436 314.901 C 262.299 352.821 156.528 349.729 113.27 309.075 C 71.854 269.612 26.697 181.344 104.749 102.952 Z " fill="rgb(253,128,128)"/><path d=" M 104.749 102.952 C 105.144 102.556 105.541 102.16 105.942 101.765 C 115.077 84.78 119.323 80.779 128.576 72.426 C 140.055 64.89 150.584 64.078 172.771 65.21 C 191.749 61.764 248.614 61.747 266.96 67.834 C 285.478 66.847 300.696 69.763 309.344 77.313 C 318.086 87.368 319.974 89.885 325.163 108.798 C 392.652 187.093 362.075 274.461 310.436 314.901 C 262.299 352.821 156.528 349.729 113.27 309.075 C 71.854 269.612 26.697 181.344 104.749 102.952 Z " fill="rgb(253,128,128)" mask="url(#_mask_3HegYbx6xZV6eKzPvMLz7e8WzZyfTbsv)" vector-effect="non-scaling-stroke" stroke-width="6" stroke="rgb(0,0,0)" stroke-linejoin="miter" stroke-linecap="square" stroke-miterlimit="3"/><path d=" M 73.513 126.614 C 64.991 126.691 56.505 125.095 44.362 124.431 C 55.065 125.518 64.456 126.534 73.001 127.666 C 73.185 127.132 73.124 126.97 73.513 126.614 Z " fill="rgb(0,0,0)"/><path d=" M 79.331 115.741 C 73.831 113.458 68.783 110.165 61.111 106.415 C 67.766 110.044 73.592 113.268 78.849 116.335 C 79.081 116.041 79.004 115.863 79.331 115.741 Z " fill="rgb(0,0,0)"/><path d=" M 84.964 110.448 C 80.538 100.758 74.701 92.221 67.711 78.822 C 74.315 90.368 80.164 100.465 85.668 109.543 C 85.295 110.033 85.251 109.867 84.964 110.448 Z " fill="rgb(0,0,0)"/><path d=" M 352.791 137.11 C 361.046 137.092 369.009 134.903 380.734 133.905 C 370.424 135.417 361.381 136.822 353.164 138.362 C 352.959 137.692 353.089 137.728 352.791 137.11 Z " fill="rgb(0,0,0)"/><path d=" M 343.827 120.17 C 346.816 107.074 351.853 92.24 357.278 74.995 C 357.569 73.957 356.769 75.503 357.064 74.425 C 351.915 91.177 347.337 105.841 342.966 119.065 C 343.424 119.665 343.445 119.433 343.827 120.17 Z " fill="rgb(0,0,0)"/><path d=" M 74.694 247.382 C 160.795 319.612 260.65 324.552 346.75 268.417 C 321.695 306.232 300.083 334.583 206.583 340.583 C 130.5 336.333 94.609 295.862 74.694 247.382 Z " fill="rgb(0,0,0)" fill-opacity="0.2"/><path d=" M 106.375 101.375 C 94.73 109.366 78.375 131.729 75.625 142.729 C 80.875 135.604 82.625 131.604 86.313 125.979 C 91.063 120.979 101 107.729 106.375 101.375 Z " fill="rgb(0,0,0)" fill-opacity="0.2"/><path d=" M 354.833 157.646 C 349.068 147.943 343.802 136.238 337.875 127.688 C 335.304 123.978 332.813 121.641 331.969 117.141 C 339.896 125.333 351.958 143.708 354.833 157.646 Z " fill="rgb(0,0,0)" fill-opacity="0.2"/><path d=" M 129.657 182.24 C 129.212 183.797 128.46 184.91 127.39 185.311 C 126.427 185.93 123.52 185.982 119.719 185.842 C 123.767 186.173 126.569 187.039 127.148 187.338 C 127.983 188.473 128.662 189.607 129.078 191.696 C 128.449 187.825 128.645 184.676 129.657 182.24 Z " fill="rgb(194,229,251)" vector-effect="non-scaling-stroke" stroke-width="1" stroke="rgb(0,0,0)" stroke-linejoin="miter" stroke-linecap="square" stroke-miterlimit="3"/><path d=" M 211.634 256.016 C 213.009 256.421 213.988 257.095 214.335 258.045 C 214.876 258.901 214.9 261.474 214.749 264.837 C 215.071 261.256 215.858 258.783 216.127 258.273 C 217.137 257.542 218.146 256.95 219.997 256.597 C 216.567 257.126 213.782 256.929 211.634 256.016 Z " fill="rgb(194,229,251)" vector-effect="non-scaling-stroke" stroke-width="1" stroke="rgb(0,0,0)" stroke-linejoin="miter" stroke-linecap="square" stroke-miterlimit="3"/><path d=" M 285.018 256.786 C 286.458 256.246 287.733 256.191 288.644 256.782 C 289.66 257.167 291.343 259.358 293.384 262.339 C 291.349 259.061 290.427 256.432 290.327 255.821 C 290.722 254.542 291.205 253.383 292.564 251.885 C 289.965 254.553 287.45 256.182 285.018 256.786 Z " fill="rgb(194,229,251)" vector-effect="non-scaling-stroke" stroke-width="1" stroke="rgb(0,0,0)" stroke-linejoin="miter" stroke-linecap="square" stroke-miterlimit="3"/><path d=" M 348.607 244.627 C 349.467 242.886 351.021 241.268 352.601 240.989 C 354.059 240.437 357.876 241.344 363.258 242.182 C 357.553 241.077 354.034 239.774 353.049 238.921 C 352.017 237.929 351.097 236.195 350.81 233.68 C 351.14 238.315 350.401 241.96 348.607 244.627 Z " fill="rgb(194,229,251)" vector-effect="non-scaling-stroke" stroke-width="1" stroke="rgb(0,0,0)" stroke-linejoin="miter" stroke-linecap="square" stroke-miterlimit="3"/><path d=" M 254.334 331.171 C 255.909 331.016 257.28 331.398 258.224 332.441 C 259.292 333.27 260.974 336.541 262.996 340.906 C 260.997 336.18 260.155 332.64 260.083 331.857 C 260.578 330.431 261.16 329.183 262.702 327.829 C 259.765 330.178 256.976 331.287 254.334 331.171 Z " fill="rgb(194,229,251)" vector-effect="non-scaling-stroke" stroke-width="1" stroke="rgb(0,0,0)" stroke-linejoin="miter" stroke-linecap="square" stroke-miterlimit="3"/><path d=" M 323.131 284.449 C 324.165 283.541 325.213 283.091 326.162 283.296 C 327.134 283.296 329.235 284.595 331.886 286.441 C 329.146 284.345 327.542 282.439 327.265 281.96 C 327.19 280.765 327.226 279.643 327.889 277.96 C 326.56 281.014 324.974 283.173 323.131 284.449 Z " fill="rgb(194,229,251)" vector-effect="non-scaling-stroke" stroke-width="1" stroke="rgb(0,0,0)" stroke-linejoin="miter" stroke-linecap="square" stroke-miterlimit="3"/><path d=" M 240.564 291.115 C 242.022 291.097 243.176 291.458 243.798 292.278 C 244.58 292.948 245.375 295.442 246.236 298.757 C 245.476 295.18 245.379 292.989 245.755 291.888 C 246.218 290.981 247.175 290.072 248.869 289.174 C 245.693 290.716 242.927 291.359 240.564 291.115 Z " fill="rgb(194,229,251)" vector-effect="non-scaling-stroke" stroke-width="1" stroke="rgb(0,0,0)" stroke-linejoin="miter" stroke-linecap="square" stroke-miterlimit="3"/><path d=" M 202.237 330.063 C 203.742 330.571 204.796 331.359 205.139 332.426 C 205.7 333.398 205.615 336.247 205.301 339.962 C 205.814 336.013 206.793 333.311 207.112 332.757 C 208.263 331.992 209.405 331.381 211.469 331.071 C 207.65 331.507 204.576 331.167 202.237 330.063 Z " fill="rgb(194,229,251)" vector-effect="non-scaling-stroke" stroke-width="1" stroke="rgb(0,0,0)" stroke-linejoin="miter" stroke-linecap="square" stroke-miterlimit="3"/><path d=" M 170.01 336.435 C 171.007 337.02 171.653 337.837 171.764 338.866 C 172.041 339.82 171.633 342.496 170.959 345.972 C 171.802 342.291 172.821 339.816 173.113 339.317 C 174.017 338.679 174.896 338.184 176.387 338.039 C 173.644 338.178 171.522 337.64 170.01 336.435 Z " fill="rgb(194,229,251)" vector-effect="non-scaling-stroke" stroke-width="1" stroke="rgb(0,0,0)" stroke-linejoin="miter" stroke-linecap="square" stroke-miterlimit="3"/><path d=" M 142.411 241.994 C 143.536 242.89 144.193 243.886 144.157 244.9 C 144.336 245.901 143.388 248.303 141.978 251.372 C 143.629 248.165 145.294 246.162 145.737 245.789 C 146.952 245.491 148.114 245.321 149.968 245.691 C 146.579 244.888 144.064 243.654 142.411 241.994 Z " fill="rgb(194,229,251)" vector-effect="non-scaling-stroke" stroke-width="1" stroke="rgb(0,0,0)" stroke-linejoin="miter" stroke-linecap="square" stroke-miterlimit="3"/><path d=" M 161.097 283.382 C 162.02 284.073 162.569 284.855 162.564 285.669 C 162.731 286.466 162.028 288.412 160.97 290.904 C 162.218 288.296 163.505 286.653 163.85 286.344 C 164.817 286.076 165.744 285.913 167.238 286.166 C 164.504 285.603 162.461 284.673 161.097 283.382 Z " fill="rgb(194,229,251)" vector-effect="non-scaling-stroke" stroke-width="1" stroke="rgb(0,0,0)" stroke-linejoin="miter" stroke-linecap="square" stroke-miterlimit="3"/><path d=" M 130.633 314.058 C 131.719 314.735 132.401 315.549 132.473 316.45 C 132.734 317.316 132.14 319.537 131.206 322.395 C 132.339 319.39 133.607 317.45 133.96 317.074 C 135.005 316.687 136.015 316.418 137.692 316.557 C 134.614 316.192 132.264 315.357 130.633 314.058 Z " fill="rgb(194,229,251)" vector-effect="non-scaling-stroke" stroke-width="1" stroke="rgb(0,0,0)" stroke-linejoin="miter" stroke-linecap="square" stroke-miterlimit="3"/><path d=" M 97.557 289.73 C 98.464 290.988 98.854 292.213 98.521 293.255 C 98.416 294.345 96.731 296.56 94.373 299.334 C 97.022 296.488 99.333 294.896 99.901 294.637 C 101.249 294.682 102.504 294.845 104.32 295.77 C 101.038 293.949 98.788 291.935 97.557 289.73 Z " fill="rgb(194,229,251)" vector-effect="non-scaling-stroke" stroke-width="1" stroke="rgb(0,0,0)" stroke-linejoin="miter" stroke-linecap="square" stroke-miterlimit="3"/><path d=" M 72.109 187.663 C 71.774 188.91 71.154 189.818 70.231 190.177 C 69.409 190.703 66.865 190.857 63.531 190.895 C 67.088 190.998 69.573 191.573 70.091 191.786 C 70.862 192.65 71.497 193.519 71.935 195.151 C 71.247 192.12 71.308 189.626 72.109 187.663 Z " fill="rgb(194,229,251)" vector-effect="non-scaling-stroke" stroke-width="1" stroke="rgb(0,0,0)" stroke-linejoin="miter" stroke-linecap="square" stroke-miterlimit="3"/><path d=" M 93.533 243.474 C 93.974 244.893 93.955 246.125 93.335 246.97 C 92.907 247.929 90.701 249.428 87.714 251.229 C 90.987 249.451 93.573 248.709 94.167 248.647 C 95.378 249.099 96.469 249.629 97.837 251.023 C 95.41 248.368 93.98 245.853 93.533 243.474 Z " fill="rgb(194,229,251)" vector-effect="non-scaling-stroke" stroke-width="1" stroke="rgb(0,0,0)" stroke-linejoin="miter" stroke-linecap="square" stroke-miterlimit="3"/><path d=" M 77.068 152.169 C 76.219 152.951 75.855 153.782 74.591 153.591 C 73.395 153.578 70.205 152.414 66.084 150.765 C 70.431 152.634 73.292 154.323 73.855 154.746 C 74.504 155.793 74.772 156.468 74.739 157.932 C 75.375 156.001 75.821 153.992 77.068 152.169 Z " fill="rgb(194,229,251)" vector-effect="non-scaling-stroke" stroke-width="1" stroke="rgb(0,0,0)" stroke-linejoin="miter" stroke-linecap="square" stroke-miterlimit="3"/><path d=" M 279.179 211.554 C 278.864 213.958 278.647 214.959 279.274 216.827 C 279.193 217.934 281.467 219.357 286.083 221.083 C 280.71 219.348 279.037 219.712 277.145 219.948 C 275.526 220.279 274.939 221.074 271.896 225.34 C 274.606 218.955 277.039 214.365 279.179 211.554 Z " fill="rgb(194,229,251)" vector-effect="non-scaling-stroke" stroke-width="1" stroke="rgb(0,0,0)" stroke-linejoin="miter" stroke-linecap="square" stroke-miterlimit="3"/><path d=" M 289.298 183.005 C 289.324 187.135 289.146 191.131 288.747 194.975 C 290.072 192.167 291.023 190.545 291.582 190.092 C 292.701 188.84 296.041 186.798 301.583 183.95 C 295.307 186.35 292.776 187.172 291.818 186.627 C 290.788 186.404 290.334 185.494 289.298 183.005 Z " fill="rgb(194,229,251)" vector-effect="non-scaling-stroke" stroke-width="1" stroke="rgb(0,0,0)" stroke-linejoin="miter" stroke-linecap="square" stroke-miterlimit="3"/><path d=" M 203.028 139.24 C 206.249 138.562 207.918 138.387 208.885 137.421 C 209.877 136.283 210.904 129.88 211.955 118.201 C 211.202 127.646 211.248 134.137 212.069 137.648 C 212.694 139.127 214.283 139.698 217.187 141.287 C 212.884 139.998 208.168 139.32 203.028 139.24 Z " fill="rgb(194,229,251)" vector-effect="non-scaling-stroke" stroke-width="1" stroke="rgb(0,0,0)" stroke-linejoin="miter" stroke-linecap="square" stroke-miterlimit="3"/><path d=" M 183.644 228.698 C 185.858 230.224 186.493 230.555 186.488 231.364 C 186.552 232.229 185.817 233.284 183.733 235.453 C 186.464 233.195 187.16 232.525 188.177 232.52 C 189.649 232.451 191.251 232.809 196.177 234.387 C 191.196 232.5 187.023 230.609 183.644 228.698 Z " fill="rgb(194,229,251)" vector-effect="non-scaling-stroke" stroke-width="1" stroke="rgb(0,0,0)" stroke-linejoin="miter" stroke-linecap="square" stroke-miterlimit="3"/><path d=" M 286.769 298.782 C 284.273 300.609 281.462 302.22 278.329 303.605 C 280.794 302.801 282.405 302.482 283.152 302.641 C 283.936 302.808 285.313 304.989 287.794 309.031 C 285.682 304.568 284.8 302.276 284.96 301.495 C 284.92 300.598 285.354 300.065 286.769 298.782 Z " fill="rgb(194,229,251)" vector-effect="non-scaling-stroke" stroke-width="1" stroke="rgb(0,0,0)" stroke-linejoin="miter" stroke-linecap="square" stroke-miterlimit="3"/><path d=" M 351.252 181.742 C 352.072 183.656 352.26 186.125 351.8 189.132 C 352.616 187.002 353.326 185.682 353.921 185.163 C 355.087 184.432 360.644 181.971 370.583 177.773 C 360.603 181.474 355.028 183.393 353.852 183.521 C 353.239 183.562 352.375 182.972 351.252 181.742 Z " fill="rgb(194,229,251)" vector-effect="non-scaling-stroke" stroke-width="1" stroke="rgb(0,0,0)" stroke-linejoin="miter" stroke-linecap="square" stroke-miterlimit="3"/><path d=" M 115.03 110.014 C 113.21 111.65 111.951 114.006 111.24 117.07 C 110.885 114.878 110.447 113.396 109.916 112.611 C 109.29 111.586 106.698 108.967 102.125 104.742 C 106.412 108.279 109.459 110.303 111.253 110.801 C 112.059 110.912 113.322 110.653 115.03 110.014 Z " fill="rgb(194,229,251)" vector-effect="non-scaling-stroke" stroke-width="1" stroke="rgb(0,0,0)" stroke-linejoin="miter" stroke-linecap="square" stroke-miterlimit="3"/><path d=" M 183.694 96.322 C 187.201 95.28 192.522 94.978 199.638 95.398 C 195.542 94.638 193.314 94.105 192.937 93.781 C 191.315 91.578 190.095 88.664 189.24 85 C 188.986 89.848 188.684 92.588 188.316 93.203 C 188.117 93.963 186.588 95.015 183.694 96.322 Z " fill="rgb(194,229,251)" vector-effect="non-scaling-stroke" stroke-width="1" stroke="rgb(0,0,0)" stroke-linejoin="miter" stroke-linecap="square" stroke-miterlimit="3"/><path d=" M 155.09 78.588 C 157.847 77.714 160.767 76.596 164.448 76.177 C 161.776 76.214 160.421 76.216 159.746 75.871 C 158.213 74.976 155.75 71.005 152.361 63.306 C 155.627 71.114 157.13 75.481 156.86 76.398 C 156.857 77.036 156.271 77.769 155.09 78.588 Z " fill="rgb(194,229,251)" vector-effect="non-scaling-stroke" stroke-width="1" stroke="rgb(0,0,0)" stroke-linejoin="miter" stroke-linecap="square" stroke-miterlimit="3"/><path d=" M 210.626 77.97 C 213.877 77.751 217.571 78.042 221.694 78.828 C 218.977 77.95 217.487 77.128 217.21 76.348 C 216.528 75.474 215.992 72.204 215.588 66.52 C 214.898 71.839 214.267 75.056 213.68 76.157 C 213.027 76.865 212.019 77.479 210.626 77.97 Z " fill="rgb(194,229,251)" vector-effect="non-scaling-stroke" stroke-width="1" stroke="rgb(0,0,0)" stroke-linejoin="miter" stroke-linecap="square" stroke-miterlimit="3"/><path d=" M 228.028 114.508 C 231.655 115.049 235.695 116.182 240.134 117.891 C 237.372 116.167 235.923 114.926 235.772 114.152 C 235.236 113.269 235.775 109.564 237.374 103.025 C 234.99 109.227 233.903 111.83 232.389 112.995 C 231.266 114.034 229.995 114.342 228.028 114.508 Z " fill="rgb(194,229,251)" vector-effect="non-scaling-stroke" stroke-width="1" stroke="rgb(0,0,0)" stroke-linejoin="miter" stroke-linecap="square" stroke-miterlimit="3"/><path d=" M 252.308 86.578 C 254.91 86.948 257.502 87.637 260.06 88.622 C 258.413 87.425 257.572 86.466 257.523 85.733 C 257.457 83.658 258.894 78.964 261.821 71.639 C 258.732 79.157 256.646 83.577 255.55 84.887 C 254.602 86.007 253.759 86.353 252.308 86.578 Z " fill="rgb(194,229,251)" vector-effect="non-scaling-stroke" stroke-width="1" stroke="rgb(0,0,0)" stroke-linejoin="miter" stroke-linecap="square" stroke-miterlimit="3"/><path d=" M 297.404 110.813 C 299.69 113.126 301.435 115.51 302.626 117.955 C 302.122 116.031 302.024 114.781 302.319 114.192 C 302.401 113.069 305.954 108.833 313.096 102.583 C 305.852 107.711 302.324 111.517 300.706 111.812 C 299.99 111.98 298.894 111.651 297.404 110.813 Z " fill="rgb(194,229,251)" vector-effect="non-scaling-stroke" stroke-width="1" stroke="rgb(0,0,0)" stroke-linejoin="miter" stroke-linecap="square" stroke-miterlimit="3"/><path d=" M 304.399 158.679 C 305.021 160.829 305.201 163.738 304.93 167.398 C 306.003 164.27 306.235 163.18 307.163 162.719 C 308.316 162.16 311.792 161.631 317.583 161.124 C 312.27 161.459 308.764 161.426 307.057 161.018 C 306.19 160.668 305.306 159.891 304.399 158.679 Z " fill="rgb(129,89,166)" vector-effect="non-scaling-stroke" stroke-width="1" stroke="rgb(0,0,0)" stroke-linejoin="miter" stroke-linecap="square" stroke-miterlimit="3"/><path d=" M 188.028 195.306 C 184.938 188.623 178.167 172.875 189.361 165.306 C 196.042 162.25 214.012 162.371 222.028 173.972 C 225.042 180 223.957 187.94 215.028 201.306 C 208.57 208.852 193.945 209.414 188.028 195.306 Z " fill="rgb(57,53,53)"/><defs><filter id="jSHlzj8jtkkKAtMW4ayoubEoygboCYFN" x="-200%" y="-200%" width="400%" height="400%" filterUnits="objectBoundingBox" color-interpolation-filters="sRGB"><feGaussianBlur xmlns="http://www.w3.org/2000/svg" in="SourceGraphic" stdDeviation="0"/><feOffset xmlns="http://www.w3.org/2000/svg" dx="-1" dy="-1" result="pf_100_offsetBlur"/><feFlood xmlns="http://www.w3.org/2000/svg" flood-color="#000000" flood-opacity="0.5"/><feComposite xmlns="http://www.w3.org/2000/svg" in2="pf_100_offsetBlur" operator="in" result="pf_100_dropShadow"/><feBlend xmlns="http://www.w3.org/2000/svg" in="SourceGraphic" in2="pf_100_dropShadow" mode="normal" result="_out_lFkNHmAhk2r2Ij5nSEDTc5fHfIMx3X8H"/><feOffset xmlns="http://www.w3.org/2000/svg" in="_out_lFkNHmAhk2r2Ij5nSEDTc5fHfIMx3X8H" dx="3" dy="4"/><feGaussianBlur xmlns="http://www.w3.org/2000/svg" stdDeviation="0" result="pf_101_offsetBlur"/><feComposite xmlns="http://www.w3.org/2000/svg" in="_out_lFkNHmAhk2r2Ij5nSEDTc5fHfIMx3X8H" in2="pf_101_offsetBlur" result="pf_101_inverse" operator="out"/><feFlood xmlns="http://www.w3.org/2000/svg" flood-color="#000000" flood-opacity="0.25" result="pf_101_color"/><feComposite xmlns="http://www.w3.org/2000/svg" in="pf_101_color" in2="pf_101_inverse" operator="in" result="pf_101_shadow"/><feComposite xmlns="http://www.w3.org/2000/svg" in="pf_101_shadow" in2="_out_lFkNHmAhk2r2Ij5nSEDTc5fHfIMx3X8H" operator="over" result="_out_8J3c11HOW3V2JrIGed7RK3dyYzvf2lvS"/><feMerge><feMergeNode in="_out_8J3c11HOW3V2JrIGed7RK3dyYzvf2lvS"/></feMerge></filter></defs><g filter="url(#jSHlzj8jtkkKAtMW4ayoubEoygboCYFN)"><mask id="_mask_EkPUT81JPreuJTqau3f7Zu90jrSykRaR"><circle vector-effect="non-scaling-stroke" cx="157.48672005228877" cy="126.91432161437751" r="21.320053385622145" fill="white" stroke="none"/></mask><circle vector-effect="non-scaling-stroke" cx="157.48672005228877" cy="126.91432161437751" r="21.320053385622145" fill="rgb(235,235,235)"/><circle vector-effect="non-scaling-stroke" cx="157.48672005228877" cy="126.91432161437751" r="21.320053385622145" fill="rgb(235,235,235)" mask="url(#_mask_EkPUT81JPreuJTqau3f7Zu90jrSykRaR)" stroke-width="6" stroke="rgb(0,0,0)" stroke-linejoin="miter" stroke-linecap="square" stroke-miterlimit="3"/></g><circle vector-effect="non-scaling-stroke" cx="160.9256292741229" cy="127.62577925373103" r="8.747022457876966" fill="rgb(0,0,0)"/><path d=" M 162.297 134.549 C 161.989 133.879 162.677 132.905 163.831 132.375 C 164.985 131.845 166.172 131.958 166.48 132.628 C 166.787 133.298 166.1 134.272 164.945 134.802 C 163.791 135.332 162.604 135.219 162.297 134.549 Z " fill="rgb(255,255,255)"/><defs><filter id="0MWGokd2aqzMmB5MTgUf6Cc7lExJAqgM" x="-200%" y="-200%" width="400%" height="400%" filterUnits="objectBoundingBox" color-interpolation-filters="sRGB"><feGaussianBlur xmlns="http://www.w3.org/2000/svg" in="SourceGraphic" stdDeviation="0"/><feOffset xmlns="http://www.w3.org/2000/svg" dx="1" dy="-1" result="pf_100_offsetBlur"/><feFlood xmlns="http://www.w3.org/2000/svg" flood-color="#000000" flood-opacity="0.5"/><feComposite xmlns="http://www.w3.org/2000/svg" in2="pf_100_offsetBlur" operator="in" result="pf_100_dropShadow"/><feBlend xmlns="http://www.w3.org/2000/svg" in="SourceGraphic" in2="pf_100_dropShadow" mode="normal" result="_out_O5ap8iFfbQNMxFZbD5jW3tbMW4mIxXRw"/><feOffset xmlns="http://www.w3.org/2000/svg" in="_out_O5ap8iFfbQNMxFZbD5jW3tbMW4mIxXRw" dx="-3" dy="4"/><feGaussianBlur xmlns="http://www.w3.org/2000/svg" stdDeviation="0" result="pf_101_offsetBlur"/><feComposite xmlns="http://www.w3.org/2000/svg" in="_out_O5ap8iFfbQNMxFZbD5jW3tbMW4mIxXRw" in2="pf_101_offsetBlur" result="pf_101_inverse" operator="out"/><feFlood xmlns="http://www.w3.org/2000/svg" flood-color="#000000" flood-opacity="0.25" result="pf_101_color"/><feComposite xmlns="http://www.w3.org/2000/svg" in="pf_101_color" in2="pf_101_inverse" operator="in" result="pf_101_shadow"/><feComposite xmlns="http://www.w3.org/2000/svg" in="pf_101_shadow" in2="_out_O5ap8iFfbQNMxFZbD5jW3tbMW4mIxXRw" operator="over" result="_out_EADYZqhPK78oCvqK9RsiHydsLxas2GxI"/><feMerge><feMergeNode in="_out_EADYZqhPK78oCvqK9RsiHydsLxas2GxI"/></feMerge></filter></defs><g filter="url(#0MWGokd2aqzMmB5MTgUf6Cc7lExJAqgM)"><mask id="_mask_isFX8VedHrsqCplCPJ7MDyWrnsaUC0NW"><circle vector-effect="non-scaling-stroke" cx="273.3536484379106" cy="130.56510416666652" r="21.356770833333158" fill="white" stroke="none"/></mask><circle vector-effect="non-scaling-stroke" cx="273.3536484379106" cy="130.56510416666652" r="21.356770833333158" fill="rgb(235,235,235)"/><circle vector-effect="non-scaling-stroke" cx="273.3536484379106" cy="130.56510416666652" r="21.356770833333158" fill="rgb(235,235,235)" mask="url(#_mask_isFX8VedHrsqCplCPJ7MDyWrnsaUC0NW)" stroke-width="6" stroke="rgb(0,0,0)" stroke-linejoin="miter" stroke-linecap="square" stroke-miterlimit="3"/></g><circle vector-effect="non-scaling-stroke" cx="272.6804713545778" cy="131.94140624999977" r="9.621093750000114" fill="rgb(0,0,0)"/><path d=" M 173.352 130.698 C 165.293 136.543 164.363 137.148 160.183 142.204 C 165.28 141.623 166.832 140.734 169.644 138.624 C 171.818 136.259 172.073 134.597 173.352 130.698 Z " fill="rgb(255,255,255)"/><path d=" M 269.846 146.974 C 263.065 138.375 262.359 137.38 256.617 133.01 C 257.481 138.586 258.527 140.252 260.97 143.25 C 263.665 145.534 265.503 145.741 269.846 146.974 Z " fill="rgb(255,255,255)"/><path d=" M 265.847 136.228 C 266.295 135.552 267.604 135.629 268.769 136.4 C 269.933 137.171 270.516 138.346 270.069 139.022 C 269.621 139.698 268.312 139.621 267.147 138.85 C 265.982 138.079 265.4 136.904 265.847 136.228 Z " fill="rgb(255,255,255)"/><path d=" M 188.801 185.85 C 189.972 176.22 197.117 169.155 204.746 170.083 C 212.374 171.011 217.617 179.582 216.446 189.212 C 215.275 198.842 208.13 205.907 200.501 204.979 C 192.873 204.051 187.63 195.479 188.801 185.85 Z " fill="rgb(0,0,0)"/></g></svg>