<?xml version="1.0" encoding="UTF-8" standalone="no"?><!-- Generator: Gravit.io --><svg xmlns="http://www.w3.org/2000/svg" xmlns:xlink="http://www.w3.org/1999/xlink" style="isolation:isolate" viewBox="0 0 440 380" width="440pt" height="380pt"><defs><clipPath id="_clipPath_C2bbQi0VAanpz33x9xdSUa0mRMyjuHg9"><rect width="440" height="380"/></clipPath></defs><g clip-path="url(#_clipPath_C2bbQi0VAanpz33x9xdSUa0mRMyjuHg9)"><path d=" M 131.892 172.849 C 130.392 168.641 130.498 165.314 129.278 162.752 C 123.351 162.959 114.532 167.664 104.917 168.408 C 104.094 168.128 103.46 167.532 103 166.602 C 103.242 159.735 104.5 155.546 106.762 154.016 C 105.276 146.712 108.354 140.379 115.982 134.997 C 114.364 129.162 114.405 125.101 116.091 122.796 C 115.824 117.356 116.408 113.527 117.829 111.29 C 115.483 107.709 117.36 100.269 117.319 87.539 C 117.318 87.257 117.528 86.936 117.787 86.824 C 118.576 86.483 119.945 86.669 121.413 87.568 C 132.32 116.321 133.272 125.958 137.071 133.243 C 139.466 133.569 142.752 131.248 147.568 130.607 C 141.077 141.564 135.855 155.651 131.892 172.849 Z " fill="rgb(149,212,251)" vector-effect="non-scaling-stroke" stroke-width="3" stroke="rgb(0,0,0)" stroke-linejoin="miter" stroke-linecap="square" stroke-miterlimit="3"/><path d=" M 301.157 141.233 C 305.37 151.027 307.45 161.964 309.942 174.537 C 310.659 173.303 311.159 170.987 312.231 167.847 C 315.199 167.963 321.303 173.152 331.058 174.995 C 331.356 175.052 331.764 174.916 331.968 174.692 C 333.998 172.473 333.811 170.935 337.599 168.586 C 337.856 168.426 338.035 168.052 337.999 167.751 C 337.388 162.75 335.032 155.426 330.985 146.302 C 330.329 138.407 324.064 113.015 316.412 101.983 C 316.239 101.734 316.062 101.775 316.016 102.075 C 315.645 104.48 314.679 105.594 313.865 104.409 C 313.188 102.893 313.073 101.254 313.498 99.447 C 311.498 93.924 310.087 86.715 308.209 87.189 C 305.873 92.27 305.452 110.311 301.157 141.233 Z " fill="rgb(149,212,251)" vector-effect="non-scaling-stroke" stroke-width="3" stroke="rgb(0,0,0)" stroke-linejoin="miter" stroke-linecap="square" stroke-miterlimit="3"/><mask id="_mask_xynkHynlJ0YaNsHdLZiMubsJ3OslQDEn"><path d=" M 146.034 122.752 C 142.74 111.72 139.967 99.275 147.354 89.369 C 153.451 80.479 172.992 80.004 184.386 91.143 C 198.542 88.882 229.184 84.959 255.116 91.006 C 265.277 82.709 281.692 77.967 291.384 89.651 C 298.888 98.287 294.198 116.914 291.541 124.195 C 342.227 189.203 323.275 252.211 293.26 275.41 C 257.982 301.148 176.639 300.132 143.289 274.394 C 121.456 256.557 97.016 192.437 146.034 122.752 Z " fill="white" stroke="none"/></mask><path d=" M 146.034 122.752 C 142.74 111.72 139.967 99.275 147.354 89.369 C 153.451 80.479 172.992 80.004 184.386 91.143 C 198.542 88.882 229.184 84.959 255.116 91.006 C 265.277 82.709 281.692 77.967 291.384 89.651 C 298.888 98.287 294.198 116.914 291.541 124.195 C 342.227 189.203 323.275 252.211 293.26 275.41 C 257.982 301.148 176.639 300.132 143.289 274.394 C 121.456 256.557 97.016 192.437 146.034 122.752 Z " fill="rgb(253,128,128)"/><path d=" M 146.034 122.752 C 142.74 111.72 139.967 99.275 147.354 89.369 C 153.451 80.479 172.992 80.004 184.386 91.143 C 198.542 88.882 229.184 84.959 255.116 91.006 C 265.277 82.709 281.692 77.967 291.384 89.651 C 298.888 98.287 294.198 116.914 291.541 124.195 C 342.227 189.203 323.275 252.211 293.26 275.41 C 257.982 301.148 176.639 300.132 143.289 274.394 C 121.456 256.557 97.016 192.437 146.034 122.752 Z " fill="rgb(253,128,128)" mask="url(#_mask_xynkHynlJ0YaNsHdLZiMubsJ3OslQDEn)" vector-effect="non-scaling-stroke" stroke-width="6" stroke="rgb(0,0,0)" stroke-linejoin="miter" stroke-linecap="square" stroke-miterlimit="3"/><path d=" M 128.657 153.355 C 124.738 153.959 120.721 153.298 115.083 153.574 C 120.087 153.709 124.481 153.875 128.493 154.182 C 128.542 153.767 128.502 153.649 128.657 153.355 Z " fill="rgb(0,0,0)"/><path d=" M 130.594 144.776 C 127.905 143.405 125.356 141.243 121.566 138.904 C 124.879 141.217 127.783 143.277 130.413 145.255 C 130.5 145.019 130.452 144.89 130.594 144.776 Z " fill="rgb(0,0,0)"/><path d=" M 132.827 140.42 C 130.127 133.39 126.856 127.321 122.722 117.655 C 126.551 125.946 129.935 133.193 133.09 139.692 C 132.951 140.086 132.92 139.964 132.827 140.42 Z " fill="rgb(0,0,0)"/><path d=" M 311.863 152.72 C 315.834 152.382 319.673 150.41 325.316 149.192 C 320.351 150.743 315.996 152.164 312.037 153.654 C 311.941 153.155 312.004 153.177 311.863 152.72 Z " fill="rgb(0,0,0)"/><path d=" M 307.623 140.239 C 309.115 130.201 311.6 118.765 314.282 105.487 C 314.426 104.689 314.035 105.892 314.181 105.063 C 311.634 117.957 309.371 129.246 307.213 139.436 C 307.431 139.873 307.442 139.696 307.623 140.239 Z " fill="rgb(0,0,0)"/><path d=" M 124.083 238.658 C 186.825 302.527 257.053 287.181 317.833 235.838 C 311.371 264.733 272.497 297.016 216.573 293.588 C 162.571 290.566 131.31 273.734 124.083 238.658 Z " fill="rgb(0,0,0)" fill-opacity="0.2"/><defs><filter id="oMrNUJPScjaeDUHQmrOjzq7IAW2TnHbo" x="-200%" y="-200%" width="400%" height="400%" filterUnits="objectBoundingBox" color-interpolation-filters="sRGB"><feGaussianBlur xmlns="http://www.w3.org/2000/svg" in="SourceGraphic" stdDeviation="0"/><feOffset xmlns="http://www.w3.org/2000/svg" dx="-0.5" dy="-0.5" result="pf_100_offsetBlur"/><feFlood xmlns="http://www.w3.org/2000/svg" flood-color="#000000" flood-opacity="0.25"/><feComposite xmlns="http://www.w3.org/2000/svg" in2="pf_100_offsetBlur" operator="in" result="pf_100_dropShadow"/><feBlend xmlns="http://www.w3.org/2000/svg" in="SourceGraphic" in2="pf_100_dropShadow" mode="normal"/></filter></defs><g filter="url(#oMrNUJPScjaeDUHQmrOjzq7IAW2TnHbo)"><mask id="_mask_kvfPKSXVvV642qz8BXbJZhXFKYdiVy86"><circle vector-effect="non-scaling-stroke" cx="164.10499320500927" cy="103.8582123567115" r="16.104993205009293" fill="white" stroke="none"/></mask><circle vector-effect="non-scaling-stroke" cx="164.10499320500927" cy="103.8582123567115" r="16.104993205009293" fill="rgb(235,235,235)"/><circle vector-effect="non-scaling-stroke" cx="164.10499320500927" cy="103.8582123567115" r="16.104993205009293" fill="rgb(235,235,235)" mask="url(#_mask_kvfPKSXVvV642qz8BXbJZhXFKYdiVy86)" stroke-width="6" stroke="rgb(0,0,0)" stroke-linejoin="miter" stroke-linecap="square" stroke-miterlimit="3"/></g><defs><filter id="NHv7fNF4X1V5zXJMONbF4RlFEw2T14WJ" x="-200%" y="-200%" width="400%" height="400%" filterUnits="objectBoundingBox" color-interpolation-filters="sRGB"><feGaussianBlur xmlns="http://www.w3.org/2000/svg" in="SourceGraphic" stdDeviation="0"/><feOffset xmlns="http://www.w3.org/2000/svg" dx="0.5" dy="-0.5" result="pf_100_offsetBlur"/><feFlood xmlns="http://www.w3.org/2000/svg" flood-color="#000000" flood-opacity="0.25"/><feComposite xmlns="http://www.w3.org/2000/svg" in2="pf_100_offsetBlur" operator="in" result="pf_100_dropShadow"/><feBlend xmlns="http://www.w3.org/2000/svg" in="SourceGraphic" in2="pf_100_dropShadow" mode="normal"/></filter></defs><g filter="url(#NHv7fNF4X1V5zXJMONbF4RlFEw2T14WJ)"><mask id="_mask_JRcdYyKbYKpZnntUGfGo0v3C1P6PQAc7"><circle vector-effect="non-scaling-stroke" cx="275.2143682050092" cy="103.81819876673009" r="16.104993205009293" fill="white" stroke="none"/></mask><circle vector-effect="non-scaling-stroke" cx="275.2143682050092" cy="103.81819876673009" r="16.104993205009293" fill="rgb(235,235,235)"/><circle vector-effect="non-scaling-stroke" cx="275.2143682050092" cy="103.81819876673009" r="16.104993205009293" fill="rgb(235,235,235)" mask="url(#_mask_JRcdYyKbYKpZnntUGfGo0v3C1P6PQAc7)" stroke-width="6" stroke="rgb(0,0,0)" stroke-linejoin="miter" stroke-linecap="square" stroke-miterlimit="3"/></g><circle vector-effect="non-scaling-stroke" cx="165.2447401838531" cy="104.77538503147854" r="10.619740183853366" fill="rgb(0,0,0)"/><circle vector-effect="non-scaling-stroke" cx="275.04161518385297" cy="104.7353714414971" r="10.619740183853366" fill="rgb(0,0,0)"/><path d=" M 171.291 112.279 C 170.961 111.923 171.19 111.172 171.802 110.602 C 172.415 110.033 173.18 109.858 173.511 110.214 C 173.842 110.569 173.613 111.32 173 111.89 C 172.388 112.46 171.622 112.634 171.291 112.279 Z " fill="rgb(255,255,255)"/><path d=" M 267.616 111.155 C 267.902 110.763 268.683 110.846 269.358 111.34 C 270.033 111.834 270.349 112.554 270.062 112.945 C 269.775 113.337 268.994 113.254 268.319 112.76 C 267.644 112.266 267.329 111.547 267.616 111.155 Z " fill="rgb(255,255,255)"/><defs><filter id="tNserABftcS7V7kS6iPFLCIcPW7ZZKUN" x="-200%" y="-200%" width="400%" height="400%" filterUnits="objectBoundingBox" color-interpolation-filters="sRGB"><feGaussianBlur xmlns="http://www.w3.org/2000/svg" in="SourceGraphic" stdDeviation="0"/><feOffset xmlns="http://www.w3.org/2000/svg" dx="1" dy="1" result="pf_100_offsetBlur"/><feFlood xmlns="http://www.w3.org/2000/svg" flood-color="#000000" flood-opacity="0.3"/><feComposite xmlns="http://www.w3.org/2000/svg" in2="pf_100_offsetBlur" operator="in" result="pf_100_dropShadow"/><feBlend xmlns="http://www.w3.org/2000/svg" in="SourceGraphic" in2="pf_100_dropShadow" mode="normal"/></filter></defs><g filter="url(#tNserABftcS7V7kS6iPFLCIcPW7ZZKUN)"><path d=" M 214.049 189.955 C 211.976 186.195 212.662 184.819 215.455 182.174 C 219.091 181.167 221.913 181.177 225.299 182.549 C 227.919 185.216 228.314 187.017 226.424 190.424 C 227.58 193.898 227.152 194.782 225.486 197.267 C 222.861 199.424 217.611 198.955 214.424 196.892 C 212.494 193.981 212.628 192.709 214.049 189.955 Z " fill="rgb(68,68,68)" vector-effect="non-scaling-stroke" stroke-width="1" stroke="rgb(0,0,0)" stroke-linejoin="miter" stroke-linecap="square" stroke-miterlimit="3"/></g><path d=" M 213.861 189.33 C 218.054 192.049 221.647 192.262 226.517 189.939" fill="none" vector-effect="non-scaling-stroke" stroke-width="1" stroke="rgb(0,0,0)" stroke-linejoin="miter" stroke-linecap="square" stroke-miterlimit="3"/></g></svg>