<?xml version="1.0" encoding="UTF-8" standalone="no"?><!-- Generator: Gravit.io --><svg xmlns="http://www.w3.org/2000/svg" xmlns:xlink="http://www.w3.org/1999/xlink" style="isolation:isolate" viewBox="0 0 440 380" width="440pt" height="380pt"><defs><clipPath id="_clipPath_x7d4moluyCYmDZ65lvFkpyqLM54S8aqG"><rect width="440" height="380"/></clipPath></defs><g clip-path="url(#_clipPath_x7d4moluyCYmDZ65lvFkpyqLM54S8aqG)"><path d=" M 133.357 172.849 C 131.998 168.576 132.094 165.198 130.988 162.596 C 125.615 162.807 117.621 167.584 108.904 168.339 C 108.159 168.055 107.584 167.45 107.167 166.506 C 107.386 159.533 108.527 155.279 110.577 153.725 C 109.23 146.308 112.02 139.877 118.935 134.413 C 117.468 128.487 117.505 124.364 119.034 122.023 C 118.792 116.499 119.321 112.611 120.609 110.34 C 118.482 106.703 120.184 99.148 120.147 86.193 C 120.146 85.922 120.343 85.606 120.587 85.488 C 121.286 85.149 122.528 85.338 123.858 86.251 C 133.746 115.448 134.609 125.234 138.052 132.631 C 140.224 132.963 143.202 130.605 147.568 129.955 C 141.683 141.081 136.95 155.386 133.357 172.849 Z " fill="rgb(149,212,251)" vector-effect="non-scaling-stroke" stroke-width="3" stroke="rgb(0,0,0)" stroke-linejoin="miter" stroke-linecap="square" stroke-miterlimit="3"/><path d=" M 301.157 141.297 C 304.874 151.073 306.709 161.989 308.908 174.537 C 309.54 173.306 309.982 170.995 310.927 167.861 C 313.546 167.976 318.932 173.155 327.511 174.99 C 327.789 175.049 328.16 174.918 328.339 174.697 C 330.133 172.478 329.968 170.943 333.3 168.605 C 333.532 168.441 333.696 168.079 333.666 167.797 C 333.124 162.773 331.045 155.463 327.475 146.356 C 326.895 138.476 321.368 113.133 314.61 102.111 C 314.461 101.868 314.309 101.9 314.271 102.182 C 313.94 104.614 313.088 105.726 312.37 104.543 C 311.772 103.029 311.671 101.394 312.045 99.59 C 310.281 94.078 309.036 86.883 307.379 87.355 C 305.318 92.427 304.946 110.434 301.157 141.297 Z " fill="rgb(149,212,251)" vector-effect="non-scaling-stroke" stroke-width="3" stroke="rgb(0,0,0)" stroke-linejoin="miter" stroke-linecap="square" stroke-miterlimit="3"/><mask id="_mask_EXv2lqHmi8TNbiVuflzMJectw4WMJCO5"><path d=" M 146.034 122.752 C 142.74 111.72 139.967 99.275 147.354 89.369 C 153.451 80.479 172.992 80.004 184.386 91.143 C 198.542 88.882 229.184 84.959 255.116 91.006 C 265.277 82.709 281.692 77.967 291.384 89.651 C 298.888 98.287 294.198 116.914 291.541 124.195 C 342.227 189.203 323.275 252.211 293.26 275.41 C 257.982 301.148 176.639 300.132 143.289 274.394 C 121.456 256.557 97.016 192.437 146.034 122.752 Z " fill="white" stroke="none"/></mask><path d=" M 146.034 122.752 C 142.74 111.72 139.967 99.275 147.354 89.369 C 153.451 80.479 172.992 80.004 184.386 91.143 C 198.542 88.882 229.184 84.959 255.116 91.006 C 265.277 82.709 281.692 77.967 291.384 89.651 C 298.888 98.287 294.198 116.914 291.541 124.195 C 342.227 189.203 323.275 252.211 293.26 275.41 C 257.982 301.148 176.639 300.132 143.289 274.394 C 121.456 256.557 97.016 192.437 146.034 122.752 Z " fill="rgb(253,128,128)"/><path d=" M 146.034 122.752 C 142.74 111.72 139.967 99.275 147.354 89.369 C 153.451 80.479 172.992 80.004 184.386 91.143 C 198.542 88.882 229.184 84.959 255.116 91.006 C 265.277 82.709 281.692 77.967 291.384 89.651 C 298.888 98.287 294.198 116.914 291.541 124.195 C 342.227 189.203 323.275 252.211 293.26 275.41 C 257.982 301.148 176.639 300.132 143.289 274.394 C 121.456 256.557 97.016 192.437 146.034 122.752 Z " fill="rgb(253,128,128)" mask="url(#_mask_EXv2lqHmi8TNbiVuflzMJectw4WMJCO5)" vector-effect="non-scaling-stroke" stroke-width="6" stroke="rgb(0,0,0)" stroke-linejoin="miter" stroke-linecap="square" stroke-miterlimit="3"/><path d=" M 130.425 153.054 C 126.872 153.667 123.231 152.996 118.12 153.276 C 122.656 153.414 126.639 153.582 130.277 153.894 C 130.321 153.473 130.285 153.352 130.425 153.054 Z " fill="rgb(0,0,0)"/><path d=" M 132.181 144.343 C 129.744 142.951 127.432 140.755 123.997 138.38 C 127 140.728 129.632 142.82 132.017 144.829 C 132.096 144.589 132.052 144.458 132.181 144.343 Z " fill="rgb(0,0,0)"/><path d=" M 134.205 139.92 C 131.757 132.781 128.792 126.617 125.045 116.802 C 128.516 125.222 131.583 132.581 134.443 139.18 C 134.318 139.58 134.289 139.456 134.205 139.92 Z " fill="rgb(0,0,0)"/><path d=" M 310.603 152.762 C 314.106 152.425 317.493 150.457 322.473 149.241 C 318.092 150.789 314.249 152.207 310.756 153.695 C 310.672 153.196 310.727 153.218 310.603 152.762 Z " fill="rgb(0,0,0)"/><path d=" M 306.862 140.305 C 308.178 130.286 310.371 118.871 312.737 105.619 C 312.864 104.822 312.519 106.023 312.648 105.196 C 310.401 118.065 308.404 129.333 306.5 139.504 C 306.692 139.939 306.702 139.763 306.862 140.305 Z " fill="rgb(0,0,0)"/><path d=" M 124.083 238.658 C 186.825 302.527 257.053 287.181 317.833 235.838 C 311.371 264.733 272.497 297.016 216.573 293.588 C 162.571 290.566 131.31 273.734 124.083 238.658 Z " fill="rgb(0,0,0)" fill-opacity="0.2"/><defs><filter id="QmrYtsD5z5ktam5yTD5foKHA4M5PW4bW" x="-200%" y="-200%" width="400%" height="400%" filterUnits="objectBoundingBox" color-interpolation-filters="sRGB"><feGaussianBlur xmlns="http://www.w3.org/2000/svg" in="SourceGraphic" stdDeviation="0"/><feOffset xmlns="http://www.w3.org/2000/svg" dx="-0.5" dy="-0.5" result="pf_100_offsetBlur"/><feFlood xmlns="http://www.w3.org/2000/svg" flood-color="#000000" flood-opacity="0.25"/><feComposite xmlns="http://www.w3.org/2000/svg" in2="pf_100_offsetBlur" operator="in" result="pf_100_dropShadow"/><feBlend xmlns="http://www.w3.org/2000/svg" in="SourceGraphic" in2="pf_100_dropShadow" mode="normal"/></filter></defs><g filter="url(#QmrYtsD5z5ktam5yTD5foKHA4M5PW4bW)"><mask id="_mask_1HN2OZrG5Lfk02EBFS84V1vFdAoPYyXU"><circle vector-effect="non-scaling-stroke" cx="164.10499320500927" cy="103.8582123567115" r="16.104993205009293" fill="white" stroke="none"/></mask><circle vector-effect="non-scaling-stroke" cx="164.10499320500927" cy="103.8582123567115" r="16.104993205009293" fill="rgb(235,235,235)"/><circle vector-effect="non-scaling-stroke" cx="164.10499320500927" cy="103.8582123567115" r="16.104993205009293" fill="rgb(235,235,235)" mask="url(#_mask_1HN2OZrG5Lfk02EBFS84V1vFdAoPYyXU)" stroke-width="6" stroke="rgb(0,0,0)" stroke-linejoin="miter" stroke-linecap="square" stroke-miterlimit="3"/></g><defs><filter id="AgxIW0AXLgMaaGTs7qO2ETWSWZwRsxLk" x="-200%" y="-200%" width="400%" height="400%" filterUnits="objectBoundingBox" color-interpolation-filters="sRGB"><feGaussianBlur xmlns="http://www.w3.org/2000/svg" in="SourceGraphic" stdDeviation="0"/><feOffset xmlns="http://www.w3.org/2000/svg" dx="0.5" dy="-0.5" result="pf_100_offsetBlur"/><feFlood xmlns="http://www.w3.org/2000/svg" flood-color="#000000" flood-opacity="0.25"/><feComposite xmlns="http://www.w3.org/2000/svg" in2="pf_100_offsetBlur" operator="in" result="pf_100_dropShadow"/><feBlend xmlns="http://www.w3.org/2000/svg" in="SourceGraphic" in2="pf_100_dropShadow" mode="normal"/></filter></defs><g filter="url(#AgxIW0AXLgMaaGTs7qO2ETWSWZwRsxLk)"><mask id="_mask_jmTwuLJJZGq8UaGiX7BQM8YEiopEETSR"><circle vector-effect="non-scaling-stroke" cx="275.2143682050092" cy="103.81819876673009" r="16.104993205009293" fill="white" stroke="none"/></mask><circle vector-effect="non-scaling-stroke" cx="275.2143682050092" cy="103.81819876673009" r="16.104993205009293" fill="rgb(235,235,235)"/><circle vector-effect="non-scaling-stroke" cx="275.2143682050092" cy="103.81819876673009" r="16.104993205009293" fill="rgb(235,235,235)" mask="url(#_mask_jmTwuLJJZGq8UaGiX7BQM8YEiopEETSR)" stroke-width="6" stroke="rgb(0,0,0)" stroke-linejoin="miter" stroke-linecap="square" stroke-miterlimit="3"/></g><circle vector-effect="non-scaling-stroke" cx="165.2447401838531" cy="104.77538503147854" r="10.619740183853366" fill="rgb(0,0,0)"/><circle vector-effect="non-scaling-stroke" cx="275.04161518385297" cy="104.7353714414971" r="10.619740183853366" fill="rgb(0,0,0)"/><path d=" M 171.291 112.279 C 170.961 111.923 171.19 111.172 171.802 110.602 C 172.415 110.033 173.18 109.858 173.511 110.214 C 173.842 110.569 173.613 111.32 173 111.89 C 172.388 112.46 171.622 112.634 171.291 112.279 Z " fill="rgb(255,255,255)"/><path d=" M 267.616 111.155 C 267.902 110.763 268.683 110.846 269.358 111.34 C 270.033 111.834 270.349 112.554 270.062 112.945 C 269.775 113.337 268.994 113.254 268.319 112.76 C 267.644 112.266 267.329 111.547 267.616 111.155 Z " fill="rgb(255,255,255)"/><defs><filter id="ZiuBhMfdQpUff7RbOG1a5onFuyA7ar7S" x="-200%" y="-200%" width="400%" height="400%" filterUnits="objectBoundingBox" color-interpolation-filters="sRGB"><feGaussianBlur xmlns="http://www.w3.org/2000/svg" in="SourceGraphic" stdDeviation="0"/><feOffset xmlns="http://www.w3.org/2000/svg" dx="1" dy="1" result="pf_100_offsetBlur"/><feFlood xmlns="http://www.w3.org/2000/svg" flood-color="#000000" flood-opacity="0.3"/><feComposite xmlns="http://www.w3.org/2000/svg" in2="pf_100_offsetBlur" operator="in" result="pf_100_dropShadow"/><feBlend xmlns="http://www.w3.org/2000/svg" in="SourceGraphic" in2="pf_100_dropShadow" mode="normal"/></filter></defs><g filter="url(#ZiuBhMfdQpUff7RbOG1a5onFuyA7ar7S)"><path d=" M 214.049 189.955 C 211.976 186.195 212.662 184.819 215.455 182.174 C 219.091 181.167 221.913 181.177 225.299 182.549 C 227.919 185.216 228.314 187.017 226.424 190.424 C 227.58 193.898 227.152 194.782 225.486 197.267 C 222.861 199.424 217.611 198.955 214.424 196.892 C 212.494 193.981 212.628 192.709 214.049 189.955 Z " fill="rgb(68,68,68)" vector-effect="non-scaling-stroke" stroke-width="1" stroke="rgb(0,0,0)" stroke-linejoin="miter" stroke-linecap="square" stroke-miterlimit="3"/></g><path d=" M 213.861 189.33 C 218.054 192.049 221.647 192.262 226.517 189.939" fill="none" vector-effect="non-scaling-stroke" stroke-width="1" stroke="rgb(0,0,0)" stroke-linejoin="miter" stroke-linecap="square" stroke-miterlimit="3"/></g></svg>