<?xml version="1.0" encoding="UTF-8" standalone="no"?><!-- Generator: Gravit.io --><svg xmlns="http://www.w3.org/2000/svg" xmlns:xlink="http://www.w3.org/1999/xlink" style="isolation:isolate" viewBox="0 0 318 348" width="318pt" height="348pt"><defs><clipPath id="_clipPath_lE3HODUguWHnjARSdNBxScqJ6CqUBmo6"><rect width="318" height="348"/></clipPath></defs><g clip-path="url(#_clipPath_lE3HODUguWHnjARSdNBxScqJ6CqUBmo6)"><g style="isolation:isolate"><g style="isolation:isolate"><mask id="_mask_jhU44MQ4Xoh3ZYL7xVUmn8PwarGe54hA"><path d=" M 205.295 56.278 C 194.227 38.197 164.314 29.353 143.961 16.278 C 142.538 15.127 159.481 12.765 164.072 7.5 C 171.915 6.99 183.635 6.1 184.072 2.833 C 190.719 3.8 209.405 10.338 214.295 7.944 C 228.21 11.464 244.214 9.177 243.628 6.611 C 248.128 9.986 260.852 6.674 270.295 5.944 C 234.295 49.944 251.564 103.799 258.295 126.611 C 243.795 120.361 224.229 82.02 205.295 56.278 Z " fill="white" stroke="none"/></mask><path d=" M 205.295 56.278 C 194.227 38.197 164.314 29.353 143.961 16.278 C 142.538 15.127 159.481 12.765 164.072 7.5 C 171.915 6.99 183.635 6.1 184.072 2.833 C 190.719 3.8 209.405 10.338 214.295 7.944 C 228.21 11.464 244.214 9.177 243.628 6.611 C 248.128 9.986 260.852 6.674 270.295 5.944 C 234.295 49.944 251.564 103.799 258.295 126.611 C 243.795 120.361 224.229 82.02 205.295 56.278 Z " fill="rgb(238,238,238)"/><path d=" M 205.295 56.278 C 194.227 38.197 164.314 29.353 143.961 16.278 C 142.538 15.127 159.481 12.765 164.072 7.5 C 171.915 6.99 183.635 6.1 184.072 2.833 C 190.719 3.8 209.405 10.338 214.295 7.944 C 228.21 11.464 244.214 9.177 243.628 6.611 C 248.128 9.986 260.852 6.674 270.295 5.944 C 234.295 49.944 251.564 103.799 258.295 126.611 C 243.795 120.361 224.229 82.02 205.295 56.278 Z " fill="rgb(238,238,238)" mask="url(#_mask_jhU44MQ4Xoh3ZYL7xVUmn8PwarGe54hA)" vector-effect="non-scaling-stroke" stroke-width="6" stroke="rgb(0,0,0)" stroke-linejoin="miter" stroke-linecap="square" stroke-miterlimit="3"/><mask id="_mask_gZTrKDJWgH0YcmifjzPMlm16Pc7dPyo6"><path d=" M 191.648 268.051 C 175.375 281.639 142.011 280.875 118.544 286.749 C 120.721 291.413 134.568 297.816 133.402 300.212 C 137.29 302.364 148.071 306.976 150.857 311.034 C 157.257 311.861 176.99 311.678 181.125 315.865 C 187.842 315.313 202.234 322.622 208.489 326.516 C 213.832 324.758 224.827 331.969 233.539 335.682 C 213.515 282.474 247.112 236.979 260.789 217.521 C 245.051 218.802 217.824 249.722 191.648 268.051 Z " fill="white" stroke="none"/></mask><path d=" M 191.648 268.051 C 175.375 281.639 142.011 280.875 118.544 286.749 C 120.721 291.413 134.568 297.816 133.402 300.212 C 137.29 302.364 148.071 306.976 150.857 311.034 C 157.257 311.861 176.99 311.678 181.125 315.865 C 187.842 315.313 202.234 322.622 208.489 326.516 C 213.832 324.758 224.827 331.969 233.539 335.682 C 213.515 282.474 247.112 236.979 260.789 217.521 C 245.051 218.802 217.824 249.722 191.648 268.051 Z " fill="rgb(238,238,238)"/><path d=" M 191.648 268.051 C 175.375 281.639 142.011 280.875 118.544 286.749 C 120.721 291.413 134.568 297.816 133.402 300.212 C 137.29 302.364 148.071 306.976 150.857 311.034 C 157.257 311.861 176.99 311.678 181.125 315.865 C 187.842 315.313 202.234 322.622 208.489 326.516 C 213.832 324.758 224.827 331.969 233.539 335.682 C 213.515 282.474 247.112 236.979 260.789 217.521 C 245.051 218.802 217.824 249.722 191.648 268.051 Z " fill="rgb(238,238,238)" mask="url(#_mask_gZTrKDJWgH0YcmifjzPMlm16Pc7dPyo6)" vector-effect="non-scaling-stroke" stroke-width="6" stroke="rgb(0,0,0)" stroke-linejoin="miter" stroke-linecap="square" stroke-miterlimit="3"/><mask id="_mask_BQgFHeONyB0Q8GKVFQo7Iv2g5vxKVBIq"><path d=" M 274.294 150.611 C 280.769 132.389 288.354 110.863 296.961 85.944 C 305.196 97.481 310.549 107.057 312.961 114.611 C 315.45 140.747 316.803 162.323 316.961 179.278 C 314.663 203.449 311.35 225.913 306.961 246.611 C 303.524 256.101 297.544 268.565 288.961 283.944 C 284.229 258.335 279.805 237.466 275.628 221.278 L 274.294 150.611 Z " fill="white" stroke="none"/></mask><path d=" M 274.294 150.611 C 280.769 132.389 288.354 110.863 296.961 85.944 C 305.196 97.481 310.549 107.057 312.961 114.611 C 315.45 140.747 316.803 162.323 316.961 179.278 C 314.663 203.449 311.35 225.913 306.961 246.611 C 303.524 256.101 297.544 268.565 288.961 283.944 C 284.229 258.335 279.805 237.466 275.628 221.278 L 274.294 150.611 Z " fill="rgb(238,238,238)"/><path d=" M 274.294 150.611 C 280.769 132.389 288.354 110.863 296.961 85.944 C 305.196 97.481 310.549 107.057 312.961 114.611 C 315.45 140.747 316.803 162.323 316.961 179.278 C 314.663 203.449 311.35 225.913 306.961 246.611 C 303.524 256.101 297.544 268.565 288.961 283.944 C 284.229 258.335 279.805 237.466 275.628 221.278 L 274.294 150.611 Z " fill="rgb(238,238,238)" mask="url(#_mask_BQgFHeONyB0Q8GKVFQo7Iv2g5vxKVBIq)" vector-effect="non-scaling-stroke" stroke-width="6" stroke="rgb(0,0,0)" stroke-linejoin="miter" stroke-linecap="square" stroke-miterlimit="3"/><mask id="_mask_MpUMdHLef4UpWXVH6qJetG3C83b4s9Gs"><path d=" M 104.94 298 C 101.922 302.17 88.661 301.572 86 301.717 C 95.906 314.719 94.516 329.781 101 338 C 105.637 332.202 112.641 318.656 104.94 298 Z " fill="white" stroke="none"/></mask><path d=" M 104.94 298 C 101.922 302.17 88.661 301.572 86 301.717 C 95.906 314.719 94.516 329.781 101 338 C 105.637 332.202 112.641 318.656 104.94 298 Z " fill="rgb(238,238,238)"/><path d=" M 104.94 298 C 101.922 302.17 88.661 301.572 86 301.717 C 95.906 314.719 94.516 329.781 101 338 C 105.637 332.202 112.641 318.656 104.94 298 Z " fill="rgb(238,238,238)" mask="url(#_mask_MpUMdHLef4UpWXVH6qJetG3C83b4s9Gs)" vector-effect="non-scaling-stroke" stroke-width="6" stroke="rgb(0,0,0)" stroke-linejoin="miter" stroke-linecap="square" stroke-miterlimit="3"/><mask id="_mask_lhx00blYxnGqbFpnGqt5PemquWbmhkn9"><path d=" M 102.263 304.439 C 98.575 308.03 82.383 307.853 79.737 307.54 C 86.609 311.58 76.85 330.024 85.456 348.592 C 94.545 334.553 101.649 326.42 102.263 304.439 Z " fill="white" stroke="none"/></mask><path d=" M 102.263 304.439 C 98.575 308.03 82.383 307.853 79.737 307.54 C 86.609 311.58 76.85 330.024 85.456 348.592 C 94.545 334.553 101.649 326.42 102.263 304.439 Z " fill="rgb(238,238,238)"/><path d=" M 102.263 304.439 C 98.575 308.03 82.383 307.853 79.737 307.54 C 86.609 311.58 76.85 330.024 85.456 348.592 C 94.545 334.553 101.649 326.42 102.263 304.439 Z " fill="rgb(238,238,238)" mask="url(#_mask_lhx00blYxnGqbFpnGqt5PemquWbmhkn9)" vector-effect="non-scaling-stroke" stroke-width="6" stroke="rgb(0,0,0)" stroke-linejoin="miter" stroke-linecap="square" stroke-miterlimit="3"/><mask id="_mask_cQ7icCgXzuWouvITitZjY5wAjv2utiEZ"><path d=" M 90.89 295.437 C 87.564 299.366 71.43 300.745 68.765 300.687 C 75.994 304.049 59.735 329.583 78.402 341 C 77.985 325.333 92.39 317.375 90.89 295.437 Z " fill="white" stroke="none"/></mask><path d=" M 90.89 295.437 C 87.564 299.366 71.43 300.745 68.765 300.687 C 75.994 304.049 59.735 329.583 78.402 341 C 77.985 325.333 92.39 317.375 90.89 295.437 Z " fill="rgb(238,238,238)"/><path d=" M 90.89 295.437 C 87.564 299.366 71.43 300.745 68.765 300.687 C 75.994 304.049 59.735 329.583 78.402 341 C 77.985 325.333 92.39 317.375 90.89 295.437 Z " fill="rgb(238,238,238)" mask="url(#_mask_cQ7icCgXzuWouvITitZjY5wAjv2utiEZ)" vector-effect="non-scaling-stroke" stroke-width="6" stroke="rgb(0,0,0)" stroke-linejoin="miter" stroke-linecap="square" stroke-miterlimit="3"/></g><g style="isolation:isolate"><path d=" M 298.072 182.625 C 301.186 182.643 306.784 181.122 310.814 181.445 C 312.642 181.591 312.645 181.56 310.82 181.375 C 307.847 181.073 303.034 180.67 297.954 180.171 L 298.072 182.625 Z " fill="rgb(0,0,0)"/><path d=" M 177.551 31.219 C 184.167 28.557 207.47 17.106 214.781 15.99 C 218.605 15.405 218.642 15.605 214.864 16.435 C 207.984 17.947 190.098 26.437 180.833 32.625 L 177.551 31.219 Z " fill="rgb(0,0,0)"/><path d=" M 194.958 41.625 C 203.798 38.068 236.09 23.426 245.859 21.933 C 250.97 21.153 251.019 21.42 245.97 22.529 C 236.776 24.549 210.432 35.7 198.051 43.969 L 194.958 41.625 Z " fill="rgb(0,0,0)"/><path d=" M 162.546 23.563 C 166.827 21.466 182.52 12.399 187.34 11.298 C 189.861 10.722 189.895 10.853 187.417 11.591 C 182.904 12.934 171.801 19.798 165.926 24.375 L 162.546 23.563 Z " fill="rgb(0,0,0)"/><path d=" M 155.801 292.542 C 160.082 294.639 176.52 303.388 181.34 304.49 C 183.861 305.066 183.895 304.934 181.417 304.196 C 176.904 302.853 164.86 296.266 158.985 291.689 L 155.801 292.542 Z " fill="rgb(0,0,0)"/><path d=" M 173.864 285.542 C 180.028 288.562 202.808 301.051 209.748 302.636 C 213.379 303.466 213.428 303.276 209.859 302.214 C 203.361 300.279 186.018 290.794 177.558 284.203 L 173.864 285.542 Z " fill="rgb(0,0,0)"/><path d=" M 293.822 147.583 C 296.056 142.357 299.544 132.447 302.939 125.895 C 304.479 122.924 304.428 122.897 302.826 125.835 C 300.214 130.625 296.13 138.436 291.696 146.631 L 293.822 147.583 Z " fill="rgb(0,0,0)"/><path d=" M 287.322 219.833 C 290.559 224.505 292.905 228.065 296.647 234.426 C 298.344 237.31 298.393 237.282 296.758 234.362 C 294.092 229.602 293.652 226.197 289.072 218.083 L 287.322 219.833 Z " fill="rgb(0,0,0)"/></g><g style="isolation:isolate"><path d=" M 87.209 3.784 C 132.613 6.817 168.291 23.019 199.559 45.825 C 225.62 70.11 246.033 99.85 260.236 133.736 C 260.528 134.432 261.116 135.5 261.549 136.118 C 274.504 154.611 279.015 153.944 291.543 146.521 C 292.391 146.019 293.228 146.397 293.412 147.364 C 298.651 174.944 300.57 204.768 284.057 225.278 C 264.499 214.719 260.782 222.223 252.547 229.812 C 210.922 273.324 154.934 299.549 84.517 308.389 L 87.209 3.784 Z " fill="rgb(188,186,193)" vector-effect="non-scaling-stroke" stroke-width="3" stroke="rgb(0,0,0)" stroke-linejoin="miter" stroke-linecap="square" stroke-miterlimit="3"/><mask id="_mask_B35TLZhwwkPDKf2Nr6pJIg3U3mM3Rg7r"><path d=" M 32.072 159.167 C -33.072 40.213 9.114 4.75 99.114 0.25 C 138.114 4.75 208.801 27.006 166.072 162.167 C 164.031 257.81 132.114 291.25 111.114 303.25 C 89.937 311.118 78.332 312.638 63.489 301 C 25.239 278.875 -4.937 244.434 32.072 159.167 Z " fill="white" stroke="none"/></mask><path d=" M 32.072 159.167 C -33.072 40.213 9.114 4.75 99.114 0.25 C 138.114 4.75 208.801 27.006 166.072 162.167 C 164.031 257.81 132.114 291.25 111.114 303.25 C 89.937 311.118 78.332 312.638 63.489 301 C 25.239 278.875 -4.937 244.434 32.072 159.167 Z " fill="rgb(188,186,193)"/><path d=" M 32.072 159.167 C -33.072 40.213 9.114 4.75 99.114 0.25 C 138.114 4.75 208.801 27.006 166.072 162.167 C 164.031 257.81 132.114 291.25 111.114 303.25 C 89.937 311.118 78.332 312.638 63.489 301 C 25.239 278.875 -4.937 244.434 32.072 159.167 Z " fill="rgb(188,186,193)" mask="url(#_mask_B35TLZhwwkPDKf2Nr6pJIg3U3mM3Rg7r)" vector-effect="non-scaling-stroke" stroke-width="6" stroke="rgb(0,0,0)" stroke-linejoin="miter" stroke-linecap="square" stroke-miterlimit="3"/><path d=" M 160.02 23.938 C 151.742 20.14 134.96 12.515 128.885 10.396 L 162.989 162.438 C 157.508 205.32 134.602 252.271 93.614 305.479 C 103.595 304.127 114.563 302.033 126.489 299.167 C 154.075 263.255 169.543 217.85 172.864 162.922 C 190.587 102.871 186.315 56.553 160.02 23.938 Z " fill="rgb(188,186,193)"/><mask id="_mask_hrFDalKASS1RQkkel1RbfEE7RyiLkLqv"><path d=" M 107.892 297.988 C 104.506 301.865 91.355 300.059 88.692 299.961 C 95.006 315.35 89.739 321.333 93.614 328 C 103.739 318.958 107 315.083 107.892 297.988 Z " fill="white" stroke="none"/></mask><path d=" M 107.892 297.988 C 104.506 301.865 91.355 300.059 88.692 299.961 C 95.006 315.35 89.739 321.333 93.614 328 C 103.739 318.958 107 315.083 107.892 297.988 Z " fill="rgb(238,238,238)"/><path d=" M 107.892 297.988 C 104.506 301.865 91.355 300.059 88.692 299.961 C 95.006 315.35 89.739 321.333 93.614 328 C 103.739 318.958 107 315.083 107.892 297.988 Z " fill="rgb(238,238,238)" mask="url(#_mask_hrFDalKASS1RQkkel1RbfEE7RyiLkLqv)" vector-effect="non-scaling-stroke" stroke-width="6" stroke="rgb(0,0,0)" stroke-linejoin="miter" stroke-linecap="square" stroke-miterlimit="3"/><mask id="_mask_PKhBbHnjJpYGJNFLEWV8emJfjWvkSb6p"><path d=" M 101.189 297.988 C 97.5 301.579 81.308 301.402 78.662 301.089 C 72.969 308.031 77.671 319.719 87.209 337 C 96.298 322.961 89.281 315.469 101.189 297.988 Z " fill="white" stroke="none"/></mask><path d=" M 101.189 297.988 C 97.5 301.579 81.308 301.402 78.662 301.089 C 72.969 308.031 77.671 319.719 87.209 337 C 96.298 322.961 89.281 315.469 101.189 297.988 Z " fill="rgb(238,238,238)"/><path d=" M 101.189 297.988 C 97.5 301.579 81.308 301.402 78.662 301.089 C 72.969 308.031 77.671 319.719 87.209 337 C 96.298 322.961 89.281 315.469 101.189 297.988 Z " fill="rgb(238,238,238)" mask="url(#_mask_PKhBbHnjJpYGJNFLEWV8emJfjWvkSb6p)" vector-effect="non-scaling-stroke" stroke-width="6" stroke="rgb(0,0,0)" stroke-linejoin="miter" stroke-linecap="square" stroke-miterlimit="3"/><mask id="_mask_H3DUzEob0qReThvrw2h1Fcwfba4agGN3"><path d=" M 82 300 C 80.334 302.734 62.481 296.051 59.96 296.914 C 67.904 297.582 61.429 327.153 82.885 331.446 C 77.1 316.88 87.928 312.344 82 300 Z " fill="white" stroke="none"/></mask><path d=" M 82 300 C 80.334 302.734 62.481 296.051 59.96 296.914 C 67.904 297.582 61.429 327.153 82.885 331.446 C 77.1 316.88 87.928 312.344 82 300 Z " fill="rgb(238,238,238)"/><path d=" M 82 300 C 80.334 302.734 62.481 296.051 59.96 296.914 C 67.904 297.582 61.429 327.153 82.885 331.446 C 77.1 316.88 87.928 312.344 82 300 Z " fill="rgb(238,238,238)" mask="url(#_mask_H3DUzEob0qReThvrw2h1Fcwfba4agGN3)" vector-effect="non-scaling-stroke" stroke-width="6" stroke="rgb(0,0,0)" stroke-linejoin="miter" stroke-linecap="square" stroke-miterlimit="3"/></g><g style="isolation:isolate"><path d=" M 230.961 248.611 C 250.656 235.75 251.906 218.5 284.906 219 C 281.664 219.058 264.325 209.249 254.406 219 C 176.832 273.872 98.989 324.437 43.864 284.5 C 52.983 291.917 69.239 310 93.989 307.5 C 120.6 303.592 193.628 282.611 230.961 248.611 Z " fill="rgb(0,0,0)" fill-opacity="0.2"/><path d=" M 62.176 47 C 54.17 33.371 103.705 20.468 151.989 39.687 C 198.692 58.277 243.873 108.291 255.072 137 C 270.322 158.5 282.739 155.125 291.864 148.125 C 285.864 151.563 283.739 152.875 277.364 152.75 C 271.579 151.407 266.322 146.185 259.551 135.875 C 243.786 98 217.84 62.984 198.434 47.187 C 174.88 29.258 123.551 4.156 99.059 3.359 C 46.184 5.75 7.426 20.187 4.614 56.375 C 9.614 67.042 46.664 72.56 62.176 47 Z " fill="rgb(255,255,255)" fill-opacity="0.3"/><defs><filter id="4GeiVBW34ClWKmydiZYO1oj1AMt7GB7T" x="-200%" y="-200%" width="400%" height="400%" filterUnits="objectBoundingBox" color-interpolation-filters="sRGB"><feOffset xmlns="http://www.w3.org/2000/svg" in="SourceGraphic" dx="-4" dy="-5"/><feGaussianBlur xmlns="http://www.w3.org/2000/svg" stdDeviation="0" result="pf_100_offsetBlur"/><feComposite xmlns="http://www.w3.org/2000/svg" in="SourceGraphic" in2="pf_100_offsetBlur" result="pf_100_inverse" operator="out"/><feFlood xmlns="http://www.w3.org/2000/svg" flood-color="#000000" flood-opacity="0.2" result="pf_100_color"/><feComposite xmlns="http://www.w3.org/2000/svg" in="pf_100_color" in2="pf_100_inverse" operator="in" result="pf_100_shadow"/><feComposite xmlns="http://www.w3.org/2000/svg" in="pf_100_shadow" in2="SourceGraphic" operator="over"/></filter></defs><g filter="url(#4GeiVBW34ClWKmydiZYO1oj1AMt7GB7T)"><mask id="_mask_h1r5FxU17br82EO3LZWZtLpHPXjzwILF"><path d=" M 57.572 242.917 C 56.481 257.162 62.129 272.407 63.382 277.966 C 63.625 279.042 64.717 279.966 65.819 280.026 L 78.742 280.734 C 79.844 280.795 80.778 279.948 80.826 278.846 C 81.145 271.504 81.332 260.076 81.072 251.917 C 74.432 252.839 63.889 248.671 57.572 242.917 Z " fill="white" stroke="none"/></mask><path d=" M 57.572 242.917 C 56.481 257.162 62.129 272.407 63.382 277.966 C 63.625 279.042 64.717 279.966 65.819 280.026 L 78.742 280.734 C 79.844 280.795 80.778 279.948 80.826 278.846 C 81.145 271.504 81.332 260.076 81.072 251.917 C 74.432 252.839 63.889 248.671 57.572 242.917 Z " fill="rgb(236,236,236)"/><path d=" M 57.572 242.917 C 56.481 257.162 62.129 272.407 63.382 277.966 C 63.625 279.042 64.717 279.966 65.819 280.026 L 78.742 280.734 C 79.844 280.795 80.778 279.948 80.826 278.846 C 81.145 271.504 81.332 260.076 81.072 251.917 C 74.432 252.839 63.889 248.671 57.572 242.917 Z " fill="rgb(236,236,236)" mask="url(#_mask_h1r5FxU17br82EO3LZWZtLpHPXjzwILF)" vector-effect="non-scaling-stroke" stroke-width="6" stroke="rgb(0,0,0)" stroke-linejoin="miter" stroke-linecap="square" stroke-miterlimit="3"/></g><defs><filter id="Yj8gKhL6d2IM7kfgESSUj7CocTXOVzAN" x="-200%" y="-200%" width="400%" height="400%" filterUnits="objectBoundingBox" color-interpolation-filters="sRGB"><feOffset xmlns="http://www.w3.org/2000/svg" in="SourceGraphic" dx="-4" dy="-5"/><feGaussianBlur xmlns="http://www.w3.org/2000/svg" stdDeviation="0" result="pf_100_offsetBlur"/><feComposite xmlns="http://www.w3.org/2000/svg" in="SourceGraphic" in2="pf_100_offsetBlur" result="pf_100_inverse" operator="out"/><feFlood xmlns="http://www.w3.org/2000/svg" flood-color="#000000" flood-opacity="0.2" result="pf_100_color"/><feComposite xmlns="http://www.w3.org/2000/svg" in="pf_100_color" in2="pf_100_inverse" operator="in" result="pf_100_shadow"/><feComposite xmlns="http://www.w3.org/2000/svg" in="pf_100_shadow" in2="SourceGraphic" operator="over"/></filter></defs><g filter="url(#Yj8gKhL6d2IM7kfgESSUj7CocTXOVzAN)"><mask id="_mask_1FIYMxvb6xRDXQl36uyFNLUPPoH7u8JW"><path d=" M 81.083 251.469 C 80.928 260.17 80.552 270.055 81.087 278.941 C 81.154 280.043 82.089 281.098 83.175 281.296 C 86.507 281.903 92.674 282.413 96.365 282.51 C 97.468 282.539 98.668 281.72 99.043 280.681 C 103.157 269.294 105.681 256.019 105.572 244.792 C 99.347 248.538 86.94 253.173 81.083 251.469 Z " fill="white" stroke="none"/></mask><path d=" M 81.083 251.469 C 80.928 260.17 80.552 270.055 81.087 278.941 C 81.154 280.043 82.089 281.098 83.175 281.296 C 86.507 281.903 92.674 282.413 96.365 282.51 C 97.468 282.539 98.668 281.72 99.043 280.681 C 103.157 269.294 105.681 256.019 105.572 244.792 C 99.347 248.538 86.94 253.173 81.083 251.469 Z " fill="rgb(236,236,236)"/><path d=" M 81.083 251.469 C 80.928 260.17 80.552 270.055 81.087 278.941 C 81.154 280.043 82.089 281.098 83.175 281.296 C 86.507 281.903 92.674 282.413 96.365 282.51 C 97.468 282.539 98.668 281.72 99.043 280.681 C 103.157 269.294 105.681 256.019 105.572 244.792 C 99.347 248.538 86.94 253.173 81.083 251.469 Z " fill="rgb(236,236,236)" mask="url(#_mask_1FIYMxvb6xRDXQl36uyFNLUPPoH7u8JW)" vector-effect="non-scaling-stroke" stroke-width="6" stroke="rgb(0,0,0)" stroke-linejoin="miter" stroke-linecap="square" stroke-miterlimit="3"/></g><mask id="_mask_rugE1CgS5Ho2jmTzI4hhIlOdmcChLbhX"><path d=" M 53.287 206.134 C 45.908 203.156 31.093 209.201 29.876 220.318" fill="white" stroke="none"/></mask><path d=" M 53.287 206.134 C 45.908 203.156 31.093 209.201 29.876 220.318" fill="none"/><path d=" M 53.287 206.134 C 45.908 203.156 31.093 209.201 29.876 220.318" fill="none" mask="url(#_mask_rugE1CgS5Ho2jmTzI4hhIlOdmcChLbhX)" vector-effect="non-scaling-stroke" stroke-width="6" stroke="rgb(0,0,0)" stroke-linejoin="miter" stroke-linecap="square" stroke-miterlimit="3"/><mask id="_mask_m0C4pYiQ9Wx8TlGGa0nr54SdB1hGr0WR"><path d=" M 130.049 218.604 C 127.015 211.248 112.333 204.89 103.537 211.797" fill="white" stroke="none"/></mask><path d=" M 130.049 218.604 C 127.015 211.248 112.333 204.89 103.537 211.797" fill="none"/><path d=" M 130.049 218.604 C 127.015 211.248 112.333 204.89 103.537 211.797" fill="none" mask="url(#_mask_m0C4pYiQ9Wx8TlGGa0nr54SdB1hGr0WR)" vector-effect="non-scaling-stroke" stroke-width="6" stroke="rgb(0,0,0)" stroke-linejoin="miter" stroke-linecap="square" stroke-miterlimit="3"/><mask id="_mask_74brxt4hZalydLVV7fzdyYRbDDJqrfSg"><path d=" M 40.406 207.833 C 43.014 235.151 56.504 250.384 80.845 253.5 C 107.977 251.504 120.801 237.083 119.285 210.204" fill="white" stroke="none"/></mask><path d=" M 40.406 207.833 C 43.014 235.151 56.504 250.384 80.845 253.5 C 107.977 251.504 120.801 237.083 119.285 210.204" fill="none"/><path d=" M 40.406 207.833 C 43.014 235.151 56.504 250.384 80.845 253.5 C 107.977 251.504 120.801 237.083 119.285 210.204" fill="none" mask="url(#_mask_74brxt4hZalydLVV7fzdyYRbDDJqrfSg)" vector-effect="non-scaling-stroke" stroke-width="6" stroke="rgb(0,0,0)" stroke-linejoin="miter" stroke-linecap="square" stroke-miterlimit="3"/><path d=" M 69.551 254.083 C 66.655 253.074 63.926 251.777 61.333 250.161 C 61.605 253.784 61.959 256.882 62.614 260.458 C 63.354 256.206 62.333 253.974 62.88 252.911 C 63.971 252.54 66.6 253.864 69.551 254.083 Z " fill="rgb(255,255,255)"/><path d=" M 92.708 254.094 C 89.824 254.908 88.649 255.35 84.727 255.43 C 84.863 259.716 84.565 263.311 84.411 266.328 C 86.098 261.125 85.833 258.004 86.38 256.941 C 87.471 256.57 89.93 255.852 92.708 254.094 Z " fill="rgb(255,255,255)"/><defs><filter id="E2mGyLZS2k6zrvfNPwQfKsp0CEezQKBk" x="-200%" y="-200%" width="400%" height="400%" filterUnits="objectBoundingBox" color-interpolation-filters="sRGB"><feGaussianBlur xmlns="http://www.w3.org/2000/svg" in="SourceGraphic" stdDeviation="0"/><feOffset xmlns="http://www.w3.org/2000/svg" dx="1" dy="1" result="pf_100_offsetBlur"/><feFlood xmlns="http://www.w3.org/2000/svg" flood-color="#000000" flood-opacity="0.3"/><feComposite xmlns="http://www.w3.org/2000/svg" in2="pf_100_offsetBlur" operator="in" result="pf_100_dropShadow"/><feBlend xmlns="http://www.w3.org/2000/svg" in="SourceGraphic" in2="pf_100_dropShadow" mode="normal" result="_out_cru27USN7bv3NPNWsHzrrI6oV3QxUUjU"/><feOffset xmlns="http://www.w3.org/2000/svg" in="_out_cru27USN7bv3NPNWsHzrrI6oV3QxUUjU" dx="-5" dy="-6"/><feGaussianBlur xmlns="http://www.w3.org/2000/svg" stdDeviation="0" result="pf_101_offsetBlur"/><feComposite xmlns="http://www.w3.org/2000/svg" in="_out_cru27USN7bv3NPNWsHzrrI6oV3QxUUjU" in2="pf_101_offsetBlur" result="pf_101_inverse" operator="out"/><feFlood xmlns="http://www.w3.org/2000/svg" flood-color="#000000" flood-opacity="0.2" result="pf_101_color"/><feComposite xmlns="http://www.w3.org/2000/svg" in="pf_101_color" in2="pf_101_inverse" operator="in" result="pf_101_shadow"/><feComposite xmlns="http://www.w3.org/2000/svg" in="pf_101_shadow" in2="_out_cru27USN7bv3NPNWsHzrrI6oV3QxUUjU" operator="over" result="_out_nLbq0FSh7Cm8Fyfk07hjApY3fztJf7eW"/><feMerge><feMergeNode in="_out_nLbq0FSh7Cm8Fyfk07hjApY3fztJf7eW"/></feMerge></filter></defs><g filter="url(#E2mGyLZS2k6zrvfNPwQfKsp0CEezQKBk)"><mask id="_mask_U7J7WmI1KNlB0zetJSkSb3lfvmmG9mRS"><circle vector-effect="non-scaling-stroke" cx="131.17643541358382" cy="158.31249999999997" r="27.5625" fill="white" stroke="none"/></mask><circle vector-effect="non-scaling-stroke" cx="131.17643541358382" cy="158.31249999999997" r="27.5625" fill="rgb(204,204,204)"/><circle vector-effect="non-scaling-stroke" cx="131.17643541358382" cy="158.31249999999997" r="27.5625" fill="rgb(204,204,204)" mask="url(#_mask_U7J7WmI1KNlB0zetJSkSb3lfvmmG9mRS)" stroke-width="6" stroke="rgb(0,0,0)" stroke-linejoin="miter" stroke-linecap="square" stroke-miterlimit="3"/></g><path d=" M 128.072 134.458 C 115.401 135.682 107.921 146.827 107.072 154.708 C 109.935 149.614 112.885 145.708 115.697 142.708 C 120.197 138.583 123.084 137.18 128.072 134.458 Z " fill="rgb(255,255,255)" fill-opacity="0.73"/><defs><filter id="BYVlKKlpnKeDJhpdh15BlNol3k2Hs0MY" x="-200%" y="-200%" width="400%" height="400%" filterUnits="objectBoundingBox" color-interpolation-filters="sRGB"><feGaussianBlur xmlns="http://www.w3.org/2000/svg" in="SourceGraphic" stdDeviation="0"/><feOffset xmlns="http://www.w3.org/2000/svg" dx="1" dy="1" result="pf_100_offsetBlur"/><feFlood xmlns="http://www.w3.org/2000/svg" flood-color="#000000" flood-opacity="0.3"/><feComposite xmlns="http://www.w3.org/2000/svg" in2="pf_100_offsetBlur" operator="in" result="pf_100_dropShadow"/><feBlend xmlns="http://www.w3.org/2000/svg" in="SourceGraphic" in2="pf_100_dropShadow" mode="normal" result="_out_ocI19mVZoJqqGAjPqtEDNZUvs4KsMkeD"/><feOffset xmlns="http://www.w3.org/2000/svg" in="_out_ocI19mVZoJqqGAjPqtEDNZUvs4KsMkeD" dx="-5" dy="-4"/><feGaussianBlur xmlns="http://www.w3.org/2000/svg" stdDeviation="0" result="pf_101_offsetBlur"/><feComposite xmlns="http://www.w3.org/2000/svg" in="_out_ocI19mVZoJqqGAjPqtEDNZUvs4KsMkeD" in2="pf_101_offsetBlur" result="pf_101_inverse" operator="out"/><feFlood xmlns="http://www.w3.org/2000/svg" flood-color="#000000" flood-opacity="0.2" result="pf_101_color"/><feComposite xmlns="http://www.w3.org/2000/svg" in="pf_101_color" in2="pf_101_inverse" operator="in" result="pf_101_shadow"/><feComposite xmlns="http://www.w3.org/2000/svg" in="pf_101_shadow" in2="_out_ocI19mVZoJqqGAjPqtEDNZUvs4KsMkeD" operator="over" result="_out_pltHpfseqpwIUxfZRGgJpoNEnIJdLFGV"/><feMerge><feMergeNode in="_out_pltHpfseqpwIUxfZRGgJpoNEnIJdLFGV"/></feMerge></filter></defs><g filter="url(#BYVlKKlpnKeDJhpdh15BlNol3k2Hs0MY)"><mask id="_mask_Wv5uMf8vVPG9mOP39734VbMJD5sa4GBQ"><ellipse vector-effect="non-scaling-stroke" cx="36.25976874691708" cy="161.35416666666657" rx="17.64583333333345" ry="22.020833333333314" fill="white" stroke="none"/></mask><ellipse vector-effect="non-scaling-stroke" cx="36.25976874691708" cy="161.35416666666657" rx="17.64583333333345" ry="22.020833333333314" fill="rgb(204,204,204)"/><ellipse vector-effect="non-scaling-stroke" cx="36.25976874691708" cy="161.35416666666657" rx="17.64583333333345" ry="22.020833333333314" fill="rgb(204,204,204)" mask="url(#_mask_Wv5uMf8vVPG9mOP39734VbMJD5sa4GBQ)" stroke-width="6" stroke="rgb(0,0,0)" stroke-linejoin="miter" stroke-linecap="square" stroke-miterlimit="3"/></g><path d=" M 34.946 142.473 C 27.52 143.425 23.133 151.156 22.29 156.289 C 23.929 153.019 25.88 150.56 27.55 148.6 C 30.242 145.888 31.907 144.322 34.946 142.473 Z " fill="rgb(255,255,255)" fill-opacity="0.73"/></g></g><g style="isolation:isolate"><ellipse vector-effect="non-scaling-stroke" cx="122.34999999999998" cy="159" rx="9.249999999999986" ry="9" fill="rgb(0,0,0)"/><path d=" M 117.044 154.134 C 116.83 153.435 117.421 152.634 118.361 152.347 C 119.301 152.06 120.238 152.395 120.451 153.095 C 120.664 153.795 120.074 154.595 119.134 154.882 C 118.194 155.169 117.257 154.834 117.044 154.134 Z " fill="rgb(255,255,255)" fill-opacity="0.9"/><ellipse vector-effect="non-scaling-stroke" cx="34.922222222222175" cy="161.61458333333334" rx="8.222222222222179" ry="7.999999999999972" fill="rgb(0,0,0)"/><path d=" M 29.379 156.995 C 29.138 156.304 29.696 155.481 30.624 155.157 C 31.552 154.833 32.502 155.131 32.743 155.821 C 32.983 156.512 32.426 157.335 31.497 157.659 C 30.569 157.983 29.62 157.685 29.379 156.995 Z " fill="rgb(255,255,255)" fill-opacity="0.9"/></g></g></svg>