<?xml version="1.0" encoding="UTF-8" standalone="no"?><!-- Generator: Gravit.io --><svg xmlns="http://www.w3.org/2000/svg" xmlns:xlink="http://www.w3.org/1999/xlink" style="isolation:isolate" viewBox="0 0 318 342" width="318pt" height="342pt"><defs><clipPath id="_clipPath_aqciPfnr0RrtTRmY83arqSZdm4AuqBjg"><rect width="318" height="342"/></clipPath></defs><g clip-path="url(#_clipPath_aqciPfnr0RrtTRmY83arqSZdm4AuqBjg)"><mask id="_mask_q3uQJWgt4YZT46y5QFIuRrHjf4unrbDe"><path d=" M 205.295 56.278 C 194.227 38.197 164.314 29.353 143.961 16.278 C 142.538 15.127 155.969 14.688 163.25 10.438 C 172.438 9.125 178.625 8.188 185.375 5.75 C 192.406 5.75 205.859 7.109 215 5 C 227.922 5.922 234.875 6.875 243.125 4.438 C 250.844 4.422 259.578 2.656 268.438 0.125 C 249.672 46.375 251.564 103.799 258.295 126.611 C 243.795 120.361 224.229 82.02 205.295 56.278 Z " fill="white" stroke="none"/></mask><path d=" M 205.295 56.278 C 194.227 38.197 164.314 29.353 143.961 16.278 C 142.538 15.127 155.969 14.688 163.25 10.438 C 172.438 9.125 178.625 8.188 185.375 5.75 C 192.406 5.75 205.859 7.109 215 5 C 227.922 5.922 234.875 6.875 243.125 4.438 C 250.844 4.422 259.578 2.656 268.438 0.125 C 249.672 46.375 251.564 103.799 258.295 126.611 C 243.795 120.361 224.229 82.02 205.295 56.278 Z " fill="rgb(255,9,169)"/><path d=" M 205.295 56.278 C 194.227 38.197 164.314 29.353 143.961 16.278 C 142.538 15.127 155.969 14.688 163.25 10.438 C 172.438 9.125 178.625 8.188 185.375 5.75 C 192.406 5.75 205.859 7.109 215 5 C 227.922 5.922 234.875 6.875 243.125 4.438 C 250.844 4.422 259.578 2.656 268.438 0.125 C 249.672 46.375 251.564 103.799 258.295 126.611 C 243.795 120.361 224.229 82.02 205.295 56.278 Z " fill="rgb(255,9,169)" mask="url(#_mask_q3uQJWgt4YZT46y5QFIuRrHjf4unrbDe)" vector-effect="non-scaling-stroke" stroke-width="6" stroke="rgb(0,0,0)" stroke-linejoin="miter" stroke-linecap="square" stroke-miterlimit="3"/><mask id="_mask_ITvu7y4oaR5U8S2rIdfpqTRYvsoP27Yj"><path d=" M 191.648 268.051 C 175.375 281.639 142.011 280.875 118.544 286.749 C 120.721 291.413 134.568 297.816 133.402 300.212 C 137.29 302.364 145.167 304.583 152.667 307.583 C 158.167 309.583 172.917 311.583 179.667 315.333 C 188.667 315.583 200.667 319.583 207.667 323.333 C 222.125 328.75 228.975 335.725 237.688 339.438 C 238.438 290.688 252.649 239.558 260.789 217.521 C 245.051 218.802 217.824 249.722 191.648 268.051 Z " fill="white" stroke="none"/></mask><path d=" M 191.648 268.051 C 175.375 281.639 142.011 280.875 118.544 286.749 C 120.721 291.413 134.568 297.816 133.402 300.212 C 137.29 302.364 145.167 304.583 152.667 307.583 C 158.167 309.583 172.917 311.583 179.667 315.333 C 188.667 315.583 200.667 319.583 207.667 323.333 C 222.125 328.75 228.975 335.725 237.688 339.438 C 238.438 290.688 252.649 239.558 260.789 217.521 C 245.051 218.802 217.824 249.722 191.648 268.051 Z " fill="rgb(255,9,169)"/><path d=" M 191.648 268.051 C 175.375 281.639 142.011 280.875 118.544 286.749 C 120.721 291.413 134.568 297.816 133.402 300.212 C 137.29 302.364 145.167 304.583 152.667 307.583 C 158.167 309.583 172.917 311.583 179.667 315.333 C 188.667 315.583 200.667 319.583 207.667 323.333 C 222.125 328.75 228.975 335.725 237.688 339.438 C 238.438 290.688 252.649 239.558 260.789 217.521 C 245.051 218.802 217.824 249.722 191.648 268.051 Z " fill="rgb(255,9,169)" mask="url(#_mask_ITvu7y4oaR5U8S2rIdfpqTRYvsoP27Yj)" vector-effect="non-scaling-stroke" stroke-width="6" stroke="rgb(0,0,0)" stroke-linejoin="miter" stroke-linecap="square" stroke-miterlimit="3"/><mask id="_mask_TQz7wejCsFn42iRuPZH0TPmUJPh1Ztmz"><path d=" M 93.489 298.437 C 90.162 302.366 74.028 303.745 71.364 303.687 C 78.592 307.049 90.437 325.375 99.25 341.875 C 98.875 328.75 97.333 320.583 93.489 298.437 Z " fill="white" stroke="none"/></mask><path d=" M 93.489 298.437 C 90.162 302.366 74.028 303.745 71.364 303.687 C 78.592 307.049 90.437 325.375 99.25 341.875 C 98.875 328.75 97.333 320.583 93.489 298.437 Z " fill="rgb(255,9,169)"/><path d=" M 93.489 298.437 C 90.162 302.366 74.028 303.745 71.364 303.687 C 78.592 307.049 90.437 325.375 99.25 341.875 C 98.875 328.75 97.333 320.583 93.489 298.437 Z " fill="rgb(255,9,169)" mask="url(#_mask_TQz7wejCsFn42iRuPZH0TPmUJPh1Ztmz)" vector-effect="non-scaling-stroke" stroke-width="6" stroke="rgb(0,0,0)" stroke-linejoin="miter" stroke-linecap="square" stroke-miterlimit="3"/><mask id="_mask_noPXyLhGNQG7rSVxCtVsicdR5WUDWDvi"><path d=" M 274.294 150.611 C 283.006 134.727 291.974 110.184 298.333 82.917 C 303.583 96.167 309.861 107.751 312.961 114.611 C 313.599 140.751 314.962 162.336 316.961 179.278 C 313.367 203.421 310.064 225.896 306.961 246.611 C 302.387 255.52 296.333 268.333 288.333 287.333 C 285.612 261.008 281.826 236.76 275.628 221.278 L 274.294 150.611 Z " fill="white" stroke="none"/></mask><path d=" M 274.294 150.611 C 283.006 134.727 291.974 110.184 298.333 82.917 C 303.583 96.167 309.861 107.751 312.961 114.611 C 313.599 140.751 314.962 162.336 316.961 179.278 C 313.367 203.421 310.064 225.896 306.961 246.611 C 302.387 255.52 296.333 268.333 288.333 287.333 C 285.612 261.008 281.826 236.76 275.628 221.278 L 274.294 150.611 Z " fill="rgb(255,9,169)"/><path d=" M 274.294 150.611 C 283.006 134.727 291.974 110.184 298.333 82.917 C 303.583 96.167 309.861 107.751 312.961 114.611 C 313.599 140.751 314.962 162.336 316.961 179.278 C 313.367 203.421 310.064 225.896 306.961 246.611 C 302.387 255.52 296.333 268.333 288.333 287.333 C 285.612 261.008 281.826 236.76 275.628 221.278 L 274.294 150.611 Z " fill="rgb(255,9,169)" mask="url(#_mask_noPXyLhGNQG7rSVxCtVsicdR5WUDWDvi)" vector-effect="non-scaling-stroke" stroke-width="6" stroke="rgb(0,0,0)" stroke-linejoin="miter" stroke-linecap="square" stroke-miterlimit="3"/><path d=" M 298.072 182.625 C 301.186 182.643 306.784 181.122 310.814 181.445 C 312.642 181.591 312.645 181.56 310.82 181.375 C 307.847 181.073 303.034 180.67 297.954 180.171 L 298.072 182.625 Z " fill="rgb(0,0,0)"/><path d=" M 177.551 31.219 C 191.687 26 207.25 20 215.095 17.25 C 218.746 15.97 218.85 16.229 215.327 17.827 C 208.469 20.938 193.094 27.594 180.833 32.625 L 177.551 31.219 Z " fill="rgb(0,0,0)"/><path d=" M 194.958 41.625 C 203.798 38.068 233.688 23.75 242.574 20.043 C 247.345 18.053 247.504 18.391 242.929 20.798 C 235 24.969 211.469 36.875 198.051 43.969 L 194.958 41.625 Z " fill="rgb(0,0,0)"/><path d=" M 162.546 23.563 C 169.57 21.328 182.719 15.844 188.746 13.362 C 191.137 12.377 191.27 12.645 189.042 13.958 C 185.25 16.195 174.633 20.977 165.926 24.375 L 162.546 23.563 Z " fill="rgb(0,0,0)"/><path d=" M 155.801 292.542 C 161.344 295 178.641 303.844 183.976 306.394 C 186.309 307.509 186.454 307.253 184.299 305.823 C 180.258 303.141 166.5 295.813 158.985 291.689 L 155.801 292.542 Z " fill="rgb(0,0,0)"/><path d=" M 173.864 285.542 C 181.641 289.781 203.414 303.07 211.25 307.101 C 214.562 308.805 214.741 308.5 211.652 306.422 C 204.891 301.875 189.164 291.891 177.558 284.203 L 173.864 285.542 Z " fill="rgb(0,0,0)"/><path d=" M 293.822 147.583 C 296.056 142.357 299.544 132.447 302.939 125.895 C 304.479 122.924 304.428 122.897 302.826 125.835 C 300.214 130.625 296.13 138.436 291.696 146.631 L 293.822 147.583 Z " fill="rgb(0,0,0)"/><path d=" M 287.322 219.833 C 290.559 224.505 292.905 228.065 296.647 234.426 C 298.344 237.31 298.393 237.282 296.758 234.362 C 294.092 229.602 293.652 226.197 289.072 218.083 L 287.322 219.833 Z " fill="rgb(0,0,0)"/><path d=" M 87.209 3.784 C 132.613 6.817 168.291 23.019 199.559 45.825 C 225.62 70.11 246.033 99.85 260.236 133.736 C 260.528 134.432 261.116 135.5 261.549 136.118 C 274.504 154.611 279.015 153.944 291.543 146.521 C 292.391 146.019 293.228 146.397 293.412 147.364 C 298.651 174.944 300.57 204.768 284.057 225.278 C 264.499 214.719 260.782 222.223 252.547 229.812 C 210.922 273.324 154.934 299.549 84.517 308.389 L 87.209 3.784 Z " fill="rgb(106,234,127)" vector-effect="non-scaling-stroke" stroke-width="3" stroke="rgb(0,0,0)" stroke-linejoin="miter" stroke-linecap="square" stroke-miterlimit="3"/><mask id="_mask_3knu24i2QH5Q1WiNhEbYytxLcH51b40C"><path d=" M 32.072 159.167 C -33.072 40.213 9.114 4.75 99.114 0.25 C 138.114 4.75 208.801 27.006 166.072 162.167 C 164.031 257.81 132.114 291.25 111.114 303.25 C 89.937 311.118 78.332 312.638 63.489 301 C 25.239 278.875 -4.937 244.434 32.072 159.167 Z " fill="white" stroke="none"/></mask><path d=" M 32.072 159.167 C -33.072 40.213 9.114 4.75 99.114 0.25 C 138.114 4.75 208.801 27.006 166.072 162.167 C 164.031 257.81 132.114 291.25 111.114 303.25 C 89.937 311.118 78.332 312.638 63.489 301 C 25.239 278.875 -4.937 244.434 32.072 159.167 Z " fill="rgb(106,234,127)"/><path d=" M 32.072 159.167 C -33.072 40.213 9.114 4.75 99.114 0.25 C 138.114 4.75 208.801 27.006 166.072 162.167 C 164.031 257.81 132.114 291.25 111.114 303.25 C 89.937 311.118 78.332 312.638 63.489 301 C 25.239 278.875 -4.937 244.434 32.072 159.167 Z " fill="rgb(106,234,127)" mask="url(#_mask_3knu24i2QH5Q1WiNhEbYytxLcH51b40C)" vector-effect="non-scaling-stroke" stroke-width="6" stroke="rgb(0,0,0)" stroke-linejoin="miter" stroke-linecap="square" stroke-miterlimit="3"/><path d=" M 160.02 23.938 C 151.742 20.14 134.96 12.515 128.885 10.396 L 162.989 162.438 C 157.508 205.32 134.602 252.271 93.614 305.479 C 103.595 304.127 114.563 302.033 126.489 299.167 C 154.075 263.255 169.543 217.85 172.864 162.922 C 190.587 102.871 186.315 56.553 160.02 23.938 Z " fill="rgb(106,234,127)"/><path d=" M 230.961 248.611 C 250.656 235.75 251.906 218.5 284.906 219 C 281.664 219.058 264.325 209.249 254.406 219 C 176.832 273.872 98.989 324.437 43.864 284.5 C 52.983 291.917 69.239 310 93.989 307.5 C 120.6 303.592 193.628 282.611 230.961 248.611 Z " fill="rgb(0,0,0)" fill-opacity="0.2"/><path d=" M 62.176 47 C 54.17 33.371 103.705 20.468 151.989 39.687 C 198.692 58.277 243.873 108.291 255.072 137 C 270.322 158.5 282.739 155.125 291.864 148.125 C 285.864 151.563 283.739 152.875 277.364 152.75 C 271.579 151.407 266.322 146.185 259.551 135.875 C 243.786 98 217.84 62.984 198.434 47.187 C 174.88 29.258 123.551 4.156 99.059 3.359 C 46.184 5.75 7.426 20.187 4.614 56.375 C 9.614 67.042 46.664 72.56 62.176 47 Z " fill="rgb(255,255,255)" fill-opacity="0.3"/><mask id="_mask_x0j4DgBOsIZ5Uv2CO9Tmm9Qj5i4kyafW"><path d=" M 43.454 225.479 C 44.276 221.244 75.237 218.254 83.875 219.5 C 93.152 218.234 121.732 223.692 123.387 226.914 C 123.198 226.477 126.423 229.01 124.082 228.979 C 124.448 233.502 101.548 242.668 80.982 242.375 C 63.007 242.119 47.081 231.671 42.437 228.354" fill="white" stroke="none"/></mask><path d=" M 43.454 225.479 C 44.276 221.244 75.237 218.254 83.875 219.5 C 93.152 218.234 121.732 223.692 123.387 226.914 C 123.198 226.477 126.423 229.01 124.082 228.979 C 124.448 233.502 101.548 242.668 80.982 242.375 C 63.007 242.119 47.081 231.671 42.437 228.354" fill="rgb(34,34,34)"/><path d=" M 43.454 225.479 C 44.276 221.244 75.237 218.254 83.875 219.5 C 93.152 218.234 121.732 223.692 123.387 226.914 C 123.198 226.477 126.423 229.01 124.082 228.979 C 124.448 233.502 101.548 242.668 80.982 242.375 C 63.007 242.119 47.081 231.671 42.437 228.354" fill="rgb(34,34,34)" mask="url(#_mask_x0j4DgBOsIZ5Uv2CO9Tmm9Qj5i4kyafW)" vector-effect="non-scaling-stroke" stroke-width="6" stroke="rgb(0,0,0)" stroke-linejoin="miter" stroke-linecap="square" stroke-miterlimit="3"/><defs><filter id="Wk9exG8dSDvWG5qK7tZ1LgBqAQ0BH5Jl" x="-200%" y="-200%" width="400%" height="400%" filterUnits="objectBoundingBox" color-interpolation-filters="sRGB"><feOffset xmlns="http://www.w3.org/2000/svg" in="SourceGraphic" dx="-4" dy="-5"/><feGaussianBlur xmlns="http://www.w3.org/2000/svg" stdDeviation="0" result="pf_100_offsetBlur"/><feComposite xmlns="http://www.w3.org/2000/svg" in="SourceGraphic" in2="pf_100_offsetBlur" result="pf_100_inverse" operator="out"/><feFlood xmlns="http://www.w3.org/2000/svg" flood-color="#000000" flood-opacity="0.2" result="pf_100_color"/><feComposite xmlns="http://www.w3.org/2000/svg" in="pf_100_color" in2="pf_100_inverse" operator="in" result="pf_100_shadow"/><feComposite xmlns="http://www.w3.org/2000/svg" in="pf_100_shadow" in2="SourceGraphic" operator="over"/></filter></defs><g filter="url(#Wk9exG8dSDvWG5qK7tZ1LgBqAQ0BH5Jl)"><mask id="_mask_Q454qBtgHP6bUbRi2c6bPMk9PWyfT7yh"><path d=" M 59.312 222.625 C 58.917 237 63.129 247.219 64.382 252.778 C 64.625 253.855 65.717 254.778 66.819 254.839 L 79.742 255.547 C 80.844 255.607 81.778 254.761 81.826 253.658 C 82.145 246.316 82.135 228.972 81.875 220.813 C 74.125 220.563 67.187 222.063 59.312 222.625 Z " fill="white" stroke="none"/></mask><path d=" M 59.312 222.625 C 58.917 237 63.129 247.219 64.382 252.778 C 64.625 253.855 65.717 254.778 66.819 254.839 L 79.742 255.547 C 80.844 255.607 81.778 254.761 81.826 253.658 C 82.145 246.316 82.135 228.972 81.875 220.813 C 74.125 220.563 67.187 222.063 59.312 222.625 Z " fill="rgb(236,236,236)"/><path d=" M 59.312 222.625 C 58.917 237 63.129 247.219 64.382 252.778 C 64.625 253.855 65.717 254.778 66.819 254.839 L 79.742 255.547 C 80.844 255.607 81.778 254.761 81.826 253.658 C 82.145 246.316 82.135 228.972 81.875 220.813 C 74.125 220.563 67.187 222.063 59.312 222.625 Z " fill="rgb(236,236,236)" mask="url(#_mask_Q454qBtgHP6bUbRi2c6bPMk9PWyfT7yh)" vector-effect="non-scaling-stroke" stroke-width="6" stroke="rgb(0,0,0)" stroke-linejoin="miter" stroke-linecap="square" stroke-miterlimit="3"/></g><defs><filter id="woIHsC37oWePnYwEahqlYf6sW27DbKd5" x="-200%" y="-200%" width="400%" height="400%" filterUnits="objectBoundingBox" color-interpolation-filters="sRGB"><feOffset xmlns="http://www.w3.org/2000/svg" in="SourceGraphic" dx="-4" dy="-5"/><feGaussianBlur xmlns="http://www.w3.org/2000/svg" stdDeviation="0" result="pf_100_offsetBlur"/><feComposite xmlns="http://www.w3.org/2000/svg" in="SourceGraphic" in2="pf_100_offsetBlur" result="pf_100_inverse" operator="out"/><feFlood xmlns="http://www.w3.org/2000/svg" flood-color="#000000" flood-opacity="0.2" result="pf_100_color"/><feComposite xmlns="http://www.w3.org/2000/svg" in="pf_100_color" in2="pf_100_inverse" operator="in" result="pf_100_shadow"/><feComposite xmlns="http://www.w3.org/2000/svg" in="pf_100_shadow" in2="SourceGraphic" operator="over"/></filter></defs><g filter="url(#woIHsC37oWePnYwEahqlYf6sW27DbKd5)"><mask id="_mask_URvgknVULjM13OhIPwxuK2V0QhxY9BM4"><path d=" M 81.781 220.906 C 81.627 229.608 81.552 244.867 82.087 253.754 C 82.154 254.855 83.089 255.911 84.175 256.108 C 87.507 256.715 93.674 257.225 97.365 257.322 C 98.468 257.351 99.668 256.532 100.043 255.494 C 104.157 244.107 105.921 233.103 105.812 221.875 C 98.5 221.5 90.625 220 81.781 220.906 Z " fill="white" stroke="none"/></mask><path d=" M 81.781 220.906 C 81.627 229.608 81.552 244.867 82.087 253.754 C 82.154 254.855 83.089 255.911 84.175 256.108 C 87.507 256.715 93.674 257.225 97.365 257.322 C 98.468 257.351 99.668 256.532 100.043 255.494 C 104.157 244.107 105.921 233.103 105.812 221.875 C 98.5 221.5 90.625 220 81.781 220.906 Z " fill="rgb(236,236,236)"/><path d=" M 81.781 220.906 C 81.627 229.608 81.552 244.867 82.087 253.754 C 82.154 254.855 83.089 255.911 84.175 256.108 C 87.507 256.715 93.674 257.225 97.365 257.322 C 98.468 257.351 99.668 256.532 100.043 255.494 C 104.157 244.107 105.921 233.103 105.812 221.875 C 98.5 221.5 90.625 220 81.781 220.906 Z " fill="rgb(236,236,236)" mask="url(#_mask_URvgknVULjM13OhIPwxuK2V0QhxY9BM4)" vector-effect="non-scaling-stroke" stroke-width="6" stroke="rgb(0,0,0)" stroke-linejoin="miter" stroke-linecap="square" stroke-miterlimit="3"/></g><mask id="_mask_9Co2KTMDAJbOQww26NXuKdPVtJIiQwIH"><path d=" M 44.939 221.93 C 42.111 223.439 40.145 229.579 43.265 232.831" fill="white" stroke="none"/></mask><path d=" M 44.939 221.93 C 42.111 223.439 40.145 229.579 43.265 232.831" fill="none"/><path d=" M 44.939 221.93 C 42.111 223.439 40.145 229.579 43.265 232.831" fill="none" mask="url(#_mask_9Co2KTMDAJbOQww26NXuKdPVtJIiQwIH)" vector-effect="non-scaling-stroke" stroke-width="6" stroke="rgb(0,0,0)" stroke-linejoin="miter" stroke-linecap="square" stroke-miterlimit="3"/><mask id="_mask_SSoz3K9iJOV7NZSoycvDos3qE8nF64m0"><path d=" M 122.977 234.159 C 125.289 232.115 125.76 225.926 122.114 223.577" fill="white" stroke="none"/></mask><path d=" M 122.977 234.159 C 125.289 232.115 125.76 225.926 122.114 223.577" fill="none"/><path d=" M 122.977 234.159 C 125.289 232.115 125.76 225.926 122.114 223.577" fill="none" mask="url(#_mask_SSoz3K9iJOV7NZSoycvDos3qE8nF64m0)" vector-effect="non-scaling-stroke" stroke-width="6" stroke="rgb(0,0,0)" stroke-linejoin="miter" stroke-linecap="square" stroke-miterlimit="3"/><path d=" M 72.281 225 C 68.906 225 66.234 225.703 62.77 225.927 C 63.043 229.549 63.397 232.648 64.051 236.224 C 64.792 231.971 63.859 228.664 64.406 227.602 C 65.497 227.23 66.445 226.406 72.281 225 Z " fill="rgb(255,255,255)"/><path d=" M 94.008 224.438 C 91.125 223.945 88.945 224.016 85.329 224.148 C 85.243 228.498 85.17 232.212 85.227 235.156 C 86.914 229.953 86.434 226.723 86.981 225.66 C 88.072 225.289 90 225.352 94.008 224.438 Z " fill="rgb(255,255,255)"/><defs><filter id="TZidoXoe4oFk684RwbihX3mfJimN9nGw" x="-200%" y="-200%" width="400%" height="400%" filterUnits="objectBoundingBox" color-interpolation-filters="sRGB"><feGaussianBlur xmlns="http://www.w3.org/2000/svg" in="SourceGraphic" stdDeviation="0"/><feOffset xmlns="http://www.w3.org/2000/svg" dx="1" dy="1" result="pf_100_offsetBlur"/><feFlood xmlns="http://www.w3.org/2000/svg" flood-color="#000000" flood-opacity="0.3"/><feComposite xmlns="http://www.w3.org/2000/svg" in2="pf_100_offsetBlur" operator="in" result="pf_100_dropShadow"/><feBlend xmlns="http://www.w3.org/2000/svg" in="SourceGraphic" in2="pf_100_dropShadow" mode="normal" result="_out_xq8HHzoixVirfqBeI3i9lkdJwJOaVCqe"/><feOffset xmlns="http://www.w3.org/2000/svg" in="_out_xq8HHzoixVirfqBeI3i9lkdJwJOaVCqe" dx="-5" dy="-6"/><feGaussianBlur xmlns="http://www.w3.org/2000/svg" stdDeviation="0" result="pf_101_offsetBlur"/><feComposite xmlns="http://www.w3.org/2000/svg" in="_out_xq8HHzoixVirfqBeI3i9lkdJwJOaVCqe" in2="pf_101_offsetBlur" result="pf_101_inverse" operator="out"/><feFlood xmlns="http://www.w3.org/2000/svg" flood-color="#000000" flood-opacity="0.2" result="pf_101_color"/><feComposite xmlns="http://www.w3.org/2000/svg" in="pf_101_color" in2="pf_101_inverse" operator="in" result="pf_101_shadow"/><feComposite xmlns="http://www.w3.org/2000/svg" in="pf_101_shadow" in2="_out_xq8HHzoixVirfqBeI3i9lkdJwJOaVCqe" operator="over" result="_out_Inbbjsd1inS1L1apCi1o2xi6df1Arfn0"/><feMerge><feMergeNode in="_out_Inbbjsd1inS1L1apCi1o2xi6df1Arfn0"/></feMerge></filter></defs><g filter="url(#TZidoXoe4oFk684RwbihX3mfJimN9nGw)"><circle vector-effect="non-scaling-stroke" cx="131.17643541358382" cy="158.31249999999997" r="27.5625" fill="rgb(204,204,204)"/></g><defs><filter id="GNRABwjK941a3yEMDdmyoIHYeAURF3kl" x="-200%" y="-200%" width="400%" height="400%" filterUnits="objectBoundingBox" color-interpolation-filters="sRGB"><feGaussianBlur xmlns="http://www.w3.org/2000/svg" in="SourceGraphic" stdDeviation="0"/><feOffset xmlns="http://www.w3.org/2000/svg" dx="1" dy="1" result="pf_100_offsetBlur"/><feFlood xmlns="http://www.w3.org/2000/svg" flood-color="#000000" flood-opacity="0.3"/><feComposite xmlns="http://www.w3.org/2000/svg" in2="pf_100_offsetBlur" operator="in" result="pf_100_dropShadow"/><feBlend xmlns="http://www.w3.org/2000/svg" in="SourceGraphic" in2="pf_100_dropShadow" mode="normal" result="_out_XmfpTVnv0LrNa9fb0VVJI1VqBTshbTA2"/><feOffset xmlns="http://www.w3.org/2000/svg" in="_out_XmfpTVnv0LrNa9fb0VVJI1VqBTshbTA2" dx="-5" dy="-6"/><feGaussianBlur xmlns="http://www.w3.org/2000/svg" stdDeviation="0" result="pf_101_offsetBlur"/><feComposite xmlns="http://www.w3.org/2000/svg" in="_out_XmfpTVnv0LrNa9fb0VVJI1VqBTshbTA2" in2="pf_101_offsetBlur" result="pf_101_inverse" operator="out"/><feFlood xmlns="http://www.w3.org/2000/svg" flood-color="#000000" flood-opacity="0.2" result="pf_101_color"/><feComposite xmlns="http://www.w3.org/2000/svg" in="pf_101_color" in2="pf_101_inverse" operator="in" result="pf_101_shadow"/><feComposite xmlns="http://www.w3.org/2000/svg" in="pf_101_shadow" in2="_out_XmfpTVnv0LrNa9fb0VVJI1VqBTshbTA2" operator="over" result="_out_5pAjcviPDyzoKsq5uX7QdU9fOqIjWtlz"/><feMerge><feMergeNode in="_out_5pAjcviPDyzoKsq5uX7QdU9fOqIjWtlz"/></feMerge></filter></defs><g filter="url(#GNRABwjK941a3yEMDdmyoIHYeAURF3kl)"><circle vector-effect="non-scaling-stroke" cx="131.1347687469172" cy="158.52083333333331" r="26.729166666666657" fill="rgb(204,204,204)"/></g><ellipse vector-effect="non-scaling-stroke" cx="131.44849849228734" cy="160.11197916666669" rx="10.355396412037017" ry="10.075520833333343" fill="rgb(0,0,0)"/><mask id="_mask_KoqXdv1y3r7BIbfmVa4gHsH2lE10bJJS"><path d=" M 156.088 163.167 C 156.44 161.528 156.614 159.826 156.614 158.083 C 156.614 143.918 145.113 132.417 130.947 132.417 C 116.781 132.417 105.281 143.918 105.281 158.083 C 105.281 159.826 105.455 161.528 105.807 163.167 C 123.082 166.5 139.852 166.51 156.088 163.167 L 156.088 163.167 Z " fill="white" stroke="none"/></mask><path d=" M 156.088 163.167 C 156.44 161.528 156.614 159.826 156.614 158.083 C 156.614 143.918 145.113 132.417 130.947 132.417 C 116.781 132.417 105.281 143.918 105.281 158.083 C 105.281 159.826 105.455 161.528 105.807 163.167 C 123.082 166.5 139.852 166.51 156.088 163.167 L 156.088 163.167 Z " fill="rgb(106,234,127)"/><path d=" M 156.088 163.167 C 156.44 161.528 156.614 159.826 156.614 158.083 C 156.614 143.918 145.113 132.417 130.947 132.417 C 116.781 132.417 105.281 143.918 105.281 158.083 C 105.281 159.826 105.455 161.528 105.807 163.167 C 123.082 166.5 139.852 166.51 156.088 163.167 L 156.088 163.167 Z " fill="rgb(106,234,127)" mask="url(#_mask_KoqXdv1y3r7BIbfmVa4gHsH2lE10bJJS)" vector-effect="non-scaling-stroke" stroke-width="2" stroke="rgb(0,0,0)" stroke-linejoin="miter" stroke-linecap="square" stroke-miterlimit="3"/><mask id="_mask_2mulsVAaGcjxKL93Wetc8eJTFldcADjB"><circle vector-effect="non-scaling-stroke" cx="131.1625" cy="158.2625" r="27.5625" fill="white" stroke="none"/></mask><circle vector-effect="non-scaling-stroke" cx="131.1625" cy="158.2625" r="27.5625" fill="none"/><circle vector-effect="non-scaling-stroke" cx="131.1625" cy="158.2625" r="27.5625" fill="none" mask="url(#_mask_2mulsVAaGcjxKL93Wetc8eJTFldcADjB)" stroke-width="6" stroke="rgb(0,0,0)" stroke-linejoin="miter" stroke-linecap="square" stroke-miterlimit="3"/><defs><filter id="Bh0VXYkdmNQQLRiqlFZuJzlRUlyWX1fX" x="-200%" y="-200%" width="400%" height="400%" filterUnits="objectBoundingBox" color-interpolation-filters="sRGB"><feGaussianBlur xmlns="http://www.w3.org/2000/svg" in="SourceGraphic" stdDeviation="0"/><feOffset xmlns="http://www.w3.org/2000/svg" dx="1" dy="1" result="pf_100_offsetBlur"/><feFlood xmlns="http://www.w3.org/2000/svg" flood-color="#000000" flood-opacity="0.3"/><feComposite xmlns="http://www.w3.org/2000/svg" in2="pf_100_offsetBlur" operator="in" result="pf_100_dropShadow"/><feBlend xmlns="http://www.w3.org/2000/svg" in="SourceGraphic" in2="pf_100_dropShadow" mode="normal" result="_out_eYQKkSB5TrVszQnJ1lTXLVRreRmJlIyo"/><feOffset xmlns="http://www.w3.org/2000/svg" in="_out_eYQKkSB5TrVszQnJ1lTXLVRreRmJlIyo" dx="-5" dy="-4"/><feGaussianBlur xmlns="http://www.w3.org/2000/svg" stdDeviation="0" result="pf_101_offsetBlur"/><feComposite xmlns="http://www.w3.org/2000/svg" in="_out_eYQKkSB5TrVszQnJ1lTXLVRreRmJlIyo" in2="pf_101_offsetBlur" result="pf_101_inverse" operator="out"/><feFlood xmlns="http://www.w3.org/2000/svg" flood-color="#000000" flood-opacity="0.2" result="pf_101_color"/><feComposite xmlns="http://www.w3.org/2000/svg" in="pf_101_color" in2="pf_101_inverse" operator="in" result="pf_101_shadow"/><feComposite xmlns="http://www.w3.org/2000/svg" in="pf_101_shadow" in2="_out_eYQKkSB5TrVszQnJ1lTXLVRreRmJlIyo" operator="over" result="_out_V1yIaujomRnzXbffzOQ727JPkojekO0s"/><feMerge><feMergeNode in="_out_V1yIaujomRnzXbffzOQ727JPkojekO0s"/></feMerge></filter></defs><g filter="url(#Bh0VXYkdmNQQLRiqlFZuJzlRUlyWX1fX)"><ellipse vector-effect="non-scaling-stroke" cx="36.25976874691708" cy="161.35416666666657" rx="17.64583333333345" ry="22.020833333333314" fill="rgb(204,204,204)"/></g><defs><filter id="zxYRZNZgFKsyVajX0FNy8kbC0YpRKtLV" x="-200%" y="-200%" width="400%" height="400%" filterUnits="objectBoundingBox" color-interpolation-filters="sRGB"><feGaussianBlur xmlns="http://www.w3.org/2000/svg" in="SourceGraphic" stdDeviation="0"/><feOffset xmlns="http://www.w3.org/2000/svg" dx="1" dy="1" result="pf_100_offsetBlur"/><feFlood xmlns="http://www.w3.org/2000/svg" flood-color="#000000" flood-opacity="0.3"/><feComposite xmlns="http://www.w3.org/2000/svg" in2="pf_100_offsetBlur" operator="in" result="pf_100_dropShadow"/><feBlend xmlns="http://www.w3.org/2000/svg" in="SourceGraphic" in2="pf_100_dropShadow" mode="normal" result="_out_FDi7JeK6hdmNjwyV1gH402r0AskMlCPK"/><feOffset xmlns="http://www.w3.org/2000/svg" in="_out_FDi7JeK6hdmNjwyV1gH402r0AskMlCPK" dx="-5" dy="-4"/><feGaussianBlur xmlns="http://www.w3.org/2000/svg" stdDeviation="0" result="pf_101_offsetBlur"/><feComposite xmlns="http://www.w3.org/2000/svg" in="_out_FDi7JeK6hdmNjwyV1gH402r0AskMlCPK" in2="pf_101_offsetBlur" result="pf_101_inverse" operator="out"/><feFlood xmlns="http://www.w3.org/2000/svg" flood-color="#000000" flood-opacity="0.2" result="pf_101_color"/><feComposite xmlns="http://www.w3.org/2000/svg" in="pf_101_color" in2="pf_101_inverse" operator="in" result="pf_101_shadow"/><feComposite xmlns="http://www.w3.org/2000/svg" in="pf_101_shadow" in2="_out_FDi7JeK6hdmNjwyV1gH402r0AskMlCPK" operator="over" result="_out_mIQUVmdnwW2zvhBIAxhXUchTCSiK3kVK"/><feMerge><feMergeNode in="_out_mIQUVmdnwW2zvhBIAxhXUchTCSiK3kVK"/></feMerge></filter></defs><g filter="url(#zxYRZNZgFKsyVajX0FNy8kbC0YpRKtLV)"><ellipse vector-effect="non-scaling-stroke" cx="36.19381951954405" cy="161.52083333333326" rx="17.21178256070648" ry="21.47916666666663" fill="rgb(204,204,204)"/></g><ellipse vector-effect="non-scaling-stroke" cx="35.97157430247262" cy="161.61458333333334" rx="8.222222222222179" ry="7.999999999999972" fill="rgb(0,0,0)"/><mask id="_mask_hJGLOG87NKnn1Oxl2lLLbph8SAklczrM"><path d=" M 53.111 162.917 C 53.139 162.372 53.156 161.824 53.156 161.271 C 53.156 149.416 45.443 139.792 35.944 139.792 C 26.444 139.792 18.732 149.416 18.732 161.271 C 18.732 161.824 18.749 162.372 18.777 162.917 C 30.069 166.912 41.534 166.932 53.111 162.917 L 53.111 162.917 Z " fill="white" stroke="none"/></mask><path d=" M 53.111 162.917 C 53.139 162.372 53.156 161.824 53.156 161.271 C 53.156 149.416 45.443 139.792 35.944 139.792 C 26.444 139.792 18.732 149.416 18.732 161.271 C 18.732 161.824 18.749 162.372 18.777 162.917 C 30.069 166.912 41.534 166.932 53.111 162.917 L 53.111 162.917 Z " fill="rgb(106,234,127)"/><path d=" M 53.111 162.917 C 53.139 162.372 53.156 161.824 53.156 161.271 C 53.156 149.416 45.443 139.792 35.944 139.792 C 26.444 139.792 18.732 149.416 18.732 161.271 C 18.732 161.824 18.749 162.372 18.777 162.917 C 30.069 166.912 41.534 166.932 53.111 162.917 L 53.111 162.917 Z " fill="rgb(106,234,127)" mask="url(#_mask_hJGLOG87NKnn1Oxl2lLLbph8SAklczrM)" vector-effect="non-scaling-stroke" stroke-width="2" stroke="rgb(0,0,0)" stroke-linejoin="miter" stroke-linecap="square" stroke-miterlimit="3"/><mask id="_mask_wq7rrEQHHNCkJJJotDjDnxCOLvIyTQcA"><ellipse vector-effect="non-scaling-stroke" cx="36.24583333333345" cy="161.32083333333333" rx="17.64583333333345" ry="22.020833333333314" fill="white" stroke="none"/></mask><ellipse vector-effect="non-scaling-stroke" cx="36.24583333333345" cy="161.32083333333333" rx="17.64583333333345" ry="22.020833333333314" fill="none"/><ellipse vector-effect="non-scaling-stroke" cx="36.24583333333345" cy="161.32083333333333" rx="17.64583333333345" ry="22.020833333333314" fill="none" mask="url(#_mask_wq7rrEQHHNCkJJJotDjDnxCOLvIyTQcA)" stroke-width="6" stroke="rgb(0,0,0)" stroke-linejoin="miter" stroke-linecap="square" stroke-miterlimit="3"/></g></svg>