<?xml version="1.0" encoding="UTF-8" standalone="no"?><!-- Generator: Gravit.io --><svg xmlns="http://www.w3.org/2000/svg" xmlns:xlink="http://www.w3.org/1999/xlink" style="isolation:isolate" viewBox="0 0 318 342" width="318pt" height="342pt"><defs><clipPath id="_clipPath_LTLmVklWG0vC4Jy3QQzf1XmuQkBmGuQW"><rect width="318" height="342"/></clipPath></defs><g clip-path="url(#_clipPath_LTLmVklWG0vC4Jy3QQzf1XmuQkBmGuQW)"><mask id="_mask_yIK56v2EMFPt3f2mhVBVMToRORipwy7M"><path d=" M 205.295 56.278 C 194.227 38.197 164.314 29.353 143.961 16.278 C 142.538 15.127 159.481 12.765 164.072 7.5 C 171.915 6.99 183.635 6.1 184.072 2.833 C 190.719 3.8 209.405 10.338 214.295 7.944 C 228.21 11.464 244.214 9.177 243.628 6.611 C 248.128 9.986 260.852 6.674 270.295 5.944 C 234.295 49.944 251.564 103.799 258.295 126.611 C 243.795 120.361 224.229 82.02 205.295 56.278 Z " fill="white" stroke="none"/></mask><path d=" M 205.295 56.278 C 194.227 38.197 164.314 29.353 143.961 16.278 C 142.538 15.127 159.481 12.765 164.072 7.5 C 171.915 6.99 183.635 6.1 184.072 2.833 C 190.719 3.8 209.405 10.338 214.295 7.944 C 228.21 11.464 244.214 9.177 243.628 6.611 C 248.128 9.986 260.852 6.674 270.295 5.944 C 234.295 49.944 251.564 103.799 258.295 126.611 C 243.795 120.361 224.229 82.02 205.295 56.278 Z " fill="rgb(255,9,169)"/><path d=" M 205.295 56.278 C 194.227 38.197 164.314 29.353 143.961 16.278 C 142.538 15.127 159.481 12.765 164.072 7.5 C 171.915 6.99 183.635 6.1 184.072 2.833 C 190.719 3.8 209.405 10.338 214.295 7.944 C 228.21 11.464 244.214 9.177 243.628 6.611 C 248.128 9.986 260.852 6.674 270.295 5.944 C 234.295 49.944 251.564 103.799 258.295 126.611 C 243.795 120.361 224.229 82.02 205.295 56.278 Z " fill="rgb(255,9,169)" mask="url(#_mask_yIK56v2EMFPt3f2mhVBVMToRORipwy7M)" vector-effect="non-scaling-stroke" stroke-width="6" stroke="rgb(0,0,0)" stroke-linejoin="miter" stroke-linecap="square" stroke-miterlimit="3"/><mask id="_mask_U98pYcuQI8PoEodaGfVXZMtmHbd5da6B"><path d=" M 191.648 268.051 C 175.375 281.639 142.011 280.875 118.544 286.749 C 120.721 291.413 134.568 297.816 133.402 300.212 C 137.29 302.364 148.071 306.976 150.857 311.034 C 157.257 311.861 176.99 311.678 181.125 315.865 C 187.842 315.313 202.234 322.622 208.489 326.516 C 213.832 324.758 224.827 331.969 233.539 335.682 C 213.515 282.474 247.112 236.979 260.789 217.521 C 245.051 218.802 217.824 249.722 191.648 268.051 Z " fill="white" stroke="none"/></mask><path d=" M 191.648 268.051 C 175.375 281.639 142.011 280.875 118.544 286.749 C 120.721 291.413 134.568 297.816 133.402 300.212 C 137.29 302.364 148.071 306.976 150.857 311.034 C 157.257 311.861 176.99 311.678 181.125 315.865 C 187.842 315.313 202.234 322.622 208.489 326.516 C 213.832 324.758 224.827 331.969 233.539 335.682 C 213.515 282.474 247.112 236.979 260.789 217.521 C 245.051 218.802 217.824 249.722 191.648 268.051 Z " fill="rgb(255,9,169)"/><path d=" M 191.648 268.051 C 175.375 281.639 142.011 280.875 118.544 286.749 C 120.721 291.413 134.568 297.816 133.402 300.212 C 137.29 302.364 148.071 306.976 150.857 311.034 C 157.257 311.861 176.99 311.678 181.125 315.865 C 187.842 315.313 202.234 322.622 208.489 326.516 C 213.832 324.758 224.827 331.969 233.539 335.682 C 213.515 282.474 247.112 236.979 260.789 217.521 C 245.051 218.802 217.824 249.722 191.648 268.051 Z " fill="rgb(255,9,169)" mask="url(#_mask_U98pYcuQI8PoEodaGfVXZMtmHbd5da6B)" vector-effect="non-scaling-stroke" stroke-width="6" stroke="rgb(0,0,0)" stroke-linejoin="miter" stroke-linecap="square" stroke-miterlimit="3"/><mask id="_mask_lzWhePlRbcSfs4gyfvFHPjNn5GnMB08p"><path d=" M 93.489 298.437 C 90.162 302.366 74.028 303.745 71.364 303.687 C 78.592 307.049 96.245 335.263 112.072 340.611 C 104.328 326.851 94.989 320.375 93.489 298.437 Z " fill="white" stroke="none"/></mask><path d=" M 93.489 298.437 C 90.162 302.366 74.028 303.745 71.364 303.687 C 78.592 307.049 96.245 335.263 112.072 340.611 C 104.328 326.851 94.989 320.375 93.489 298.437 Z " fill="rgb(255,9,169)"/><path d=" M 93.489 298.437 C 90.162 302.366 74.028 303.745 71.364 303.687 C 78.592 307.049 96.245 335.263 112.072 340.611 C 104.328 326.851 94.989 320.375 93.489 298.437 Z " fill="rgb(255,9,169)" mask="url(#_mask_lzWhePlRbcSfs4gyfvFHPjNn5GnMB08p)" vector-effect="non-scaling-stroke" stroke-width="6" stroke="rgb(0,0,0)" stroke-linejoin="miter" stroke-linecap="square" stroke-miterlimit="3"/><mask id="_mask_IjMIb2q1OnRZKeb2Qbuegg9EmKhL7Nsq"><path d=" M 274.294 150.611 C 280.769 132.389 288.354 110.863 296.961 85.944 C 305.196 97.481 310.549 107.057 312.961 114.611 C 315.45 140.747 316.803 162.323 316.961 179.278 C 314.663 203.449 311.35 225.913 306.961 246.611 C 303.524 256.101 297.544 268.565 288.961 283.944 C 284.229 258.335 279.805 237.466 275.628 221.278 L 274.294 150.611 Z " fill="white" stroke="none"/></mask><path d=" M 274.294 150.611 C 280.769 132.389 288.354 110.863 296.961 85.944 C 305.196 97.481 310.549 107.057 312.961 114.611 C 315.45 140.747 316.803 162.323 316.961 179.278 C 314.663 203.449 311.35 225.913 306.961 246.611 C 303.524 256.101 297.544 268.565 288.961 283.944 C 284.229 258.335 279.805 237.466 275.628 221.278 L 274.294 150.611 Z " fill="rgb(255,9,169)"/><path d=" M 274.294 150.611 C 280.769 132.389 288.354 110.863 296.961 85.944 C 305.196 97.481 310.549 107.057 312.961 114.611 C 315.45 140.747 316.803 162.323 316.961 179.278 C 314.663 203.449 311.35 225.913 306.961 246.611 C 303.524 256.101 297.544 268.565 288.961 283.944 C 284.229 258.335 279.805 237.466 275.628 221.278 L 274.294 150.611 Z " fill="rgb(255,9,169)" mask="url(#_mask_IjMIb2q1OnRZKeb2Qbuegg9EmKhL7Nsq)" vector-effect="non-scaling-stroke" stroke-width="6" stroke="rgb(0,0,0)" stroke-linejoin="miter" stroke-linecap="square" stroke-miterlimit="3"/><path d=" M 298.072 182.625 C 301.186 182.643 306.784 181.122 310.814 181.445 C 312.642 181.591 312.645 181.56 310.82 181.375 C 307.847 181.073 303.034 180.67 297.954 180.171 L 298.072 182.625 Z " fill="rgb(0,0,0)"/><path d=" M 177.551 31.219 C 184.167 28.557 207.47 17.106 214.781 15.99 C 218.605 15.405 218.642 15.605 214.864 16.435 C 207.984 17.947 190.098 26.437 180.833 32.625 L 177.551 31.219 Z " fill="rgb(0,0,0)"/><path d=" M 194.958 41.625 C 203.798 38.068 236.09 23.426 245.859 21.933 C 250.97 21.153 251.019 21.42 245.97 22.529 C 236.776 24.549 210.432 35.7 198.051 43.969 L 194.958 41.625 Z " fill="rgb(0,0,0)"/><path d=" M 162.546 23.563 C 166.827 21.466 182.52 12.399 187.34 11.298 C 189.861 10.722 189.895 10.853 187.417 11.591 C 182.904 12.934 171.801 19.798 165.926 24.375 L 162.546 23.563 Z " fill="rgb(0,0,0)"/><path d=" M 155.801 292.542 C 160.082 294.639 176.52 303.388 181.34 304.49 C 183.861 305.066 183.895 304.934 181.417 304.196 C 176.904 302.853 164.86 296.266 158.985 291.689 L 155.801 292.542 Z " fill="rgb(0,0,0)"/><path d=" M 173.864 285.542 C 180.028 288.562 202.808 301.051 209.748 302.636 C 213.379 303.466 213.428 303.276 209.859 302.214 C 203.361 300.279 186.018 290.794 177.558 284.203 L 173.864 285.542 Z " fill="rgb(0,0,0)"/><path d=" M 293.822 147.583 C 296.056 142.357 299.544 132.447 302.939 125.895 C 304.479 122.924 304.428 122.897 302.826 125.835 C 300.214 130.625 296.13 138.436 291.696 146.631 L 293.822 147.583 Z " fill="rgb(0,0,0)"/><path d=" M 287.322 219.833 C 290.559 224.505 292.905 228.065 296.647 234.426 C 298.344 237.31 298.393 237.282 296.758 234.362 C 294.092 229.602 293.652 226.197 289.072 218.083 L 287.322 219.833 Z " fill="rgb(0,0,0)"/><path d=" M 87.209 3.784 C 132.613 6.817 168.291 23.019 199.559 45.825 C 225.62 70.11 246.033 99.85 260.236 133.736 C 260.528 134.432 261.116 135.5 261.549 136.118 C 274.504 154.611 279.015 153.944 291.543 146.521 C 292.391 146.019 293.228 146.397 293.412 147.364 C 298.651 174.944 300.57 204.768 284.057 225.278 C 264.499 214.719 260.782 222.223 252.547 229.812 C 210.922 273.324 154.934 299.549 84.517 308.389 L 87.209 3.784 Z " fill="rgb(106,234,127)" vector-effect="non-scaling-stroke" stroke-width="3" stroke="rgb(0,0,0)" stroke-linejoin="miter" stroke-linecap="square" stroke-miterlimit="3"/><mask id="_mask_VKv0aTSXACFAdhluV98vYv9pdctGBodl"><path d=" M 32.072 159.167 C -33.072 40.213 9.114 4.75 99.114 0.25 C 138.114 4.75 208.801 27.006 166.072 162.167 C 164.031 257.81 132.114 291.25 111.114 303.25 C 89.937 311.118 78.332 312.638 63.489 301 C 25.239 278.875 -4.937 244.434 32.072 159.167 Z " fill="white" stroke="none"/></mask><path d=" M 32.072 159.167 C -33.072 40.213 9.114 4.75 99.114 0.25 C 138.114 4.75 208.801 27.006 166.072 162.167 C 164.031 257.81 132.114 291.25 111.114 303.25 C 89.937 311.118 78.332 312.638 63.489 301 C 25.239 278.875 -4.937 244.434 32.072 159.167 Z " fill="rgb(106,234,127)"/><path d=" M 32.072 159.167 C -33.072 40.213 9.114 4.75 99.114 0.25 C 138.114 4.75 208.801 27.006 166.072 162.167 C 164.031 257.81 132.114 291.25 111.114 303.25 C 89.937 311.118 78.332 312.638 63.489 301 C 25.239 278.875 -4.937 244.434 32.072 159.167 Z " fill="rgb(106,234,127)" mask="url(#_mask_VKv0aTSXACFAdhluV98vYv9pdctGBodl)" vector-effect="non-scaling-stroke" stroke-width="6" stroke="rgb(0,0,0)" stroke-linejoin="miter" stroke-linecap="square" stroke-miterlimit="3"/><path d=" M 160.02 23.938 C 151.742 20.14 134.96 12.515 128.885 10.396 L 162.989 162.438 C 157.508 205.32 134.602 252.271 93.614 305.479 C 103.595 304.127 114.563 302.033 126.489 299.167 C 154.075 263.255 169.543 217.85 172.864 162.922 C 190.587 102.871 186.315 56.553 160.02 23.938 Z " fill="rgb(106,234,127)"/><path d=" M 230.961 248.611 C 250.656 235.75 251.906 218.5 284.906 219 C 281.664 219.058 264.325 209.249 254.406 219 C 176.832 273.872 98.989 324.437 43.864 284.5 C 52.983 291.917 69.239 310 93.989 307.5 C 120.6 303.592 193.628 282.611 230.961 248.611 Z " fill="rgb(0,0,0)" fill-opacity="0.2"/><path d=" M 62.176 47 C 54.17 33.371 103.705 20.468 151.989 39.687 C 198.692 58.277 243.873 108.291 255.072 137 C 270.322 158.5 282.739 155.125 291.864 148.125 C 285.864 151.563 283.739 152.875 277.364 152.75 C 271.579 151.407 266.322 146.185 259.551 135.875 C 243.786 98 217.84 62.984 198.434 47.187 C 174.88 29.258 123.551 4.156 99.059 3.359 C 46.184 5.75 7.426 20.187 4.614 56.375 C 9.614 67.042 46.664 72.56 62.176 47 Z " fill="rgb(255,255,255)" fill-opacity="0.3"/><defs><filter id="PeQadCI9ewGlhNuEoByyzvRgsT3LLK7p" x="-200%" y="-200%" width="400%" height="400%" filterUnits="objectBoundingBox" color-interpolation-filters="sRGB"><feOffset xmlns="http://www.w3.org/2000/svg" in="SourceGraphic" dx="-4" dy="-5"/><feGaussianBlur xmlns="http://www.w3.org/2000/svg" stdDeviation="0" result="pf_100_offsetBlur"/><feComposite xmlns="http://www.w3.org/2000/svg" in="SourceGraphic" in2="pf_100_offsetBlur" result="pf_100_inverse" operator="out"/><feFlood xmlns="http://www.w3.org/2000/svg" flood-color="#000000" flood-opacity="0.2" result="pf_100_color"/><feComposite xmlns="http://www.w3.org/2000/svg" in="pf_100_color" in2="pf_100_inverse" operator="in" result="pf_100_shadow"/><feComposite xmlns="http://www.w3.org/2000/svg" in="pf_100_shadow" in2="SourceGraphic" operator="over"/></filter></defs><g filter="url(#PeQadCI9ewGlhNuEoByyzvRgsT3LLK7p)"><mask id="_mask_cDYlQyP51idp6Y0RvRKKrVUSnisChM9y"><path d=" M 57.072 236.167 C 55.981 250.412 61.629 265.657 62.882 271.216 C 63.125 272.292 64.217 273.216 65.319 273.276 L 78.242 273.984 C 79.344 274.045 80.278 273.198 80.326 272.096 C 80.645 264.754 80.832 253.326 80.572 245.167 C 73.932 246.089 63.389 241.921 57.072 236.167 Z " fill="white" stroke="none"/></mask><path d=" M 57.072 236.167 C 55.981 250.412 61.629 265.657 62.882 271.216 C 63.125 272.292 64.217 273.216 65.319 273.276 L 78.242 273.984 C 79.344 274.045 80.278 273.198 80.326 272.096 C 80.645 264.754 80.832 253.326 80.572 245.167 C 73.932 246.089 63.389 241.921 57.072 236.167 Z " fill="rgb(236,236,236)"/><path d=" M 57.072 236.167 C 55.981 250.412 61.629 265.657 62.882 271.216 C 63.125 272.292 64.217 273.216 65.319 273.276 L 78.242 273.984 C 79.344 274.045 80.278 273.198 80.326 272.096 C 80.645 264.754 80.832 253.326 80.572 245.167 C 73.932 246.089 63.389 241.921 57.072 236.167 Z " fill="rgb(236,236,236)" mask="url(#_mask_cDYlQyP51idp6Y0RvRKKrVUSnisChM9y)" vector-effect="non-scaling-stroke" stroke-width="6" stroke="rgb(0,0,0)" stroke-linejoin="miter" stroke-linecap="square" stroke-miterlimit="3"/></g><defs><filter id="RbFvLzJbLLQs0mh1P7xKVCDtMvZbWApB" x="-200%" y="-200%" width="400%" height="400%" filterUnits="objectBoundingBox" color-interpolation-filters="sRGB"><feOffset xmlns="http://www.w3.org/2000/svg" in="SourceGraphic" dx="-4" dy="-5"/><feGaussianBlur xmlns="http://www.w3.org/2000/svg" stdDeviation="0" result="pf_100_offsetBlur"/><feComposite xmlns="http://www.w3.org/2000/svg" in="SourceGraphic" in2="pf_100_offsetBlur" result="pf_100_inverse" operator="out"/><feFlood xmlns="http://www.w3.org/2000/svg" flood-color="#000000" flood-opacity="0.2" result="pf_100_color"/><feComposite xmlns="http://www.w3.org/2000/svg" in="pf_100_color" in2="pf_100_inverse" operator="in" result="pf_100_shadow"/><feComposite xmlns="http://www.w3.org/2000/svg" in="pf_100_shadow" in2="SourceGraphic" operator="over"/></filter></defs><g filter="url(#RbFvLzJbLLQs0mh1P7xKVCDtMvZbWApB)"><mask id="_mask_tzKx4qa29hzzXnDABrw0JXEtwzpWpDsA"><path d=" M 80.583 244.719 C 80.428 253.42 80.052 263.305 80.587 272.191 C 80.654 273.293 81.589 274.348 82.675 274.546 C 86.007 275.153 92.174 275.663 95.865 275.76 C 96.968 275.789 98.168 274.97 98.543 273.931 C 102.657 262.544 105.181 249.269 105.072 238.042 C 98.847 241.788 86.44 246.423 80.583 244.719 Z " fill="white" stroke="none"/></mask><path d=" M 80.583 244.719 C 80.428 253.42 80.052 263.305 80.587 272.191 C 80.654 273.293 81.589 274.348 82.675 274.546 C 86.007 275.153 92.174 275.663 95.865 275.76 C 96.968 275.789 98.168 274.97 98.543 273.931 C 102.657 262.544 105.181 249.269 105.072 238.042 C 98.847 241.788 86.44 246.423 80.583 244.719 Z " fill="rgb(236,236,236)"/><path d=" M 80.583 244.719 C 80.428 253.42 80.052 263.305 80.587 272.191 C 80.654 273.293 81.589 274.348 82.675 274.546 C 86.007 275.153 92.174 275.663 95.865 275.76 C 96.968 275.789 98.168 274.97 98.543 273.931 C 102.657 262.544 105.181 249.269 105.072 238.042 C 98.847 241.788 86.44 246.423 80.583 244.719 Z " fill="rgb(236,236,236)" mask="url(#_mask_tzKx4qa29hzzXnDABrw0JXEtwzpWpDsA)" vector-effect="non-scaling-stroke" stroke-width="6" stroke="rgb(0,0,0)" stroke-linejoin="miter" stroke-linecap="square" stroke-miterlimit="3"/></g><mask id="_mask_ZB3FW9cDaKRXLGMarjah29NKPiaUSBqg"><path d=" M 51.575 212.569 C 43.83 210.745 30.103 218.966 30.586 230.139" fill="white" stroke="none"/></mask><path d=" M 51.575 212.569 C 43.83 210.745 30.103 218.966 30.586 230.139" fill="none"/><path d=" M 51.575 212.569 C 43.83 210.745 30.103 218.966 30.586 230.139" fill="none" mask="url(#_mask_ZB3FW9cDaKRXLGMarjah29NKPiaUSBqg)" vector-effect="non-scaling-stroke" stroke-width="6" stroke="rgb(0,0,0)" stroke-linejoin="miter" stroke-linecap="square" stroke-miterlimit="3"/><mask id="_mask_9CrKcjMXRHQODuhLu015spP6FERgmQf7"><path d=" M 133.843 228.256 C 133.255 220.32 121.288 209.699 110.776 213.518" fill="white" stroke="none"/></mask><path d=" M 133.843 228.256 C 133.255 220.32 121.288 209.699 110.776 213.518" fill="none"/><path d=" M 133.843 228.256 C 133.255 220.32 121.288 209.699 110.776 213.518" fill="none" mask="url(#_mask_9CrKcjMXRHQODuhLu015spP6FERgmQf7)" vector-effect="non-scaling-stroke" stroke-width="6" stroke="rgb(0,0,0)" stroke-linejoin="miter" stroke-linecap="square" stroke-miterlimit="3"/><mask id="_mask_Pg3pCIQqm1nq2kMV9U8lJXYY5XLHnxTE"><path d=" M 38 217.167 C 54 239.917 60.75 245.25 80.5 246.5 C 102.5 245.5 110.5 241.167 125.25 217.917" fill="white" stroke="none"/></mask><path d=" M 38 217.167 C 54 239.917 60.75 245.25 80.5 246.5 C 102.5 245.5 110.5 241.167 125.25 217.917" fill="none"/><path d=" M 38 217.167 C 54 239.917 60.75 245.25 80.5 246.5 C 102.5 245.5 110.5 241.167 125.25 217.917" fill="none" mask="url(#_mask_Pg3pCIQqm1nq2kMV9U8lJXYY5XLHnxTE)" vector-effect="non-scaling-stroke" stroke-width="6" stroke="rgb(0,0,0)" stroke-linejoin="miter" stroke-linecap="square" stroke-miterlimit="3"/><path d=" M 69.051 247.333 C 66.155 246.324 63.426 245.027 60.833 243.411 C 61.105 247.034 61.459 250.132 62.114 253.708 C 62.854 249.456 61.833 247.224 62.38 246.161 C 63.471 245.79 66.1 247.114 69.051 247.333 Z " fill="rgb(255,255,255)"/><path d=" M 92.208 247.344 C 89.324 248.158 88.149 248.6 84.227 248.68 C 84.363 252.966 84.065 256.561 83.911 259.578 C 85.598 254.375 85.333 251.254 85.88 250.191 C 86.971 249.82 89.43 249.102 92.208 247.344 Z " fill="rgb(255,255,255)"/><defs><filter id="neGIn2EPsFAzUj9W5BGKunm0e3Y4GPVT" x="-200%" y="-200%" width="400%" height="400%" filterUnits="objectBoundingBox" color-interpolation-filters="sRGB"><feGaussianBlur xmlns="http://www.w3.org/2000/svg" in="SourceGraphic" stdDeviation="0"/><feOffset xmlns="http://www.w3.org/2000/svg" dx="1" dy="1" result="pf_100_offsetBlur"/><feFlood xmlns="http://www.w3.org/2000/svg" flood-color="#000000" flood-opacity="0.3"/><feComposite xmlns="http://www.w3.org/2000/svg" in2="pf_100_offsetBlur" operator="in" result="pf_100_dropShadow"/><feBlend xmlns="http://www.w3.org/2000/svg" in="SourceGraphic" in2="pf_100_dropShadow" mode="normal" result="_out_oPHgsqNcrVMYBiPkFhi9aHBep7TtUPgw"/><feOffset xmlns="http://www.w3.org/2000/svg" in="_out_oPHgsqNcrVMYBiPkFhi9aHBep7TtUPgw" dx="-5" dy="-6"/><feGaussianBlur xmlns="http://www.w3.org/2000/svg" stdDeviation="0" result="pf_101_offsetBlur"/><feComposite xmlns="http://www.w3.org/2000/svg" in="_out_oPHgsqNcrVMYBiPkFhi9aHBep7TtUPgw" in2="pf_101_offsetBlur" result="pf_101_inverse" operator="out"/><feFlood xmlns="http://www.w3.org/2000/svg" flood-color="#000000" flood-opacity="0.2" result="pf_101_color"/><feComposite xmlns="http://www.w3.org/2000/svg" in="pf_101_color" in2="pf_101_inverse" operator="in" result="pf_101_shadow"/><feComposite xmlns="http://www.w3.org/2000/svg" in="pf_101_shadow" in2="_out_oPHgsqNcrVMYBiPkFhi9aHBep7TtUPgw" operator="over" result="_out_TD80mRHPhhMDwsFrxfszK3vLZJgcm3KY"/><feMerge><feMergeNode in="_out_TD80mRHPhhMDwsFrxfszK3vLZJgcm3KY"/></feMerge></filter></defs><g filter="url(#neGIn2EPsFAzUj9W5BGKunm0e3Y4GPVT)"><circle vector-effect="non-scaling-stroke" cx="131.17643541358382" cy="158.31249999999997" r="27.5625" fill="rgb(204,204,204)"/></g><mask id="_mask_pM26V2qJfr8njQaAFp51ctcLvH5qiBqm"><path d=" M 156.529 149.375 C 152.98 139.224 143.313 131.938 131.958 131.938 C 120.602 131.938 110.935 139.224 107.386 149.375 C 123.628 145.873 140.019 145.883 156.529 149.375 L 156.529 149.375 Z " fill="white" stroke="none"/></mask><path d=" M 156.529 149.375 C 152.98 139.224 143.313 131.938 131.958 131.938 C 120.602 131.938 110.935 139.224 107.386 149.375 C 123.628 145.873 140.019 145.883 156.529 149.375 L 156.529 149.375 Z " fill="rgb(106,234,127)"/><path d=" M 156.529 149.375 C 152.98 139.224 143.313 131.938 131.958 131.938 C 120.602 131.938 110.935 139.224 107.386 149.375 C 123.628 145.873 140.019 145.883 156.529 149.375 L 156.529 149.375 Z " fill="rgb(106,234,127)" mask="url(#_mask_pM26V2qJfr8njQaAFp51ctcLvH5qiBqm)" vector-effect="non-scaling-stroke" stroke-width="2" stroke="rgb(0,0,0)" stroke-linejoin="miter" stroke-linecap="square" stroke-miterlimit="3"/><mask id="_mask_PtGf2UIDdKOyk1SaR9KpYS33UPMhteWn"><circle vector-effect="non-scaling-stroke" cx="131.1625" cy="158.2625" r="27.5625" fill="white" stroke="none"/></mask><circle vector-effect="non-scaling-stroke" cx="131.1625" cy="158.2625" r="27.5625" fill="none"/><circle vector-effect="non-scaling-stroke" cx="131.1625" cy="158.2625" r="27.5625" fill="none" mask="url(#_mask_PtGf2UIDdKOyk1SaR9KpYS33UPMhteWn)" stroke-width="6" stroke="rgb(0,0,0)" stroke-linejoin="miter" stroke-linecap="square" stroke-miterlimit="3"/><ellipse vector-effect="non-scaling-stroke" cx="130.34310208025033" cy="159.03645833333337" rx="9.249999999999993" ry="9" fill="rgb(0,0,0)"/><path d=" M 126.047 152.584 C 125.834 151.884 126.424 151.084 127.364 150.797 C 128.305 150.51 129.241 150.845 129.455 151.545 C 129.668 152.244 129.078 153.045 128.137 153.332 C 127.197 153.618 126.26 153.283 126.047 152.584 Z " fill="rgb(255,255,255)" fill-opacity="0.9"/><defs><filter id="dKiLJ7vSlTo2ecnQZ2WHFbopBs4Kh7I2" x="-200%" y="-200%" width="400%" height="400%" filterUnits="objectBoundingBox" color-interpolation-filters="sRGB"><feGaussianBlur xmlns="http://www.w3.org/2000/svg" in="SourceGraphic" stdDeviation="0"/><feOffset xmlns="http://www.w3.org/2000/svg" dx="1" dy="1" result="pf_100_offsetBlur"/><feFlood xmlns="http://www.w3.org/2000/svg" flood-color="#000000" flood-opacity="0.3"/><feComposite xmlns="http://www.w3.org/2000/svg" in2="pf_100_offsetBlur" operator="in" result="pf_100_dropShadow"/><feBlend xmlns="http://www.w3.org/2000/svg" in="SourceGraphic" in2="pf_100_dropShadow" mode="normal" result="_out_CY8tEUYml3fXgUkAwLb2FIRQgKVfuAjk"/><feOffset xmlns="http://www.w3.org/2000/svg" in="_out_CY8tEUYml3fXgUkAwLb2FIRQgKVfuAjk" dx="-5" dy="-4"/><feGaussianBlur xmlns="http://www.w3.org/2000/svg" stdDeviation="0" result="pf_101_offsetBlur"/><feComposite xmlns="http://www.w3.org/2000/svg" in="_out_CY8tEUYml3fXgUkAwLb2FIRQgKVfuAjk" in2="pf_101_offsetBlur" result="pf_101_inverse" operator="out"/><feFlood xmlns="http://www.w3.org/2000/svg" flood-color="#000000" flood-opacity="0.2" result="pf_101_color"/><feComposite xmlns="http://www.w3.org/2000/svg" in="pf_101_color" in2="pf_101_inverse" operator="in" result="pf_101_shadow"/><feComposite xmlns="http://www.w3.org/2000/svg" in="pf_101_shadow" in2="_out_CY8tEUYml3fXgUkAwLb2FIRQgKVfuAjk" operator="over" result="_out_XNWW5CwPeKUcdf3Qk76VR0ZRf5QayBEx"/><feMerge><feMergeNode in="_out_XNWW5CwPeKUcdf3Qk76VR0ZRf5QayBEx"/></feMerge></filter></defs><g filter="url(#dKiLJ7vSlTo2ecnQZ2WHFbopBs4Kh7I2)"><ellipse vector-effect="non-scaling-stroke" cx="36.25976874691708" cy="161.35416666666657" rx="17.64583333333345" ry="22.020833333333314" fill="rgb(204,204,204)"/></g><mask id="_mask_VTyM8lainE0ceQ6sR6GXe56SA2LQb7sl"><path d=" M 51.452 152.766 C 48.733 146.089 43.173 141.516 36.764 141.516 C 30.355 141.516 24.795 146.089 22.076 152.766 C 31.568 150.391 41.37 150.401 51.452 152.766 L 51.452 152.766 Z " fill="white" stroke="none"/></mask><path d=" M 51.452 152.766 C 48.733 146.089 43.173 141.516 36.764 141.516 C 30.355 141.516 24.795 146.089 22.076 152.766 C 31.568 150.391 41.37 150.401 51.452 152.766 L 51.452 152.766 Z " fill="rgb(106,234,127)"/><path d=" M 51.452 152.766 C 48.733 146.089 43.173 141.516 36.764 141.516 C 30.355 141.516 24.795 146.089 22.076 152.766 C 31.568 150.391 41.37 150.401 51.452 152.766 L 51.452 152.766 Z " fill="rgb(106,234,127)" mask="url(#_mask_VTyM8lainE0ceQ6sR6GXe56SA2LQb7sl)" vector-effect="non-scaling-stroke" stroke-width="2" stroke="rgb(0,0,0)" stroke-linejoin="miter" stroke-linecap="square" stroke-miterlimit="3"/><mask id="_mask_Rlba7y47A06lv8MaofafvrZcQWs7OGjJ"><ellipse vector-effect="non-scaling-stroke" cx="36.24583333333345" cy="161.32083333333333" rx="17.64583333333345" ry="22.020833333333314" fill="white" stroke="none"/></mask><ellipse vector-effect="non-scaling-stroke" cx="36.24583333333345" cy="161.32083333333333" rx="17.64583333333345" ry="22.020833333333314" fill="none"/><ellipse vector-effect="non-scaling-stroke" cx="36.24583333333345" cy="161.32083333333333" rx="17.64583333333345" ry="22.020833333333314" fill="none" mask="url(#_mask_Rlba7y47A06lv8MaofafvrZcQWs7OGjJ)" stroke-width="6" stroke="rgb(0,0,0)" stroke-linejoin="miter" stroke-linecap="square" stroke-miterlimit="3"/><ellipse vector-effect="non-scaling-stroke" cx="35.97157430247262" cy="161.61458333333334" rx="8.222222222222179" ry="7.999999999999972" fill="rgb(0,0,0)"/><path d=" M 30.428 156.995 C 30.187 156.304 30.745 155.481 31.674 155.157 C 32.602 154.833 33.551 155.131 33.792 155.821 C 34.033 156.512 33.475 157.335 32.547 157.659 C 31.618 157.983 30.669 157.685 30.428 156.995 Z " fill="rgb(255,255,255)" fill-opacity="0.9"/></g></svg>