<?xml version="1.0" encoding="UTF-8" standalone="no"?><!-- Generator: Gravit.io --><svg xmlns="http://www.w3.org/2000/svg" xmlns:xlink="http://www.w3.org/1999/xlink" style="isolation:isolate" viewBox="0 0 318 342" width="318pt" height="342pt"><defs><clipPath id="_clipPath_QLBFECcxPeJ2bJZH0Zt5JNcmyIuARxGV"><rect width="318" height="342"/></clipPath></defs><g clip-path="url(#_clipPath_QLBFECcxPeJ2bJZH0Zt5JNcmyIuARxGV)"><mask id="_mask_h08ziPvDUhCknE8oiNpWs8xTXBqIutfh"><path d=" M 205.295 56.278 C 194.227 38.197 164.314 29.353 143.961 16.278 C 142.538 15.127 155.583 15 163.333 12 C 172.521 10.688 178.583 9 185.333 7.5 C 194.833 6.5 205.193 6.109 214.333 4 C 224.583 4.25 233.583 3.5 240.833 2.5 C 248.552 2.484 256.833 2.25 266.833 0.25 C 254.833 46 251.564 103.799 258.295 126.611 C 243.795 120.361 224.229 82.02 205.295 56.278 Z " fill="white" stroke="none"/></mask><path d=" M 205.295 56.278 C 194.227 38.197 164.314 29.353 143.961 16.278 C 142.538 15.127 155.583 15 163.333 12 C 172.521 10.688 178.583 9 185.333 7.5 C 194.833 6.5 205.193 6.109 214.333 4 C 224.583 4.25 233.583 3.5 240.833 2.5 C 248.552 2.484 256.833 2.25 266.833 0.25 C 254.833 46 251.564 103.799 258.295 126.611 C 243.795 120.361 224.229 82.02 205.295 56.278 Z " fill="rgb(255,9,169)"/><path d=" M 205.295 56.278 C 194.227 38.197 164.314 29.353 143.961 16.278 C 142.538 15.127 155.583 15 163.333 12 C 172.521 10.688 178.583 9 185.333 7.5 C 194.833 6.5 205.193 6.109 214.333 4 C 224.583 4.25 233.583 3.5 240.833 2.5 C 248.552 2.484 256.833 2.25 266.833 0.25 C 254.833 46 251.564 103.799 258.295 126.611 C 243.795 120.361 224.229 82.02 205.295 56.278 Z " fill="rgb(255,9,169)" mask="url(#_mask_h08ziPvDUhCknE8oiNpWs8xTXBqIutfh)" vector-effect="non-scaling-stroke" stroke-width="6" stroke="rgb(0,0,0)" stroke-linejoin="miter" stroke-linecap="square" stroke-miterlimit="3"/><mask id="_mask_U7cn4bKqU35zMojhewhxMXbXu87VR7xG"><path d=" M 191.648 268.051 C 175.375 281.639 142.011 280.875 118.544 286.749 C 120.721 291.413 134.568 297.816 133.402 300.212 C 137.29 302.364 145.437 303 152.937 306 C 158.437 308 170.938 310.125 179 313.125 C 188 314.625 202.958 321.042 209.958 324.792 C 225.958 332.792 230.937 334.5 238.25 342 C 239 293.25 244.333 236.833 260.789 217.521 C 245.051 218.802 217.824 249.722 191.648 268.051 Z " fill="white" stroke="none"/></mask><path d=" M 191.648 268.051 C 175.375 281.639 142.011 280.875 118.544 286.749 C 120.721 291.413 134.568 297.816 133.402 300.212 C 137.29 302.364 145.437 303 152.937 306 C 158.437 308 170.938 310.125 179 313.125 C 188 314.625 202.958 321.042 209.958 324.792 C 225.958 332.792 230.937 334.5 238.25 342 C 239 293.25 244.333 236.833 260.789 217.521 C 245.051 218.802 217.824 249.722 191.648 268.051 Z " fill="rgb(255,9,169)"/><path d=" M 191.648 268.051 C 175.375 281.639 142.011 280.875 118.544 286.749 C 120.721 291.413 134.568 297.816 133.402 300.212 C 137.29 302.364 145.437 303 152.937 306 C 158.437 308 170.938 310.125 179 313.125 C 188 314.625 202.958 321.042 209.958 324.792 C 225.958 332.792 230.937 334.5 238.25 342 C 239 293.25 244.333 236.833 260.789 217.521 C 245.051 218.802 217.824 249.722 191.648 268.051 Z " fill="rgb(255,9,169)" mask="url(#_mask_U7cn4bKqU35zMojhewhxMXbXu87VR7xG)" vector-effect="non-scaling-stroke" stroke-width="6" stroke="rgb(0,0,0)" stroke-linejoin="miter" stroke-linecap="square" stroke-miterlimit="3"/><mask id="_mask_vUTdD0JZM9duOSQ8Mks172SWYHRElbvY"><path d=" M 93.489 298.437 C 90.162 302.366 74.028 303.745 71.364 303.687 C 78.592 307.049 86.833 325.917 92.833 342.292 C 92.458 329.167 92.688 321.75 93.489 298.437 Z " fill="white" stroke="none"/></mask><path d=" M 93.489 298.437 C 90.162 302.366 74.028 303.745 71.364 303.687 C 78.592 307.049 86.833 325.917 92.833 342.292 C 92.458 329.167 92.688 321.75 93.489 298.437 Z " fill="rgb(255,9,169)"/><path d=" M 93.489 298.437 C 90.162 302.366 74.028 303.745 71.364 303.687 C 78.592 307.049 86.833 325.917 92.833 342.292 C 92.458 329.167 92.688 321.75 93.489 298.437 Z " fill="rgb(255,9,169)" mask="url(#_mask_vUTdD0JZM9duOSQ8Mks172SWYHRElbvY)" vector-effect="non-scaling-stroke" stroke-width="6" stroke="rgb(0,0,0)" stroke-linejoin="miter" stroke-linecap="square" stroke-miterlimit="3"/><mask id="_mask_Z7XPPhn6u5ycZpdVxWL4AD0OcgRHhXka"><path d=" M 277.125 151 C 285 133.188 291.578 106.455 297.937 79.188 C 301.82 91.508 308.513 106.842 312.961 114.611 C 313.599 140.751 314.962 162.336 316.961 179.278 C 313.367 203.421 310.064 225.896 306.961 246.611 C 302.387 255.52 296.187 270.938 288.187 289.938 C 285.466 263.612 283.687 241.375 277.687 221.688 L 277.125 151 Z " fill="white" stroke="none"/></mask><path d=" M 277.125 151 C 285 133.188 291.578 106.455 297.937 79.188 C 301.82 91.508 308.513 106.842 312.961 114.611 C 313.599 140.751 314.962 162.336 316.961 179.278 C 313.367 203.421 310.064 225.896 306.961 246.611 C 302.387 255.52 296.187 270.938 288.187 289.938 C 285.466 263.612 283.687 241.375 277.687 221.688 L 277.125 151 Z " fill="rgb(255,9,169)"/><path d=" M 277.125 151 C 285 133.188 291.578 106.455 297.937 79.188 C 301.82 91.508 308.513 106.842 312.961 114.611 C 313.599 140.751 314.962 162.336 316.961 179.278 C 313.367 203.421 310.064 225.896 306.961 246.611 C 302.387 255.52 296.187 270.938 288.187 289.938 C 285.466 263.612 283.687 241.375 277.687 221.688 L 277.125 151 Z " fill="rgb(255,9,169)" mask="url(#_mask_Z7XPPhn6u5ycZpdVxWL4AD0OcgRHhXka)" vector-effect="non-scaling-stroke" stroke-width="6" stroke="rgb(0,0,0)" stroke-linejoin="miter" stroke-linecap="square" stroke-miterlimit="3"/><path d=" M 298.072 182.625 C 301.186 182.643 306.784 181.122 310.814 181.445 C 312.642 181.591 312.645 181.56 310.82 181.375 C 307.847 181.073 303.034 180.67 297.954 180.171 L 298.072 182.625 Z " fill="rgb(0,0,0)"/><path d=" M 177.551 31.219 C 194.583 26.083 204.833 21.958 215.239 17.626 C 218.811 16.139 218.971 16.468 215.597 18.36 C 208.958 22.083 195.958 27.458 180.833 32.625 L 177.551 31.219 Z " fill="rgb(0,0,0)"/><path d=" M 194.958 41.625 C 208.875 36.938 231.375 26.391 242.846 20.637 C 247.467 18.319 247.627 18.609 243.203 21.283 C 235.453 25.969 212.25 37.781 198.051 43.969 L 194.958 41.625 Z " fill="rgb(0,0,0)"/><path d=" M 162.546 23.563 C 172.083 20.583 181.958 16.583 190.068 12.897 C 192.422 11.827 192.574 12.103 190.406 13.514 C 186.458 16.083 176.083 21.083 165.926 24.375 L 162.546 23.563 Z " fill="rgb(0,0,0)"/><path d=" M 155.801 292.542 C 163.406 295.594 177.469 302.414 184.113 306.128 C 186.371 307.39 186.512 307.17 184.429 305.638 C 180.141 302.484 166.852 295.312 158.985 291.689 L 155.801 292.542 Z " fill="rgb(0,0,0)"/><path d=" M 173.864 285.542 C 181.641 289.781 202.641 302.062 211.15 307.934 C 214.215 310.049 214.333 309.889 211.413 307.578 C 204.891 302.414 189.844 291.656 177.558 284.203 L 173.864 285.542 Z " fill="rgb(0,0,0)"/><path d=" M 293.822 147.583 C 296.056 142.357 299.544 132.447 302.939 125.895 C 304.479 122.924 304.428 122.897 302.826 125.835 C 300.214 130.625 296.13 138.436 291.696 146.631 L 293.822 147.583 Z " fill="rgb(0,0,0)"/><path d=" M 287.322 219.833 C 290.559 224.505 292.905 228.065 296.647 234.426 C 298.344 237.31 298.393 237.282 296.758 234.362 C 294.092 229.602 293.652 226.197 289.072 218.083 L 287.322 219.833 Z " fill="rgb(0,0,0)"/><path d=" M 87.209 3.784 C 132.613 6.817 168.291 23.019 199.559 45.825 C 225.62 70.11 246.033 99.85 260.236 133.736 C 260.528 134.432 261.116 135.5 261.549 136.118 C 274.504 154.611 279.015 153.944 291.543 146.521 C 292.391 146.019 293.228 146.397 293.412 147.364 C 298.651 174.944 300.57 204.768 284.057 225.278 C 264.499 214.719 260.782 222.223 252.547 229.812 C 210.922 273.324 154.934 299.549 84.517 308.389 L 87.209 3.784 Z " fill="rgb(106,234,127)" vector-effect="non-scaling-stroke" stroke-width="3" stroke="rgb(0,0,0)" stroke-linejoin="miter" stroke-linecap="square" stroke-miterlimit="3"/><mask id="_mask_HhZfPoa9QWVeCTPTFdnoN8NK1gzevxpL"><path d=" M 32.072 159.167 C -33.072 40.213 9.114 4.75 99.114 0.25 C 138.114 4.75 208.801 27.006 166.072 162.167 C 164.031 257.81 132.114 291.25 111.114 303.25 C 89.937 311.118 78.332 312.638 63.489 301 C 25.239 278.875 -4.937 244.434 32.072 159.167 Z " fill="white" stroke="none"/></mask><path d=" M 32.072 159.167 C -33.072 40.213 9.114 4.75 99.114 0.25 C 138.114 4.75 208.801 27.006 166.072 162.167 C 164.031 257.81 132.114 291.25 111.114 303.25 C 89.937 311.118 78.332 312.638 63.489 301 C 25.239 278.875 -4.937 244.434 32.072 159.167 Z " fill="rgb(106,234,127)"/><path d=" M 32.072 159.167 C -33.072 40.213 9.114 4.75 99.114 0.25 C 138.114 4.75 208.801 27.006 166.072 162.167 C 164.031 257.81 132.114 291.25 111.114 303.25 C 89.937 311.118 78.332 312.638 63.489 301 C 25.239 278.875 -4.937 244.434 32.072 159.167 Z " fill="rgb(106,234,127)" mask="url(#_mask_HhZfPoa9QWVeCTPTFdnoN8NK1gzevxpL)" vector-effect="non-scaling-stroke" stroke-width="6" stroke="rgb(0,0,0)" stroke-linejoin="miter" stroke-linecap="square" stroke-miterlimit="3"/><path d=" M 160.02 23.938 C 151.742 20.14 134.96 12.515 128.885 10.396 L 162.989 162.438 C 157.508 205.32 134.602 252.271 93.614 305.479 C 103.595 304.127 114.563 302.033 126.489 299.167 C 154.075 263.255 169.543 217.85 172.864 162.922 C 190.587 102.871 186.315 56.553 160.02 23.938 Z " fill="rgb(106,234,127)"/><path d=" M 230.961 248.611 C 250.656 235.75 251.906 218.5 284.906 219 C 281.664 219.058 264.325 209.249 254.406 219 C 176.832 273.872 98.989 324.437 43.864 284.5 C 52.983 291.917 69.239 310 93.989 307.5 C 120.6 303.592 193.628 282.611 230.961 248.611 Z " fill="rgb(0,0,0)" fill-opacity="0.2"/><path d=" M 62.176 47 C 54.17 33.371 103.705 20.468 151.989 39.687 C 198.692 58.277 243.873 108.291 255.072 137 C 270.322 158.5 282.739 155.125 291.864 148.125 C 285.864 151.563 283.739 152.875 277.364 152.75 C 271.579 151.407 266.322 146.185 259.551 135.875 C 243.786 98 217.84 62.984 198.434 47.187 C 174.88 29.258 123.551 4.156 99.059 3.359 C 46.184 5.75 7.426 20.187 4.614 56.375 C 9.614 67.042 46.664 72.56 62.176 47 Z " fill="rgb(255,255,255)" fill-opacity="0.3"/><mask id="_mask_TXPGzEFL2Ds9EY4juwurYf0EVm1dYPaq"><ellipse vector-effect="non-scaling-stroke" cx="82.33333333333329" cy="231.51822916666663" rx="21.79237945317431" ry="24.8151041666667" fill="white" stroke="none"/></mask><ellipse vector-effect="non-scaling-stroke" cx="82.33333333333329" cy="231.51822916666663" rx="21.79237945317431" ry="24.8151041666667" fill="rgb(74,70,70)"/><ellipse vector-effect="non-scaling-stroke" cx="82.33333333333329" cy="231.51822916666663" rx="21.79237945317431" ry="24.8151041666667" fill="rgb(74,70,70)" mask="url(#_mask_TXPGzEFL2Ds9EY4juwurYf0EVm1dYPaq)" stroke-width="6" stroke="rgb(0,0,0)" stroke-linejoin="miter" stroke-linecap="butt" stroke-miterlimit="3"/><defs><filter id="CNvVqrXjcR3NVKeMsERI0FUjId6AlJWx" x="-200%" y="-200%" width="400%" height="400%" filterUnits="objectBoundingBox" color-interpolation-filters="sRGB"><feOffset xmlns="http://www.w3.org/2000/svg" in="SourceGraphic" dx="-4" dy="-5"/><feGaussianBlur xmlns="http://www.w3.org/2000/svg" stdDeviation="0" result="pf_100_offsetBlur"/><feComposite xmlns="http://www.w3.org/2000/svg" in="SourceGraphic" in2="pf_100_offsetBlur" result="pf_100_inverse" operator="out"/><feFlood xmlns="http://www.w3.org/2000/svg" flood-color="#000000" flood-opacity="0.2" result="pf_100_color"/><feComposite xmlns="http://www.w3.org/2000/svg" in="pf_100_color" in2="pf_100_inverse" operator="in" result="pf_100_shadow"/><feComposite xmlns="http://www.w3.org/2000/svg" in="pf_100_shadow" in2="SourceGraphic" operator="over"/></filter></defs><g filter="url(#CNvVqrXjcR3NVKeMsERI0FUjId6AlJWx)"><mask id="_mask_TYyy9S5OYNezX3590IPnEmJUqK6PZaEj"><path d=" M 62.062 223.25 C 61.875 230.813 62.847 234.469 64.101 240.028 C 64.344 241.105 65.436 242.028 66.538 242.089 L 79.461 242.797 C 80.563 242.857 81.497 242.011 81.545 240.908 C 81.864 233.566 81.853 216.222 81.594 208.063 C 71.431 206.635 65.375 217.063 62.062 223.25 Z " fill="white" stroke="none"/></mask><path d=" M 62.062 223.25 C 61.875 230.813 62.847 234.469 64.101 240.028 C 64.344 241.105 65.436 242.028 66.538 242.089 L 79.461 242.797 C 80.563 242.857 81.497 242.011 81.545 240.908 C 81.864 233.566 81.853 216.222 81.594 208.063 C 71.431 206.635 65.375 217.063 62.062 223.25 Z " fill="rgb(236,236,236)"/><path d=" M 62.062 223.25 C 61.875 230.813 62.847 234.469 64.101 240.028 C 64.344 241.105 65.436 242.028 66.538 242.089 L 79.461 242.797 C 80.563 242.857 81.497 242.011 81.545 240.908 C 81.864 233.566 81.853 216.222 81.594 208.063 C 71.431 206.635 65.375 217.063 62.062 223.25 Z " fill="rgb(236,236,236)" mask="url(#_mask_TYyy9S5OYNezX3590IPnEmJUqK6PZaEj)" vector-effect="non-scaling-stroke" stroke-width="6" stroke="rgb(0,0,0)" stroke-linejoin="miter" stroke-linecap="square" stroke-miterlimit="3"/></g><defs><filter id="6xljs7JHANLBhRvPZwijJjCc7VuxufCR" x="-200%" y="-200%" width="400%" height="400%" filterUnits="objectBoundingBox" color-interpolation-filters="sRGB"><feOffset xmlns="http://www.w3.org/2000/svg" in="SourceGraphic" dx="-4" dy="-5"/><feGaussianBlur xmlns="http://www.w3.org/2000/svg" stdDeviation="0" result="pf_100_offsetBlur"/><feComposite xmlns="http://www.w3.org/2000/svg" in="SourceGraphic" in2="pf_100_offsetBlur" result="pf_100_inverse" operator="out"/><feFlood xmlns="http://www.w3.org/2000/svg" flood-color="#000000" flood-opacity="0.2" result="pf_100_color"/><feComposite xmlns="http://www.w3.org/2000/svg" in="pf_100_color" in2="pf_100_inverse" operator="in" result="pf_100_shadow"/><feComposite xmlns="http://www.w3.org/2000/svg" in="pf_100_shadow" in2="SourceGraphic" operator="over"/></filter></defs><g filter="url(#6xljs7JHANLBhRvPZwijJjCc7VuxufCR)"><mask id="_mask_LU9qGE7Xnu8bNducJTmcEZgPdOcn0cS7"><path d=" M 81.5 208.156 C 81.345 216.858 81.271 232.117 81.806 241.004 C 81.873 242.105 82.808 243.161 83.894 243.358 C 87.226 243.965 93.392 244.475 97.083 244.572 C 98.187 244.601 99.359 243.772 99.699 242.722 C 102 235.625 102.5 233.313 103.062 224.563 C 99.547 215.844 90.375 207.875 81.5 208.156 Z " fill="white" stroke="none"/></mask><path d=" M 81.5 208.156 C 81.345 216.858 81.271 232.117 81.806 241.004 C 81.873 242.105 82.808 243.161 83.894 243.358 C 87.226 243.965 93.392 244.475 97.083 244.572 C 98.187 244.601 99.359 243.772 99.699 242.722 C 102 235.625 102.5 233.313 103.062 224.563 C 99.547 215.844 90.375 207.875 81.5 208.156 Z " fill="rgb(236,236,236)"/><path d=" M 81.5 208.156 C 81.345 216.858 81.271 232.117 81.806 241.004 C 81.873 242.105 82.808 243.161 83.894 243.358 C 87.226 243.965 93.392 244.475 97.083 244.572 C 98.187 244.601 99.359 243.772 99.699 242.722 C 102 235.625 102.5 233.313 103.062 224.563 C 99.547 215.844 90.375 207.875 81.5 208.156 Z " fill="rgb(236,236,236)" mask="url(#_mask_LU9qGE7Xnu8bNducJTmcEZgPdOcn0cS7)" vector-effect="non-scaling-stroke" stroke-width="6" stroke="rgb(0,0,0)" stroke-linejoin="miter" stroke-linecap="square" stroke-miterlimit="3"/></g><path d=" M 71.167 215.917 C 69.229 216.823 66.073 223.042 65.551 224.224 C 65.417 227.792 65.948 231.698 66.448 234.354 C 66.573 229.323 66.448 228.354 66.573 224.698 C 67.354 222.729 68.479 219.729 71.167 215.917 Z " fill="rgb(255,255,255)"/><path d=" M 91.984 215.5 C 91.094 214.984 88.544 212.411 84.977 212.102 C 84.892 216.451 84.818 220.165 84.875 223.109 C 86.125 217.469 85.766 214.594 86.312 213.531 C 87.404 213.16 89.781 214.656 91.984 215.5 Z " fill="rgb(255,255,255)"/><defs><filter id="gCBYrouCKGAkDQO1yn1TtBx614kutvbo" x="-200%" y="-200%" width="400%" height="400%" filterUnits="objectBoundingBox" color-interpolation-filters="sRGB"><feGaussianBlur xmlns="http://www.w3.org/2000/svg" in="SourceGraphic" stdDeviation="0"/><feOffset xmlns="http://www.w3.org/2000/svg" dx="1" dy="1" result="pf_100_offsetBlur"/><feFlood xmlns="http://www.w3.org/2000/svg" flood-color="#000000" flood-opacity="0.3"/><feComposite xmlns="http://www.w3.org/2000/svg" in2="pf_100_offsetBlur" operator="in" result="pf_100_dropShadow"/><feBlend xmlns="http://www.w3.org/2000/svg" in="SourceGraphic" in2="pf_100_dropShadow" mode="normal" result="_out_c0lnLhCJg2PWrKpqOxj9T270dKgIqOHP"/><feOffset xmlns="http://www.w3.org/2000/svg" in="_out_c0lnLhCJg2PWrKpqOxj9T270dKgIqOHP" dx="-5" dy="-6"/><feGaussianBlur xmlns="http://www.w3.org/2000/svg" stdDeviation="0" result="pf_101_offsetBlur"/><feComposite xmlns="http://www.w3.org/2000/svg" in="_out_c0lnLhCJg2PWrKpqOxj9T270dKgIqOHP" in2="pf_101_offsetBlur" result="pf_101_inverse" operator="out"/><feFlood xmlns="http://www.w3.org/2000/svg" flood-color="#000000" flood-opacity="0.2" result="pf_101_color"/><feComposite xmlns="http://www.w3.org/2000/svg" in="pf_101_color" in2="pf_101_inverse" operator="in" result="pf_101_shadow"/><feComposite xmlns="http://www.w3.org/2000/svg" in="pf_101_shadow" in2="_out_c0lnLhCJg2PWrKpqOxj9T270dKgIqOHP" operator="over" result="_out_Szn2RornUCGEuSPQGlTANofc4WGdPXFs"/><feMerge><feMergeNode in="_out_Szn2RornUCGEuSPQGlTANofc4WGdPXFs"/></feMerge></filter></defs><g filter="url(#gCBYrouCKGAkDQO1yn1TtBx614kutvbo)"><circle vector-effect="non-scaling-stroke" cx="131.17643541358382" cy="158.31249999999997" r="27.5625" fill="rgb(204,204,204)"/></g><defs><filter id="aGTOfjQyWrDzlqyj3hiDw1djGwYrFo08" x="-200%" y="-200%" width="400%" height="400%" filterUnits="objectBoundingBox" color-interpolation-filters="sRGB"><feGaussianBlur xmlns="http://www.w3.org/2000/svg" in="SourceGraphic" stdDeviation="0"/><feOffset xmlns="http://www.w3.org/2000/svg" dx="1" dy="1" result="pf_100_offsetBlur"/><feFlood xmlns="http://www.w3.org/2000/svg" flood-color="#000000" flood-opacity="0.3"/><feComposite xmlns="http://www.w3.org/2000/svg" in2="pf_100_offsetBlur" operator="in" result="pf_100_dropShadow"/><feBlend xmlns="http://www.w3.org/2000/svg" in="SourceGraphic" in2="pf_100_dropShadow" mode="normal" result="_out_PGm2A3sf3lYCXAPFowZmN7hxqCi8wmx2"/><feOffset xmlns="http://www.w3.org/2000/svg" in="_out_PGm2A3sf3lYCXAPFowZmN7hxqCi8wmx2" dx="-5" dy="-6"/><feGaussianBlur xmlns="http://www.w3.org/2000/svg" stdDeviation="0" result="pf_101_offsetBlur"/><feComposite xmlns="http://www.w3.org/2000/svg" in="_out_PGm2A3sf3lYCXAPFowZmN7hxqCi8wmx2" in2="pf_101_offsetBlur" result="pf_101_inverse" operator="out"/><feFlood xmlns="http://www.w3.org/2000/svg" flood-color="#000000" flood-opacity="0.2" result="pf_101_color"/><feComposite xmlns="http://www.w3.org/2000/svg" in="pf_101_color" in2="pf_101_inverse" operator="in" result="pf_101_shadow"/><feComposite xmlns="http://www.w3.org/2000/svg" in="pf_101_shadow" in2="_out_PGm2A3sf3lYCXAPFowZmN7hxqCi8wmx2" operator="over" result="_out_nu02lsJDF5kw89QU2hZrEjM9Epfa7IW5"/><feMerge><feMergeNode in="_out_nu02lsJDF5kw89QU2hZrEjM9Epfa7IW5"/></feMerge></filter></defs><g filter="url(#aGTOfjQyWrDzlqyj3hiDw1djGwYrFo08)"><circle vector-effect="non-scaling-stroke" cx="131.1347687469172" cy="158.52083333333331" r="26.729166666666657" fill="rgb(204,204,204)"/></g><ellipse vector-effect="non-scaling-stroke" cx="130.74624154784297" cy="159.4557291666667" rx="14.471860532407398" ry="14.080729166666686" fill="rgb(0,0,0)"/><mask id="_mask_nsvJvDdSZHrdi5tANdBxCMgmwQthUHsI"><circle vector-effect="non-scaling-stroke" cx="131.1625" cy="158.2625" r="27.5625" fill="white" stroke="none"/></mask><circle vector-effect="non-scaling-stroke" cx="131.1625" cy="158.2625" r="27.5625" fill="none"/><circle vector-effect="non-scaling-stroke" cx="131.1625" cy="158.2625" r="27.5625" fill="none" mask="url(#_mask_nsvJvDdSZHrdi5tANdBxCMgmwQthUHsI)" stroke-width="6" stroke="rgb(0,0,0)" stroke-linejoin="miter" stroke-linecap="square" stroke-miterlimit="3"/><defs><filter id="PMmNsneS7AFFeGJTmpQAc9JKcLsMNo4k" x="-200%" y="-200%" width="400%" height="400%" filterUnits="objectBoundingBox" color-interpolation-filters="sRGB"><feGaussianBlur xmlns="http://www.w3.org/2000/svg" in="SourceGraphic" stdDeviation="0"/><feOffset xmlns="http://www.w3.org/2000/svg" dx="1" dy="1" result="pf_100_offsetBlur"/><feFlood xmlns="http://www.w3.org/2000/svg" flood-color="#000000" flood-opacity="0.3"/><feComposite xmlns="http://www.w3.org/2000/svg" in2="pf_100_offsetBlur" operator="in" result="pf_100_dropShadow"/><feBlend xmlns="http://www.w3.org/2000/svg" in="SourceGraphic" in2="pf_100_dropShadow" mode="normal" result="_out_cNVICsPK3BTUbCwW0LIXyXovPjxMhzmR"/><feOffset xmlns="http://www.w3.org/2000/svg" in="_out_cNVICsPK3BTUbCwW0LIXyXovPjxMhzmR" dx="-5" dy="-4"/><feGaussianBlur xmlns="http://www.w3.org/2000/svg" stdDeviation="0" result="pf_101_offsetBlur"/><feComposite xmlns="http://www.w3.org/2000/svg" in="_out_cNVICsPK3BTUbCwW0LIXyXovPjxMhzmR" in2="pf_101_offsetBlur" result="pf_101_inverse" operator="out"/><feFlood xmlns="http://www.w3.org/2000/svg" flood-color="#000000" flood-opacity="0.2" result="pf_101_color"/><feComposite xmlns="http://www.w3.org/2000/svg" in="pf_101_color" in2="pf_101_inverse" operator="in" result="pf_101_shadow"/><feComposite xmlns="http://www.w3.org/2000/svg" in="pf_101_shadow" in2="_out_cNVICsPK3BTUbCwW0LIXyXovPjxMhzmR" operator="over" result="_out_acNrhoLM1kBJD6dax9rKQDsIGMbSNbkX"/><feMerge><feMergeNode in="_out_acNrhoLM1kBJD6dax9rKQDsIGMbSNbkX"/></feMerge></filter></defs><g filter="url(#PMmNsneS7AFFeGJTmpQAc9JKcLsMNo4k)"><ellipse vector-effect="non-scaling-stroke" cx="36.25976874691708" cy="161.35416666666657" rx="17.64583333333345" ry="22.020833333333314" fill="rgb(204,204,204)"/></g><defs><filter id="OrG4wrUwXOeGGeBIuRIh62wzJRz4SEjV" x="-200%" y="-200%" width="400%" height="400%" filterUnits="objectBoundingBox" color-interpolation-filters="sRGB"><feGaussianBlur xmlns="http://www.w3.org/2000/svg" in="SourceGraphic" stdDeviation="0"/><feOffset xmlns="http://www.w3.org/2000/svg" dx="1" dy="1" result="pf_100_offsetBlur"/><feFlood xmlns="http://www.w3.org/2000/svg" flood-color="#000000" flood-opacity="0.3"/><feComposite xmlns="http://www.w3.org/2000/svg" in2="pf_100_offsetBlur" operator="in" result="pf_100_dropShadow"/><feBlend xmlns="http://www.w3.org/2000/svg" in="SourceGraphic" in2="pf_100_dropShadow" mode="normal" result="_out_U4scuTx5d1Jcm2IZw6y68Ilr8E1aDXX0"/><feOffset xmlns="http://www.w3.org/2000/svg" in="_out_U4scuTx5d1Jcm2IZw6y68Ilr8E1aDXX0" dx="-5" dy="-4"/><feGaussianBlur xmlns="http://www.w3.org/2000/svg" stdDeviation="0" result="pf_101_offsetBlur"/><feComposite xmlns="http://www.w3.org/2000/svg" in="_out_U4scuTx5d1Jcm2IZw6y68Ilr8E1aDXX0" in2="pf_101_offsetBlur" result="pf_101_inverse" operator="out"/><feFlood xmlns="http://www.w3.org/2000/svg" flood-color="#000000" flood-opacity="0.2" result="pf_101_color"/><feComposite xmlns="http://www.w3.org/2000/svg" in="pf_101_color" in2="pf_101_inverse" operator="in" result="pf_101_shadow"/><feComposite xmlns="http://www.w3.org/2000/svg" in="pf_101_shadow" in2="_out_U4scuTx5d1Jcm2IZw6y68Ilr8E1aDXX0" operator="over" result="_out_mGJNsBIAkRKam4N9bFBeSsBWR7opYHNP"/><feMerge><feMergeNode in="_out_mGJNsBIAkRKam4N9bFBeSsBWR7opYHNP"/></feMerge></filter></defs><g filter="url(#OrG4wrUwXOeGGeBIuRIh62wzJRz4SEjV)"><ellipse vector-effect="non-scaling-stroke" cx="36.19381951954405" cy="161.52083333333326" rx="17.21178256070648" ry="21.47916666666663" fill="rgb(204,204,204)"/></g><ellipse vector-effect="non-scaling-stroke" cx="35.99938038059116" cy="161.98619791666667" rx="9.881916144103641" ry="11.16588541666664" fill="rgb(0,0,0)"/><mask id="_mask_9Lp9NVpb9hJUCSOIWhKiR0Vy6Vcyqj2N"><ellipse vector-effect="non-scaling-stroke" cx="36.24583333333345" cy="161.32083333333333" rx="17.64583333333345" ry="22.020833333333314" fill="white" stroke="none"/></mask><ellipse vector-effect="non-scaling-stroke" cx="36.24583333333345" cy="161.32083333333333" rx="17.64583333333345" ry="22.020833333333314" fill="none"/><ellipse vector-effect="non-scaling-stroke" cx="36.24583333333345" cy="161.32083333333333" rx="17.64583333333345" ry="22.020833333333314" fill="none" mask="url(#_mask_9Lp9NVpb9hJUCSOIWhKiR0Vy6Vcyqj2N)" stroke-width="6" stroke="rgb(0,0,0)" stroke-linejoin="miter" stroke-linecap="square" stroke-miterlimit="3"/><path d=" M 121.554 150.954 C 121.11 149.989 121.803 148.721 123.1 148.124 C 124.398 147.528 125.811 147.827 126.255 148.792 C 126.699 149.757 126.006 151.025 124.709 151.622 C 123.411 152.218 121.998 151.919 121.554 150.954 Z " fill="rgb(255,255,255)" fill-opacity="0.9"/><path d=" M 28.839 156.613 C 28.315 155.952 28.711 154.763 29.723 153.96 C 30.735 153.157 31.983 153.042 32.508 153.703 C 33.032 154.364 32.636 155.553 31.624 156.356 C 30.612 157.16 29.364 157.275 28.839 156.613 Z " fill="rgb(255,255,255)" fill-opacity="0.9"/></g></svg>