<?xml version="1.0" encoding="UTF-8" standalone="no"?><!-- Generator: Gravit.io --><svg xmlns="http://www.w3.org/2000/svg" xmlns:xlink="http://www.w3.org/1999/xlink" style="isolation:isolate" viewBox="0 0 326 346" width="326pt" height="346pt"><defs><clipPath id="_clipPath_44HH5ubTe5lYzWrTW3ibmgXAWqCW4cd0"><rect width="326" height="346"/></clipPath></defs><g clip-path="url(#_clipPath_44HH5ubTe5lYzWrTW3ibmgXAWqCW4cd0)"><mask id="_mask_TAXJA7V4ip64nRG6tmqe61KP1QB6Wz22"><path d=" M 205.295 56.278 C 194.227 38.197 164.314 29.353 143.961 16.278 C 142.538 15.127 159.481 12.765 164.072 7.5 C 171.915 6.99 183.635 6.1 184.072 2.833 C 190.719 3.8 209.405 10.338 214.295 7.944 C 228.21 11.464 244.214 9.177 243.628 6.611 C 248.128 9.986 260.852 6.674 270.295 5.944 C 234.295 49.944 251.564 103.799 258.295 126.611 C 243.795 120.361 224.229 82.02 205.295 56.278 Z " fill="white" stroke="none"/></mask><path d=" M 205.295 56.278 C 194.227 38.197 164.314 29.353 143.961 16.278 C 142.538 15.127 159.481 12.765 164.072 7.5 C 171.915 6.99 183.635 6.1 184.072 2.833 C 190.719 3.8 209.405 10.338 214.295 7.944 C 228.21 11.464 244.214 9.177 243.628 6.611 C 248.128 9.986 260.852 6.674 270.295 5.944 C 234.295 49.944 251.564 103.799 258.295 126.611 C 243.795 120.361 224.229 82.02 205.295 56.278 Z " fill="rgb(255,9,169)"/><path d=" M 205.295 56.278 C 194.227 38.197 164.314 29.353 143.961 16.278 C 142.538 15.127 159.481 12.765 164.072 7.5 C 171.915 6.99 183.635 6.1 184.072 2.833 C 190.719 3.8 209.405 10.338 214.295 7.944 C 228.21 11.464 244.214 9.177 243.628 6.611 C 248.128 9.986 260.852 6.674 270.295 5.944 C 234.295 49.944 251.564 103.799 258.295 126.611 C 243.795 120.361 224.229 82.02 205.295 56.278 Z " fill="rgb(255,9,169)" mask="url(#_mask_TAXJA7V4ip64nRG6tmqe61KP1QB6Wz22)" vector-effect="non-scaling-stroke" stroke-width="6" stroke="rgb(0,0,0)" stroke-linejoin="miter" stroke-linecap="square" stroke-miterlimit="3"/><mask id="_mask_TpsEroxJn98iylVcWStWfgszu3ycedrw"><path d=" M 191.648 268.051 C 175.375 281.639 142.011 280.875 118.544 286.749 C 120.721 291.413 134.568 297.816 133.402 300.212 C 137.29 302.364 148.071 306.976 150.857 311.034 C 157.257 311.861 176.99 311.678 181.125 315.865 C 187.842 315.313 202.234 322.622 208.489 326.516 C 213.832 324.758 224.827 331.969 233.539 335.682 C 213.515 282.474 247.112 236.979 260.789 217.521 C 245.051 218.802 217.824 249.722 191.648 268.051 Z " fill="white" stroke="none"/></mask><path d=" M 191.648 268.051 C 175.375 281.639 142.011 280.875 118.544 286.749 C 120.721 291.413 134.568 297.816 133.402 300.212 C 137.29 302.364 148.071 306.976 150.857 311.034 C 157.257 311.861 176.99 311.678 181.125 315.865 C 187.842 315.313 202.234 322.622 208.489 326.516 C 213.832 324.758 224.827 331.969 233.539 335.682 C 213.515 282.474 247.112 236.979 260.789 217.521 C 245.051 218.802 217.824 249.722 191.648 268.051 Z " fill="rgb(255,9,169)"/><path d=" M 191.648 268.051 C 175.375 281.639 142.011 280.875 118.544 286.749 C 120.721 291.413 134.568 297.816 133.402 300.212 C 137.29 302.364 148.071 306.976 150.857 311.034 C 157.257 311.861 176.99 311.678 181.125 315.865 C 187.842 315.313 202.234 322.622 208.489 326.516 C 213.832 324.758 224.827 331.969 233.539 335.682 C 213.515 282.474 247.112 236.979 260.789 217.521 C 245.051 218.802 217.824 249.722 191.648 268.051 Z " fill="rgb(255,9,169)" mask="url(#_mask_TpsEroxJn98iylVcWStWfgszu3ycedrw)" vector-effect="non-scaling-stroke" stroke-width="6" stroke="rgb(0,0,0)" stroke-linejoin="miter" stroke-linecap="square" stroke-miterlimit="3"/><mask id="_mask_PEYfKxiPlIocCqBg3xcJwLwI4VijezpQ"><path d=" M 93.489 298.437 C 90.162 302.366 74.028 303.745 71.364 303.687 C 78.592 307.049 96.245 335.263 112.072 340.611 C 104.328 326.851 94.989 320.375 93.489 298.437 Z " fill="white" stroke="none"/></mask><path d=" M 93.489 298.437 C 90.162 302.366 74.028 303.745 71.364 303.687 C 78.592 307.049 96.245 335.263 112.072 340.611 C 104.328 326.851 94.989 320.375 93.489 298.437 Z " fill="rgb(255,9,169)"/><path d=" M 93.489 298.437 C 90.162 302.366 74.028 303.745 71.364 303.687 C 78.592 307.049 96.245 335.263 112.072 340.611 C 104.328 326.851 94.989 320.375 93.489 298.437 Z " fill="rgb(255,9,169)" mask="url(#_mask_PEYfKxiPlIocCqBg3xcJwLwI4VijezpQ)" vector-effect="non-scaling-stroke" stroke-width="6" stroke="rgb(0,0,0)" stroke-linejoin="miter" stroke-linecap="square" stroke-miterlimit="3"/><mask id="_mask_Y3CQi0xnXUfHG8WtondqLyWuZ7pov5Ym"><path d=" M 274.294 149.306 C 279.866 128.542 294.988 104.262 305 80.25 C 314.202 90.445 315.175 101.413 317 111 C 321.334 138.109 323.1 159.821 321.5 177.375 C 321.799 204.042 318.572 228.265 311.375 248.25 C 307.832 259.933 294.824 274.682 285.875 288.75 C 280.551 262.413 279.65 239.624 275.677 222.567 L 274.294 149.306 Z " fill="white" stroke="none"/></mask><path d=" M 274.294 149.306 C 279.866 128.542 294.988 104.262 305 80.25 C 314.202 90.445 315.175 101.413 317 111 C 321.334 138.109 323.1 159.821 321.5 177.375 C 321.799 204.042 318.572 228.265 311.375 248.25 C 307.832 259.933 294.824 274.682 285.875 288.75 C 280.551 262.413 279.65 239.624 275.677 222.567 L 274.294 149.306 Z " fill="rgb(255,9,169)"/><path d=" M 274.294 149.306 C 279.866 128.542 294.988 104.262 305 80.25 C 314.202 90.445 315.175 101.413 317 111 C 321.334 138.109 323.1 159.821 321.5 177.375 C 321.799 204.042 318.572 228.265 311.375 248.25 C 307.832 259.933 294.824 274.682 285.875 288.75 C 280.551 262.413 279.65 239.624 275.677 222.567 L 274.294 149.306 Z " fill="rgb(255,9,169)" mask="url(#_mask_Y3CQi0xnXUfHG8WtondqLyWuZ7pov5Ym)" vector-effect="non-scaling-stroke" stroke-width="6" stroke="rgb(0,0,0)" stroke-linejoin="miter" stroke-linecap="square" stroke-miterlimit="3"/><path d=" M 298.945 182.541 C 302.174 182.56 307.977 180.983 312.155 181.318 C 314.05 181.47 314.053 181.437 312.161 181.245 C 309.078 180.932 304.089 180.514 298.823 179.997 L 298.945 182.541 Z " fill="rgb(0,0,0)"/><path d=" M 177.551 31.219 C 184.167 28.557 207.47 17.106 214.781 15.99 C 218.605 15.405 218.642 15.605 214.864 16.435 C 207.984 17.947 190.098 26.437 180.833 32.625 L 177.551 31.219 Z " fill="rgb(0,0,0)"/><path d=" M 194.958 41.625 C 203.798 38.068 236.09 23.426 245.859 21.933 C 250.97 21.153 251.019 21.42 245.97 22.529 C 236.776 24.549 210.432 35.7 198.051 43.969 L 194.958 41.625 Z " fill="rgb(0,0,0)"/><path d=" M 162.546 23.563 C 166.827 21.466 182.52 12.399 187.34 11.298 C 189.861 10.722 189.895 10.853 187.417 11.591 C 182.904 12.934 171.801 19.798 165.926 24.375 L 162.546 23.563 Z " fill="rgb(0,0,0)"/><path d=" M 155.801 292.542 C 160.082 294.639 176.52 303.388 181.34 304.49 C 183.861 305.066 183.895 304.934 181.417 304.196 C 176.904 302.853 164.86 296.266 158.985 291.689 L 155.801 292.542 Z " fill="rgb(0,0,0)"/><path d=" M 173.864 285.542 C 180.028 288.562 202.808 301.051 209.748 302.636 C 213.379 303.466 213.428 303.276 209.859 302.214 C 203.361 300.279 186.018 290.794 177.558 284.203 L 173.864 285.542 Z " fill="rgb(0,0,0)"/><path d=" M 294.539 146.213 C 296.855 140.795 300.471 130.521 303.991 123.729 C 305.587 120.648 305.535 120.62 303.874 123.666 C 301.165 128.632 296.932 136.73 292.335 145.225 L 294.539 146.213 Z " fill="rgb(0,0,0)"/><path d=" M 287.801 221.116 C 291.157 225.959 293.588 229.65 297.467 236.244 C 299.227 239.235 299.278 239.205 297.583 236.178 C 294.819 231.243 294.363 227.713 289.615 219.302 L 287.801 221.116 Z " fill="rgb(0,0,0)"/><path d=" M 87.209 3.784 C 132.613 6.817 168.291 23.019 199.559 45.825 C 225.62 70.11 246.033 99.85 260.236 133.736 C 260.528 134.432 261.116 135.5 261.549 136.118 C 274.504 154.611 275.812 153.083 288.34 145.66 C 289.187 145.158 290.172 145.492 290.538 146.407 C 300.375 171 297.763 203.365 281.25 223.875 C 261.693 213.316 260.782 222.223 252.547 229.812 C 210.922 273.324 154.934 299.549 84.517 308.389 L 87.209 3.784 Z " fill="rgb(106,234,127)" vector-effect="non-scaling-stroke" stroke-width="3" stroke="rgb(0,0,0)" stroke-linejoin="miter" stroke-linecap="square" stroke-miterlimit="3"/><mask id="_mask_YAaGVJrkTbP7bWmnFKrYwyXYVM0wb1kf"><path d=" M 32.072 159.167 C -33.072 40.213 9.114 4.75 99.114 0.25 C 138.114 4.75 208.801 27.006 166.072 162.167 C 164.031 257.81 132.114 291.25 111.114 303.25 C 89.937 311.118 78.332 312.638 63.489 301 C 25.239 278.875 -4.937 244.434 32.072 159.167 Z " fill="white" stroke="none"/></mask><path d=" M 32.072 159.167 C -33.072 40.213 9.114 4.75 99.114 0.25 C 138.114 4.75 208.801 27.006 166.072 162.167 C 164.031 257.81 132.114 291.25 111.114 303.25 C 89.937 311.118 78.332 312.638 63.489 301 C 25.239 278.875 -4.937 244.434 32.072 159.167 Z " fill="rgb(106,234,127)"/><path d=" M 32.072 159.167 C -33.072 40.213 9.114 4.75 99.114 0.25 C 138.114 4.75 208.801 27.006 166.072 162.167 C 164.031 257.81 132.114 291.25 111.114 303.25 C 89.937 311.118 78.332 312.638 63.489 301 C 25.239 278.875 -4.937 244.434 32.072 159.167 Z " fill="rgb(106,234,127)" mask="url(#_mask_YAaGVJrkTbP7bWmnFKrYwyXYVM0wb1kf)" vector-effect="non-scaling-stroke" stroke-width="6" stroke="rgb(0,0,0)" stroke-linejoin="miter" stroke-linecap="square" stroke-miterlimit="3"/><path d=" M 160.02 23.938 C 151.742 20.14 134.96 12.515 128.885 10.396 L 162.989 162.438 C 157.508 205.32 134.602 252.271 93.614 305.479 C 103.595 304.127 114.563 302.033 126.489 299.167 C 154.075 263.255 169.543 217.85 172.864 162.922 C 190.587 102.871 186.315 56.553 160.02 23.938 Z " fill="rgb(106,234,127)"/><path d=" M 230.961 248.611 C 250.656 235.75 259.125 215.188 274.875 219.375 C 271.634 219.433 264.325 209.249 254.406 219 C 176.832 273.872 98.989 324.437 43.864 284.5 C 52.983 291.917 69.239 310 93.989 307.5 C 120.6 303.592 193.628 282.611 230.961 248.611 Z " fill="rgb(0,0,0)" fill-opacity="0.2"/><path d=" M 62.176 47 C 54.17 33.371 103.705 20.468 151.989 39.687 C 198.692 58.277 243.873 108.291 255.072 137 C 261.405 145.927 272 160.188 277.438 164.125 C 281.568 173.702 277.961 199.305 277.625 212.125 C 277.352 222.564 280.683 221.367 280.438 221.875 C 301.25 191.875 295.25 161.5 288.688 147.438 C 287 148.375 282.875 151.188 277.364 152.75 C 271.579 151.407 266.322 146.185 259.551 135.875 C 243.786 98 217.84 62.984 198.434 47.187 C 174.88 29.258 123.551 4.156 99.059 3.359 C 46.184 5.75 7.426 20.187 4.614 56.375 C 9.614 67.042 46.664 72.56 62.176 47 Z " fill="rgb(255,255,255)" fill-opacity="0.3"/><defs><filter id="boTb7SIq39naseeET3z7r6iNzxtv0uiw" x="-200%" y="-200%" width="400%" height="400%" filterUnits="objectBoundingBox" color-interpolation-filters="sRGB"><feOffset xmlns="http://www.w3.org/2000/svg" in="SourceGraphic" dx="-4" dy="-5"/><feGaussianBlur xmlns="http://www.w3.org/2000/svg" stdDeviation="0" result="pf_100_offsetBlur"/><feComposite xmlns="http://www.w3.org/2000/svg" in="SourceGraphic" in2="pf_100_offsetBlur" result="pf_100_inverse" operator="out"/><feFlood xmlns="http://www.w3.org/2000/svg" flood-color="#000000" flood-opacity="0.2" result="pf_100_color"/><feComposite xmlns="http://www.w3.org/2000/svg" in="pf_100_color" in2="pf_100_inverse" operator="in" result="pf_100_shadow"/><feComposite xmlns="http://www.w3.org/2000/svg" in="pf_100_shadow" in2="SourceGraphic" operator="over"/></filter></defs><g filter="url(#boTb7SIq39naseeET3z7r6iNzxtv0uiw)"><mask id="_mask_863q7GGYaYlcvLc6jMl27DIrXVawSgWg"><path d=" M 57.572 242.917 C 56.481 257.162 62.129 272.407 63.382 277.966 C 63.625 279.042 64.717 279.966 65.819 280.026 L 78.742 280.734 C 79.844 280.795 80.778 279.948 80.826 278.846 C 81.145 271.504 81.332 260.076 81.072 251.917 C 74.432 252.839 63.889 248.671 57.572 242.917 Z " fill="white" stroke="none"/></mask><path d=" M 57.572 242.917 C 56.481 257.162 62.129 272.407 63.382 277.966 C 63.625 279.042 64.717 279.966 65.819 280.026 L 78.742 280.734 C 79.844 280.795 80.778 279.948 80.826 278.846 C 81.145 271.504 81.332 260.076 81.072 251.917 C 74.432 252.839 63.889 248.671 57.572 242.917 Z " fill="rgb(236,236,236)"/><path d=" M 57.572 242.917 C 56.481 257.162 62.129 272.407 63.382 277.966 C 63.625 279.042 64.717 279.966 65.819 280.026 L 78.742 280.734 C 79.844 280.795 80.778 279.948 80.826 278.846 C 81.145 271.504 81.332 260.076 81.072 251.917 C 74.432 252.839 63.889 248.671 57.572 242.917 Z " fill="rgb(236,236,236)" mask="url(#_mask_863q7GGYaYlcvLc6jMl27DIrXVawSgWg)" vector-effect="non-scaling-stroke" stroke-width="6" stroke="rgb(0,0,0)" stroke-linejoin="miter" stroke-linecap="square" stroke-miterlimit="3"/></g><defs><filter id="1ugSxqXWSuwnC6i2efrxKvPTlNNiUgzx" x="-200%" y="-200%" width="400%" height="400%" filterUnits="objectBoundingBox" color-interpolation-filters="sRGB"><feOffset xmlns="http://www.w3.org/2000/svg" in="SourceGraphic" dx="-4" dy="-5"/><feGaussianBlur xmlns="http://www.w3.org/2000/svg" stdDeviation="0" result="pf_100_offsetBlur"/><feComposite xmlns="http://www.w3.org/2000/svg" in="SourceGraphic" in2="pf_100_offsetBlur" result="pf_100_inverse" operator="out"/><feFlood xmlns="http://www.w3.org/2000/svg" flood-color="#000000" flood-opacity="0.2" result="pf_100_color"/><feComposite xmlns="http://www.w3.org/2000/svg" in="pf_100_color" in2="pf_100_inverse" operator="in" result="pf_100_shadow"/><feComposite xmlns="http://www.w3.org/2000/svg" in="pf_100_shadow" in2="SourceGraphic" operator="over"/></filter></defs><g filter="url(#1ugSxqXWSuwnC6i2efrxKvPTlNNiUgzx)"><mask id="_mask_7emnHpezr0DVIWYHE9Hfwny2wpKBKU35"><path d=" M 81.083 251.469 C 80.928 260.17 80.552 270.055 81.087 278.941 C 81.154 280.043 82.089 281.098 83.175 281.296 C 86.507 281.903 92.674 282.413 96.365 282.51 C 97.468 282.539 98.668 281.72 99.043 280.681 C 103.157 269.294 105.681 256.019 105.572 244.792 C 99.347 248.538 86.94 253.173 81.083 251.469 Z " fill="white" stroke="none"/></mask><path d=" M 81.083 251.469 C 80.928 260.17 80.552 270.055 81.087 278.941 C 81.154 280.043 82.089 281.098 83.175 281.296 C 86.507 281.903 92.674 282.413 96.365 282.51 C 97.468 282.539 98.668 281.72 99.043 280.681 C 103.157 269.294 105.681 256.019 105.572 244.792 C 99.347 248.538 86.94 253.173 81.083 251.469 Z " fill="rgb(236,236,236)"/><path d=" M 81.083 251.469 C 80.928 260.17 80.552 270.055 81.087 278.941 C 81.154 280.043 82.089 281.098 83.175 281.296 C 86.507 281.903 92.674 282.413 96.365 282.51 C 97.468 282.539 98.668 281.72 99.043 280.681 C 103.157 269.294 105.681 256.019 105.572 244.792 C 99.347 248.538 86.94 253.173 81.083 251.469 Z " fill="rgb(236,236,236)" mask="url(#_mask_7emnHpezr0DVIWYHE9Hfwny2wpKBKU35)" vector-effect="non-scaling-stroke" stroke-width="6" stroke="rgb(0,0,0)" stroke-linejoin="miter" stroke-linecap="square" stroke-miterlimit="3"/></g><mask id="_mask_jpvHUgmtJmLmkjJf2XxrkdFZlEJYqD1H"><path d=" M 53.287 206.134 C 45.908 203.156 31.093 209.201 29.876 220.318" fill="white" stroke="none"/></mask><path d=" M 53.287 206.134 C 45.908 203.156 31.093 209.201 29.876 220.318" fill="none"/><path d=" M 53.287 206.134 C 45.908 203.156 31.093 209.201 29.876 220.318" fill="none" mask="url(#_mask_jpvHUgmtJmLmkjJf2XxrkdFZlEJYqD1H)" vector-effect="non-scaling-stroke" stroke-width="6" stroke="rgb(0,0,0)" stroke-linejoin="miter" stroke-linecap="square" stroke-miterlimit="3"/><mask id="_mask_AAtgpZTei3EbOhzSQp11pjjbag4MKeFt"><path d=" M 130.049 218.604 C 127.015 211.248 112.333 204.89 103.537 211.797" fill="white" stroke="none"/></mask><path d=" M 130.049 218.604 C 127.015 211.248 112.333 204.89 103.537 211.797" fill="none"/><path d=" M 130.049 218.604 C 127.015 211.248 112.333 204.89 103.537 211.797" fill="none" mask="url(#_mask_AAtgpZTei3EbOhzSQp11pjjbag4MKeFt)" vector-effect="non-scaling-stroke" stroke-width="6" stroke="rgb(0,0,0)" stroke-linejoin="miter" stroke-linecap="square" stroke-miterlimit="3"/><mask id="_mask_u6vYd8M3Dk4q5CWjLqVmeKAhdW74z7Gv"><path d=" M 40.406 207.833 C 43.014 235.151 56.504 250.384 80.845 253.5 C 107.977 251.504 120.801 237.083 119.285 210.204" fill="white" stroke="none"/></mask><path d=" M 40.406 207.833 C 43.014 235.151 56.504 250.384 80.845 253.5 C 107.977 251.504 120.801 237.083 119.285 210.204" fill="none"/><path d=" M 40.406 207.833 C 43.014 235.151 56.504 250.384 80.845 253.5 C 107.977 251.504 120.801 237.083 119.285 210.204" fill="none" mask="url(#_mask_u6vYd8M3Dk4q5CWjLqVmeKAhdW74z7Gv)" vector-effect="non-scaling-stroke" stroke-width="6" stroke="rgb(0,0,0)" stroke-linejoin="miter" stroke-linecap="square" stroke-miterlimit="3"/><path d=" M 69.551 254.083 C 66.655 253.074 63.926 251.777 61.333 250.161 C 61.605 253.784 61.959 256.882 62.614 260.458 C 63.354 256.206 62.333 253.974 62.88 252.911 C 63.971 252.54 66.6 253.864 69.551 254.083 Z " fill="rgb(255,255,255)"/><path d=" M 92.708 254.094 C 89.824 254.908 88.649 255.35 84.727 255.43 C 84.863 259.716 84.565 263.311 84.411 266.328 C 86.098 261.125 85.833 258.004 86.38 256.941 C 87.471 256.57 89.93 255.852 92.708 254.094 Z " fill="rgb(255,255,255)"/><defs><filter id="c4bIfp0HTl8PyxR8vg6abDsSAPUPAKbz" x="-200%" y="-200%" width="400%" height="400%" filterUnits="objectBoundingBox" color-interpolation-filters="sRGB"><feGaussianBlur xmlns="http://www.w3.org/2000/svg" in="SourceGraphic" stdDeviation="0"/><feOffset xmlns="http://www.w3.org/2000/svg" dx="1" dy="1" result="pf_100_offsetBlur"/><feFlood xmlns="http://www.w3.org/2000/svg" flood-color="#000000" flood-opacity="0.3"/><feComposite xmlns="http://www.w3.org/2000/svg" in2="pf_100_offsetBlur" operator="in" result="pf_100_dropShadow"/><feBlend xmlns="http://www.w3.org/2000/svg" in="SourceGraphic" in2="pf_100_dropShadow" mode="normal" result="_out_36s7M7QAnCCvWKXpwT7flgRHRkx27lDn"/><feOffset xmlns="http://www.w3.org/2000/svg" in="_out_36s7M7QAnCCvWKXpwT7flgRHRkx27lDn" dx="-5" dy="-6"/><feGaussianBlur xmlns="http://www.w3.org/2000/svg" stdDeviation="0" result="pf_101_offsetBlur"/><feComposite xmlns="http://www.w3.org/2000/svg" in="_out_36s7M7QAnCCvWKXpwT7flgRHRkx27lDn" in2="pf_101_offsetBlur" result="pf_101_inverse" operator="out"/><feFlood xmlns="http://www.w3.org/2000/svg" flood-color="#000000" flood-opacity="0.2" result="pf_101_color"/><feComposite xmlns="http://www.w3.org/2000/svg" in="pf_101_color" in2="pf_101_inverse" operator="in" result="pf_101_shadow"/><feComposite xmlns="http://www.w3.org/2000/svg" in="pf_101_shadow" in2="_out_36s7M7QAnCCvWKXpwT7flgRHRkx27lDn" operator="over" result="_out_xm3bn4juVkqWC8KSMPnEZo7qtaoVC3Si"/><feMerge><feMergeNode in="_out_xm3bn4juVkqWC8KSMPnEZo7qtaoVC3Si"/></feMerge></filter></defs><g filter="url(#c4bIfp0HTl8PyxR8vg6abDsSAPUPAKbz)"><mask id="_mask_0m0rqb0y8qYmiac1lrA6OGHGHYdKna0V"><circle vector-effect="non-scaling-stroke" cx="131.17643541358382" cy="158.31249999999997" r="27.5625" fill="white" stroke="none"/></mask><circle vector-effect="non-scaling-stroke" cx="131.17643541358382" cy="158.31249999999997" r="27.5625" fill="rgb(204,204,204)"/><circle vector-effect="non-scaling-stroke" cx="131.17643541358382" cy="158.31249999999997" r="27.5625" fill="rgb(204,204,204)" mask="url(#_mask_0m0rqb0y8qYmiac1lrA6OGHGHYdKna0V)" stroke-width="6" stroke="rgb(0,0,0)" stroke-linejoin="miter" stroke-linecap="square" stroke-miterlimit="3"/></g><path d=" M 128.072 134.458 C 115.401 135.682 107.921 146.827 107.072 154.708 C 109.935 149.614 112.885 145.708 115.697 142.708 C 120.197 138.583 123.084 137.18 128.072 134.458 Z " fill="rgb(255,255,255)" fill-opacity="0.73"/><ellipse vector-effect="non-scaling-stroke" cx="130.34310208025033" cy="159.03645833333337" rx="9.249999999999993" ry="9" fill="rgb(0,0,0)"/><path d=" M 126.047 152.584 C 125.834 151.884 126.424 151.084 127.364 150.797 C 128.305 150.51 129.241 150.845 129.455 151.545 C 129.668 152.244 129.078 153.045 128.137 153.332 C 127.197 153.618 126.26 153.283 126.047 152.584 Z " fill="rgb(255,255,255)" fill-opacity="0.9"/><defs><filter id="5q2NsHVNJS5ASo5kSphCp3XFiXztL6Vy" x="-200%" y="-200%" width="400%" height="400%" filterUnits="objectBoundingBox" color-interpolation-filters="sRGB"><feGaussianBlur xmlns="http://www.w3.org/2000/svg" in="SourceGraphic" stdDeviation="0"/><feOffset xmlns="http://www.w3.org/2000/svg" dx="1" dy="1" result="pf_100_offsetBlur"/><feFlood xmlns="http://www.w3.org/2000/svg" flood-color="#000000" flood-opacity="0.3"/><feComposite xmlns="http://www.w3.org/2000/svg" in2="pf_100_offsetBlur" operator="in" result="pf_100_dropShadow"/><feBlend xmlns="http://www.w3.org/2000/svg" in="SourceGraphic" in2="pf_100_dropShadow" mode="normal" result="_out_fhvcyvx4cNU8ttXiYKkN5Tb7LFZFZ1zh"/><feOffset xmlns="http://www.w3.org/2000/svg" in="_out_fhvcyvx4cNU8ttXiYKkN5Tb7LFZFZ1zh" dx="-5" dy="-4"/><feGaussianBlur xmlns="http://www.w3.org/2000/svg" stdDeviation="0" result="pf_101_offsetBlur"/><feComposite xmlns="http://www.w3.org/2000/svg" in="_out_fhvcyvx4cNU8ttXiYKkN5Tb7LFZFZ1zh" in2="pf_101_offsetBlur" result="pf_101_inverse" operator="out"/><feFlood xmlns="http://www.w3.org/2000/svg" flood-color="#000000" flood-opacity="0.2" result="pf_101_color"/><feComposite xmlns="http://www.w3.org/2000/svg" in="pf_101_color" in2="pf_101_inverse" operator="in" result="pf_101_shadow"/><feComposite xmlns="http://www.w3.org/2000/svg" in="pf_101_shadow" in2="_out_fhvcyvx4cNU8ttXiYKkN5Tb7LFZFZ1zh" operator="over" result="_out_jWrRcK12VCA3zSKIqZ9Wc2zoYcWlwcWU"/><feMerge><feMergeNode in="_out_jWrRcK12VCA3zSKIqZ9Wc2zoYcWlwcWU"/></feMerge></filter></defs><g filter="url(#5q2NsHVNJS5ASo5kSphCp3XFiXztL6Vy)"><mask id="_mask_m9m1cHKe9YTpFIJS3xV2wiQBwRSM6xCd"><ellipse vector-effect="non-scaling-stroke" cx="36.25976874691708" cy="161.35416666666657" rx="17.64583333333345" ry="22.020833333333314" fill="white" stroke="none"/></mask><ellipse vector-effect="non-scaling-stroke" cx="36.25976874691708" cy="161.35416666666657" rx="17.64583333333345" ry="22.020833333333314" fill="rgb(204,204,204)"/><ellipse vector-effect="non-scaling-stroke" cx="36.25976874691708" cy="161.35416666666657" rx="17.64583333333345" ry="22.020833333333314" fill="rgb(204,204,204)" mask="url(#_mask_m9m1cHKe9YTpFIJS3xV2wiQBwRSM6xCd)" stroke-width="6" stroke="rgb(0,0,0)" stroke-linejoin="miter" stroke-linecap="square" stroke-miterlimit="3"/></g><ellipse vector-effect="non-scaling-stroke" cx="35.97157430247262" cy="161.61458333333334" rx="8.222222222222179" ry="7.999999999999972" fill="rgb(0,0,0)"/><path d=" M 34.946 142.473 C 27.52 143.425 23.133 151.156 22.29 156.289 C 23.929 153.019 25.88 150.56 27.55 148.6 C 30.242 145.888 31.907 144.322 34.946 142.473 Z " fill="rgb(255,255,255)" fill-opacity="0.73"/><path d=" M 30.428 156.995 C 30.187 156.304 30.745 155.481 31.674 155.157 C 32.602 154.833 33.551 155.131 33.792 155.821 C 34.033 156.512 33.475 157.335 32.547 157.659 C 31.618 157.983 30.669 157.685 30.428 156.995 Z " fill="rgb(255,255,255)" fill-opacity="0.9"/></g></svg>