<?xml version="1.0" encoding="UTF-8" standalone="no"?><!-- Generator: Gravit.io --><svg xmlns="http://www.w3.org/2000/svg" xmlns:xlink="http://www.w3.org/1999/xlink" style="isolation:isolate" viewBox="0 0 318 342" width="318pt" height="342pt"><defs><clipPath id="_clipPath_C5P2QALHCbRQ8RmYm5wb5Z4mDL1BsfYH"><rect width="318" height="342"/></clipPath></defs><g clip-path="url(#_clipPath_C5P2QALHCbRQ8RmYm5wb5Z4mDL1BsfYH)"><mask id="_mask_iXXK3TSj2SZUAmxNrPztDy8CSQyCjuB8"><path d=" M 205.295 56.278 C 194.227 38.197 164.314 29.353 143.961 16.278 C 142.538 15.127 155.583 15 163.333 12 C 172.521 10.688 178.583 9 185.333 7.5 C 194.833 6.5 205.193 6.109 214.333 4 C 224.583 4.25 233.583 3.5 240.833 2.5 C 248.552 2.484 256.833 2.25 266.833 0.25 C 254.833 46 251.564 103.799 258.295 126.611 C 243.795 120.361 224.229 82.02 205.295 56.278 Z " fill="white" stroke="none"/></mask><path d=" M 205.295 56.278 C 194.227 38.197 164.314 29.353 143.961 16.278 C 142.538 15.127 155.583 15 163.333 12 C 172.521 10.688 178.583 9 185.333 7.5 C 194.833 6.5 205.193 6.109 214.333 4 C 224.583 4.25 233.583 3.5 240.833 2.5 C 248.552 2.484 256.833 2.25 266.833 0.25 C 254.833 46 251.564 103.799 258.295 126.611 C 243.795 120.361 224.229 82.02 205.295 56.278 Z " fill="rgb(255,9,169)"/><path d=" M 205.295 56.278 C 194.227 38.197 164.314 29.353 143.961 16.278 C 142.538 15.127 155.583 15 163.333 12 C 172.521 10.688 178.583 9 185.333 7.5 C 194.833 6.5 205.193 6.109 214.333 4 C 224.583 4.25 233.583 3.5 240.833 2.5 C 248.552 2.484 256.833 2.25 266.833 0.25 C 254.833 46 251.564 103.799 258.295 126.611 C 243.795 120.361 224.229 82.02 205.295 56.278 Z " fill="rgb(255,9,169)" mask="url(#_mask_iXXK3TSj2SZUAmxNrPztDy8CSQyCjuB8)" vector-effect="non-scaling-stroke" stroke-width="6" stroke="rgb(0,0,0)" stroke-linejoin="miter" stroke-linecap="square" stroke-miterlimit="3"/><mask id="_mask_rwErwSJeRJ5XROh3oFnrTyyUgXeWFhxl"><path d=" M 191.648 268.051 C 175.375 281.639 142.011 280.875 118.544 286.749 C 120.721 291.413 134.568 297.816 133.402 300.212 C 137.29 302.364 145.437 303 152.937 306 C 158.437 308 170.938 310.125 179 313.125 C 188 314.625 199.937 318 206.937 321.75 C 221.396 327.167 230.937 334.5 238.25 342 C 239 293.25 252.649 239.558 260.789 217.521 C 245.051 218.802 217.824 249.722 191.648 268.051 Z " fill="white" stroke="none"/></mask><path d=" M 191.648 268.051 C 175.375 281.639 142.011 280.875 118.544 286.749 C 120.721 291.413 134.568 297.816 133.402 300.212 C 137.29 302.364 145.437 303 152.937 306 C 158.437 308 170.938 310.125 179 313.125 C 188 314.625 199.937 318 206.937 321.75 C 221.396 327.167 230.937 334.5 238.25 342 C 239 293.25 252.649 239.558 260.789 217.521 C 245.051 218.802 217.824 249.722 191.648 268.051 Z " fill="rgb(255,9,169)"/><path d=" M 191.648 268.051 C 175.375 281.639 142.011 280.875 118.544 286.749 C 120.721 291.413 134.568 297.816 133.402 300.212 C 137.29 302.364 145.437 303 152.937 306 C 158.437 308 170.938 310.125 179 313.125 C 188 314.625 199.937 318 206.937 321.75 C 221.396 327.167 230.937 334.5 238.25 342 C 239 293.25 252.649 239.558 260.789 217.521 C 245.051 218.802 217.824 249.722 191.648 268.051 Z " fill="rgb(255,9,169)" mask="url(#_mask_rwErwSJeRJ5XROh3oFnrTyyUgXeWFhxl)" vector-effect="non-scaling-stroke" stroke-width="6" stroke="rgb(0,0,0)" stroke-linejoin="miter" stroke-linecap="square" stroke-miterlimit="3"/><mask id="_mask_NTX56RtxfRfs5exD8BPVtRYotjnVBkq5"><path d=" M 93.489 298.437 C 90.162 302.366 74.028 303.745 71.364 303.687 C 78.592 307.049 86.875 325.687 95.688 342.187 C 95.313 329.062 92.688 321.75 93.489 298.437 Z " fill="white" stroke="none"/></mask><path d=" M 93.489 298.437 C 90.162 302.366 74.028 303.745 71.364 303.687 C 78.592 307.049 86.875 325.687 95.688 342.187 C 95.313 329.062 92.688 321.75 93.489 298.437 Z " fill="rgb(255,9,169)"/><path d=" M 93.489 298.437 C 90.162 302.366 74.028 303.745 71.364 303.687 C 78.592 307.049 86.875 325.687 95.688 342.187 C 95.313 329.062 92.688 321.75 93.489 298.437 Z " fill="rgb(255,9,169)" mask="url(#_mask_NTX56RtxfRfs5exD8BPVtRYotjnVBkq5)" vector-effect="non-scaling-stroke" stroke-width="6" stroke="rgb(0,0,0)" stroke-linejoin="miter" stroke-linecap="square" stroke-miterlimit="3"/><mask id="_mask_1eJEQFmMGUC4vPYd7I1NTtkmW5zt9HIg"><path d=" M 274.294 150.611 C 283.006 134.727 291.974 110.184 298.333 82.917 C 303.583 96.167 309.861 107.751 312.961 114.611 C 313.599 140.751 314.962 162.336 316.961 179.278 C 313.367 203.421 310.064 225.896 306.961 246.611 C 302.387 255.52 296.333 268.333 288.333 287.333 C 285.612 261.008 281.826 236.76 275.628 221.278 L 274.294 150.611 Z " fill="white" stroke="none"/></mask><path d=" M 274.294 150.611 C 283.006 134.727 291.974 110.184 298.333 82.917 C 303.583 96.167 309.861 107.751 312.961 114.611 C 313.599 140.751 314.962 162.336 316.961 179.278 C 313.367 203.421 310.064 225.896 306.961 246.611 C 302.387 255.52 296.333 268.333 288.333 287.333 C 285.612 261.008 281.826 236.76 275.628 221.278 L 274.294 150.611 Z " fill="rgb(255,9,169)"/><path d=" M 274.294 150.611 C 283.006 134.727 291.974 110.184 298.333 82.917 C 303.583 96.167 309.861 107.751 312.961 114.611 C 313.599 140.751 314.962 162.336 316.961 179.278 C 313.367 203.421 310.064 225.896 306.961 246.611 C 302.387 255.52 296.333 268.333 288.333 287.333 C 285.612 261.008 281.826 236.76 275.628 221.278 L 274.294 150.611 Z " fill="rgb(255,9,169)" mask="url(#_mask_1eJEQFmMGUC4vPYd7I1NTtkmW5zt9HIg)" vector-effect="non-scaling-stroke" stroke-width="6" stroke="rgb(0,0,0)" stroke-linejoin="miter" stroke-linecap="square" stroke-miterlimit="3"/><path d=" M 298.072 182.625 C 301.186 182.643 306.784 181.122 310.814 181.445 C 312.642 181.591 312.645 181.56 310.82 181.375 C 307.847 181.073 303.034 180.67 297.954 180.171 L 298.072 182.625 Z " fill="rgb(0,0,0)"/><path d=" M 177.551 31.219 C 194.583 26.083 204.833 21.958 215.239 17.626 C 218.811 16.139 218.971 16.468 215.597 18.36 C 208.958 22.083 195.958 27.458 180.833 32.625 L 177.551 31.219 Z " fill="rgb(0,0,0)"/><path d=" M 194.958 41.625 C 208.875 36.938 231.375 26.391 242.846 20.637 C 247.467 18.319 247.627 18.609 243.203 21.283 C 235.453 25.969 212.25 37.781 198.051 43.969 L 194.958 41.625 Z " fill="rgb(0,0,0)"/><path d=" M 162.546 23.563 C 172.083 20.583 181.958 16.583 190.068 12.897 C 192.422 11.827 192.574 12.103 190.406 13.514 C 186.458 16.083 176.083 21.083 165.926 24.375 L 162.546 23.563 Z " fill="rgb(0,0,0)"/><path d=" M 155.801 292.542 C 163.406 295.594 177.469 302.414 184.113 306.128 C 186.371 307.39 186.512 307.17 184.429 305.638 C 180.141 302.484 166.852 295.312 158.985 291.689 L 155.801 292.542 Z " fill="rgb(0,0,0)"/><path d=" M 173.864 285.542 C 181.641 289.781 202.641 302.062 211.15 307.934 C 214.215 310.049 214.333 309.889 211.413 307.578 C 204.891 302.414 189.844 291.656 177.558 284.203 L 173.864 285.542 Z " fill="rgb(0,0,0)"/><path d=" M 293.822 147.583 C 296.056 142.357 299.544 132.447 302.939 125.895 C 304.479 122.924 304.428 122.897 302.826 125.835 C 300.214 130.625 296.13 138.436 291.696 146.631 L 293.822 147.583 Z " fill="rgb(0,0,0)"/><path d=" M 287.322 219.833 C 290.559 224.505 292.905 228.065 296.647 234.426 C 298.344 237.31 298.393 237.282 296.758 234.362 C 294.092 229.602 293.652 226.197 289.072 218.083 L 287.322 219.833 Z " fill="rgb(0,0,0)"/><path d=" M 87.209 3.784 C 132.613 6.817 168.291 23.019 199.559 45.825 C 225.62 70.11 246.033 99.85 260.236 133.736 C 260.528 134.432 261.116 135.5 261.549 136.118 C 274.504 154.611 279.015 153.944 291.543 146.521 C 292.391 146.019 293.228 146.397 293.412 147.364 C 298.651 174.944 300.57 204.768 284.057 225.278 C 264.499 214.719 260.782 222.223 252.547 229.812 C 210.922 273.324 154.934 299.549 84.517 308.389 L 87.209 3.784 Z " fill="rgb(106,234,127)" vector-effect="non-scaling-stroke" stroke-width="3" stroke="rgb(0,0,0)" stroke-linejoin="miter" stroke-linecap="square" stroke-miterlimit="3"/><mask id="_mask_UcMlgxFB0d5M9NfJ4fyLIUVCdpolhq1g"><path d=" M 32.072 159.167 C -33.072 40.213 9.114 4.75 99.114 0.25 C 138.114 4.75 208.801 27.006 166.072 162.167 C 164.031 257.81 132.114 291.25 111.114 303.25 C 89.937 311.118 78.332 312.638 63.489 301 C 25.239 278.875 -4.937 244.434 32.072 159.167 Z " fill="white" stroke="none"/></mask><path d=" M 32.072 159.167 C -33.072 40.213 9.114 4.75 99.114 0.25 C 138.114 4.75 208.801 27.006 166.072 162.167 C 164.031 257.81 132.114 291.25 111.114 303.25 C 89.937 311.118 78.332 312.638 63.489 301 C 25.239 278.875 -4.937 244.434 32.072 159.167 Z " fill="rgb(106,234,127)"/><path d=" M 32.072 159.167 C -33.072 40.213 9.114 4.75 99.114 0.25 C 138.114 4.75 208.801 27.006 166.072 162.167 C 164.031 257.81 132.114 291.25 111.114 303.25 C 89.937 311.118 78.332 312.638 63.489 301 C 25.239 278.875 -4.937 244.434 32.072 159.167 Z " fill="rgb(106,234,127)" mask="url(#_mask_UcMlgxFB0d5M9NfJ4fyLIUVCdpolhq1g)" vector-effect="non-scaling-stroke" stroke-width="6" stroke="rgb(0,0,0)" stroke-linejoin="miter" stroke-linecap="square" stroke-miterlimit="3"/><path d=" M 160.02 23.938 C 151.742 20.14 134.96 12.515 128.885 10.396 L 162.989 162.438 C 157.508 205.32 134.602 252.271 93.614 305.479 C 103.595 304.127 114.563 302.033 126.489 299.167 C 154.075 263.255 169.543 217.85 172.864 162.922 C 190.587 102.871 186.315 56.553 160.02 23.938 Z " fill="rgb(106,234,127)"/><path d=" M 230.961 248.611 C 250.656 235.75 251.906 218.5 284.906 219 C 281.664 219.058 264.325 209.249 254.406 219 C 176.832 273.872 98.989 324.437 43.864 284.5 C 52.983 291.917 69.239 310 93.989 307.5 C 120.6 303.592 193.628 282.611 230.961 248.611 Z " fill="rgb(0,0,0)" fill-opacity="0.2"/><path d=" M 62.176 47 C 54.17 33.371 103.705 20.468 151.989 39.687 C 198.692 58.277 243.873 108.291 255.072 137 C 270.322 158.5 282.739 155.125 291.864 148.125 C 285.864 151.563 283.739 152.875 277.364 152.75 C 271.579 151.407 266.322 146.185 259.551 135.875 C 243.786 98 217.84 62.984 198.434 47.187 C 174.88 29.258 123.551 4.156 99.059 3.359 C 46.184 5.75 7.426 20.187 4.614 56.375 C 9.614 67.042 46.664 72.56 62.176 47 Z " fill="rgb(255,255,255)" fill-opacity="0.3"/><mask id="_mask_FeWyReULMWjrnllqDPNb5QpIB1WE27oi"><path d=" M 59.133 227.32 C 59.742 214.945 68.234 208.031 82.969 208.125 C 97 208.313 106.406 213.891 106.313 228.516 C 105.625 240.797 102.691 251.46 82.125 251.167 C 64.711 250.918 58.969 242.109 59.063 229.078 C 58.937 228.876 59.04 228.302 58.922 228.094" fill="white" stroke="none"/></mask><path d=" M 59.133 227.32 C 59.742 214.945 68.234 208.031 82.969 208.125 C 97 208.313 106.406 213.891 106.313 228.516 C 105.625 240.797 102.691 251.46 82.125 251.167 C 64.711 250.918 58.969 242.109 59.063 229.078 C 58.937 228.876 59.04 228.302 58.922 228.094" fill="rgb(74,70,70)"/><path d=" M 59.133 227.32 C 59.742 214.945 68.234 208.031 82.969 208.125 C 97 208.313 106.406 213.891 106.313 228.516 C 105.625 240.797 102.691 251.46 82.125 251.167 C 64.711 250.918 58.969 242.109 59.063 229.078 C 58.937 228.876 59.04 228.302 58.922 228.094" fill="rgb(74,70,70)" mask="url(#_mask_FeWyReULMWjrnllqDPNb5QpIB1WE27oi)" vector-effect="non-scaling-stroke" stroke-width="6" stroke="rgb(0,0,0)" stroke-linejoin="miter" stroke-linecap="square" stroke-miterlimit="3"/><defs><filter id="WJpXZ6sJScV5HiLh7HCm2wSN7hH3IbnO" x="-200%" y="-200%" width="400%" height="400%" filterUnits="objectBoundingBox" color-interpolation-filters="sRGB"><feOffset xmlns="http://www.w3.org/2000/svg" in="SourceGraphic" dx="-4" dy="-5"/><feGaussianBlur xmlns="http://www.w3.org/2000/svg" stdDeviation="0" result="pf_100_offsetBlur"/><feComposite xmlns="http://www.w3.org/2000/svg" in="SourceGraphic" in2="pf_100_offsetBlur" result="pf_100_inverse" operator="out"/><feFlood xmlns="http://www.w3.org/2000/svg" flood-color="#000000" flood-opacity="0.2" result="pf_100_color"/><feComposite xmlns="http://www.w3.org/2000/svg" in="pf_100_color" in2="pf_100_inverse" operator="in" result="pf_100_shadow"/><feComposite xmlns="http://www.w3.org/2000/svg" in="pf_100_shadow" in2="SourceGraphic" operator="over"/></filter></defs><g filter="url(#WJpXZ6sJScV5HiLh7HCm2wSN7hH3IbnO)"><mask id="_mask_QzWSyNz7MFi5BsKYJNUKHlFoftNyU0gH"><path d=" M 61.875 218.25 C 61.479 232.625 63.879 236.344 65.132 241.903 C 65.375 242.98 66.467 243.903 67.569 243.964 L 80.492 244.672 C 81.594 244.732 82.528 243.886 82.576 242.783 C 82.895 235.441 82.885 218.097 82.625 209.938 C 72.462 208.51 66.368 212.666 61.875 218.25 Z " fill="white" stroke="none"/></mask><path d=" M 61.875 218.25 C 61.479 232.625 63.879 236.344 65.132 241.903 C 65.375 242.98 66.467 243.903 67.569 243.964 L 80.492 244.672 C 81.594 244.732 82.528 243.886 82.576 242.783 C 82.895 235.441 82.885 218.097 82.625 209.938 C 72.462 208.51 66.368 212.666 61.875 218.25 Z " fill="rgb(236,236,236)"/><path d=" M 61.875 218.25 C 61.479 232.625 63.879 236.344 65.132 241.903 C 65.375 242.98 66.467 243.903 67.569 243.964 L 80.492 244.672 C 81.594 244.732 82.528 243.886 82.576 242.783 C 82.895 235.441 82.885 218.097 82.625 209.938 C 72.462 208.51 66.368 212.666 61.875 218.25 Z " fill="rgb(236,236,236)" mask="url(#_mask_QzWSyNz7MFi5BsKYJNUKHlFoftNyU0gH)" vector-effect="non-scaling-stroke" stroke-width="6" stroke="rgb(0,0,0)" stroke-linejoin="miter" stroke-linecap="square" stroke-miterlimit="3"/></g><defs><filter id="yUiB9fkvcgX7AeiDAEggU5pjkwSBfAI1" x="-200%" y="-200%" width="400%" height="400%" filterUnits="objectBoundingBox" color-interpolation-filters="sRGB"><feOffset xmlns="http://www.w3.org/2000/svg" in="SourceGraphic" dx="-4" dy="-5"/><feGaussianBlur xmlns="http://www.w3.org/2000/svg" stdDeviation="0" result="pf_100_offsetBlur"/><feComposite xmlns="http://www.w3.org/2000/svg" in="SourceGraphic" in2="pf_100_offsetBlur" result="pf_100_inverse" operator="out"/><feFlood xmlns="http://www.w3.org/2000/svg" flood-color="#000000" flood-opacity="0.2" result="pf_100_color"/><feComposite xmlns="http://www.w3.org/2000/svg" in="pf_100_color" in2="pf_100_inverse" operator="in" result="pf_100_shadow"/><feComposite xmlns="http://www.w3.org/2000/svg" in="pf_100_shadow" in2="SourceGraphic" operator="over"/></filter></defs><g filter="url(#yUiB9fkvcgX7AeiDAEggU5pjkwSBfAI1)"><mask id="_mask_wFBsp3rvV4tY2xiwlEHZIQJqJ5PrFbel"><path d=" M 82.531 210.031 C 82.377 218.733 82.302 233.992 82.837 242.879 C 82.904 243.98 83.839 245.036 84.925 245.233 C 88.257 245.84 94.424 246.35 98.115 246.447 C 99.218 246.476 100.396 245.649 100.742 244.601 C 104.414 233.508 104.766 232.031 105.187 221.766 C 101.672 213.047 91.375 209.125 82.531 210.031 Z " fill="white" stroke="none"/></mask><path d=" M 82.531 210.031 C 82.377 218.733 82.302 233.992 82.837 242.879 C 82.904 243.98 83.839 245.036 84.925 245.233 C 88.257 245.84 94.424 246.35 98.115 246.447 C 99.218 246.476 100.396 245.649 100.742 244.601 C 104.414 233.508 104.766 232.031 105.187 221.766 C 101.672 213.047 91.375 209.125 82.531 210.031 Z " fill="rgb(236,236,236)"/><path d=" M 82.531 210.031 C 82.377 218.733 82.302 233.992 82.837 242.879 C 82.904 243.98 83.839 245.036 84.925 245.233 C 88.257 245.84 94.424 246.35 98.115 246.447 C 99.218 246.476 100.396 245.649 100.742 244.601 C 104.414 233.508 104.766 232.031 105.187 221.766 C 101.672 213.047 91.375 209.125 82.531 210.031 Z " fill="rgb(236,236,236)" mask="url(#_mask_wFBsp3rvV4tY2xiwlEHZIQJqJ5PrFbel)" vector-effect="non-scaling-stroke" stroke-width="6" stroke="rgb(0,0,0)" stroke-linejoin="miter" stroke-linecap="square" stroke-miterlimit="3"/></g><path d=" M 72.844 214.594 C 69.891 215.156 67.078 217.406 65.161 219.896 C 65.434 223.518 65.257 226.538 65.911 230.115 C 66.652 225.862 66.18 220.789 66.727 219.727 C 68.484 218.672 68.203 217.477 72.844 214.594 Z " fill="rgb(255,255,255)"/><path d=" M 94.083 214.958 C 91.896 214.333 89.646 213.583 86.079 213.273 C 85.993 217.623 85.92 221.337 85.977 224.281 C 87.664 219.078 87.184 215.848 87.731 214.785 C 88.822 214.414 89.958 214.646 94.083 214.958 Z " fill="rgb(255,255,255)"/><defs><filter id="4M37U8FJuWtWZwdHh4TUSNRf9PjZr1yb" x="-200%" y="-200%" width="400%" height="400%" filterUnits="objectBoundingBox" color-interpolation-filters="sRGB"><feGaussianBlur xmlns="http://www.w3.org/2000/svg" in="SourceGraphic" stdDeviation="0"/><feOffset xmlns="http://www.w3.org/2000/svg" dx="1" dy="1" result="pf_100_offsetBlur"/><feFlood xmlns="http://www.w3.org/2000/svg" flood-color="#000000" flood-opacity="0.3"/><feComposite xmlns="http://www.w3.org/2000/svg" in2="pf_100_offsetBlur" operator="in" result="pf_100_dropShadow"/><feBlend xmlns="http://www.w3.org/2000/svg" in="SourceGraphic" in2="pf_100_dropShadow" mode="normal" result="_out_TQgb5pofRV4L1aQ82hCeSXiVfbEZgc0I"/><feOffset xmlns="http://www.w3.org/2000/svg" in="_out_TQgb5pofRV4L1aQ82hCeSXiVfbEZgc0I" dx="-5" dy="-6"/><feGaussianBlur xmlns="http://www.w3.org/2000/svg" stdDeviation="0" result="pf_101_offsetBlur"/><feComposite xmlns="http://www.w3.org/2000/svg" in="_out_TQgb5pofRV4L1aQ82hCeSXiVfbEZgc0I" in2="pf_101_offsetBlur" result="pf_101_inverse" operator="out"/><feFlood xmlns="http://www.w3.org/2000/svg" flood-color="#000000" flood-opacity="0.2" result="pf_101_color"/><feComposite xmlns="http://www.w3.org/2000/svg" in="pf_101_color" in2="pf_101_inverse" operator="in" result="pf_101_shadow"/><feComposite xmlns="http://www.w3.org/2000/svg" in="pf_101_shadow" in2="_out_TQgb5pofRV4L1aQ82hCeSXiVfbEZgc0I" operator="over" result="_out_YWWXndBegUpH4u7N4ER5oexgQ7ZRniYs"/><feMerge><feMergeNode in="_out_YWWXndBegUpH4u7N4ER5oexgQ7ZRniYs"/></feMerge></filter></defs><g filter="url(#4M37U8FJuWtWZwdHh4TUSNRf9PjZr1yb)"><circle vector-effect="non-scaling-stroke" cx="131.17643541358382" cy="158.31249999999997" r="27.5625" fill="rgb(204,204,204)"/></g><defs><filter id="JZdAfCTWvyrsLyw2cFzZDAyzORzLsJif" x="-200%" y="-200%" width="400%" height="400%" filterUnits="objectBoundingBox" color-interpolation-filters="sRGB"><feGaussianBlur xmlns="http://www.w3.org/2000/svg" in="SourceGraphic" stdDeviation="0"/><feOffset xmlns="http://www.w3.org/2000/svg" dx="1" dy="1" result="pf_100_offsetBlur"/><feFlood xmlns="http://www.w3.org/2000/svg" flood-color="#000000" flood-opacity="0.3"/><feComposite xmlns="http://www.w3.org/2000/svg" in2="pf_100_offsetBlur" operator="in" result="pf_100_dropShadow"/><feBlend xmlns="http://www.w3.org/2000/svg" in="SourceGraphic" in2="pf_100_dropShadow" mode="normal" result="_out_BJ8WVveOhc2SHE0PXohY1hbrFZj6LVsi"/><feOffset xmlns="http://www.w3.org/2000/svg" in="_out_BJ8WVveOhc2SHE0PXohY1hbrFZj6LVsi" dx="-5" dy="-6"/><feGaussianBlur xmlns="http://www.w3.org/2000/svg" stdDeviation="0" result="pf_101_offsetBlur"/><feComposite xmlns="http://www.w3.org/2000/svg" in="_out_BJ8WVveOhc2SHE0PXohY1hbrFZj6LVsi" in2="pf_101_offsetBlur" result="pf_101_inverse" operator="out"/><feFlood xmlns="http://www.w3.org/2000/svg" flood-color="#000000" flood-opacity="0.2" result="pf_101_color"/><feComposite xmlns="http://www.w3.org/2000/svg" in="pf_101_color" in2="pf_101_inverse" operator="in" result="pf_101_shadow"/><feComposite xmlns="http://www.w3.org/2000/svg" in="pf_101_shadow" in2="_out_BJ8WVveOhc2SHE0PXohY1hbrFZj6LVsi" operator="over" result="_out_kwMgRMwrKnu3R0IQf6YvUdYVcN6GoBpz"/><feMerge><feMergeNode in="_out_kwMgRMwrKnu3R0IQf6YvUdYVcN6GoBpz"/></feMerge></filter></defs><g filter="url(#JZdAfCTWvyrsLyw2cFzZDAyzORzLsJif)"><circle vector-effect="non-scaling-stroke" cx="131.1347687469172" cy="158.52083333333331" r="26.729166666666657" fill="rgb(204,204,204)"/></g><ellipse vector-effect="non-scaling-stroke" cx="130.48405104012514" cy="161.1296789429413" rx="12.109051040125166" ry="11.781779390392074" fill="rgb(0,0,0)"/><mask id="_mask_U6oYvbBa0WfIZZ9vuAS8eNVxedhzPxq1"><path d=" M 154.294 147.438 C 150.254 138.577 141.315 132.417 130.947 132.417 C 120.58 132.417 111.64 138.577 107.6 147.438 C 123.152 143.688 138.727 143.697 154.294 147.438 L 154.294 147.438 Z " fill="white" stroke="none"/></mask><path d=" M 154.294 147.438 C 150.254 138.577 141.315 132.417 130.947 132.417 C 120.58 132.417 111.64 138.577 107.6 147.438 C 123.152 143.688 138.727 143.697 154.294 147.438 L 154.294 147.438 Z " fill="rgb(106,234,127)"/><path d=" M 154.294 147.438 C 150.254 138.577 141.315 132.417 130.947 132.417 C 120.58 132.417 111.64 138.577 107.6 147.438 C 123.152 143.688 138.727 143.697 154.294 147.438 L 154.294 147.438 Z " fill="rgb(106,234,127)" mask="url(#_mask_U6oYvbBa0WfIZZ9vuAS8eNVxedhzPxq1)" vector-effect="non-scaling-stroke" stroke-width="2" stroke="rgb(0,0,0)" stroke-linejoin="miter" stroke-linecap="square" stroke-miterlimit="3"/><mask id="_mask_eAXchHR1LNjwJhS8ed1SKi8gu5Yv0jBw"><circle vector-effect="non-scaling-stroke" cx="131.1625" cy="158.2625" r="27.5625" fill="white" stroke="none"/></mask><circle vector-effect="non-scaling-stroke" cx="131.1625" cy="158.2625" r="27.5625" fill="none"/><circle vector-effect="non-scaling-stroke" cx="131.1625" cy="158.2625" r="27.5625" fill="none" mask="url(#_mask_eAXchHR1LNjwJhS8ed1SKi8gu5Yv0jBw)" stroke-width="6" stroke="rgb(0,0,0)" stroke-linejoin="miter" stroke-linecap="square" stroke-miterlimit="3"/><defs><filter id="V8enTclrqLofCZQ2nQRVHo40idPmUCr2" x="-200%" y="-200%" width="400%" height="400%" filterUnits="objectBoundingBox" color-interpolation-filters="sRGB"><feGaussianBlur xmlns="http://www.w3.org/2000/svg" in="SourceGraphic" stdDeviation="0"/><feOffset xmlns="http://www.w3.org/2000/svg" dx="1" dy="1" result="pf_100_offsetBlur"/><feFlood xmlns="http://www.w3.org/2000/svg" flood-color="#000000" flood-opacity="0.3"/><feComposite xmlns="http://www.w3.org/2000/svg" in2="pf_100_offsetBlur" operator="in" result="pf_100_dropShadow"/><feBlend xmlns="http://www.w3.org/2000/svg" in="SourceGraphic" in2="pf_100_dropShadow" mode="normal" result="_out_tUOhGyTy14doRv5bfEqifZXL7WISAChM"/><feOffset xmlns="http://www.w3.org/2000/svg" in="_out_tUOhGyTy14doRv5bfEqifZXL7WISAChM" dx="-5" dy="-4"/><feGaussianBlur xmlns="http://www.w3.org/2000/svg" stdDeviation="0" result="pf_101_offsetBlur"/><feComposite xmlns="http://www.w3.org/2000/svg" in="_out_tUOhGyTy14doRv5bfEqifZXL7WISAChM" in2="pf_101_offsetBlur" result="pf_101_inverse" operator="out"/><feFlood xmlns="http://www.w3.org/2000/svg" flood-color="#000000" flood-opacity="0.2" result="pf_101_color"/><feComposite xmlns="http://www.w3.org/2000/svg" in="pf_101_color" in2="pf_101_inverse" operator="in" result="pf_101_shadow"/><feComposite xmlns="http://www.w3.org/2000/svg" in="pf_101_shadow" in2="_out_tUOhGyTy14doRv5bfEqifZXL7WISAChM" operator="over" result="_out_e7LwgVEhX8AkgtGlOHlCUItrr8FEBN0V"/><feMerge><feMergeNode in="_out_e7LwgVEhX8AkgtGlOHlCUItrr8FEBN0V"/></feMerge></filter></defs><g filter="url(#V8enTclrqLofCZQ2nQRVHo40idPmUCr2)"><ellipse vector-effect="non-scaling-stroke" cx="36.25976874691708" cy="161.35416666666657" rx="17.64583333333345" ry="22.020833333333314" fill="rgb(204,204,204)"/></g><defs><filter id="fr6kPcndrZZeFXyygCuu8wO6UkdxlAt4" x="-200%" y="-200%" width="400%" height="400%" filterUnits="objectBoundingBox" color-interpolation-filters="sRGB"><feGaussianBlur xmlns="http://www.w3.org/2000/svg" in="SourceGraphic" stdDeviation="0"/><feOffset xmlns="http://www.w3.org/2000/svg" dx="1" dy="1" result="pf_100_offsetBlur"/><feFlood xmlns="http://www.w3.org/2000/svg" flood-color="#000000" flood-opacity="0.3"/><feComposite xmlns="http://www.w3.org/2000/svg" in2="pf_100_offsetBlur" operator="in" result="pf_100_dropShadow"/><feBlend xmlns="http://www.w3.org/2000/svg" in="SourceGraphic" in2="pf_100_dropShadow" mode="normal" result="_out_ZiWH7VRPSfePjiwteHH2bfTBhAg3YoQ8"/><feOffset xmlns="http://www.w3.org/2000/svg" in="_out_ZiWH7VRPSfePjiwteHH2bfTBhAg3YoQ8" dx="-5" dy="-4"/><feGaussianBlur xmlns="http://www.w3.org/2000/svg" stdDeviation="0" result="pf_101_offsetBlur"/><feComposite xmlns="http://www.w3.org/2000/svg" in="_out_ZiWH7VRPSfePjiwteHH2bfTBhAg3YoQ8" in2="pf_101_offsetBlur" result="pf_101_inverse" operator="out"/><feFlood xmlns="http://www.w3.org/2000/svg" flood-color="#000000" flood-opacity="0.2" result="pf_101_color"/><feComposite xmlns="http://www.w3.org/2000/svg" in="pf_101_color" in2="pf_101_inverse" operator="in" result="pf_101_shadow"/><feComposite xmlns="http://www.w3.org/2000/svg" in="pf_101_shadow" in2="_out_ZiWH7VRPSfePjiwteHH2bfTBhAg3YoQ8" operator="over" result="_out_4RUE1lw2Dpil7RpcqRG2Uva8AU0N4MFh"/><feMerge><feMergeNode in="_out_4RUE1lw2Dpil7RpcqRG2Uva8AU0N4MFh"/></feMerge></filter></defs><g filter="url(#fr6kPcndrZZeFXyygCuu8wO6UkdxlAt4)"><ellipse vector-effect="non-scaling-stroke" cx="36.19381951954405" cy="161.52083333333326" rx="17.21178256070648" ry="21.47916666666663" fill="rgb(204,204,204)"/></g><ellipse vector-effect="non-scaling-stroke" cx="36.565648262347395" cy="162.62604166666665" rx="9.315648262347402" ry="10.526041666666657" fill="rgb(0,0,0)"/><mask id="_mask_JvkRvgnm9oAIt39kWDB3Xl3XVMtcsTv5"><path d=" M 51.221 151.375 C 48.352 144.495 42.585 139.792 35.944 139.792 C 29.303 139.792 23.536 144.495 20.667 151.375 C 31.093 147.875 41.288 147.885 51.221 151.375 L 51.221 151.375 Z " fill="white" stroke="none"/></mask><path d=" M 51.221 151.375 C 48.352 144.495 42.585 139.792 35.944 139.792 C 29.303 139.792 23.536 144.495 20.667 151.375 C 31.093 147.875 41.288 147.885 51.221 151.375 L 51.221 151.375 Z " fill="rgb(106,234,127)"/><path d=" M 51.221 151.375 C 48.352 144.495 42.585 139.792 35.944 139.792 C 29.303 139.792 23.536 144.495 20.667 151.375 C 31.093 147.875 41.288 147.885 51.221 151.375 L 51.221 151.375 Z " fill="rgb(106,234,127)" mask="url(#_mask_JvkRvgnm9oAIt39kWDB3Xl3XVMtcsTv5)" vector-effect="non-scaling-stroke" stroke-width="2" stroke="rgb(0,0,0)" stroke-linejoin="miter" stroke-linecap="square" stroke-miterlimit="3"/><mask id="_mask_SKlZsKcB3X1WL7ctV2DX8Dom1b9R5pHR"><ellipse vector-effect="non-scaling-stroke" cx="36.24583333333345" cy="161.32083333333333" rx="17.64583333333345" ry="22.020833333333314" fill="white" stroke="none"/></mask><ellipse vector-effect="non-scaling-stroke" cx="36.24583333333345" cy="161.32083333333333" rx="17.64583333333345" ry="22.020833333333314" fill="none"/><ellipse vector-effect="non-scaling-stroke" cx="36.24583333333345" cy="161.32083333333333" rx="17.64583333333345" ry="22.020833333333314" fill="none" mask="url(#_mask_SKlZsKcB3X1WL7ctV2DX8Dom1b9R5pHR)" stroke-width="6" stroke="rgb(0,0,0)" stroke-linejoin="miter" stroke-linecap="square" stroke-miterlimit="3"/><path d=" M 126.047 152.584 C 125.834 151.884 126.424 151.084 127.364 150.797 C 128.305 150.51 129.241 150.845 129.455 151.545 C 129.668 152.244 129.078 153.045 128.137 153.332 C 127.197 153.618 126.26 153.283 126.047 152.584 Z " fill="rgb(255,255,255)" fill-opacity="0.9"/><path d=" M 30.428 156.995 C 30.187 156.304 30.745 155.481 31.674 155.157 C 32.602 154.833 33.551 155.131 33.792 155.821 C 34.033 156.512 33.475 157.335 32.547 157.659 C 31.618 157.983 30.669 157.685 30.428 156.995 Z " fill="rgb(255,255,255)" fill-opacity="0.9"/></g></svg>