<?xml version="1.0" encoding="UTF-8" standalone="no"?><!-- Generator: Gravit.io --><svg xmlns="http://www.w3.org/2000/svg" xmlns:xlink="http://www.w3.org/1999/xlink" style="isolation:isolate" viewBox="0 0 318 342" width="318pt" height="342pt"><defs><clipPath id="_clipPath_AIRx58PMBk1rAlR5tgr70eLdfBSzCQub"><rect width="318" height="342"/></clipPath></defs><g clip-path="url(#_clipPath_AIRx58PMBk1rAlR5tgr70eLdfBSzCQub)"><mask id="_mask_ZaSQLvKWAQbuAojMOBc4fVMG6Wv3fuKW"><path d=" M 204.301 56.278 C 193.412 38.197 163.984 29.353 143.96 16.278 C 142.56 15.127 159.229 12.765 163.746 7.5 C 171.461 6.99 182.992 6.1 183.422 2.833 C 189.961 3.8 208.345 10.338 213.156 7.944 C 226.846 11.464 241.452 10.065 240.875 7.5 C 245.302 10.875 261.21 11.604 270.5 10.875 C 235.082 54.875 249.822 103.799 256.444 126.611 C 242.179 120.361 222.929 82.02 204.301 56.278 Z " fill="white" stroke="none"/></mask><path d=" M 204.301 56.278 C 193.412 38.197 163.984 29.353 143.96 16.278 C 142.56 15.127 159.229 12.765 163.746 7.5 C 171.461 6.99 182.992 6.1 183.422 2.833 C 189.961 3.8 208.345 10.338 213.156 7.944 C 226.846 11.464 241.452 10.065 240.875 7.5 C 245.302 10.875 261.21 11.604 270.5 10.875 C 235.082 54.875 249.822 103.799 256.444 126.611 C 242.179 120.361 222.929 82.02 204.301 56.278 Z " fill="rgb(255,9,169)"/><path d=" M 204.301 56.278 C 193.412 38.197 163.984 29.353 143.96 16.278 C 142.56 15.127 159.229 12.765 163.746 7.5 C 171.461 6.99 182.992 6.1 183.422 2.833 C 189.961 3.8 208.345 10.338 213.156 7.944 C 226.846 11.464 241.452 10.065 240.875 7.5 C 245.302 10.875 261.21 11.604 270.5 10.875 C 235.082 54.875 249.822 103.799 256.444 126.611 C 242.179 120.361 222.929 82.02 204.301 56.278 Z " fill="rgb(255,9,169)" mask="url(#_mask_ZaSQLvKWAQbuAojMOBc4fVMG6Wv3fuKW)" vector-effect="non-scaling-stroke" stroke-width="6" stroke="rgb(0,0,0)" stroke-linejoin="miter" stroke-linecap="square" stroke-miterlimit="3"/><mask id="_mask_pVv2E1DBs8c58PuKVpnqb4XXN1KDJp9s"><path d=" M 191.648 268.051 C 175.375 281.639 142.011 280.875 118.544 286.749 C 120.721 291.413 134.568 297.816 133.402 300.212 C 137.29 302.364 148.071 306.976 150.857 311.034 C 157.257 311.861 176.99 311.678 181.125 315.865 C 187.842 315.313 202.234 322.622 208.489 326.516 C 213.832 324.758 227.287 329.037 236 332.75 C 215.975 279.543 247.112 236.979 260.789 217.521 C 245.051 218.802 217.824 249.722 191.648 268.051 Z " fill="white" stroke="none"/></mask><path d=" M 191.648 268.051 C 175.375 281.639 142.011 280.875 118.544 286.749 C 120.721 291.413 134.568 297.816 133.402 300.212 C 137.29 302.364 148.071 306.976 150.857 311.034 C 157.257 311.861 176.99 311.678 181.125 315.865 C 187.842 315.313 202.234 322.622 208.489 326.516 C 213.832 324.758 227.287 329.037 236 332.75 C 215.975 279.543 247.112 236.979 260.789 217.521 C 245.051 218.802 217.824 249.722 191.648 268.051 Z " fill="rgb(255,9,169)"/><path d=" M 191.648 268.051 C 175.375 281.639 142.011 280.875 118.544 286.749 C 120.721 291.413 134.568 297.816 133.402 300.212 C 137.29 302.364 148.071 306.976 150.857 311.034 C 157.257 311.861 176.99 311.678 181.125 315.865 C 187.842 315.313 202.234 322.622 208.489 326.516 C 213.832 324.758 227.287 329.037 236 332.75 C 215.975 279.543 247.112 236.979 260.789 217.521 C 245.051 218.802 217.824 249.722 191.648 268.051 Z " fill="rgb(255,9,169)" mask="url(#_mask_pVv2E1DBs8c58PuKVpnqb4XXN1KDJp9s)" vector-effect="non-scaling-stroke" stroke-width="6" stroke="rgb(0,0,0)" stroke-linejoin="miter" stroke-linecap="square" stroke-miterlimit="3"/><mask id="_mask_TZjfOLG9pWhbatD0XyjPoiwam8hNv3yC"><path d=" M 93.489 298.437 C 90.162 302.366 74.028 303.745 71.364 303.687 C 78.592 307.049 97.547 334.902 113.375 340.25 C 105.631 326.49 94.989 320.375 93.489 298.437 Z " fill="white" stroke="none"/></mask><path d=" M 93.489 298.437 C 90.162 302.366 74.028 303.745 71.364 303.687 C 78.592 307.049 97.547 334.902 113.375 340.25 C 105.631 326.49 94.989 320.375 93.489 298.437 Z " fill="rgb(255,9,169)"/><path d=" M 93.489 298.437 C 90.162 302.366 74.028 303.745 71.364 303.687 C 78.592 307.049 97.547 334.902 113.375 340.25 C 105.631 326.49 94.989 320.375 93.489 298.437 Z " fill="rgb(255,9,169)" mask="url(#_mask_TZjfOLG9pWhbatD0XyjPoiwam8hNv3yC)" vector-effect="non-scaling-stroke" stroke-width="6" stroke="rgb(0,0,0)" stroke-linejoin="miter" stroke-linecap="square" stroke-miterlimit="3"/><mask id="_mask_Siem9NDUyr31GGGzPiZQtvEhvAglpvym"><path d=" M 274.294 150.611 C 279.39 132.611 286.986 111.096 296.961 85.944 C 304.627 101.066 310.001 110.662 312.961 114.611 C 317.372 142.127 318.735 163.713 316.961 179.278 C 312.341 206.486 309.037 228.961 306.961 246.611 C 304.436 257.339 298.466 269.813 288.961 283.944 C 284.781 257.897 280.366 237.039 275.628 221.278 L 274.294 150.611 Z " fill="white" stroke="none"/></mask><path d=" M 274.294 150.611 C 279.39 132.611 286.986 111.096 296.961 85.944 C 304.627 101.066 310.001 110.662 312.961 114.611 C 317.372 142.127 318.735 163.713 316.961 179.278 C 312.341 206.486 309.037 228.961 306.961 246.611 C 304.436 257.339 298.466 269.813 288.961 283.944 C 284.781 257.897 280.366 237.039 275.628 221.278 L 274.294 150.611 Z " fill="rgb(255,9,169)"/><path d=" M 274.294 150.611 C 279.39 132.611 286.986 111.096 296.961 85.944 C 304.627 101.066 310.001 110.662 312.961 114.611 C 317.372 142.127 318.735 163.713 316.961 179.278 C 312.341 206.486 309.037 228.961 306.961 246.611 C 304.436 257.339 298.466 269.813 288.961 283.944 C 284.781 257.897 280.366 237.039 275.628 221.278 L 274.294 150.611 Z " fill="rgb(255,9,169)" mask="url(#_mask_Siem9NDUyr31GGGzPiZQtvEhvAglpvym)" vector-effect="non-scaling-stroke" stroke-width="6" stroke="rgb(0,0,0)" stroke-linejoin="miter" stroke-linecap="square" stroke-miterlimit="3"/><path d=" M 298.072 182.625 C 301.186 182.643 306.784 181.122 310.814 181.445 C 312.642 181.591 312.645 181.56 310.82 181.375 C 307.847 181.073 303.034 180.67 297.954 180.171 L 298.072 182.625 Z " fill="rgb(0,0,0)"/><path d=" M 178.117 37.038 C 184.626 34.377 207.552 22.926 214.692 21.817 C 218.483 21.229 218.521 21.43 214.776 22.266 C 208.058 23.766 190.461 32.256 181.345 38.444 L 178.117 37.038 Z " fill="rgb(0,0,0)"/><path d=" M 195.242 47.444 C 203.939 43.888 235.709 29.245 245.249 27.764 C 250.316 26.977 250.367 27.246 245.363 28.363 C 236.384 30.368 210.466 41.519 198.286 49.788 L 195.242 47.444 Z " fill="rgb(0,0,0)"/><path d=" M 163.355 29.382 C 167.566 27.285 183.006 18.218 187.714 17.125 C 190.213 16.544 190.248 16.677 187.793 17.419 C 183.383 18.754 172.46 25.617 166.68 30.194 L 163.355 29.382 Z " fill="rgb(0,0,0)"/><path d=" M 158.262 289.61 C 162.542 291.707 178.981 300.457 183.8 301.558 C 186.321 302.134 186.356 302.003 183.877 301.265 C 179.364 299.921 167.32 293.334 161.446 288.757 L 158.262 289.61 Z " fill="rgb(0,0,0)"/><path d=" M 176.325 282.61 C 182.488 285.63 205.269 298.119 212.209 299.704 C 215.839 300.534 215.889 300.345 212.32 299.282 C 205.821 297.348 188.478 287.863 180.019 281.271 L 176.325 282.61 Z " fill="rgb(0,0,0)"/><path d=" M 293.822 147.583 C 296.056 142.357 299.544 132.447 302.939 125.895 C 304.479 122.924 304.428 122.897 302.826 125.835 C 300.214 130.625 296.13 138.436 291.696 146.631 L 293.822 147.583 Z " fill="rgb(0,0,0)"/><path d=" M 287.322 219.833 C 290.559 224.505 292.905 228.065 296.647 234.426 C 298.344 237.31 298.393 237.282 296.758 234.362 C 294.092 229.602 293.652 226.197 289.072 218.083 L 287.322 219.833 Z " fill="rgb(0,0,0)"/><path d=" M 87.209 3.784 C 132.613 6.817 168.291 23.019 199.559 45.825 C 225.62 70.11 246.033 99.85 260.236 133.736 C 260.528 134.432 261.116 135.5 261.549 136.118 C 274.504 154.611 279.015 153.944 291.543 146.521 C 292.391 146.019 293.228 146.397 293.412 147.364 C 298.651 174.944 300.57 204.768 284.057 225.278 C 264.499 214.719 260.782 222.223 252.547 229.812 C 210.922 273.324 154.934 299.549 84.517 308.389 L 87.209 3.784 Z " fill="rgb(106,234,127)" vector-effect="non-scaling-stroke" stroke-width="3" stroke="rgb(0,0,0)" stroke-linejoin="miter" stroke-linecap="square" stroke-miterlimit="3"/><mask id="_mask_vvLdZ3JTJVQKgPOTcV9CinOe8iYmxkn9"><path d=" M 32.072 159.167 C -33.072 40.213 9.114 4.75 99.114 0.25 C 138.114 4.75 208.801 27.006 166.072 162.167 C 164.031 257.81 132.114 291.25 111.114 303.25 C 89.937 311.118 78.332 312.638 63.489 301 C 25.239 278.875 -4.937 244.434 32.072 159.167 Z " fill="white" stroke="none"/></mask><path d=" M 32.072 159.167 C -33.072 40.213 9.114 4.75 99.114 0.25 C 138.114 4.75 208.801 27.006 166.072 162.167 C 164.031 257.81 132.114 291.25 111.114 303.25 C 89.937 311.118 78.332 312.638 63.489 301 C 25.239 278.875 -4.937 244.434 32.072 159.167 Z " fill="rgb(106,234,127)"/><path d=" M 32.072 159.167 C -33.072 40.213 9.114 4.75 99.114 0.25 C 138.114 4.75 208.801 27.006 166.072 162.167 C 164.031 257.81 132.114 291.25 111.114 303.25 C 89.937 311.118 78.332 312.638 63.489 301 C 25.239 278.875 -4.937 244.434 32.072 159.167 Z " fill="rgb(106,234,127)" mask="url(#_mask_vvLdZ3JTJVQKgPOTcV9CinOe8iYmxkn9)" vector-effect="non-scaling-stroke" stroke-width="6" stroke="rgb(0,0,0)" stroke-linejoin="miter" stroke-linecap="square" stroke-miterlimit="3"/><path d=" M 160.02 23.938 C 151.742 20.14 134.96 12.515 128.885 10.396 L 162.989 162.438 C 157.508 205.32 134.602 252.271 93.614 305.479 C 103.595 304.127 114.563 302.033 126.489 299.167 C 154.075 263.255 169.543 217.85 172.864 162.922 C 190.587 102.871 186.315 56.553 160.02 23.938 Z " fill="rgb(106,234,127)"/><path d=" M 230.961 248.611 C 250.656 235.75 251.906 218.5 284.906 219 C 281.664 219.058 264.325 209.249 254.406 219 C 176.832 273.872 98.989 324.437 43.864 284.5 C 52.983 291.917 69.239 310 93.989 307.5 C 120.6 303.592 193.628 282.611 230.961 248.611 Z " fill="rgb(0,0,0)" fill-opacity="0.2"/><path d=" M 62.176 47 C 54.17 33.371 103.705 20.468 151.989 39.687 C 198.692 58.277 243.873 108.291 255.072 137 C 270.322 158.5 282.739 155.125 291.864 148.125 C 285.864 151.563 283.739 152.875 277.364 152.75 C 271.579 151.407 266.322 146.185 259.551 135.875 C 243.786 98 217.84 62.984 198.434 47.187 C 174.88 29.258 123.551 4.156 99.059 3.359 C 46.184 5.75 7.426 20.187 4.614 56.375 C 9.614 67.042 46.664 72.56 62.176 47 Z " fill="rgb(255,255,255)" fill-opacity="0.3"/><defs><filter id="bvfmEk9jKV6pdSG5o7j9BpKs6hpmEqRK" x="-200%" y="-200%" width="400%" height="400%" filterUnits="objectBoundingBox" color-interpolation-filters="sRGB"><feOffset xmlns="http://www.w3.org/2000/svg" in="SourceGraphic" dx="-4" dy="-5"/><feGaussianBlur xmlns="http://www.w3.org/2000/svg" stdDeviation="0" result="pf_100_offsetBlur"/><feComposite xmlns="http://www.w3.org/2000/svg" in="SourceGraphic" in2="pf_100_offsetBlur" result="pf_100_inverse" operator="out"/><feFlood xmlns="http://www.w3.org/2000/svg" flood-color="#000000" flood-opacity="0.2" result="pf_100_color"/><feComposite xmlns="http://www.w3.org/2000/svg" in="pf_100_color" in2="pf_100_inverse" operator="in" result="pf_100_shadow"/><feComposite xmlns="http://www.w3.org/2000/svg" in="pf_100_shadow" in2="SourceGraphic" operator="over"/></filter></defs><g filter="url(#bvfmEk9jKV6pdSG5o7j9BpKs6hpmEqRK)"><mask id="_mask_piMMj3EpXHIKtYVAyvXdcXKinKShPE3f"><path d=" M 57.572 242.917 C 56.481 257.162 62.129 272.407 63.382 277.966 C 63.625 279.042 64.717 279.966 65.819 280.026 L 78.742 280.734 C 79.844 280.795 80.778 279.948 80.826 278.846 C 81.145 271.504 81.332 260.076 81.072 251.917 C 74.432 252.839 63.889 248.671 57.572 242.917 Z " fill="white" stroke="none"/></mask><path d=" M 57.572 242.917 C 56.481 257.162 62.129 272.407 63.382 277.966 C 63.625 279.042 64.717 279.966 65.819 280.026 L 78.742 280.734 C 79.844 280.795 80.778 279.948 80.826 278.846 C 81.145 271.504 81.332 260.076 81.072 251.917 C 74.432 252.839 63.889 248.671 57.572 242.917 Z " fill="rgb(236,236,236)"/><path d=" M 57.572 242.917 C 56.481 257.162 62.129 272.407 63.382 277.966 C 63.625 279.042 64.717 279.966 65.819 280.026 L 78.742 280.734 C 79.844 280.795 80.778 279.948 80.826 278.846 C 81.145 271.504 81.332 260.076 81.072 251.917 C 74.432 252.839 63.889 248.671 57.572 242.917 Z " fill="rgb(236,236,236)" mask="url(#_mask_piMMj3EpXHIKtYVAyvXdcXKinKShPE3f)" vector-effect="non-scaling-stroke" stroke-width="6" stroke="rgb(0,0,0)" stroke-linejoin="miter" stroke-linecap="square" stroke-miterlimit="3"/></g><defs><filter id="I7GpnhkarUPNdtgNRJXqzCDuH6fn2k5g" x="-200%" y="-200%" width="400%" height="400%" filterUnits="objectBoundingBox" color-interpolation-filters="sRGB"><feOffset xmlns="http://www.w3.org/2000/svg" in="SourceGraphic" dx="-4" dy="-5"/><feGaussianBlur xmlns="http://www.w3.org/2000/svg" stdDeviation="0" result="pf_100_offsetBlur"/><feComposite xmlns="http://www.w3.org/2000/svg" in="SourceGraphic" in2="pf_100_offsetBlur" result="pf_100_inverse" operator="out"/><feFlood xmlns="http://www.w3.org/2000/svg" flood-color="#000000" flood-opacity="0.2" result="pf_100_color"/><feComposite xmlns="http://www.w3.org/2000/svg" in="pf_100_color" in2="pf_100_inverse" operator="in" result="pf_100_shadow"/><feComposite xmlns="http://www.w3.org/2000/svg" in="pf_100_shadow" in2="SourceGraphic" operator="over"/></filter></defs><g filter="url(#I7GpnhkarUPNdtgNRJXqzCDuH6fn2k5g)"><mask id="_mask_pBQWZc8fetbHbFiM8jAmKcGEm378p1uj"><path d=" M 81.083 251.469 C 80.928 260.17 80.552 270.055 81.087 278.941 C 81.154 280.043 82.089 281.098 83.175 281.296 C 86.507 281.903 92.674 282.413 96.365 282.51 C 97.468 282.539 98.668 281.72 99.043 280.681 C 103.157 269.294 105.681 256.019 105.572 244.792 C 99.347 248.538 86.94 253.173 81.083 251.469 Z " fill="white" stroke="none"/></mask><path d=" M 81.083 251.469 C 80.928 260.17 80.552 270.055 81.087 278.941 C 81.154 280.043 82.089 281.098 83.175 281.296 C 86.507 281.903 92.674 282.413 96.365 282.51 C 97.468 282.539 98.668 281.72 99.043 280.681 C 103.157 269.294 105.681 256.019 105.572 244.792 C 99.347 248.538 86.94 253.173 81.083 251.469 Z " fill="rgb(236,236,236)"/><path d=" M 81.083 251.469 C 80.928 260.17 80.552 270.055 81.087 278.941 C 81.154 280.043 82.089 281.098 83.175 281.296 C 86.507 281.903 92.674 282.413 96.365 282.51 C 97.468 282.539 98.668 281.72 99.043 280.681 C 103.157 269.294 105.681 256.019 105.572 244.792 C 99.347 248.538 86.94 253.173 81.083 251.469 Z " fill="rgb(236,236,236)" mask="url(#_mask_pBQWZc8fetbHbFiM8jAmKcGEm378p1uj)" vector-effect="non-scaling-stroke" stroke-width="6" stroke="rgb(0,0,0)" stroke-linejoin="miter" stroke-linecap="square" stroke-miterlimit="3"/></g><mask id="_mask_0xv4qHFJGDtet0qpQJriCNkrxElpw1oe"><path d=" M 53.287 206.134 C 45.908 203.156 31.093 209.201 29.876 220.318" fill="white" stroke="none"/></mask><path d=" M 53.287 206.134 C 45.908 203.156 31.093 209.201 29.876 220.318" fill="none"/><path d=" M 53.287 206.134 C 45.908 203.156 31.093 209.201 29.876 220.318" fill="none" mask="url(#_mask_0xv4qHFJGDtet0qpQJriCNkrxElpw1oe)" vector-effect="non-scaling-stroke" stroke-width="6" stroke="rgb(0,0,0)" stroke-linejoin="miter" stroke-linecap="square" stroke-miterlimit="3"/><mask id="_mask_ol3TXZUDYV4WBlKQsdXA7c3CTTaLOQQV"><path d=" M 130.049 218.604 C 127.015 211.248 112.333 204.89 103.537 211.797" fill="white" stroke="none"/></mask><path d=" M 130.049 218.604 C 127.015 211.248 112.333 204.89 103.537 211.797" fill="none"/><path d=" M 130.049 218.604 C 127.015 211.248 112.333 204.89 103.537 211.797" fill="none" mask="url(#_mask_ol3TXZUDYV4WBlKQsdXA7c3CTTaLOQQV)" vector-effect="non-scaling-stroke" stroke-width="6" stroke="rgb(0,0,0)" stroke-linejoin="miter" stroke-linecap="square" stroke-miterlimit="3"/><mask id="_mask_mE3UhbZm6L2aNZ9iStWDlhYcrdCPhyid"><path d=" M 40.406 207.833 C 43.014 235.151 56.504 250.384 80.845 253.5 C 107.977 251.504 120.801 237.083 119.285 210.204" fill="white" stroke="none"/></mask><path d=" M 40.406 207.833 C 43.014 235.151 56.504 250.384 80.845 253.5 C 107.977 251.504 120.801 237.083 119.285 210.204" fill="none"/><path d=" M 40.406 207.833 C 43.014 235.151 56.504 250.384 80.845 253.5 C 107.977 251.504 120.801 237.083 119.285 210.204" fill="none" mask="url(#_mask_mE3UhbZm6L2aNZ9iStWDlhYcrdCPhyid)" vector-effect="non-scaling-stroke" stroke-width="6" stroke="rgb(0,0,0)" stroke-linejoin="miter" stroke-linecap="square" stroke-miterlimit="3"/><path d=" M 69.551 254.083 C 66.655 253.074 63.926 251.777 61.333 250.161 C 61.605 253.784 61.959 256.882 62.614 260.458 C 63.354 256.206 62.333 253.974 62.88 252.911 C 63.971 252.54 66.6 253.864 69.551 254.083 Z " fill="rgb(255,255,255)"/><path d=" M 92.708 254.094 C 89.824 254.908 88.649 255.35 84.727 255.43 C 84.863 259.716 84.565 263.311 84.411 266.328 C 86.098 261.125 85.833 258.004 86.38 256.941 C 87.471 256.57 89.93 255.852 92.708 254.094 Z " fill="rgb(255,255,255)"/><defs><filter id="jFnojCNwXwY9kqMEE1NDL0C5hijMzbvq" x="-200%" y="-200%" width="400%" height="400%" filterUnits="objectBoundingBox" color-interpolation-filters="sRGB"><feGaussianBlur xmlns="http://www.w3.org/2000/svg" in="SourceGraphic" stdDeviation="0"/><feOffset xmlns="http://www.w3.org/2000/svg" dx="1" dy="1" result="pf_100_offsetBlur"/><feFlood xmlns="http://www.w3.org/2000/svg" flood-color="#000000" flood-opacity="0.3"/><feComposite xmlns="http://www.w3.org/2000/svg" in2="pf_100_offsetBlur" operator="in" result="pf_100_dropShadow"/><feBlend xmlns="http://www.w3.org/2000/svg" in="SourceGraphic" in2="pf_100_dropShadow" mode="normal" result="_out_6ZwaPD2Q7o1Jw8MowDV00xyWX5wuNQPQ"/><feOffset xmlns="http://www.w3.org/2000/svg" in="_out_6ZwaPD2Q7o1Jw8MowDV00xyWX5wuNQPQ" dx="-5" dy="-6"/><feGaussianBlur xmlns="http://www.w3.org/2000/svg" stdDeviation="0" result="pf_101_offsetBlur"/><feComposite xmlns="http://www.w3.org/2000/svg" in="_out_6ZwaPD2Q7o1Jw8MowDV00xyWX5wuNQPQ" in2="pf_101_offsetBlur" result="pf_101_inverse" operator="out"/><feFlood xmlns="http://www.w3.org/2000/svg" flood-color="#000000" flood-opacity="0.2" result="pf_101_color"/><feComposite xmlns="http://www.w3.org/2000/svg" in="pf_101_color" in2="pf_101_inverse" operator="in" result="pf_101_shadow"/><feComposite xmlns="http://www.w3.org/2000/svg" in="pf_101_shadow" in2="_out_6ZwaPD2Q7o1Jw8MowDV00xyWX5wuNQPQ" operator="over" result="_out_ulnzauL9Al2r9IFYjoFrdNpgrVS5FFmr"/><feMerge><feMergeNode in="_out_ulnzauL9Al2r9IFYjoFrdNpgrVS5FFmr"/></feMerge></filter></defs><g filter="url(#jFnojCNwXwY9kqMEE1NDL0C5hijMzbvq)"><mask id="_mask_gSq2W9PGG117WOi2MXUie2MLnSwswvJ0"><circle vector-effect="non-scaling-stroke" cx="131.17643541358382" cy="158.31249999999997" r="27.5625" fill="white" stroke="none"/></mask><circle vector-effect="non-scaling-stroke" cx="131.17643541358382" cy="158.31249999999997" r="27.5625" fill="rgb(204,204,204)"/><circle vector-effect="non-scaling-stroke" cx="131.17643541358382" cy="158.31249999999997" r="27.5625" fill="rgb(204,204,204)" mask="url(#_mask_gSq2W9PGG117WOi2MXUie2MLnSwswvJ0)" stroke-width="6" stroke="rgb(0,0,0)" stroke-linejoin="miter" stroke-linecap="square" stroke-miterlimit="3"/></g><path d=" M 128.072 134.458 C 115.401 135.682 107.921 146.827 107.072 154.708 C 109.935 149.614 112.885 145.708 115.697 142.708 C 120.197 138.583 123.084 137.18 128.072 134.458 Z " fill="rgb(255,255,255)" fill-opacity="0.73"/><ellipse vector-effect="non-scaling-stroke" cx="130.34310208025033" cy="159.03645833333337" rx="9.249999999999993" ry="9" fill="rgb(0,0,0)"/><path d=" M 126.047 152.584 C 125.834 151.884 126.424 151.084 127.364 150.797 C 128.305 150.51 129.241 150.845 129.455 151.545 C 129.668 152.244 129.078 153.045 128.137 153.332 C 127.197 153.618 126.26 153.283 126.047 152.584 Z " fill="rgb(255,255,255)" fill-opacity="0.9"/><defs><filter id="X9WIMABU5BEPiH0fKNMvc40wY1lR6CAu" x="-200%" y="-200%" width="400%" height="400%" filterUnits="objectBoundingBox" color-interpolation-filters="sRGB"><feGaussianBlur xmlns="http://www.w3.org/2000/svg" in="SourceGraphic" stdDeviation="0"/><feOffset xmlns="http://www.w3.org/2000/svg" dx="1" dy="1" result="pf_100_offsetBlur"/><feFlood xmlns="http://www.w3.org/2000/svg" flood-color="#000000" flood-opacity="0.3"/><feComposite xmlns="http://www.w3.org/2000/svg" in2="pf_100_offsetBlur" operator="in" result="pf_100_dropShadow"/><feBlend xmlns="http://www.w3.org/2000/svg" in="SourceGraphic" in2="pf_100_dropShadow" mode="normal" result="_out_4ugHd1m9RCSt3pJhbbgDf8ms6U2X9P2e"/><feOffset xmlns="http://www.w3.org/2000/svg" in="_out_4ugHd1m9RCSt3pJhbbgDf8ms6U2X9P2e" dx="-5" dy="-4"/><feGaussianBlur xmlns="http://www.w3.org/2000/svg" stdDeviation="0" result="pf_101_offsetBlur"/><feComposite xmlns="http://www.w3.org/2000/svg" in="_out_4ugHd1m9RCSt3pJhbbgDf8ms6U2X9P2e" in2="pf_101_offsetBlur" result="pf_101_inverse" operator="out"/><feFlood xmlns="http://www.w3.org/2000/svg" flood-color="#000000" flood-opacity="0.2" result="pf_101_color"/><feComposite xmlns="http://www.w3.org/2000/svg" in="pf_101_color" in2="pf_101_inverse" operator="in" result="pf_101_shadow"/><feComposite xmlns="http://www.w3.org/2000/svg" in="pf_101_shadow" in2="_out_4ugHd1m9RCSt3pJhbbgDf8ms6U2X9P2e" operator="over" result="_out_pI2OQYLrnYCeMjf99DlexF4mjrGOqRVW"/><feMerge><feMergeNode in="_out_pI2OQYLrnYCeMjf99DlexF4mjrGOqRVW"/></feMerge></filter></defs><g filter="url(#X9WIMABU5BEPiH0fKNMvc40wY1lR6CAu)"><mask id="_mask_8EhAGHaj14Co98io3moq9HuyZ7jHFKjr"><ellipse vector-effect="non-scaling-stroke" cx="36.25976874691708" cy="161.35416666666657" rx="17.64583333333345" ry="22.020833333333314" fill="white" stroke="none"/></mask><ellipse vector-effect="non-scaling-stroke" cx="36.25976874691708" cy="161.35416666666657" rx="17.64583333333345" ry="22.020833333333314" fill="rgb(204,204,204)"/><ellipse vector-effect="non-scaling-stroke" cx="36.25976874691708" cy="161.35416666666657" rx="17.64583333333345" ry="22.020833333333314" fill="rgb(204,204,204)" mask="url(#_mask_8EhAGHaj14Co98io3moq9HuyZ7jHFKjr)" stroke-width="6" stroke="rgb(0,0,0)" stroke-linejoin="miter" stroke-linecap="square" stroke-miterlimit="3"/></g><ellipse vector-effect="non-scaling-stroke" cx="35.97157430247262" cy="161.61458333333334" rx="8.222222222222179" ry="7.999999999999972" fill="rgb(0,0,0)"/><path d=" M 34.946 142.473 C 27.52 143.425 23.133 151.156 22.29 156.289 C 23.929 153.019 25.88 150.56 27.55 148.6 C 30.242 145.888 31.907 144.322 34.946 142.473 Z " fill="rgb(255,255,255)" fill-opacity="0.73"/><path d=" M 30.428 156.995 C 30.187 156.304 30.745 155.481 31.674 155.157 C 32.602 154.833 33.551 155.131 33.792 155.821 C 34.033 156.512 33.475 157.335 32.547 157.659 C 31.618 157.983 30.669 157.685 30.428 156.995 Z " fill="rgb(255,255,255)" fill-opacity="0.9"/></g></svg>