<?xml version="1.0" encoding="UTF-8" standalone="no"?><!-- Generator: Gravit.io --><svg xmlns="http://www.w3.org/2000/svg" xmlns:xlink="http://www.w3.org/1999/xlink" style="isolation:isolate" viewBox="0 0 318 342" width="318pt" height="342pt"><defs><clipPath id="_clipPath_6zccxIgMs3Xm2x89REg4lUNTIqstAlQl"><rect width="318" height="342"/></clipPath></defs><g clip-path="url(#_clipPath_6zccxIgMs3Xm2x89REg4lUNTIqstAlQl)"><mask id="_mask_OfPDfnYKcRPmseG7r3IXlQX9cAd5R5UI"><path d=" M 205.295 56.278 C 194.227 38.197 164.314 29.353 143.961 16.278 C 142.538 15.127 158.203 13.125 163.969 8.625 C 171.811 8.115 179.438 7.219 183.938 4.266 C 190.969 4.266 204.188 8.063 213.328 5.953 C 225 7.641 235.969 8.203 243.281 5.391 C 249.469 6.375 259.594 4.969 268.453 2.438 C 240.75 49.266 251.564 103.799 258.295 126.611 C 243.795 120.361 224.229 82.02 205.295 56.278 Z " fill="white" stroke="none"/></mask><path d=" M 205.295 56.278 C 194.227 38.197 164.314 29.353 143.961 16.278 C 142.538 15.127 158.203 13.125 163.969 8.625 C 171.811 8.115 179.438 7.219 183.938 4.266 C 190.969 4.266 204.188 8.063 213.328 5.953 C 225 7.641 235.969 8.203 243.281 5.391 C 249.469 6.375 259.594 4.969 268.453 2.438 C 240.75 49.266 251.564 103.799 258.295 126.611 C 243.795 120.361 224.229 82.02 205.295 56.278 Z " fill="rgb(255,9,169)"/><path d=" M 205.295 56.278 C 194.227 38.197 164.314 29.353 143.961 16.278 C 142.538 15.127 158.203 13.125 163.969 8.625 C 171.811 8.115 179.438 7.219 183.938 4.266 C 190.969 4.266 204.188 8.063 213.328 5.953 C 225 7.641 235.969 8.203 243.281 5.391 C 249.469 6.375 259.594 4.969 268.453 2.438 C 240.75 49.266 251.564 103.799 258.295 126.611 C 243.795 120.361 224.229 82.02 205.295 56.278 Z " fill="rgb(255,9,169)" mask="url(#_mask_OfPDfnYKcRPmseG7r3IXlQX9cAd5R5UI)" vector-effect="non-scaling-stroke" stroke-width="6" stroke="rgb(0,0,0)" stroke-linejoin="miter" stroke-linecap="square" stroke-miterlimit="3"/><mask id="_mask_8Oju1ukbqNch3iXUgmlnx4XIbo9Al6yt"><path d=" M 191.648 268.051 C 175.375 281.639 142.011 280.875 118.544 286.749 C 120.721 291.413 134.568 297.816 133.402 300.212 C 137.29 302.364 145.167 304.583 152.667 307.583 C 158.167 309.583 172.917 311.583 179.667 315.333 C 188.667 315.583 200.667 319.583 207.667 323.333 C 218.667 324.583 224.827 331.969 233.539 335.682 C 225.667 286.583 252.649 239.558 260.789 217.521 C 245.051 218.802 217.824 249.722 191.648 268.051 Z " fill="white" stroke="none"/></mask><path d=" M 191.648 268.051 C 175.375 281.639 142.011 280.875 118.544 286.749 C 120.721 291.413 134.568 297.816 133.402 300.212 C 137.29 302.364 145.167 304.583 152.667 307.583 C 158.167 309.583 172.917 311.583 179.667 315.333 C 188.667 315.583 200.667 319.583 207.667 323.333 C 218.667 324.583 224.827 331.969 233.539 335.682 C 225.667 286.583 252.649 239.558 260.789 217.521 C 245.051 218.802 217.824 249.722 191.648 268.051 Z " fill="rgb(255,9,169)"/><path d=" M 191.648 268.051 C 175.375 281.639 142.011 280.875 118.544 286.749 C 120.721 291.413 134.568 297.816 133.402 300.212 C 137.29 302.364 145.167 304.583 152.667 307.583 C 158.167 309.583 172.917 311.583 179.667 315.333 C 188.667 315.583 200.667 319.583 207.667 323.333 C 218.667 324.583 224.827 331.969 233.539 335.682 C 225.667 286.583 252.649 239.558 260.789 217.521 C 245.051 218.802 217.824 249.722 191.648 268.051 Z " fill="rgb(255,9,169)" mask="url(#_mask_8Oju1ukbqNch3iXUgmlnx4XIbo9Al6yt)" vector-effect="non-scaling-stroke" stroke-width="6" stroke="rgb(0,0,0)" stroke-linejoin="miter" stroke-linecap="square" stroke-miterlimit="3"/><mask id="_mask_teUJ1cPpO8ut6zK3ne520SdtMJsGmDRu"><path d=" M 93.489 298.437 C 90.162 302.366 74.028 303.745 71.364 303.687 C 78.592 307.049 88.833 330.333 104.583 341.333 C 100.333 327.833 97.333 320.583 93.489 298.437 Z " fill="white" stroke="none"/></mask><path d=" M 93.489 298.437 C 90.162 302.366 74.028 303.745 71.364 303.687 C 78.592 307.049 88.833 330.333 104.583 341.333 C 100.333 327.833 97.333 320.583 93.489 298.437 Z " fill="rgb(255,9,169)"/><path d=" M 93.489 298.437 C 90.162 302.366 74.028 303.745 71.364 303.687 C 78.592 307.049 88.833 330.333 104.583 341.333 C 100.333 327.833 97.333 320.583 93.489 298.437 Z " fill="rgb(255,9,169)" mask="url(#_mask_teUJ1cPpO8ut6zK3ne520SdtMJsGmDRu)" vector-effect="non-scaling-stroke" stroke-width="6" stroke="rgb(0,0,0)" stroke-linejoin="miter" stroke-linecap="square" stroke-miterlimit="3"/><mask id="_mask_8IM4aAd1dZPNK09B1BXcrOF24Mkifz6G"><path d=" M 274.294 150.611 C 280.769 132.389 288.354 110.863 296.961 85.944 C 304.498 98.165 309.861 107.751 312.961 114.611 C 313.599 140.751 314.962 162.336 316.961 179.278 C 313.367 203.421 310.064 225.896 306.961 246.611 C 302.387 255.52 296.417 267.994 288.961 283.944 C 286.24 257.619 281.826 236.76 275.628 221.278 L 274.294 150.611 Z " fill="white" stroke="none"/></mask><path d=" M 274.294 150.611 C 280.769 132.389 288.354 110.863 296.961 85.944 C 304.498 98.165 309.861 107.751 312.961 114.611 C 313.599 140.751 314.962 162.336 316.961 179.278 C 313.367 203.421 310.064 225.896 306.961 246.611 C 302.387 255.52 296.417 267.994 288.961 283.944 C 286.24 257.619 281.826 236.76 275.628 221.278 L 274.294 150.611 Z " fill="rgb(255,9,169)"/><path d=" M 274.294 150.611 C 280.769 132.389 288.354 110.863 296.961 85.944 C 304.498 98.165 309.861 107.751 312.961 114.611 C 313.599 140.751 314.962 162.336 316.961 179.278 C 313.367 203.421 310.064 225.896 306.961 246.611 C 302.387 255.52 296.417 267.994 288.961 283.944 C 286.24 257.619 281.826 236.76 275.628 221.278 L 274.294 150.611 Z " fill="rgb(255,9,169)" mask="url(#_mask_8IM4aAd1dZPNK09B1BXcrOF24Mkifz6G)" vector-effect="non-scaling-stroke" stroke-width="6" stroke="rgb(0,0,0)" stroke-linejoin="miter" stroke-linecap="square" stroke-miterlimit="3"/><path d=" M 298.072 182.625 C 301.186 182.643 306.784 181.122 310.814 181.445 C 312.642 181.591 312.645 181.56 310.82 181.375 C 307.847 181.073 303.034 180.67 297.954 180.171 L 298.072 182.625 Z " fill="rgb(0,0,0)"/><path d=" M 177.551 31.219 C 184.167 28.557 207.844 18.75 214.952 16.792 C 218.682 15.765 218.736 15.942 215.074 17.187 C 208.406 19.453 191.25 26.625 180.833 32.625 L 177.551 31.219 Z " fill="rgb(0,0,0)"/><path d=" M 194.958 41.625 C 203.798 38.068 232.875 22.125 242.384 19.604 C 247.381 18.279 247.486 18.617 242.618 20.358 C 234.141 23.391 210.432 35.7 198.051 43.969 L 194.958 41.625 Z " fill="rgb(0,0,0)"/><path d=" M 162.546 23.563 C 166.827 21.466 183.656 14.531 188.607 12.979 C 191.075 12.206 191.164 12.44 188.805 13.501 C 184.641 15.375 173.391 20.156 165.926 24.375 L 162.546 23.563 Z " fill="rgb(0,0,0)"/><path d=" M 155.801 292.542 C 161.344 295 177.562 303.531 182.347 305.273 C 184.777 306.157 184.896 305.89 182.612 304.678 C 178.687 302.594 166.5 295.813 158.985 291.689 L 155.801 292.542 Z " fill="rgb(0,0,0)"/><path d=" M 173.864 285.542 C 180.292 289.208 202.417 301.896 209.781 304.406 C 213.305 305.608 213.395 305.376 209.981 303.889 C 203.542 301.083 189.667 290.583 177.558 284.203 L 173.864 285.542 Z " fill="rgb(0,0,0)"/><path d=" M 293.822 147.583 C 296.056 142.357 299.544 132.447 302.939 125.895 C 304.479 122.924 304.428 122.897 302.826 125.835 C 300.214 130.625 296.13 138.436 291.696 146.631 L 293.822 147.583 Z " fill="rgb(0,0,0)"/><path d=" M 287.322 219.833 C 290.559 224.505 292.905 228.065 296.647 234.426 C 298.344 237.31 298.393 237.282 296.758 234.362 C 294.092 229.602 293.652 226.197 289.072 218.083 L 287.322 219.833 Z " fill="rgb(0,0,0)"/><path d=" M 87.209 3.784 C 132.613 6.817 168.291 23.019 199.559 45.825 C 225.62 70.11 246.033 99.85 260.236 133.736 C 260.528 134.432 261.116 135.5 261.549 136.118 C 274.504 154.611 279.015 153.944 291.543 146.521 C 292.391 146.019 293.228 146.397 293.412 147.364 C 298.651 174.944 300.57 204.768 284.057 225.278 C 264.499 214.719 260.782 222.223 252.547 229.812 C 210.922 273.324 154.934 299.549 84.517 308.389 L 87.209 3.784 Z " fill="rgb(106,234,127)" vector-effect="non-scaling-stroke" stroke-width="3" stroke="rgb(0,0,0)" stroke-linejoin="miter" stroke-linecap="square" stroke-miterlimit="3"/><mask id="_mask_vSWbgS3EqFGhTIiKUiPqrKpBU6LIyd0D"><path d=" M 32.072 159.167 C -33.072 40.213 9.114 4.75 99.114 0.25 C 138.114 4.75 208.801 27.006 166.072 162.167 C 164.031 257.81 132.114 291.25 111.114 303.25 C 89.937 311.118 78.332 312.638 63.489 301 C 25.239 278.875 -4.937 244.434 32.072 159.167 Z " fill="white" stroke="none"/></mask><path d=" M 32.072 159.167 C -33.072 40.213 9.114 4.75 99.114 0.25 C 138.114 4.75 208.801 27.006 166.072 162.167 C 164.031 257.81 132.114 291.25 111.114 303.25 C 89.937 311.118 78.332 312.638 63.489 301 C 25.239 278.875 -4.937 244.434 32.072 159.167 Z " fill="rgb(106,234,127)"/><path d=" M 32.072 159.167 C -33.072 40.213 9.114 4.75 99.114 0.25 C 138.114 4.75 208.801 27.006 166.072 162.167 C 164.031 257.81 132.114 291.25 111.114 303.25 C 89.937 311.118 78.332 312.638 63.489 301 C 25.239 278.875 -4.937 244.434 32.072 159.167 Z " fill="rgb(106,234,127)" mask="url(#_mask_vSWbgS3EqFGhTIiKUiPqrKpBU6LIyd0D)" vector-effect="non-scaling-stroke" stroke-width="6" stroke="rgb(0,0,0)" stroke-linejoin="miter" stroke-linecap="square" stroke-miterlimit="3"/><path d=" M 160.02 23.938 C 151.742 20.14 134.96 12.515 128.885 10.396 L 162.989 162.438 C 157.508 205.32 134.602 252.271 93.614 305.479 C 103.595 304.127 114.563 302.033 126.489 299.167 C 154.075 263.255 169.543 217.85 172.864 162.922 C 190.587 102.871 186.315 56.553 160.02 23.938 Z " fill="rgb(106,234,127)"/><path d=" M 230.961 248.611 C 250.656 235.75 251.906 218.5 284.906 219 C 281.664 219.058 264.325 209.249 254.406 219 C 176.832 273.872 98.989 324.437 43.864 284.5 C 52.983 291.917 69.239 310 93.989 307.5 C 120.6 303.592 193.628 282.611 230.961 248.611 Z " fill="rgb(0,0,0)" fill-opacity="0.2"/><path d=" M 62.176 47 C 54.17 33.371 103.705 20.468 151.989 39.687 C 198.692 58.277 243.873 108.291 255.072 137 C 270.322 158.5 282.739 155.125 291.864 148.125 C 285.864 151.563 283.739 152.875 277.364 152.75 C 271.579 151.407 266.322 146.185 259.551 135.875 C 243.786 98 217.84 62.984 198.434 47.187 C 174.88 29.258 123.551 4.156 99.059 3.359 C 46.184 5.75 7.426 20.187 4.614 56.375 C 9.614 67.042 46.664 72.56 62.176 47 Z " fill="rgb(255,255,255)" fill-opacity="0.3"/><defs><filter id="R5HdffbIW7ckFlIjJ8eltMRMitFmKitR" x="-200%" y="-200%" width="400%" height="400%" filterUnits="objectBoundingBox" color-interpolation-filters="sRGB"><feOffset xmlns="http://www.w3.org/2000/svg" in="SourceGraphic" dx="-4" dy="-5"/><feGaussianBlur xmlns="http://www.w3.org/2000/svg" stdDeviation="0" result="pf_100_offsetBlur"/><feComposite xmlns="http://www.w3.org/2000/svg" in="SourceGraphic" in2="pf_100_offsetBlur" result="pf_100_inverse" operator="out"/><feFlood xmlns="http://www.w3.org/2000/svg" flood-color="#000000" flood-opacity="0.2" result="pf_100_color"/><feComposite xmlns="http://www.w3.org/2000/svg" in="pf_100_color" in2="pf_100_inverse" operator="in" result="pf_100_shadow"/><feComposite xmlns="http://www.w3.org/2000/svg" in="pf_100_shadow" in2="SourceGraphic" operator="over"/></filter></defs><g filter="url(#R5HdffbIW7ckFlIjJ8eltMRMitFmKitR)"><mask id="_mask_TaCJ4lkzfUvHJy49fEyweLC5ny8BLA8T"><path d=" M 57.072 231.104 C 55.981 245.35 61.629 260.594 62.882 266.153 C 63.125 267.23 64.217 268.153 65.319 268.214 L 78.242 268.922 C 79.344 268.982 80.278 268.136 80.326 267.033 C 80.645 259.691 80.635 242.347 80.375 234.188 C 72.987 234.449 62.999 233.589 57.072 231.104 Z " fill="white" stroke="none"/></mask><path d=" M 57.072 231.104 C 55.981 245.35 61.629 260.594 62.882 266.153 C 63.125 267.23 64.217 268.153 65.319 268.214 L 78.242 268.922 C 79.344 268.982 80.278 268.136 80.326 267.033 C 80.645 259.691 80.635 242.347 80.375 234.188 C 72.987 234.449 62.999 233.589 57.072 231.104 Z " fill="rgb(236,236,236)"/><path d=" M 57.072 231.104 C 55.981 245.35 61.629 260.594 62.882 266.153 C 63.125 267.23 64.217 268.153 65.319 268.214 L 78.242 268.922 C 79.344 268.982 80.278 268.136 80.326 267.033 C 80.645 259.691 80.635 242.347 80.375 234.188 C 72.987 234.449 62.999 233.589 57.072 231.104 Z " fill="rgb(236,236,236)" mask="url(#_mask_TaCJ4lkzfUvHJy49fEyweLC5ny8BLA8T)" vector-effect="non-scaling-stroke" stroke-width="6" stroke="rgb(0,0,0)" stroke-linejoin="miter" stroke-linecap="square" stroke-miterlimit="3"/></g><defs><filter id="gaWeB2WCupyvWKYJjON6x03H1IubTj9j" x="-200%" y="-200%" width="400%" height="400%" filterUnits="objectBoundingBox" color-interpolation-filters="sRGB"><feOffset xmlns="http://www.w3.org/2000/svg" in="SourceGraphic" dx="-4" dy="-5"/><feGaussianBlur xmlns="http://www.w3.org/2000/svg" stdDeviation="0" result="pf_100_offsetBlur"/><feComposite xmlns="http://www.w3.org/2000/svg" in="SourceGraphic" in2="pf_100_offsetBlur" result="pf_100_inverse" operator="out"/><feFlood xmlns="http://www.w3.org/2000/svg" flood-color="#000000" flood-opacity="0.2" result="pf_100_color"/><feComposite xmlns="http://www.w3.org/2000/svg" in="pf_100_color" in2="pf_100_inverse" operator="in" result="pf_100_shadow"/><feComposite xmlns="http://www.w3.org/2000/svg" in="pf_100_shadow" in2="SourceGraphic" operator="over"/></filter></defs><g filter="url(#gaWeB2WCupyvWKYJjON6x03H1IubTj9j)"><mask id="_mask_PyyY3tzN0oJI5x19iBnhoO2L21TreFkj"><path d=" M 80.281 234.281 C 80.127 242.983 80.052 258.242 80.587 267.129 C 80.654 268.23 81.589 269.286 82.675 269.483 C 86.007 270.09 92.174 270.6 95.865 270.697 C 96.968 270.726 98.168 269.907 98.543 268.869 C 102.657 257.482 105.296 243.259 105.187 232.031 C 97.875 234.563 89 235.406 80.281 234.281 Z " fill="white" stroke="none"/></mask><path d=" M 80.281 234.281 C 80.127 242.983 80.052 258.242 80.587 267.129 C 80.654 268.23 81.589 269.286 82.675 269.483 C 86.007 270.09 92.174 270.6 95.865 270.697 C 96.968 270.726 98.168 269.907 98.543 268.869 C 102.657 257.482 105.296 243.259 105.187 232.031 C 97.875 234.563 89 235.406 80.281 234.281 Z " fill="rgb(236,236,236)"/><path d=" M 80.281 234.281 C 80.127 242.983 80.052 258.242 80.587 267.129 C 80.654 268.23 81.589 269.286 82.675 269.483 C 86.007 270.09 92.174 270.6 95.865 270.697 C 96.968 270.726 98.168 269.907 98.543 268.869 C 102.657 257.482 105.296 243.259 105.187 232.031 C 97.875 234.563 89 235.406 80.281 234.281 Z " fill="rgb(236,236,236)" mask="url(#_mask_PyyY3tzN0oJI5x19iBnhoO2L21TreFkj)" vector-effect="non-scaling-stroke" stroke-width="6" stroke="rgb(0,0,0)" stroke-linejoin="miter" stroke-linecap="square" stroke-miterlimit="3"/></g><mask id="_mask_uyJ0vC1lp2gVJd67kbgtOhsbfuWP2pL2"><path d=" M 44.28 218.6 C 38.881 220.182 33.311 230.031 37.51 236.733" fill="white" stroke="none"/></mask><path d=" M 44.28 218.6 C 38.881 220.182 33.311 230.031 37.51 236.733" fill="none"/><path d=" M 44.28 218.6 C 38.881 220.182 33.311 230.031 37.51 236.733" fill="none" mask="url(#_mask_uyJ0vC1lp2gVJd67kbgtOhsbfuWP2pL2)" vector-effect="non-scaling-stroke" stroke-width="6" stroke="rgb(0,0,0)" stroke-linejoin="miter" stroke-linecap="square" stroke-miterlimit="3"/><mask id="_mask_Zfj87hSec8vYLnfH7Ema7f0990Q5FtYA"><path d=" M 128.923 235.417 C 130.943 230.47 126.922 220.505 119.46 219.659" fill="white" stroke="none"/></mask><path d=" M 128.923 235.417 C 130.943 230.47 126.922 220.505 119.46 219.659" fill="none"/><path d=" M 128.923 235.417 C 130.943 230.47 126.922 220.505 119.46 219.659" fill="none" mask="url(#_mask_Zfj87hSec8vYLnfH7Ema7f0990Q5FtYA)" vector-effect="non-scaling-stroke" stroke-width="6" stroke="rgb(0,0,0)" stroke-linejoin="miter" stroke-linecap="square" stroke-miterlimit="3"/><mask id="_mask_SQXbmDt3lTJzR2DplizQGI912LUV7IDo"><path d=" M 38.583 225.292 C 40.073 230.103 76.708 232.646 81.458 231.917 C 86.083 232.583 122.981 230.793 127.064 226.726 C 126.855 226.29 130.425 228.823 127.833 228.792 C 128.239 233.315 99.849 235.46 77.083 235.167 C 57.186 234.91 42.598 231.483 37.458 228.167" fill="white" stroke="none"/></mask><path d=" M 38.583 225.292 C 40.073 230.103 76.708 232.646 81.458 231.917 C 86.083 232.583 122.981 230.793 127.064 226.726 C 126.855 226.29 130.425 228.823 127.833 228.792 C 128.239 233.315 99.849 235.46 77.083 235.167 C 57.186 234.91 42.598 231.483 37.458 228.167" fill="none"/><path d=" M 38.583 225.292 C 40.073 230.103 76.708 232.646 81.458 231.917 C 86.083 232.583 122.981 230.793 127.064 226.726 C 126.855 226.29 130.425 228.823 127.833 228.792 C 128.239 233.315 99.849 235.46 77.083 235.167 C 57.186 234.91 42.598 231.483 37.458 228.167" fill="none" mask="url(#_mask_SQXbmDt3lTJzR2DplizQGI912LUV7IDo)" vector-effect="non-scaling-stroke" stroke-width="6" stroke="rgb(0,0,0)" stroke-linejoin="miter" stroke-linecap="square" stroke-miterlimit="3"/><path d=" M 69.844 237.375 C 66.75 236.813 63.422 236.719 60.27 235.677 C 60.543 239.299 60.897 242.398 61.551 245.974 C 62.292 241.721 61.27 239.49 61.817 238.427 C 62.908 238.056 66.937 237.469 69.844 237.375 Z " fill="rgb(255,255,255)"/><path d=" M 92.375 237.984 C 89.469 238.5 87.68 238.146 83.758 238.227 C 83.673 242.576 83.599 246.29 83.656 249.234 C 85.344 244.031 84.864 240.801 85.411 239.738 C 86.502 239.367 89.422 239.344 92.375 237.984 Z " fill="rgb(255,255,255)"/><defs><filter id="aEsLLGg7CQdGIH3fbg7IDZVsT27YNbBx" x="-200%" y="-200%" width="400%" height="400%" filterUnits="objectBoundingBox" color-interpolation-filters="sRGB"><feGaussianBlur xmlns="http://www.w3.org/2000/svg" in="SourceGraphic" stdDeviation="0"/><feOffset xmlns="http://www.w3.org/2000/svg" dx="1" dy="1" result="pf_100_offsetBlur"/><feFlood xmlns="http://www.w3.org/2000/svg" flood-color="#000000" flood-opacity="0.3"/><feComposite xmlns="http://www.w3.org/2000/svg" in2="pf_100_offsetBlur" operator="in" result="pf_100_dropShadow"/><feBlend xmlns="http://www.w3.org/2000/svg" in="SourceGraphic" in2="pf_100_dropShadow" mode="normal" result="_out_6rF4DxSt8EiyRXD9BpjqraCojos0nV7T"/><feOffset xmlns="http://www.w3.org/2000/svg" in="_out_6rF4DxSt8EiyRXD9BpjqraCojos0nV7T" dx="-5" dy="-6"/><feGaussianBlur xmlns="http://www.w3.org/2000/svg" stdDeviation="0" result="pf_101_offsetBlur"/><feComposite xmlns="http://www.w3.org/2000/svg" in="_out_6rF4DxSt8EiyRXD9BpjqraCojos0nV7T" in2="pf_101_offsetBlur" result="pf_101_inverse" operator="out"/><feFlood xmlns="http://www.w3.org/2000/svg" flood-color="#000000" flood-opacity="0.2" result="pf_101_color"/><feComposite xmlns="http://www.w3.org/2000/svg" in="pf_101_color" in2="pf_101_inverse" operator="in" result="pf_101_shadow"/><feComposite xmlns="http://www.w3.org/2000/svg" in="pf_101_shadow" in2="_out_6rF4DxSt8EiyRXD9BpjqraCojos0nV7T" operator="over" result="_out_mJ9ez0rLzVOyApiEVU2AT2rzsZv1M6x5"/><feMerge><feMergeNode in="_out_mJ9ez0rLzVOyApiEVU2AT2rzsZv1M6x5"/></feMerge></filter></defs><g filter="url(#aEsLLGg7CQdGIH3fbg7IDZVsT27YNbBx)"><circle vector-effect="non-scaling-stroke" cx="131.17643541358382" cy="158.31249999999997" r="27.5625" fill="rgb(204,204,204)"/></g><defs><filter id="wbbifoJLrq51x3MjMCxrKjt7fFhywYpQ" x="-200%" y="-200%" width="400%" height="400%" filterUnits="objectBoundingBox" color-interpolation-filters="sRGB"><feGaussianBlur xmlns="http://www.w3.org/2000/svg" in="SourceGraphic" stdDeviation="0"/><feOffset xmlns="http://www.w3.org/2000/svg" dx="1" dy="1" result="pf_100_offsetBlur"/><feFlood xmlns="http://www.w3.org/2000/svg" flood-color="#000000" flood-opacity="0.3"/><feComposite xmlns="http://www.w3.org/2000/svg" in2="pf_100_offsetBlur" operator="in" result="pf_100_dropShadow"/><feBlend xmlns="http://www.w3.org/2000/svg" in="SourceGraphic" in2="pf_100_dropShadow" mode="normal" result="_out_PCDz7moS7sBW2oOC6otNEdhxYJysRx4x"/><feOffset xmlns="http://www.w3.org/2000/svg" in="_out_PCDz7moS7sBW2oOC6otNEdhxYJysRx4x" dx="-5" dy="-6"/><feGaussianBlur xmlns="http://www.w3.org/2000/svg" stdDeviation="0" result="pf_101_offsetBlur"/><feComposite xmlns="http://www.w3.org/2000/svg" in="_out_PCDz7moS7sBW2oOC6otNEdhxYJysRx4x" in2="pf_101_offsetBlur" result="pf_101_inverse" operator="out"/><feFlood xmlns="http://www.w3.org/2000/svg" flood-color="#000000" flood-opacity="0.2" result="pf_101_color"/><feComposite xmlns="http://www.w3.org/2000/svg" in="pf_101_color" in2="pf_101_inverse" operator="in" result="pf_101_shadow"/><feComposite xmlns="http://www.w3.org/2000/svg" in="pf_101_shadow" in2="_out_PCDz7moS7sBW2oOC6otNEdhxYJysRx4x" operator="over" result="_out_5n7NbYljqIPIyhqzq8jB1yqTSJocjJxe"/><feMerge><feMergeNode in="_out_5n7NbYljqIPIyhqzq8jB1yqTSJocjJxe"/></feMerge></filter></defs><g filter="url(#wbbifoJLrq51x3MjMCxrKjt7fFhywYpQ)"><circle vector-effect="non-scaling-stroke" cx="131.1347687469172" cy="158.52083333333331" r="26.729166666666657" fill="rgb(106,234,127)"/></g><mask id="_mask_XxQen1IZoheOJlSNfxv7bUsODPZZRM5u"><circle vector-effect="non-scaling-stroke" cx="131.1625" cy="158.2625" r="27.5625" fill="white" stroke="none"/></mask><circle vector-effect="non-scaling-stroke" cx="131.1625" cy="158.2625" r="27.5625" fill="none"/><circle vector-effect="non-scaling-stroke" cx="131.1625" cy="158.2625" r="27.5625" fill="none" mask="url(#_mask_XxQen1IZoheOJlSNfxv7bUsODPZZRM5u)" stroke-width="6" stroke="rgb(0,0,0)" stroke-linejoin="miter" stroke-linecap="square" stroke-miterlimit="3"/><defs><filter id="O0ljaV4S7dg2b6rnkXKaWmdAaCKnC21s" x="-200%" y="-200%" width="400%" height="400%" filterUnits="objectBoundingBox" color-interpolation-filters="sRGB"><feGaussianBlur xmlns="http://www.w3.org/2000/svg" in="SourceGraphic" stdDeviation="0"/><feOffset xmlns="http://www.w3.org/2000/svg" dx="1" dy="1" result="pf_100_offsetBlur"/><feFlood xmlns="http://www.w3.org/2000/svg" flood-color="#000000" flood-opacity="0.3"/><feComposite xmlns="http://www.w3.org/2000/svg" in2="pf_100_offsetBlur" operator="in" result="pf_100_dropShadow"/><feBlend xmlns="http://www.w3.org/2000/svg" in="SourceGraphic" in2="pf_100_dropShadow" mode="normal" result="_out_WCg6pNielkhFUrqQOuYpu3TTCkmorD5Z"/><feOffset xmlns="http://www.w3.org/2000/svg" in="_out_WCg6pNielkhFUrqQOuYpu3TTCkmorD5Z" dx="-5" dy="-4"/><feGaussianBlur xmlns="http://www.w3.org/2000/svg" stdDeviation="0" result="pf_101_offsetBlur"/><feComposite xmlns="http://www.w3.org/2000/svg" in="_out_WCg6pNielkhFUrqQOuYpu3TTCkmorD5Z" in2="pf_101_offsetBlur" result="pf_101_inverse" operator="out"/><feFlood xmlns="http://www.w3.org/2000/svg" flood-color="#000000" flood-opacity="0.2" result="pf_101_color"/><feComposite xmlns="http://www.w3.org/2000/svg" in="pf_101_color" in2="pf_101_inverse" operator="in" result="pf_101_shadow"/><feComposite xmlns="http://www.w3.org/2000/svg" in="pf_101_shadow" in2="_out_WCg6pNielkhFUrqQOuYpu3TTCkmorD5Z" operator="over" result="_out_tmhb5ySxl5NjhvZ6q5QXXYNBNc80MQvi"/><feMerge><feMergeNode in="_out_tmhb5ySxl5NjhvZ6q5QXXYNBNc80MQvi"/></feMerge></filter></defs><g filter="url(#O0ljaV4S7dg2b6rnkXKaWmdAaCKnC21s)"><ellipse vector-effect="non-scaling-stroke" cx="36.25976874691708" cy="161.35416666666657" rx="17.64583333333345" ry="22.020833333333314" fill="rgb(204,204,204)"/></g><defs><filter id="cq8nNF6PZfCnCfindp9Sa3nLEIBfcms7" x="-200%" y="-200%" width="400%" height="400%" filterUnits="objectBoundingBox" color-interpolation-filters="sRGB"><feGaussianBlur xmlns="http://www.w3.org/2000/svg" in="SourceGraphic" stdDeviation="0"/><feOffset xmlns="http://www.w3.org/2000/svg" dx="1" dy="1" result="pf_100_offsetBlur"/><feFlood xmlns="http://www.w3.org/2000/svg" flood-color="#000000" flood-opacity="0.3"/><feComposite xmlns="http://www.w3.org/2000/svg" in2="pf_100_offsetBlur" operator="in" result="pf_100_dropShadow"/><feBlend xmlns="http://www.w3.org/2000/svg" in="SourceGraphic" in2="pf_100_dropShadow" mode="normal" result="_out_Oqd11RlIqQaqHg7tYRMgQgKGaiYtK1fP"/><feOffset xmlns="http://www.w3.org/2000/svg" in="_out_Oqd11RlIqQaqHg7tYRMgQgKGaiYtK1fP" dx="-5" dy="-4"/><feGaussianBlur xmlns="http://www.w3.org/2000/svg" stdDeviation="0" result="pf_101_offsetBlur"/><feComposite xmlns="http://www.w3.org/2000/svg" in="_out_Oqd11RlIqQaqHg7tYRMgQgKGaiYtK1fP" in2="pf_101_offsetBlur" result="pf_101_inverse" operator="out"/><feFlood xmlns="http://www.w3.org/2000/svg" flood-color="#000000" flood-opacity="0.2" result="pf_101_color"/><feComposite xmlns="http://www.w3.org/2000/svg" in="pf_101_color" in2="pf_101_inverse" operator="in" result="pf_101_shadow"/><feComposite xmlns="http://www.w3.org/2000/svg" in="pf_101_shadow" in2="_out_Oqd11RlIqQaqHg7tYRMgQgKGaiYtK1fP" operator="over" result="_out_c268ifX0HJ9YPjvztxpJk1vW5b6Zr8WU"/><feMerge><feMergeNode in="_out_c268ifX0HJ9YPjvztxpJk1vW5b6Zr8WU"/></feMerge></filter></defs><g filter="url(#cq8nNF6PZfCnCfindp9Sa3nLEIBfcms7)"><ellipse vector-effect="non-scaling-stroke" cx="36.19381951954405" cy="161.52083333333326" rx="17.21178256070648" ry="21.47916666666663" fill="rgb(106,234,127)"/></g><mask id="_mask_NUhlFtdnjcwOGefDSddtdG6vBrDPKNNI"><ellipse vector-effect="non-scaling-stroke" cx="36.24583333333345" cy="161.32083333333333" rx="17.64583333333345" ry="22.020833333333314" fill="white" stroke="none"/></mask><ellipse vector-effect="non-scaling-stroke" cx="36.24583333333345" cy="161.32083333333333" rx="17.64583333333345" ry="22.020833333333314" fill="none"/><ellipse vector-effect="non-scaling-stroke" cx="36.24583333333345" cy="161.32083333333333" rx="17.64583333333345" ry="22.020833333333314" fill="none" mask="url(#_mask_NUhlFtdnjcwOGefDSddtdG6vBrDPKNNI)" stroke-width="6" stroke="rgb(0,0,0)" stroke-linejoin="miter" stroke-linecap="square" stroke-miterlimit="3"/></g></svg>