<?xml version="1.0" encoding="UTF-8" standalone="no"?><!-- Generator: Gravit.io --><svg xmlns="http://www.w3.org/2000/svg" xmlns:xlink="http://www.w3.org/1999/xlink" style="isolation:isolate" viewBox="0 0 580 550" width="580pt" height="550pt"><defs><clipPath id="_clipPath_4HmvbRzoIOHkNn9KQUeuAFkmzOuq3kqj"><rect width="580" height="550"/></clipPath></defs><g clip-path="url(#_clipPath_4HmvbRzoIOHkNn9KQUeuAFkmzOuq3kqj)"><g><path d=" M 275 19.993 C 300.02 19.993 309.275 56.307 319.655 107.614 C 327.32 145.623 334.535 181.532 356.21 197.11 C 377.135 212.103 416.855 215.147 470.06 215.147 C 478.265 215.147 486.41 215.087 494.255 215.027 C 501.455 214.967 508.445 214.907 515 214.907 C 554.555 214.907 560 222.403 560 222.403 C 560 238.626 509.84 268.493 482.9 284.551 C 448.385 305.092 430.16 316.457 425.705 330.22 C 416.675 358.288 435.725 397.75 455.885 439.567 C 470.99 470.903 493.79 518.222 481.19 527.368 C 480.14 528.118 478.325 529.167 474.68 529.167 C 454.76 529.167 419.075 502.179 387.62 478.34 C 349.7 449.582 316.955 424.813 290 424.813 C 269.675 424.813 243.95 443.375 203.69 473.722 C 170.405 498.836 128.99 530.007 106.715 530.007 C 102.965 530.007 101.09 529.002 100.1 528.237 C 87.62 519.226 110.12 472.072 124.94 440.916 C 145.34 398.17 164.615 357.748 154.055 329.576 C 149.315 316.981 134.135 308.435 103.025 291.868 C 70.28 274.415 20.825 248.042 20 222.988 C 22.4 220.589 34.4 214.907 65 214.907 C 191.21 214.907 204.275 201.848 210.605 195.52 C 228.77 177.378 234.635 141.814 240.785 104.211 C 247.28 64.733 254.675 19.993 275 19.993 Z  M 275 5 C 218.105 5 235.28 149.656 200 184.92 C 187.175 197.739 115.28 199.913 65 199.913 C 32.48 199.913 5 206.181 5 222.403 C 5 276.11 131.855 313.113 140 334.853 C 158 383.057 49.475 510.096 91.25 540.367 C 95.645 543.591 100.85 545 106.715 545 C 156.995 545 254.315 439.807 290 439.807 C 334.76 439.807 425.825 544.16 474.695 544.16 C 480.425 544.16 485.585 542.706 489.98 539.482 C 531.755 509.196 424.235 383.822 440 334.853 C 447.26 312.243 575 263.635 575 222.403 C 575 204.306 546.41 199.913 515 199.913 C 501.35 199.913 485.885 200.153 470.06 200.153 C 427.985 200.153 383.69 198.339 365 184.92 C 324.5 155.818 342.38 5 275 5 Z " fill="rgb(253,190,167)" vector-effect="non-scaling-stroke" stroke-width="10" stroke="rgb(0,0,0)" stroke-linejoin="miter" stroke-linecap="butt" stroke-miterlimit="4"/><path d=" M 106.715 537.503 C 102.26 537.503 98.63 536.499 95.645 534.34 C 78.185 521.625 99.395 477.065 118.205 437.693 C 137.825 396.401 156.455 357.403 147.035 332.215 C 143.285 322.139 128.165 313.773 99.515 298.48 C 62.75 278.928 12.5 252.09 12.5 222.403 C 12.5 215.207 28.91 207.41 65 207.41 C 188.105 207.41 200.6 194.936 205.325 190.243 C 221.795 173.795 227.42 139.415 233.405 103.041 C 240.725 58.526 248.285 12.497 275 12.497 C 308.105 12.497 317.72 60.116 327.035 106.145 C 334.355 142.639 341.33 177.124 360.605 191.007 C 381.005 205.656 425.3 207.65 470.105 207.65 C 478.265 207.65 486.41 207.59 494.195 207.53 C 501.47 207.47 508.445 207.41 515 207.41 C 548.345 207.41 567.5 212.853 567.5 222.403 C 567.5 242.899 520.805 270.727 486.755 290.983 C 454.76 310.084 436.49 321.389 432.845 332.574 C 424.76 357.688 443.165 395.876 462.68 436.298 C 481.73 475.821 503.285 520.561 485.585 533.455 C 482.585 535.629 479.03 536.679 474.635 536.679 C 452.195 536.679 417.035 510.036 383.045 484.322 C 347.78 457.559 314.45 432.31 290 432.31 C 271.13 432.31 242 454.275 208.205 479.689 C 172.22 506.812 131.51 537.503 106.715 537.503 Z " fill="rgb(253,144,105)"/><path d=" M 275 19.993 C 300.02 19.993 309.275 56.307 319.655 107.614 C 327.32 145.623 334.535 181.532 356.21 197.11 C 377.135 212.103 416.855 215.147 470.06 215.147 C 478.265 215.147 486.41 215.087 494.255 215.027 C 501.455 214.967 508.445 214.907 515 214.907 C 554.555 214.907 560 222.403 560 222.403 C 560 238.626 509.84 268.493 482.9 284.551 C 448.385 305.092 430.16 316.457 425.705 330.22 C 416.675 358.288 435.725 397.75 455.885 439.567 C 470.99 470.903 493.79 518.222 481.19 527.368 C 480.14 528.118 478.325 529.167 474.68 529.167 C 454.76 529.167 419.075 502.179 387.62 478.34 C 349.7 449.582 316.955 424.813 290 424.813 C 269.675 424.813 243.95 443.375 203.69 473.722 C 170.405 498.836 128.99 530.007 106.715 530.007 C 102.965 530.007 101.09 529.002 100.1 528.237 C 87.62 519.226 110.12 472.072 124.94 440.916 C 145.34 398.17 164.615 357.748 154.055 329.576 C 149.315 316.981 134.135 308.435 103.025 291.868 C 70.28 274.415 20.825 248.042 20 222.988 C 22.4 220.589 34.4 214.907 65 214.907 C 191.21 214.907 204.275 201.848 210.605 195.52 C 228.77 177.378 234.635 141.814 240.785 104.211 C 247.28 64.733 254.675 19.993 275 19.993 Z  M 275 5 C 218.105 5 235.28 149.656 200 184.92 C 187.175 197.739 115.28 199.913 65 199.913 C 32.48 199.913 5 206.181 5 222.403 C 5 276.11 131.855 313.113 140 334.853 C 158 383.057 49.475 510.096 91.25 540.367 C 95.645 543.591 100.85 545 106.715 545 C 156.995 545 254.315 439.807 290 439.807 C 334.76 439.807 425.825 544.16 474.695 544.16 C 480.425 544.16 485.585 542.706 489.98 539.482 C 531.755 509.196 424.235 383.822 440 334.853 C 447.26 312.243 575 263.635 575 222.403 C 575 204.306 546.41 199.913 515 199.913 C 501.35 199.913 485.885 200.153 470.06 200.153 C 427.985 200.153 383.69 198.339 365 184.92 C 324.5 155.818 342.38 5 275 5 Z " fill="rgb(253,190,167)"/><path d=" M 260 267.383 C 260 279.804 249.926 289.873 237.5 289.873 C 225.074 289.873 215 279.804 215 267.383 C 215 254.963 225.074 244.893 237.5 244.893 C 249.926 244.893 260 254.963 260 267.383 Z  M 230 402.323 C 230 414.744 219.926 424.813 207.5 424.813 C 195.074 424.813 185 414.744 185 402.323 C 185 389.903 195.074 379.833 207.5 379.833 C 219.926 379.833 230 389.903 230 402.323 Z  M 380 252.39 C 380 264.811 369.926 274.88 357.5 274.88 C 345.074 274.88 335 264.811 335 252.39 C 335 239.969 345.074 229.9 357.5 229.9 C 369.926 229.9 380 239.969 380 252.39 Z  M 395 372.337 C 395 384.758 384.926 394.827 372.5 394.827 C 360.074 394.827 350 384.758 350 372.337 C 350 359.916 360.074 349.847 372.5 349.847 C 384.926 349.847 395 359.916 395 372.337 Z  M 320 349.847 C 320 366.408 306.569 379.833 290 379.833 C 273.431 379.833 260 366.408 260 349.847 C 260 333.286 273.431 319.86 290 319.86 C 306.569 319.86 320 333.286 320 349.847 Z " fill="rgb(253,190,167)"/></g><g style="isolation:isolate"><path d=" M 193.331 262.018 C 191.304 236.513 206.783 214.348 227.876 212.553 C 248.97 210.758 267.741 230.008 269.769 255.514 C 271.797 281.019 256.318 303.184 235.224 304.979 C 214.131 306.774 195.359 287.524 193.331 262.018 Z " fill="rgb(255,255,255)"/><path d=" M 218.414 265.917 C 218.073 258.198 224.063 251.655 231.783 251.314 C 239.502 250.973 246.045 256.963 246.386 264.683 C 246.727 272.402 240.737 278.945 233.017 279.286 C 225.298 279.627 218.755 273.637 218.414 265.917 Z " fill="rgb(0,0,0)"/><mask id="_mask_rmGSJu0uE9Al0L9LiYBW0E3fd6Spbwem"><path d=" M 270.08 263.243 C 270.065 262.696 270.022 262.144 269.973 261.589 C 269.013 232.438 250.328 209.825 228.109 212.149 C 204.815 213.031 189.372 239.081 194.609 268.898 C 194.694 269.845 194.975 270.723 195.109 271.649 C 216.09 234.274 241.605 231.533 270.08 263.243 L 270.08 263.243 Z " fill="white" stroke="none"/></mask><path d=" M 270.08 263.243 C 270.065 262.696 270.022 262.144 269.973 261.589 C 269.013 232.438 250.328 209.825 228.109 212.149 C 204.815 213.031 189.372 239.081 194.609 268.898 C 194.694 269.845 194.975 270.723 195.109 271.649 C 216.09 234.274 241.605 231.533 270.08 263.243 L 270.08 263.243 Z " fill="rgb(253,144,105)"/><path d=" M 270.08 263.243 C 270.065 262.696 270.022 262.144 269.973 261.589 C 269.013 232.438 250.328 209.825 228.109 212.149 C 204.815 213.031 189.372 239.081 194.609 268.898 C 194.694 269.845 194.975 270.723 195.109 271.649 C 216.09 234.274 241.605 231.533 270.08 263.243 L 270.08 263.243 Z " fill="rgb(253,144,105)" mask="url(#_mask_rmGSJu0uE9Al0L9LiYBW0E3fd6Spbwem)" vector-effect="non-scaling-stroke" stroke-width="2" stroke="rgb(253,190,167)" stroke-linejoin="miter" stroke-linecap="square" stroke-miterlimit="3"/><path d=" M 176 208.736 L 180.814 216.751 C 193.367 207.632 209.766 201.213 245.814 201.623 C 230.104 198.106 196.315 201.768 176 208.736 Z " fill="rgb(0,0,0)" vector-effect="non-scaling-stroke" stroke-width="1" stroke="rgb(0,0,0)" stroke-linejoin="miter" stroke-linecap="square" stroke-miterlimit="3"/><path d=" M 305.762 252.948 C 308.6 227.637 327.75 209.119 348.502 211.622 C 369.253 214.124 383.796 236.705 380.959 262.016 C 378.122 287.327 358.971 305.845 338.22 303.342 C 317.469 300.84 302.925 278.258 305.762 252.948 Z " fill="rgb(255,255,255)"/><path d=" M 328.967 261.257 C 330.15 253.622 337.308 248.384 344.943 249.567 C 352.578 250.75 357.816 257.908 356.633 265.543 C 355.45 273.178 348.292 278.416 340.657 277.233 C 333.022 276.05 327.784 268.892 328.967 261.257 Z " fill="rgb(0,0,0)"/><mask id="_mask_7BLxNaXp8qlUeeEoVkeKiMYQaGhANYYU"><path d=" M 380.414 268.812 C 380.503 268.275 380.889 267.129 380.945 266.578 C 386.416 239.102 371.602 214.494 348.762 211.149 C 324.559 209.394 304.993 230.97 305.945 259.078 C 305.849 260.018 305.99 260.898 305.945 261.828 C 333.682 231.101 358.768 233.367 380.006 268.606 L 380.414 268.812 Z " fill="white" stroke="none"/></mask><path d=" M 380.414 268.812 C 380.503 268.275 380.889 267.129 380.945 266.578 C 386.416 239.102 371.602 214.494 348.762 211.149 C 324.559 209.394 304.993 230.97 305.945 259.078 C 305.849 260.018 305.99 260.898 305.945 261.828 C 333.682 231.101 358.768 233.367 380.006 268.606 L 380.414 268.812 Z " fill="rgb(253,144,105)"/><path d=" M 380.414 268.812 C 380.503 268.275 380.889 267.129 380.945 266.578 C 386.416 239.102 371.602 214.494 348.762 211.149 C 324.559 209.394 304.993 230.97 305.945 259.078 C 305.849 260.018 305.99 260.898 305.945 261.828 C 333.682 231.101 358.768 233.367 380.006 268.606 L 380.414 268.812 Z " fill="rgb(253,144,105)" mask="url(#_mask_7BLxNaXp8qlUeeEoVkeKiMYQaGhANYYU)" vector-effect="non-scaling-stroke" stroke-width="2" stroke="rgb(253,190,167)" stroke-linejoin="miter" stroke-linecap="square" stroke-miterlimit="3"/><path d=" M 398 210.868 L 392.935 218.589 C 380.087 208.917 364.731 201.512 331.08 199.687 C 347.553 196.977 380.005 202.608 398 210.868 Z " fill="rgb(0,0,0)" vector-effect="non-scaling-stroke" stroke-width="1" stroke="rgb(0,0,0)" stroke-linejoin="miter" stroke-linecap="square" stroke-miterlimit="3"/><mask id="_mask_51ddwRp9Cq6oS6kfrjyjN980u2renZPB"><path d=" M 304.458 252.939 C 307.483 226.845 327.465 207.705 349.052 210.222 C 370.64 212.74 385.71 235.968 382.685 262.061 C 379.661 288.155 359.679 307.295 338.091 304.778 C 316.504 302.26 301.433 279.032 304.458 252.939 Z " fill="white" stroke="none"/></mask><path d=" M 304.458 252.939 C 307.483 226.845 327.465 207.705 349.052 210.222 C 370.64 212.74 385.71 235.968 382.685 262.061 C 379.661 288.155 359.679 307.295 338.091 304.778 C 316.504 302.26 301.433 279.032 304.458 252.939 Z " fill="none"/><path d=" M 304.458 252.939 C 307.483 226.845 327.465 207.705 349.052 210.222 C 370.64 212.74 385.71 235.968 382.685 262.061 C 379.661 288.155 359.679 307.295 338.091 304.778 C 316.504 302.26 301.433 279.032 304.458 252.939 Z " fill="none" mask="url(#_mask_51ddwRp9Cq6oS6kfrjyjN980u2renZPB)" vector-effect="non-scaling-stroke" stroke-width="6" stroke="rgb(253,190,167)" stroke-linejoin="miter" stroke-linecap="square" stroke-miterlimit="3"/><mask id="_mask_bqfZiSUAgH8ySLa58d1sFDZ5lI8QyfZ0"><path d=" M 192.195 262.041 C 190.045 235.887 205.911 213.203 227.604 211.418 C 249.297 209.633 268.655 229.418 270.805 255.572 C 272.955 281.726 257.089 304.409 235.396 306.194 C 213.703 307.98 194.345 288.195 192.195 262.041 Z " fill="white" stroke="none"/></mask><path d=" M 192.195 262.041 C 190.045 235.887 205.911 213.203 227.604 211.418 C 249.297 209.633 268.655 229.418 270.805 255.572 C 272.955 281.726 257.089 304.409 235.396 306.194 C 213.703 307.98 194.345 288.195 192.195 262.041 Z " fill="none"/><path d=" M 192.195 262.041 C 190.045 235.887 205.911 213.203 227.604 211.418 C 249.297 209.633 268.655 229.418 270.805 255.572 C 272.955 281.726 257.089 304.409 235.396 306.194 C 213.703 307.98 194.345 288.195 192.195 262.041 Z " fill="none" mask="url(#_mask_bqfZiSUAgH8ySLa58d1sFDZ5lI8QyfZ0)" vector-effect="non-scaling-stroke" stroke-width="6" stroke="rgb(253,190,167)" stroke-linejoin="miter" stroke-linecap="square" stroke-miterlimit="3"/></g></g></svg>