<?xml version="1.0" encoding="UTF-8" standalone="no"?><!-- Generator: Gravit.io --><svg xmlns="http://www.w3.org/2000/svg" xmlns:xlink="http://www.w3.org/1999/xlink" style="isolation:isolate" viewBox="0 0 580 550" width="580pt" height="550pt"><defs><clipPath id="_clipPath_iuLujgXRUYMGYQc3uA4NvnsTAPM9eUx8"><rect width="580" height="550"/></clipPath></defs><g clip-path="url(#_clipPath_iuLujgXRUYMGYQc3uA4NvnsTAPM9eUx8)"><g><path d=" M 275 19.993 C 300.02 19.993 309.275 56.307 319.655 107.614 C 327.32 145.623 334.535 181.532 356.21 197.11 C 377.135 212.103 416.855 215.147 470.06 215.147 C 478.265 215.147 486.41 215.087 494.255 215.027 C 501.455 214.967 508.445 214.907 515 214.907 C 554.555 214.907 560 222.403 560 222.403 C 560 238.626 509.84 268.493 482.9 284.551 C 448.385 305.092 430.16 316.457 425.705 330.22 C 416.675 358.288 435.725 397.75 455.885 439.567 C 470.99 470.903 493.79 518.222 481.19 527.368 C 480.14 528.118 478.325 529.167 474.68 529.167 C 454.76 529.167 419.075 502.179 387.62 478.34 C 349.7 449.582 316.955 424.813 290 424.813 C 269.675 424.813 243.95 443.375 203.69 473.722 C 170.405 498.836 128.99 530.007 106.715 530.007 C 102.965 530.007 101.09 529.002 100.1 528.237 C 87.62 519.226 110.12 472.072 124.94 440.916 C 145.34 398.17 164.615 357.748 154.055 329.576 C 149.315 316.981 134.135 308.435 103.025 291.868 C 70.28 274.415 20.825 248.042 20 222.988 C 22.4 220.589 34.4 214.907 65 214.907 C 191.21 214.907 204.275 201.848 210.605 195.52 C 228.77 177.378 234.635 141.814 240.785 104.211 C 247.28 64.733 254.675 19.993 275 19.993 Z  M 275 5 C 218.105 5 235.28 149.656 200 184.92 C 187.175 197.739 115.28 199.913 65 199.913 C 32.48 199.913 5 206.181 5 222.403 C 5 276.11 131.855 313.113 140 334.853 C 158 383.057 49.475 510.096 91.25 540.367 C 95.645 543.591 100.85 545 106.715 545 C 156.995 545 254.315 439.807 290 439.807 C 334.76 439.807 425.825 544.16 474.695 544.16 C 480.425 544.16 485.585 542.706 489.98 539.482 C 531.755 509.196 424.235 383.822 440 334.853 C 447.26 312.243 575 263.635 575 222.403 C 575 204.306 546.41 199.913 515 199.913 C 501.35 199.913 485.885 200.153 470.06 200.153 C 427.985 200.153 383.69 198.339 365 184.92 C 324.5 155.818 342.38 5 275 5 Z " fill="rgb(253,190,167)" vector-effect="non-scaling-stroke" stroke-width="10" stroke="rgb(0,0,0)" stroke-linejoin="miter" stroke-linecap="butt" stroke-miterlimit="4"/><path d=" M 106.715 537.503 C 102.26 537.503 98.63 536.499 95.645 534.34 C 78.185 521.625 99.395 477.065 118.205 437.693 C 137.825 396.401 156.455 357.403 147.035 332.215 C 143.285 322.139 128.165 313.773 99.515 298.48 C 62.75 278.928 12.5 252.09 12.5 222.403 C 12.5 215.207 28.91 207.41 65 207.41 C 188.105 207.41 200.6 194.936 205.325 190.243 C 221.795 173.795 227.42 139.415 233.405 103.041 C 240.725 58.526 248.285 12.497 275 12.497 C 308.105 12.497 317.72 60.116 327.035 106.145 C 334.355 142.639 341.33 177.124 360.605 191.007 C 381.005 205.656 425.3 207.65 470.105 207.65 C 478.265 207.65 486.41 207.59 494.195 207.53 C 501.47 207.47 508.445 207.41 515 207.41 C 548.345 207.41 567.5 212.853 567.5 222.403 C 567.5 242.899 520.805 270.727 486.755 290.983 C 454.76 310.084 436.49 321.389 432.845 332.574 C 424.76 357.688 443.165 395.876 462.68 436.298 C 481.73 475.821 503.285 520.561 485.585 533.455 C 482.585 535.629 479.03 536.679 474.635 536.679 C 452.195 536.679 417.035 510.036 383.045 484.322 C 347.78 457.559 314.45 432.31 290 432.31 C 271.13 432.31 242 454.275 208.205 479.689 C 172.22 506.812 131.51 537.503 106.715 537.503 Z " fill="rgb(253,144,105)"/><path d=" M 275 19.993 C 300.02 19.993 309.275 56.307 319.655 107.614 C 327.32 145.623 334.535 181.532 356.21 197.11 C 377.135 212.103 416.855 215.147 470.06 215.147 C 478.265 215.147 486.41 215.087 494.255 215.027 C 501.455 214.967 508.445 214.907 515 214.907 C 554.555 214.907 560 222.403 560 222.403 C 560 238.626 509.84 268.493 482.9 284.551 C 448.385 305.092 430.16 316.457 425.705 330.22 C 416.675 358.288 435.725 397.75 455.885 439.567 C 470.99 470.903 493.79 518.222 481.19 527.368 C 480.14 528.118 478.325 529.167 474.68 529.167 C 454.76 529.167 419.075 502.179 387.62 478.34 C 349.7 449.582 316.955 424.813 290 424.813 C 269.675 424.813 243.95 443.375 203.69 473.722 C 170.405 498.836 128.99 530.007 106.715 530.007 C 102.965 530.007 101.09 529.002 100.1 528.237 C 87.62 519.226 110.12 472.072 124.94 440.916 C 145.34 398.17 164.615 357.748 154.055 329.576 C 149.315 316.981 134.135 308.435 103.025 291.868 C 70.28 274.415 20.825 248.042 20 222.988 C 22.4 220.589 34.4 214.907 65 214.907 C 191.21 214.907 204.275 201.848 210.605 195.52 C 228.77 177.378 234.635 141.814 240.785 104.211 C 247.28 64.733 254.675 19.993 275 19.993 Z  M 275 5 C 218.105 5 235.28 149.656 200 184.92 C 187.175 197.739 115.28 199.913 65 199.913 C 32.48 199.913 5 206.181 5 222.403 C 5 276.11 131.855 313.113 140 334.853 C 158 383.057 49.475 510.096 91.25 540.367 C 95.645 543.591 100.85 545 106.715 545 C 156.995 545 254.315 439.807 290 439.807 C 334.76 439.807 425.825 544.16 474.695 544.16 C 480.425 544.16 485.585 542.706 489.98 539.482 C 531.755 509.196 424.235 383.822 440 334.853 C 447.26 312.243 575 263.635 575 222.403 C 575 204.306 546.41 199.913 515 199.913 C 501.35 199.913 485.885 200.153 470.06 200.153 C 427.985 200.153 383.69 198.339 365 184.92 C 324.5 155.818 342.38 5 275 5 Z " fill="rgb(253,190,167)"/><path d=" M 260 267.383 C 260 279.804 249.926 289.873 237.5 289.873 C 225.074 289.873 215 279.804 215 267.383 C 215 254.963 225.074 244.893 237.5 244.893 C 249.926 244.893 260 254.963 260 267.383 Z  M 230 402.323 C 230 414.744 219.926 424.813 207.5 424.813 C 195.074 424.813 185 414.744 185 402.323 C 185 389.903 195.074 379.833 207.5 379.833 C 219.926 379.833 230 389.903 230 402.323 Z  M 380 252.39 C 380 264.811 369.926 274.88 357.5 274.88 C 345.074 274.88 335 264.811 335 252.39 C 335 239.969 345.074 229.9 357.5 229.9 C 369.926 229.9 380 239.969 380 252.39 Z  M 395 372.337 C 395 384.758 384.926 394.827 372.5 394.827 C 360.074 394.827 350 384.758 350 372.337 C 350 359.916 360.074 349.847 372.5 349.847 C 384.926 349.847 395 359.916 395 372.337 Z  M 320 349.847 C 320 366.408 306.569 379.833 290 379.833 C 273.431 379.833 260 366.408 260 349.847 C 260 333.286 273.431 319.86 290 319.86 C 306.569 319.86 320 333.286 320 349.847 Z " fill="rgb(253,190,167)"/></g><g style="isolation:isolate"><path d=" M 192.328 262.1 C 190.171 236.747 205.453 214.809 226.431 213.14 C 247.41 211.472 266.193 230.7 268.349 256.052 C 270.505 281.405 255.224 303.343 234.245 305.012 C 213.266 306.681 194.484 287.453 192.328 262.1 Z " fill="rgb(255,255,255)"/><path d=" M 215.416 265.506 C 215.026 256.684 221.873 249.205 230.694 248.816 C 239.516 248.426 246.995 255.273 247.384 264.094 C 247.774 272.916 240.927 280.395 232.106 280.784 C 223.284 281.174 215.805 274.327 215.416 265.506 Z " fill="rgb(0,0,0)"/><mask id="_mask_ib1CoMpOJcNHBSLrnyETcwor9QFchi50"><path d=" M 269.469 263.375 C 269.453 262.845 269.332 262.037 269.281 261.5 C 268.175 233.13 249.498 211.456 226.944 213.805 C 202.982 215.007 188.278 239.879 193.89 268.438 C 193.977 269.356 194.082 270.265 194.22 271.163 C 196.609 248.467 201.729 236.819 213.875 228.092 C 223.641 222.501 236.916 220.635 247.367 226.536 C 257.907 231.842 265.871 249.461 269.656 263.094 L 269.469 263.375 Z " fill="white" stroke="none"/></mask><path d=" M 269.469 263.375 C 269.453 262.845 269.332 262.037 269.281 261.5 C 268.175 233.13 249.498 211.456 226.944 213.805 C 202.982 215.007 188.278 239.879 193.89 268.438 C 193.977 269.356 194.082 270.265 194.22 271.163 C 196.609 248.467 201.729 236.819 213.875 228.092 C 223.641 222.501 236.916 220.635 247.367 226.536 C 257.907 231.842 265.871 249.461 269.656 263.094 L 269.469 263.375 Z " fill="rgb(253,144,105)"/><path d=" M 269.469 263.375 C 269.453 262.845 269.332 262.037 269.281 261.5 C 268.175 233.13 249.498 211.456 226.944 213.805 C 202.982 215.007 188.278 239.879 193.89 268.438 C 193.977 269.356 194.082 270.265 194.22 271.163 C 196.609 248.467 201.729 236.819 213.875 228.092 C 223.641 222.501 236.916 220.635 247.367 226.536 C 257.907 231.842 265.871 249.461 269.656 263.094 L 269.469 263.375 Z " fill="rgb(253,144,105)" mask="url(#_mask_ib1CoMpOJcNHBSLrnyETcwor9QFchi50)" vector-effect="non-scaling-stroke" stroke-width="2" stroke="rgb(253,190,167)" stroke-linejoin="miter" stroke-linecap="square" stroke-miterlimit="3"/><path d=" M 175 212.74 L 177.546 217.341 C 192.389 211.776 209.244 205.917 244.044 203.853 C 225.417 201.982 195.818 206.378 175 212.74 Z " fill="rgb(0,0,0)" vector-effect="non-scaling-stroke" stroke-width="1" stroke="rgb(0,0,0)" stroke-linejoin="miter" stroke-linecap="square" stroke-miterlimit="3"/><path d=" M 304.476 253.483 C 307.562 228.037 327.074 209.274 348.021 211.608 C 368.967 213.943 383.467 236.497 380.381 261.944 C 377.295 287.39 357.783 306.153 336.836 303.819 C 315.89 301.484 301.39 278.929 304.476 253.483 Z " fill="rgb(255,255,255)"/><path d=" M 326.491 262.351 C 327.842 253.625 336.024 247.639 344.749 248.991 C 353.475 250.342 359.461 258.524 358.109 267.249 C 356.758 275.975 348.576 281.961 339.851 280.609 C 331.125 279.258 325.139 271.076 326.491 262.351 Z " fill="rgb(0,0,0)"/><mask id="_mask_dsClpgJItdeaUkD3lFyr8Fr1YzITsN8U"><path d=" M 379.906 267.781 C 379.997 267.267 380.13 266.528 380.188 266 C 385.576 239.187 370.659 214.873 347.563 212.141 C 324.415 209.74 304.902 230.743 304.344 258.407 C 304.245 259.308 304.296 260.046 304.25 260.937 C 310.626 240.461 316.906 232.062 329.6 223.501 C 344.106 216.422 355.76 219.834 365.251 229.003 C 372.68 237.086 378.755 252.318 379.601 267.604 L 379.906 267.781 Z " fill="white" stroke="none"/></mask><path d=" M 379.906 267.781 C 379.997 267.267 380.13 266.528 380.188 266 C 385.576 239.187 370.659 214.873 347.563 212.141 C 324.415 209.74 304.902 230.743 304.344 258.407 C 304.245 259.308 304.296 260.046 304.25 260.937 C 310.626 240.461 316.906 232.062 329.6 223.501 C 344.106 216.422 355.76 219.834 365.251 229.003 C 372.68 237.086 378.755 252.318 379.601 267.604 L 379.906 267.781 Z " fill="rgb(253,144,105)"/><path d=" M 379.906 267.781 C 379.997 267.267 380.13 266.528 380.188 266 C 385.576 239.187 370.659 214.873 347.563 212.141 C 324.415 209.74 304.902 230.743 304.344 258.407 C 304.245 259.308 304.296 260.046 304.25 260.937 C 310.626 240.461 316.906 232.062 329.6 223.501 C 344.106 216.422 355.76 219.834 365.251 229.003 C 372.68 237.086 378.755 252.318 379.601 267.604 L 379.906 267.781 Z " fill="rgb(253,144,105)" mask="url(#_mask_dsClpgJItdeaUkD3lFyr8Fr1YzITsN8U)" vector-effect="non-scaling-stroke" stroke-width="2" stroke="rgb(253,190,167)" stroke-linejoin="miter" stroke-linecap="square" stroke-miterlimit="3"/><path d=" M 397 207.876 L 393.121 213.882 C 379.896 209.746 363.916 203.492 329.161 199.006 C 348.097 198.833 378.621 202.486 397 207.876 Z " fill="rgb(0,0,0)" vector-effect="non-scaling-stroke" stroke-width="1" stroke="rgb(0,0,0)" stroke-linejoin="miter" stroke-linecap="square" stroke-miterlimit="3"/><mask id="_mask_hpzqEBle9tNP2ieWrzi7UuoqzdQH0Wi9"><path d=" M 303.486 252.939 C 306.511 226.845 326.493 207.705 348.081 210.222 C 369.668 212.74 384.739 235.968 381.714 262.061 C 378.689 288.155 358.707 307.295 337.119 304.778 C 315.532 302.26 300.461 279.032 303.486 252.939 Z " fill="white" stroke="none"/></mask><path d=" M 303.486 252.939 C 306.511 226.845 326.493 207.705 348.081 210.222 C 369.668 212.74 384.739 235.968 381.714 262.061 C 378.689 288.155 358.707 307.295 337.119 304.778 C 315.532 302.26 300.461 279.032 303.486 252.939 Z " fill="none"/><path d=" M 303.486 252.939 C 306.511 226.845 326.493 207.705 348.081 210.222 C 369.668 212.74 384.739 235.968 381.714 262.061 C 378.689 288.155 358.707 307.295 337.119 304.778 C 315.532 302.26 300.461 279.032 303.486 252.939 Z " fill="none" mask="url(#_mask_hpzqEBle9tNP2ieWrzi7UuoqzdQH0Wi9)" vector-effect="non-scaling-stroke" stroke-width="6" stroke="rgb(253,190,167)" stroke-linejoin="miter" stroke-linecap="square" stroke-miterlimit="3"/><mask id="_mask_OmqGnEKDniyTLD1jDmEdXJBlwy52TAZq"><path d=" M 191.195 262.424 C 189.045 236.269 204.911 213.586 226.604 211.801 C 248.297 210.016 267.655 229.801 269.805 255.955 C 271.955 282.109 256.089 304.792 234.396 306.577 C 212.703 308.362 193.345 288.578 191.195 262.424 Z " fill="white" stroke="none"/></mask><path d=" M 191.195 262.424 C 189.045 236.269 204.911 213.586 226.604 211.801 C 248.297 210.016 267.655 229.801 269.805 255.955 C 271.955 282.109 256.089 304.792 234.396 306.577 C 212.703 308.362 193.345 288.578 191.195 262.424 Z " fill="none"/><path d=" M 191.195 262.424 C 189.045 236.269 204.911 213.586 226.604 211.801 C 248.297 210.016 267.655 229.801 269.805 255.955 C 271.955 282.109 256.089 304.792 234.396 306.577 C 212.703 308.362 193.345 288.578 191.195 262.424 Z " fill="none" mask="url(#_mask_OmqGnEKDniyTLD1jDmEdXJBlwy52TAZq)" vector-effect="non-scaling-stroke" stroke-width="6" stroke="rgb(253,190,167)" stroke-linejoin="miter" stroke-linecap="square" stroke-miterlimit="3"/></g></g></svg>