<?xml version="1.0" encoding="UTF-8" standalone="no"?><!-- Generator: Gravit.io --><svg xmlns="http://www.w3.org/2000/svg" xmlns:xlink="http://www.w3.org/1999/xlink" style="isolation:isolate" viewBox="0 0 577 547" width="577pt" height="547pt"><defs><clipPath id="_clipPath_MRy9kjiXIC3lPVLiTQhWLrpI85ETfYwX"><rect width="577" height="547"/></clipPath></defs><g clip-path="url(#_clipPath_MRy9kjiXIC3lPVLiTQhWLrpI85ETfYwX)"><defs><filter id="ItTdlq6lFGbJmbiph3IPS9jZl3ZOJhAM" x="-200%" y="-200%" width="400%" height="400%" filterUnits="objectBoundingBox" color-interpolation-filters="sRGB"><feGaussianBlur xmlns="http://www.w3.org/2000/svg" stdDeviation="1.3739549001084892"/></filter></defs><g filter="url(#ItTdlq6lFGbJmbiph3IPS9jZl3ZOJhAM)"><path d=" M 271.5 18.993 C 296.52 18.993 305.775 55.307 316.155 106.614 C 323.82 144.622 331.035 180.532 352.71 196.11 C 373.635 211.103 413.355 214.147 466.56 214.147 C 474.765 214.147 482.91 214.087 490.755 214.027 C 497.955 213.967 504.945 213.907 511.5 213.907 C 551.055 213.907 556.5 221.403 556.5 221.403 C 556.5 237.626 506.34 267.493 479.4 283.551 C 444.885 304.092 426.66 315.457 422.205 329.22 C 413.175 357.288 432.225 396.75 452.385 438.567 C 467.49 469.903 490.29 517.222 477.69 526.368 C 476.64 527.117 474.825 528.167 471.18 528.167 C 451.26 528.167 415.575 501.179 384.12 477.34 C 346.2 448.582 313.455 423.813 286.5 423.813 C 266.175 423.813 240.45 442.375 200.19 472.722 C 166.905 497.836 125.49 529.007 103.215 529.007 C 99.465 529.007 97.59 528.002 96.6 527.237 C 84.12 518.226 106.62 471.072 121.44 439.916 C 141.84 397.17 161.115 356.748 150.555 328.576 C 145.815 315.981 130.635 307.435 99.525 290.867 C 66.78 273.415 17.325 247.042 16.5 221.988 C 18.9 219.589 30.9 213.907 61.5 213.907 C 187.71 213.907 200.775 200.848 207.105 194.52 C 225.27 176.378 231.135 140.814 237.285 103.211 C 243.78 63.733 251.175 18.993 271.5 18.993 Z  M 271.5 4 C 214.605 4 231.78 148.656 196.5 183.92 C 183.675 196.739 111.78 198.913 61.5 198.913 C 28.98 198.913 1.5 205.181 1.5 221.403 C 1.5 275.11 128.355 312.113 136.5 333.853 C 154.5 382.057 45.975 509.096 87.75 539.367 C 92.145 542.591 97.35 544 103.215 544 C 153.495 544 250.815 438.807 286.5 438.807 C 331.26 438.807 422.325 543.16 471.195 543.16 C 476.925 543.16 482.085 541.706 486.48 538.482 C 528.255 508.196 420.735 382.822 436.5 333.853 C 443.76 311.243 571.5 262.635 571.5 221.403 C 571.5 203.306 542.91 198.913 511.5 198.913 C 497.85 198.913 482.385 199.153 466.56 199.153 C 424.485 199.153 380.19 197.339 361.5 183.92 C 321 154.818 338.88 4 271.5 4 Z " fill="rgb(49,49,49)" fill-opacity="0.44"/></g><g><path d=" M 275 14.993 C 300.02 14.993 309.275 51.307 319.655 102.614 C 327.32 140.622 334.535 176.532 356.21 192.11 C 377.135 207.103 416.855 210.147 470.06 210.147 C 478.265 210.147 486.41 210.087 494.255 210.027 C 501.455 209.967 508.445 209.907 515 209.907 C 554.555 209.907 560 217.403 560 217.403 C 560 233.626 509.84 263.493 482.9 279.551 C 448.385 300.092 430.16 311.457 425.705 325.22 C 416.675 353.288 435.725 392.75 455.885 434.567 C 470.99 465.903 493.79 513.222 481.19 522.368 C 480.14 523.117 478.325 524.167 474.68 524.167 C 454.76 524.167 419.075 497.179 387.62 473.34 C 349.7 444.582 316.955 419.813 290 419.813 C 269.675 419.813 243.95 438.375 203.69 468.722 C 170.405 493.836 128.99 525.007 106.715 525.007 C 102.965 525.007 101.09 524.002 100.1 523.237 C 87.62 514.226 110.12 467.072 124.94 435.916 C 145.34 393.17 164.615 352.748 154.055 324.576 C 149.315 311.981 134.135 303.435 103.025 286.867 C 70.28 269.415 20.825 243.042 20 217.988 C 22.4 215.589 34.4 209.907 65 209.907 C 191.21 209.907 204.275 196.848 210.605 190.52 C 228.77 172.378 234.635 136.814 240.785 99.211 C 247.28 59.733 254.675 14.993 275 14.993 Z  M 275 0 C 218.105 0 235.28 144.656 200 179.92 C 187.175 192.739 115.28 194.913 65 194.913 C 32.48 194.913 5 201.181 5 217.403 C 5 271.11 131.855 308.113 140 329.853 C 158 378.057 49.475 505.096 91.25 535.367 C 95.645 538.591 100.85 540 106.715 540 C 156.995 540 254.315 434.807 290 434.807 C 334.76 434.807 425.825 539.16 474.695 539.16 C 480.425 539.16 485.585 537.706 489.98 534.482 C 531.755 504.196 424.235 378.822 440 329.853 C 447.26 307.243 575 258.635 575 217.403 C 575 199.306 546.41 194.913 515 194.913 C 501.35 194.913 485.885 195.153 470.06 195.153 C 427.985 195.153 383.69 193.339 365 179.92 C 324.5 150.818 342.38 0 275 0 Z " fill="rgb(253,190,167)" vector-effect="non-scaling-stroke" stroke-width="10" stroke="rgb(0,0,0)" stroke-linejoin="miter" stroke-linecap="butt" stroke-miterlimit="4"/><path d=" M 106.715 532.503 C 102.26 532.503 98.63 531.499 95.645 529.34 C 78.185 516.625 99.395 472.065 118.205 432.693 C 137.825 391.401 156.455 352.403 147.035 327.215 C 143.285 317.139 128.165 308.773 99.515 293.48 C 62.75 273.928 12.5 247.09 12.5 217.403 C 12.5 210.207 28.91 202.41 65 202.41 C 188.105 202.41 200.6 189.936 205.325 185.243 C 221.795 168.795 227.42 134.415 233.405 98.041 C 240.725 53.526 248.285 7.497 275 7.497 C 308.105 7.497 317.72 55.116 327.035 101.145 C 334.355 137.639 341.33 172.123 360.605 186.007 C 381.005 200.656 425.3 202.65 470.105 202.65 C 478.265 202.65 486.41 202.59 494.195 202.53 C 501.47 202.47 508.445 202.41 515 202.41 C 548.345 202.41 567.5 207.853 567.5 217.403 C 567.5 237.899 520.805 265.727 486.755 285.983 C 454.76 305.084 436.49 316.389 432.845 327.574 C 424.76 352.688 443.165 390.876 462.68 431.298 C 481.73 470.821 503.285 515.561 485.585 528.455 C 482.585 530.629 479.03 531.679 474.635 531.679 C 452.195 531.679 417.035 505.036 383.045 479.322 C 347.78 452.559 314.45 427.31 290 427.31 C 271.13 427.31 242 449.275 208.205 474.689 C 172.22 501.812 131.51 532.503 106.715 532.503 Z " fill="rgb(253,144,105)"/><path d=" M 275 14.993 C 300.02 14.993 309.275 51.307 319.655 102.614 C 327.32 140.622 334.535 176.532 356.21 192.11 C 377.135 207.103 416.855 210.147 470.06 210.147 C 478.265 210.147 486.41 210.087 494.255 210.027 C 501.455 209.967 508.445 209.907 515 209.907 C 554.555 209.907 560 217.403 560 217.403 C 560 233.626 509.84 263.493 482.9 279.551 C 448.385 300.092 430.16 311.457 425.705 325.22 C 416.675 353.288 435.725 392.75 455.885 434.567 C 470.99 465.903 493.79 513.222 481.19 522.368 C 480.14 523.117 478.325 524.167 474.68 524.167 C 454.76 524.167 419.075 497.179 387.62 473.34 C 349.7 444.582 316.955 419.813 290 419.813 C 269.675 419.813 243.95 438.375 203.69 468.722 C 170.405 493.836 128.99 525.007 106.715 525.007 C 102.965 525.007 101.09 524.002 100.1 523.237 C 87.62 514.226 110.12 467.072 124.94 435.916 C 145.34 393.17 164.615 352.748 154.055 324.576 C 149.315 311.981 134.135 303.435 103.025 286.867 C 70.28 269.415 20.825 243.042 20 217.988 C 22.4 215.589 34.4 209.907 65 209.907 C 191.21 209.907 204.275 196.848 210.605 190.52 C 228.77 172.378 234.635 136.814 240.785 99.211 C 247.28 59.733 254.675 14.993 275 14.993 Z  M 275 0 C 218.105 0 235.28 144.656 200 179.92 C 187.175 192.739 115.28 194.913 65 194.913 C 32.48 194.913 5 201.181 5 217.403 C 5 271.11 131.855 308.113 140 329.853 C 158 378.057 49.475 505.096 91.25 535.367 C 95.645 538.591 100.85 540 106.715 540 C 156.995 540 254.315 434.807 290 434.807 C 334.76 434.807 425.825 539.16 474.695 539.16 C 480.425 539.16 485.585 537.706 489.98 534.482 C 531.755 504.196 424.235 378.822 440 329.853 C 447.26 307.243 575 258.635 575 217.403 C 575 199.306 546.41 194.913 515 194.913 C 501.35 194.913 485.885 195.153 470.06 195.153 C 427.985 195.153 383.69 193.339 365 179.92 C 324.5 150.818 342.38 0 275 0 Z " fill="rgb(253,190,167)"/><path d=" M 260 262.383 C 260 274.804 249.926 284.873 237.5 284.873 C 225.074 284.873 215 274.804 215 262.383 C 215 249.963 225.074 239.893 237.5 239.893 C 249.926 239.893 260 249.963 260 262.383 Z  M 230 397.323 C 230 409.744 219.926 419.813 207.5 419.813 C 195.074 419.813 185 409.744 185 397.323 C 185 384.903 195.074 374.833 207.5 374.833 C 219.926 374.833 230 384.903 230 397.323 Z  M 380 247.39 C 380 259.811 369.926 269.88 357.5 269.88 C 345.074 269.88 335 259.811 335 247.39 C 335 234.969 345.074 224.9 357.5 224.9 C 369.926 224.9 380 234.969 380 247.39 Z  M 395 367.337 C 395 379.758 384.926 389.827 372.5 389.827 C 360.074 389.827 350 379.758 350 367.337 C 350 354.916 360.074 344.847 372.5 344.847 C 384.926 344.847 395 354.916 395 367.337 Z  M 320 344.847 C 320 361.408 306.569 374.833 290 374.833 C 273.431 374.833 260 361.408 260 344.847 C 260 328.286 273.431 314.86 290 314.86 C 306.569 314.86 320 328.286 320 344.847 Z " fill="rgb(253,190,167)"/></g><g style="isolation:isolate"><path d=" M 191.592 257.039 C 189.468 231.16 205.134 208.715 226.552 206.949 C 247.97 205.183 267.083 224.759 269.206 250.638 C 271.329 276.517 255.664 298.961 234.246 300.728 C 212.827 302.494 193.715 282.918 191.592 257.039 Z " fill="rgb(255,255,255)"/><line x1="199.973" y1="261.865" x2="262.8" y2="255.12" vector-effect="non-scaling-stroke" stroke-width="0.5" stroke="rgb(71,136,199)" stroke-linejoin="miter" stroke-linecap="square" stroke-miterlimit="3"/><path d=" M 217.366 260.917 C 217.025 253.198 223.016 246.655 230.735 246.314 C 238.454 245.973 244.998 251.963 245.338 259.683 C 245.679 267.402 239.689 273.945 231.97 274.286 C 224.251 274.627 217.707 268.636 217.366 260.917 Z " fill="rgb(0,0,0)"/><mask id="_mask_BfPJrNl8udf3uMiKsNPo2QNvkV8hZo9V"><path d=" M 268.418 256.685 C 268.403 256.155 268.36 255.621 268.31 255.084 C 268.161 227.553 249.373 206.499 226.336 208.05 C 203.078 211.245 188.471 235.422 193.694 261.964 C 193.779 262.881 193.881 263.789 194.015 264.686 L 268.418 256.685 L 268.418 256.685 Z " fill="white" stroke="none"/></mask><path d=" M 268.418 256.685 C 268.403 256.155 268.36 255.621 268.31 255.084 C 268.161 227.553 249.373 206.499 226.336 208.05 C 203.078 211.245 188.471 235.422 193.694 261.964 C 193.779 262.881 193.881 263.789 194.015 264.686 L 268.418 256.685 L 268.418 256.685 Z " fill="rgb(253,144,105)"/><path d=" M 268.418 256.685 C 268.403 256.155 268.36 255.621 268.31 255.084 C 268.161 227.553 249.373 206.499 226.336 208.05 C 203.078 211.245 188.471 235.422 193.694 261.964 C 193.779 262.881 193.881 263.789 194.015 264.686 L 268.418 256.685 L 268.418 256.685 Z " fill="rgb(253,144,105)" mask="url(#_mask_BfPJrNl8udf3uMiKsNPo2QNvkV8hZo9V)" vector-effect="non-scaling-stroke" stroke-width="2" stroke="rgb(253,190,167)" stroke-linejoin="miter" stroke-linecap="square" stroke-miterlimit="3"/><path d=" M 175 213.191 L 176.416 214.676 C 179.285 217.683 184.094 217.837 187.149 215.02 C 196.9 206.029 214.412 197.291 252.905 195.629 C 233.443 193.912 195.722 202.589 175 213.191 Z " fill="rgb(0,0,0)" vector-effect="non-scaling-stroke" stroke-width="1" stroke="rgb(0,0,0)" stroke-linejoin="miter" stroke-linecap="square" stroke-miterlimit="3"/><line x1="310.771" y1="253.681" x2="373.283" y2="259.361" vector-effect="non-scaling-stroke" stroke-width="0.5" stroke="rgb(71,136,199)" stroke-linejoin="miter" stroke-linecap="square" stroke-miterlimit="3"/><path d=" M 304.745 247.933 C 307.705 222.341 327.103 203.55 348.034 205.997 C 368.966 208.443 383.557 231.206 380.596 256.798 C 377.636 282.389 358.239 301.18 337.307 298.734 C 316.375 296.288 301.785 273.524 304.745 247.933 Z " fill="rgb(255,255,255)"/><path d=" M 327.92 256.209 C 329.102 248.575 336.261 243.336 343.896 244.519 C 351.531 245.702 356.769 252.861 355.586 260.496 C 354.403 268.13 347.244 273.369 339.61 272.186 C 331.975 271.003 326.737 263.844 327.92 256.209 Z " fill="rgb(0,0,0)"/><path d=" M 397 211.78 L 395.584 213.265 C 392.715 216.272 387.906 216.426 384.851 213.609 C 375.1 204.618 357.588 195.88 319.095 194.218 C 338.557 192.501 376.278 201.178 397 211.78 Z " fill="rgb(0,0,0)" vector-effect="non-scaling-stroke" stroke-width="1" stroke="rgb(0,0,0)" stroke-linejoin="miter" stroke-linecap="square" stroke-miterlimit="3"/><mask id="_mask_ozFLTfizBf4QsJmlNRgcSoFcdtV23VBV"><path d=" M 378.359 261.937 C 378.448 261.418 378.537 260.971 378.594 260.438 C 384.292 234.137 369.948 209.86 346.883 206.327 C 323.688 205.298 304.503 226.081 304.438 252.61 C 304.341 253.52 304.601 254.381 304.555 255.281 L 378.124 261.945 L 378.359 261.937 Z " fill="white" stroke="none"/></mask><path d=" M 378.359 261.937 C 378.448 261.418 378.537 260.971 378.594 260.438 C 384.292 234.137 369.948 209.86 346.883 206.327 C 323.688 205.298 304.503 226.081 304.438 252.61 C 304.341 253.52 304.601 254.381 304.555 255.281 L 378.124 261.945 L 378.359 261.937 Z " fill="rgb(253,144,105)"/><path d=" M 378.359 261.937 C 378.448 261.418 378.537 260.971 378.594 260.438 C 384.292 234.137 369.948 209.86 346.883 206.327 C 323.688 205.298 304.503 226.081 304.438 252.61 C 304.341 253.52 304.601 254.381 304.555 255.281 L 378.124 261.945 L 378.359 261.937 Z " fill="rgb(253,144,105)" mask="url(#_mask_ozFLTfizBf4QsJmlNRgcSoFcdtV23VBV)" vector-effect="non-scaling-stroke" stroke-width="2" stroke="rgb(253,190,167)" stroke-linejoin="miter" stroke-linecap="square" stroke-miterlimit="3"/><mask id="_mask_j9bDVc8wFZSnbnvhZ9uzBBK6MCDCuP9l"><path d=" M 303.486 247.939 C 306.511 221.845 326.493 202.705 348.081 205.222 C 369.668 207.74 384.739 230.968 381.714 257.061 C 378.689 283.155 358.707 302.295 337.119 299.778 C 315.532 297.26 300.461 274.032 303.486 247.939 Z " fill="white" stroke="none"/></mask><path d=" M 303.486 247.939 C 306.511 221.845 326.493 202.705 348.081 205.222 C 369.668 207.74 384.739 230.968 381.714 257.061 C 378.689 283.155 358.707 302.295 337.119 299.778 C 315.532 297.26 300.461 274.032 303.486 247.939 Z " fill="none"/><path d=" M 303.486 247.939 C 306.511 221.845 326.493 202.705 348.081 205.222 C 369.668 207.74 384.739 230.968 381.714 257.061 C 378.689 283.155 358.707 302.295 337.119 299.778 C 315.532 297.26 300.461 274.032 303.486 247.939 Z " fill="none" mask="url(#_mask_j9bDVc8wFZSnbnvhZ9uzBBK6MCDCuP9l)" vector-effect="non-scaling-stroke" stroke-width="6" stroke="rgb(253,190,167)" stroke-linejoin="miter" stroke-linecap="square" stroke-miterlimit="3"/><mask id="_mask_kCS2Hu8bhc8quKi5vgJP9zIITkyuylVP"><path d=" M 191.172 257.377 C 189.022 231.223 204.888 208.54 226.581 206.755 C 248.274 204.969 267.632 224.754 269.782 250.908 C 271.932 277.062 256.066 299.746 234.373 301.531 C 212.68 303.316 193.322 283.531 191.172 257.377 Z " fill="white" stroke="none"/></mask><path d=" M 191.172 257.377 C 189.022 231.223 204.888 208.54 226.581 206.755 C 248.274 204.969 267.632 224.754 269.782 250.908 C 271.932 277.062 256.066 299.746 234.373 301.531 C 212.68 303.316 193.322 283.531 191.172 257.377 Z " fill="none"/><path d=" M 191.172 257.377 C 189.022 231.223 204.888 208.54 226.581 206.755 C 248.274 204.969 267.632 224.754 269.782 250.908 C 271.932 277.062 256.066 299.746 234.373 301.531 C 212.68 303.316 193.322 283.531 191.172 257.377 Z " fill="none" mask="url(#_mask_kCS2Hu8bhc8quKi5vgJP9zIITkyuylVP)" vector-effect="non-scaling-stroke" stroke-width="6" stroke="rgb(253,190,167)" stroke-linejoin="miter" stroke-linecap="square" stroke-miterlimit="3"/></g></g></svg>