<?xml version="1.0" encoding="UTF-8" standalone="no"?><!-- Generator: Gravit.io --><svg xmlns="http://www.w3.org/2000/svg" xmlns:xlink="http://www.w3.org/1999/xlink" style="isolation:isolate" viewBox="0 0 350 510" width="350pt" height="510pt"><defs><clipPath id="_clipPath_N33vUhab4IhzufZBxu1aMSyjF0Iv7944"><rect width="350" height="510"/></clipPath></defs><g clip-path="url(#_clipPath_N33vUhab4IhzufZBxu1aMSyjF0Iv7944)"><path d=" M 43.03 470.685 L 43.558 470.215 L 348 499.677 L 348 499.677 L 348 509 L 104.813 509 L 43.03 470.685 L 43.03 470.685 Z " fill="rgb(236,164,0)" vector-effect="non-scaling-stroke" stroke-width="1" stroke="rgb(0,0,0)" stroke-linejoin="miter" stroke-linecap="square" stroke-miterlimit="3"/><path d=" M 43.03 470.685 L 0 509 L 104.813 509 L 43.03 470.685 L 43.03 470.685 Z " fill="rgb(0,105,146)" vector-effect="non-scaling-stroke" stroke-width="1" stroke="rgb(0,0,0)" stroke-linejoin="miter" stroke-linecap="square" stroke-miterlimit="3"/><path d=" M 348 499.677 L 348 275.059 L 348 275.059 L 314.845 372.573 L 307 456 Q 117 481 108 456 Q 99 431 73 444 L 43.558 470.215 L 348 499.677 L 348 499.677 Z " fill="rgb(0,29,74)" vector-effect="non-scaling-stroke" stroke-width="1" stroke="rgb(0,0,0)" stroke-linejoin="miter" stroke-linecap="square" stroke-miterlimit="3"/><path d=" M 348 275.059 L 348 265.361 L 348 265.361 L 327.058 242.702 L 314.845 372.573 L 348 275.059 L 348 275.059 Z " fill="rgb(154,205,50)" vector-effect="non-scaling-stroke" stroke-width="1" stroke="rgb(0,0,0)" stroke-linejoin="miter" stroke-linecap="square" stroke-miterlimit="3"/><path d=" M 348 265.361 L 348 20 L 327.058 242.702 L 348 265.361 L 348 265.361 Z " fill="rgb(39,71,110)" vector-effect="non-scaling-stroke" stroke-width="1" stroke="rgb(0,0,0)" stroke-linejoin="miter" stroke-linecap="square" stroke-miterlimit="3"/></g></svg>